<svg width="23" height="271" viewBox="0 0 23 271" fill="none" xmlns="http://www.w3.org/2000/svg">
<path d="M5.934 8.765V16.907H4.301V10.375H0.943V8.765H5.934ZM5.934 16.217C7.061 17.919 9.039 18.701 11.753 18.793C14.283 18.908 19.596 18.839 22.356 18.655C22.149 19.046 21.896 19.851 21.804 20.357C19.251 20.472 14.329 20.518 11.753 20.403C8.74 20.288 6.647 19.483 5.221 17.666C4.048 18.655 2.806 19.667 1.495 20.656L0.644 18.954C1.794 18.241 3.22 17.206 4.439 16.217H5.934ZM1.334 1.29L2.53 0.208999C4.002 1.244 5.727 2.808 6.486 3.935L5.175 5.131C4.462 4.004 2.783 2.371 1.334 1.29ZM10.534 3.544L11.638 2.578C13.8 3.337 16.698 4.602 18.239 5.522L17.066 6.603C15.617 5.706 12.765 4.395 10.534 3.544ZM8.349 5.476H20.24V6.81H9.982V17.39H8.349V5.476ZM19.412 5.476H21.068V15.665C21.068 16.516 20.907 16.907 20.286 17.16C19.688 17.436 18.722 17.436 17.181 17.436C17.112 16.999 16.905 16.401 16.698 16.01C17.779 16.056 18.745 16.033 19.044 16.033C19.343 16.033 19.412 15.941 19.412 15.642V5.476ZM8.349 0.645999H19.826V2.026H8.349V0.645999ZM9.246 8.834H20.079V10.122H9.246V8.834ZM9.246 12.215H20.079V13.549H9.246V12.215ZM13.846 6.028H15.41V17.298H13.846V6.028ZM19.251 0.645999H19.642L20.01 0.553999L21.068 1.382C19.527 2.831 17.204 4.257 15.111 5.131C14.881 4.832 14.444 4.372 14.191 4.119C16.077 3.383 18.216 2.049 19.251 0.967999V0.645999ZM1.794 26.198L3.128 25.324C4.416 26.474 5.934 28.084 6.647 29.142L5.221 30.177C4.554 29.073 3.082 27.394 1.794 26.198ZM6.003 33.305V41.677H4.324V34.938H1.127V33.305H6.003ZM5.129 40.78C5.911 40.78 6.44 41.47 7.728 42.252C9.223 43.195 11.178 43.356 13.754 43.356C16.468 43.356 19.941 43.172 22.172 42.919C21.942 43.402 21.666 44.276 21.643 44.805C20.01 44.897 15.916 45.012 13.731 45.012C10.856 45.012 8.924 44.782 7.337 43.77C6.348 43.149 5.612 42.39 5.106 42.39C4.324 42.39 3.22 43.747 2.047 45.311L0.828 43.701C2.415 41.976 3.979 40.78 5.129 40.78ZM7.636 28.843H21.482V30.476H7.636V28.843ZM16.537 24.772H18.308V39.607C18.308 40.78 17.986 41.286 17.158 41.562C16.376 41.838 14.973 41.884 12.788 41.884C12.719 41.378 12.42 40.619 12.167 40.113C13.869 40.159 15.456 40.159 15.916 40.159C16.376 40.113 16.537 39.998 16.537 39.584V24.772ZM8.74 33.029L10.12 32.293C11.293 33.696 12.742 35.605 13.409 36.801L11.96 37.698C11.339 36.479 9.913 34.478 8.74 33.029ZM6.877 55.89L8.579 56.419C6.969 59.616 4.485 62.675 2.047 64.653C1.748 64.354 1.035 63.733 0.621 63.457C3.105 61.663 5.451 58.834 6.877 55.89ZM11.753 56.097H13.455V67.735C13.455 68.701 13.685 68.885 14.858 68.885C15.433 68.885 18.285 68.885 19.021 68.885C20.125 68.885 20.309 68.287 20.447 65.32C20.838 65.619 21.551 65.918 22.011 66.033C21.781 69.506 21.275 70.518 19.113 70.518C18.607 70.518 15.226 70.518 14.72 70.518C12.397 70.518 11.753 69.92 11.753 67.712V56.097ZM19.734 58.098L21.068 59.409C18.906 60.835 15.755 62.238 12.972 63.365C12.88 62.997 12.581 62.422 12.351 62.077C15.019 60.973 18.009 59.432 19.734 58.098ZM1.357 51.796H21.597V53.452H1.357V51.796ZM6.9 49.68H8.602V55.89H6.9V49.68ZM14.444 49.68H16.146V56.028H14.444V49.68ZM4.968 60.26L6.647 58.558V58.581V70.84H4.968V60.26ZM6.923 75.577H15.571V77.164H6.923V75.577ZM6.049 75.577H7.774V78.682C7.774 81.143 6.808 83.857 2.3 85.467C2.116 85.076 1.587 84.317 1.288 84.041C5.405 82.638 6.049 80.591 6.049 78.636V75.577ZM14.72 75.577H16.445V81.419C16.445 82.04 16.537 82.132 17.227 82.132C17.526 82.132 18.998 82.132 19.389 82.132C20.056 82.132 20.171 81.718 20.24 78.935C20.608 79.234 21.321 79.51 21.781 79.648C21.643 82.914 21.183 83.719 19.573 83.719C19.182 83.719 17.365 83.719 16.997 83.719C15.226 83.719 14.72 83.213 14.72 81.442V75.577ZM1.242 86.778H21.758V88.319H1.242V86.778ZM10.58 83.926H12.305V95.84H10.58V83.926ZM9.798 87.491L11.109 88.066C9.039 91.079 5.359 93.747 2.001 95.104C1.748 94.667 1.242 94.046 0.851 93.701C4.209 92.574 7.889 90.113 9.798 87.491ZM13.087 87.491C14.973 90.09 18.676 92.459 22.149 93.54C21.758 93.885 21.252 94.529 20.976 94.966C17.526 93.678 13.823 91.033 11.776 88.066L13.087 87.491ZM12.834 116.263H19.964V117.919H12.834V116.263ZM12.19 101.842H20.769V119.667H19.021V103.475H13.869V119.828H12.19V101.842ZM5.658 101.635H7.383V120.817H5.658V101.635ZM1.15 106.488H11.408V108.098H1.15V106.488ZM5.566 107.063L6.785 107.5C5.704 111.065 3.588 115.32 1.518 117.528C1.334 117.045 0.897 116.355 0.598 115.941C2.53 113.963 4.646 110.237 5.566 107.063ZM10.074 99.91L11.247 101.244C8.786 102.164 5.014 102.831 1.863 103.199C1.771 102.808 1.564 102.233 1.357 101.842C4.416 101.428 8.073 100.738 10.074 99.91ZM7.245 108.558C7.981 109.294 10.649 112.422 11.247 113.181L10.189 114.584C9.453 113.365 7.222 110.421 6.371 109.409L7.245 108.558ZM11.339 126.474H19.987V128.13H11.339V126.474ZM19.412 126.474H19.711L20.01 126.382L21.137 126.704C19.895 136.801 15.893 142.758 10.373 145.817C10.143 145.38 9.637 144.69 9.223 144.345C14.375 141.769 18.308 135.858 19.412 126.865V126.474ZM13.524 127.877C14.605 135.513 16.997 141.7 22.103 144.437C21.689 144.782 21.137 145.426 20.861 145.909C15.525 142.758 13.156 136.41 11.891 128.13L13.524 127.877ZM1.472 126.474H9.315V128.13H1.472V126.474ZM8.671 126.474H8.947L9.269 126.382L10.35 126.704C9.384 136.111 6.348 142.39 2.047 145.84C1.771 145.426 1.219 144.759 0.782 144.46C4.807 141.539 7.797 135.214 8.671 126.888V126.474ZM1.656 131.511L2.967 130.522C5.911 133.995 9.292 138.664 10.741 141.654L9.292 142.827C7.912 139.837 4.6 135.007 1.656 131.511ZM18.331 149.726L19.619 151.129C15.456 152.348 8.648 152.969 3.059 153.199C3.013 152.762 2.806 152.072 2.645 151.681C8.119 151.428 14.835 150.807 18.331 149.726ZM2.668 156.212H20.608V157.868H2.668V156.212ZM1.127 161.617H21.896V163.296H1.127V161.617ZM10.626 152.164H12.42V168.448C12.42 169.667 12.052 170.196 11.178 170.472C10.304 170.748 8.809 170.794 6.371 170.771C6.256 170.288 5.934 169.506 5.658 169.046C7.567 169.115 9.407 169.092 9.913 169.069C10.442 169.069 10.626 168.908 10.626 168.425V152.164ZM10.603 175.807H20.723V188.043H19.044V177.348H12.236V188.043H10.603V175.807ZM15.732 187.698H17.342V193.31C17.342 193.931 17.526 194.092 18.124 194.092H19.849C20.585 194.092 20.723 193.471 20.815 190.205C21.252 190.527 21.827 190.757 22.241 190.872C22.034 194.483 21.804 195.426 19.826 195.426H17.871C16.353 195.426 15.732 194.989 15.732 193.448V187.698ZM14.674 179.303H16.307V183.742C16.307 187.675 15.272 192.712 9.246 195.84C9.039 195.495 8.51 194.851 8.165 194.575C13.961 191.608 14.674 187.261 14.674 183.719V179.303ZM1.196 176.474H8.303V178.13H1.196V176.474ZM7.705 176.474H7.981L8.303 176.382L9.407 176.727C8.441 185.191 5.773 191.401 2.07 194.897C1.771 194.506 1.196 193.908 0.782 193.586C4.163 190.596 6.877 184.34 7.705 176.911V176.474ZM1.288 181.166L2.599 180.292C5.29 183.811 8.211 188.48 9.292 191.516L7.843 192.551C6.785 189.515 3.956 184.708 1.288 181.166ZM6.302 203.521L7.82 203.774C6.67 205.867 4.784 207.914 1.955 209.455C1.748 209.133 1.311 208.673 0.989 208.443C3.634 207.109 5.428 205.2 6.302 203.521ZM6.187 204.993H10.235V206.189H5.221L6.187 204.993ZM9.844 204.993H10.12L10.396 204.924L11.362 205.407C9.683 209.984 5.75 212.928 1.794 214.354C1.61 213.986 1.219 213.411 0.92 213.112C4.646 211.962 8.441 209.11 9.844 205.269V204.993ZM14.076 204.97H19.343V206.35H14.076V204.97ZM7.682 210.237H15.571V211.663H7.682V210.237ZM3.588 213.526H19.32V214.998H3.588V213.526ZM12.512 203.567C14.03 207.845 17.319 210.927 22.149 212.1C21.781 212.422 21.344 213.043 21.137 213.48C16.146 212.077 12.857 208.765 11.155 203.935L12.512 203.567ZM10.649 214.17H12.328V219.115C12.328 219.989 12.144 220.426 11.431 220.656C10.764 220.886 9.683 220.863 8.027 220.863C7.935 220.426 7.705 219.851 7.498 219.414C8.763 219.46 9.89 219.437 10.235 219.437C10.557 219.414 10.649 219.345 10.649 219.069V214.17ZM6.67 215.55L8.211 216.102C6.785 217.827 4.393 219.414 2.3 220.426C2.047 220.104 1.472 219.46 1.104 219.161C3.197 218.333 5.405 216.999 6.67 215.55ZM14.49 216.608L15.617 215.596C17.618 216.654 20.24 218.195 21.62 219.253L20.424 220.426C19.113 219.391 16.514 217.735 14.49 216.608ZM4.554 207.247L5.428 206.465C6.509 207.04 7.82 207.96 8.487 208.604L7.59 209.478C6.946 208.811 5.635 207.868 4.554 207.247ZM2.507 208.742L3.45 208.006C4.554 208.696 5.842 209.731 6.463 210.444L5.474 211.295C4.853 210.536 3.588 209.501 2.507 208.742ZM18.653 204.97H18.998L19.297 204.901L20.309 205.522C19.366 207.316 17.825 209.225 16.445 210.421C16.192 210.122 15.755 209.685 15.456 209.432C16.698 208.374 18.009 206.626 18.653 205.269V204.97ZM10.603 199.703H12.328V202.532H10.603V199.703ZM1.633 201.474H21.321V205.154H19.688V202.923H3.22V205.154H1.633V201.474ZM1.081 230.453H21.965V232.132H1.081V230.453ZM5.428 242.482H21.183V244.138H5.428V242.482ZM11.339 236.939H17.411V238.572H11.339V236.939ZM4.531 225.301H6.302V245.863H4.531V225.301ZM10.58 224.818H12.328V239.699H10.58V224.818ZM16.652 225.071H18.377V239.584H16.652V225.071ZM5.313 255.729V258.236H17.641V255.729H5.313ZM5.313 251.888V254.349H17.641V251.888H5.313ZM3.588 250.439H19.412V259.662H3.588V250.439ZM14.03 258.719C15.64 260.95 18.883 262.813 22.103 263.664C21.712 264.009 21.206 264.676 20.953 265.136C17.664 264.078 14.375 261.893 12.558 259.271L14.03 258.719ZM9.062 258.719L10.557 259.34C8.717 261.893 5.336 264.101 2.185 265.228C1.909 264.791 1.403 264.147 1.012 263.802C4.117 262.905 7.406 260.927 9.062 258.719ZM7.153 262.767H8.901V264.193C8.901 266.401 8.349 269.184 3.887 270.978C3.634 270.541 3.082 269.943 2.691 269.598C6.739 268.08 7.153 265.849 7.153 264.147V262.767ZM10.58 251.198H12.328V259.018H10.58V251.198ZM14.467 262.767H16.238V270.794H14.467V262.767Z" fill="#757575"/>
</svg>
