<svg width="23" height="322" viewBox="0 0 23 322" fill="none" xmlns="http://www.w3.org/2000/svg">
<path d="M1.426 4.245H21.574V5.924H1.426V4.245ZM8.556 11.536H20.677V13.146H8.556V11.536ZM7.659 19.678H21.574V21.311H7.659V19.678ZM13.754 7.097H15.479V20.552H13.754V7.097ZM8.993 0.679999L10.764 1.117C9.154 6.384 6.348 11.743 1.771 15.032C1.587 14.572 1.15 13.836 0.874 13.445C5.014 10.524 7.705 5.418 8.993 0.679999ZM4.439 10.156H6.164V21.771H4.439V10.156ZM9.913 27.244H20.355V28.808H9.913V27.244ZM9.89 32.603H20.286V34.144H9.89V32.603ZM9.775 37.893H20.401V39.434H9.775V37.893ZM9.039 27.244H10.672V35.593C10.672 39.043 10.327 43.781 7.843 46.863C7.567 46.541 6.923 45.989 6.532 45.782C8.832 42.907 9.039 38.813 9.039 35.57V27.244ZM19.734 27.244H21.413V44.77C21.413 45.69 21.206 46.196 20.562 46.495C19.964 46.771 18.929 46.794 17.388 46.794C17.296 46.357 17.089 45.621 16.859 45.161C17.986 45.207 18.998 45.207 19.32 45.184C19.642 45.184 19.734 45.069 19.734 44.747V27.244ZM14.375 27.842H15.985V46.403H14.375V27.842ZM0.621 37.916C2.438 37.41 5.198 36.559 7.866 35.731L8.096 37.318C5.658 38.123 3.059 38.951 1.081 39.595L0.621 37.916ZM0.943 30.326H8.096V31.936H0.943V30.326ZM3.841 25.703H5.474V44.701C5.474 45.644 5.267 46.127 4.692 46.403C4.14 46.679 3.243 46.748 1.771 46.725C1.725 46.311 1.495 45.575 1.265 45.092C2.277 45.115 3.151 45.115 3.427 45.115C3.703 45.115 3.841 45.023 3.841 44.678V25.703ZM7.889 53.348H21.758V54.889H7.889V53.348ZM13.018 51.071L14.559 50.634C15.134 51.6 15.732 52.911 15.939 53.739L14.306 54.245C14.122 53.417 13.57 52.06 13.018 51.071ZM18.009 54.061L19.711 54.337C18.216 59.374 14.237 61.513 8.51 62.64C8.418 62.226 8.05 61.467 7.797 61.099C13.11 60.294 16.859 58.431 18.009 54.061ZM16.928 62.502H18.607V71.656H16.928V62.502ZM10.925 62.433H12.604V65.147C12.604 67.309 11.937 69.954 8.303 71.564C8.004 71.265 7.406 70.759 7.015 70.506C10.396 69.08 10.925 66.826 10.925 65.124V62.433ZM11.615 54.199C13.11 58.247 16.652 60.386 22.333 61.053C21.965 61.398 21.551 62.088 21.344 62.548C15.433 61.674 11.868 59.236 10.143 54.521L11.615 54.199ZM0.828 62.893C2.438 62.364 4.876 61.444 7.268 60.57L7.544 62.134C5.382 62.985 3.082 63.882 1.265 64.572L0.828 62.893ZM1.081 55.326H7.567V56.936H1.081V55.326ZM3.68 50.703H5.336V69.632C5.336 70.552 5.129 71.058 4.577 71.334C4.025 71.61 3.174 71.679 1.817 71.679C1.748 71.242 1.541 70.483 1.334 70C2.231 70.023 3.036 70.023 3.312 70C3.588 70 3.68 69.931 3.68 69.632V50.703ZM3.013 79.383H10.005V94.425H3.013V92.861H8.395V80.924H3.013V79.383ZM1.978 79.383H3.588V96.265H1.978V79.383ZM2.898 85.777H9.246V87.318H2.898V85.777ZM5.497 75.634L7.36 75.979C6.9 77.405 6.325 78.992 5.865 80.027L4.485 79.682C4.876 78.578 5.313 76.83 5.497 75.634ZM13.271 79.314H20.332V80.924H13.271V79.314ZM19.734 79.314H21.344C21.344 79.314 21.344 79.958 21.344 80.211C20.976 90.768 20.654 94.333 19.734 95.46C19.228 96.127 18.699 96.334 17.894 96.403C17.112 96.495 15.755 96.449 14.467 96.38C14.421 95.874 14.214 95.161 13.892 94.701C15.387 94.816 16.767 94.839 17.296 94.839C17.756 94.839 18.032 94.77 18.285 94.471C19.044 93.643 19.412 89.825 19.734 79.682V79.314ZM13.754 75.588L15.41 75.979C14.559 79.406 13.202 82.787 11.615 84.972C11.316 84.696 10.603 84.213 10.189 83.983C11.753 81.959 13.018 78.785 13.754 75.588ZM12.696 85.294L14.03 84.512C15.341 86.145 16.928 88.376 17.664 89.733L16.192 90.653C15.502 89.25 13.961 86.973 12.696 85.294ZM5.244 107.511V110.432H17.986V107.511H5.244ZM5.244 103.164V106.039H17.986V103.164H5.244ZM3.542 101.6H19.78V111.996H3.542V101.6ZM1.242 119.586H21.781V121.196H1.242V119.586ZM2.783 114.641H20.539V116.274H2.783V114.641ZM10.741 102.589H12.397V111.743H12.489V120.506H10.649V111.743H10.741V102.589ZM10.58 127.313H12.282V134.466H10.58V127.313ZM1.173 138.813H21.85V140.377H1.173V138.813ZM6.509 135.892H8.211V138.721C8.211 141.619 7.498 144.816 1.909 146.817C1.679 146.426 1.173 145.782 0.805 145.46C5.934 143.689 6.509 141.021 6.509 138.675V135.892ZM14.72 135.892H16.468V146.863H14.72V135.892ZM2.323 126.784H20.516V128.279H2.323V126.784ZM3.197 130.303H19.757V131.706H3.197V130.303ZM1.38 133.799H21.574V135.317H1.38V133.799ZM5.98 159.052H16.974V160.662H5.98V159.052ZM7.107 153.969H19.389V155.625H7.107V153.969ZM1.219 164.02H21.804V165.676H1.219V164.02ZM16.353 159.052H18.124C18.124 159.052 18.101 159.627 18.055 159.88C17.388 167.079 16.744 169.954 15.663 171.012C15.088 171.61 14.536 171.748 13.593 171.817C12.765 171.886 11.132 171.84 9.453 171.748C9.43 171.242 9.2 170.506 8.855 170.023C10.626 170.184 12.328 170.207 12.995 170.207C13.57 170.207 13.869 170.161 14.191 169.908C15.111 169.126 15.732 166.228 16.353 159.374V159.052ZM6.946 150.657L8.74 150.818C8.073 154.383 7.038 159.098 6.325 161.858L4.531 161.674C5.336 158.891 6.371 154.107 6.946 150.657ZM2.576 177.773H7.038V191.251H2.576V189.595H5.612V179.452H2.576V177.773ZM1.702 177.773H3.151V193.045H1.702V177.773ZM10.396 194.678H19.711V195.966H10.396V194.678ZM10.396 191.826H19.711V193.091H10.396V191.826ZM8.073 177.773H22.011V179.199H8.073V177.773ZM10.143 184.857V186.605H19.711V184.857H10.143ZM10.143 181.982V183.684H19.711V181.982H10.143ZM8.671 180.74H21.206V187.824H8.671V180.74ZM9.453 188.974H20.539V196.794H18.883V190.262H11.04V196.84H9.453V188.974ZM12.236 175.68H13.731V181.246H13.685V187.364H12.282V181.246H12.236V175.68ZM15.939 175.68H17.434V181.246H17.365V187.364H15.985V181.246H15.939V175.68ZM2.346 203.417H15.824V205.05H2.346V203.417ZM14.858 203.417H16.583V208.293C16.583 208.845 16.698 208.937 17.365 208.937C17.664 208.937 19.159 208.937 19.55 208.937C20.171 208.937 20.286 208.638 20.332 206.292C20.7 206.568 21.436 206.844 21.896 206.982C21.735 209.857 21.252 210.57 19.734 210.57C19.343 210.57 17.503 210.57 17.135 210.57C15.364 210.57 14.858 210.087 14.858 208.316V203.417ZM8.855 200.68H10.626C10.051 205.74 8.671 209.489 2.047 211.283C1.863 210.869 1.426 210.202 1.081 209.88C7.291 208.339 8.372 205.05 8.855 200.68ZM6.026 215.147L7.751 215.699C6.578 217.585 4.6 219.448 2.875 220.621C2.553 220.276 1.863 219.655 1.449 219.379C3.22 218.367 5.014 216.803 6.026 215.147ZM14.628 215.883L16.077 215.101C17.664 216.412 19.642 218.252 20.608 219.517L19.09 220.414C18.193 219.149 16.261 217.24 14.628 215.883ZM10.465 210.133H12.305V219.77C12.305 220.782 12.075 221.265 11.339 221.541C10.603 221.794 9.453 221.794 7.659 221.794C7.567 221.334 7.291 220.621 7.038 220.138C8.372 220.207 9.637 220.184 10.005 220.161C10.35 220.161 10.465 220.069 10.465 219.747V210.133ZM1.587 212.249H21.275V213.882H1.587V212.249ZM3.013 229.383H10.005V244.425H3.013V242.861H8.395V230.924H3.013V229.383ZM1.978 229.383H3.588V246.265H1.978V229.383ZM2.898 235.777H9.246V237.318H2.898V235.777ZM5.497 225.634L7.36 225.979C6.9 227.405 6.325 228.992 5.865 230.027L4.485 229.682C4.876 228.578 5.313 226.83 5.497 225.634ZM13.271 229.314H20.332V230.924H13.271V229.314ZM19.734 229.314H21.344C21.344 229.314 21.344 229.958 21.344 230.211C20.976 240.768 20.654 244.333 19.734 245.46C19.228 246.127 18.699 246.334 17.894 246.403C17.112 246.495 15.755 246.449 14.467 246.38C14.421 245.874 14.214 245.161 13.892 244.701C15.387 244.816 16.767 244.839 17.296 244.839C17.756 244.839 18.032 244.77 18.285 244.471C19.044 243.643 19.412 239.825 19.734 229.682V229.314ZM13.754 225.588L15.41 225.979C14.559 229.406 13.202 232.787 11.615 234.972C11.316 234.696 10.603 234.213 10.189 233.983C11.753 231.959 13.018 228.785 13.754 225.588ZM12.696 235.294L14.03 234.512C15.341 236.145 16.928 238.376 17.664 239.733L16.192 240.653C15.502 239.25 13.961 236.973 12.696 235.294ZM10.511 250.588H12.328V254.889H10.511V250.588ZM10.534 255.441H12.305V271.909H10.534V255.441ZM1.15 253.877H21.873V255.556H1.15V253.877ZM3.519 258.707H18.63V260.386H5.244V268.988H3.519V258.707ZM17.963 258.707H19.734V266.803C19.734 267.792 19.504 268.321 18.745 268.62C17.94 268.896 16.652 268.919 14.674 268.919C14.605 268.39 14.329 267.7 14.076 267.217C15.64 267.263 17.043 267.263 17.434 267.24C17.848 267.217 17.963 267.125 17.963 266.803V258.707ZM1.219 289.756H21.781V291.205H1.219V289.756ZM5.083 281.361H19.32V282.58H5.083V281.361ZM5.083 284.121H19.389V285.363H5.083V284.121ZM4.807 278.417H20.263V279.843H4.807V278.417ZM11.017 279.222H12.696V287.479H11.017V279.222ZM10.58 287.916H12.305V296.84H10.58V287.916ZM10.212 290.285L11.546 290.975C9.269 293.367 5.175 295.552 1.794 296.61C1.541 296.15 1.035 295.506 0.644 295.161C4.071 294.287 8.119 292.355 10.212 290.285ZM12.696 290.285C14.766 292.309 18.791 294.149 22.241 295C21.873 295.345 21.39 295.989 21.137 296.426C17.71 295.414 13.639 293.298 11.362 290.975L12.696 290.285ZM12.098 275.68L14.03 275.956C13.386 277.175 12.673 278.463 12.075 279.337L10.557 279.015C11.109 278.095 11.776 276.669 12.098 275.68ZM6.095 275.657L7.889 275.979C6.532 278.509 4.6 281.315 1.863 283.615C1.564 283.224 0.989 282.695 0.598 282.465C3.174 280.441 5.06 277.75 6.095 275.657ZM4.002 279.36H5.658V286.95H21.16V288.33H4.002V279.36ZM2.208 304.797H20.746V315.63H18.952V306.499H3.933V315.745H2.208V304.797ZM3.128 312.617H19.987V314.296H3.128V312.617ZM10.534 300.68H12.328V321.817H10.534V300.68Z" fill="#757575"/>
</svg>
