<svg width="23" height="197" viewBox="0 0 23 197" fill="none" xmlns="http://www.w3.org/2000/svg">
<path d="M9.338 10.685C11.408 15.722 15.778 19.149 22.172 20.391C21.804 20.736 21.321 21.449 21.091 21.909C14.559 20.483 10.212 16.803 7.866 11.145L9.338 10.685ZM17.549 10.041H17.894L18.239 9.972L19.412 10.501C17.319 16.964 12.19 20.322 6.44 21.886C6.256 21.449 5.842 20.782 5.497 20.414C10.879 19.103 15.824 15.883 17.549 10.34V10.041ZM8.832 10.041H17.825V11.697H8.349L8.832 10.041ZM10.419 0.610999L12.328 0.909999C11.155 9.627 8.464 16.044 1.978 20.023C1.725 19.655 1.104 19.011 0.69 18.689C6.785 15.009 9.407 8.799 10.419 0.610999ZM15.456 1.83L16.813 1.025C17.802 2.037 19.136 3.463 19.78 4.314L18.4 5.257C17.756 4.383 16.468 2.911 15.456 1.83ZM3.312 7.971C3.197 7.603 2.921 6.775 2.737 6.361C3.036 6.269 3.312 5.947 3.588 5.441C3.841 4.958 4.738 3.118 5.106 1.347L6.969 1.669C6.394 3.624 5.474 5.671 4.692 6.959V6.982C4.692 6.982 3.312 7.557 3.312 7.971ZM3.312 7.971V6.614L4.462 5.924H21.39V7.58H5.75C4.301 7.58 3.542 7.718 3.312 7.971ZM1.265 27.244H8.878V28.877H1.265V27.244ZM1.61 33.891H8.395V35.524H1.61V33.891ZM0.989 42.7C3.013 42.194 6.072 41.32 8.993 40.446L9.223 42.033C6.463 42.861 3.542 43.712 1.357 44.379L0.989 42.7ZM4.347 27.98H6.003V42.102L4.347 42.447V27.98ZM9.913 26.807H20.263V39.043H18.561V28.325H11.569V39.043H9.913V26.807ZM15.157 38.675H16.767V44.126C16.767 44.77 16.951 44.931 17.595 44.931H19.504C20.286 44.931 20.424 44.31 20.539 41.021C20.953 41.366 21.505 41.596 21.942 41.688C21.735 45.322 21.482 46.242 19.481 46.242H17.365C15.778 46.242 15.157 45.828 15.157 44.287V38.675ZM14.168 30.303H15.778V34.765C15.778 38.721 14.766 43.781 8.717 46.909C8.51 46.564 7.981 45.943 7.636 45.667C13.432 42.677 14.168 38.33 14.168 34.742V30.303ZM9.407 56.292H20.677V64.25H9.292V62.893H19.067V57.649H9.407V56.292ZM10.994 66.136H12.535V69.586C12.535 70.092 12.696 70.184 13.616 70.184C14.007 70.184 16.146 70.184 16.698 70.184C17.434 70.184 17.549 69.954 17.641 68.183C17.963 68.459 18.607 68.666 19.067 68.781C18.883 71.104 18.4 71.633 16.859 71.633C16.422 71.633 13.869 71.633 13.478 71.633C11.477 71.633 10.994 71.196 10.994 69.586V66.136ZM8.924 66.067L10.281 66.642C9.89 68.045 9.223 69.954 8.441 71.173L7.13 70.322C7.866 69.241 8.556 67.424 8.924 66.067ZM12.42 65.193L13.501 64.273C14.766 65.124 16.353 66.366 17.181 67.194L16.1 68.252C15.318 67.378 13.708 66.09 12.42 65.193ZM18.147 66.343L19.481 65.814C20.562 67.194 21.62 69.08 22.08 70.345L20.654 70.943C20.217 69.655 19.159 67.746 18.147 66.343ZM9.959 59.558H19.918V60.869H9.959V59.558ZM1.84 51.692H7.268V53.256H3.404V71.863H1.84V51.692ZM6.808 51.692H7.107L7.36 51.623L8.487 52.29C7.82 54.176 6.969 56.545 6.187 58.385C7.866 60.294 8.257 61.904 8.257 63.33C8.257 64.572 7.981 65.538 7.36 65.998C7.038 66.205 6.624 66.343 6.164 66.412C5.681 66.458 5.129 66.458 4.6 66.435C4.577 66.021 4.439 65.354 4.163 64.917C4.692 64.963 5.152 64.986 5.52 64.94C5.796 64.94 6.049 64.871 6.233 64.733C6.601 64.48 6.716 63.859 6.716 63.169C6.716 61.927 6.279 60.363 4.646 58.569C5.474 56.476 6.325 53.739 6.808 52.152V51.692ZM12.742 52.566H17.802V53.9H11.707L12.742 52.566ZM12.443 50.91L14.053 51.186C12.972 53.095 11.454 55.165 9.361 56.89C9.108 56.568 8.579 56.085 8.234 55.878C10.166 54.406 11.615 52.451 12.443 50.91ZM17.342 52.566H17.687L17.94 52.497L18.975 53.21C18.17 54.59 16.836 56.177 15.847 57.166C15.548 56.959 15.065 56.637 14.697 56.476C15.617 55.533 16.767 53.946 17.342 52.865V52.566ZM1.38 77.313H21.643V78.785H1.38V77.313ZM6.003 81.269H21.896V82.764H6.003V81.269ZM2.691 85.317H5.842V86.743H2.691V85.317ZM0.943 88.652H5.75V90.101H0.943V88.652ZM8.487 92.999H14.927V94.195H8.487V92.999ZM6.831 75.703H8.533V80.395H6.831V75.703ZM14.352 75.703H16.054V80.418H14.352V75.703ZM11.086 84.834H12.328V87.617H11.086V84.834ZM1.955 81.384H3.312V87.456H1.955V81.384ZM11.086 90.699H12.328V93.505H11.086V90.699ZM8.625 86.996H14.72V91.297H8.625V90.17H13.455V88.146H8.625V86.996ZM7.866 84.19H14.72V85.386H9.177V95.575H7.866V84.19ZM5.221 81.269H6.693V87.64C6.693 90.446 6.463 94.31 5.037 96.909C4.761 96.656 4.094 96.288 3.726 96.15C5.083 93.689 5.221 90.239 5.221 87.617V81.269ZM15.134 79.751H16.698C16.79 90.285 18.538 95.345 20.171 95.345C20.654 95.322 20.884 94.724 20.999 92.447C21.344 92.769 21.85 93.091 22.241 93.229C21.988 96.311 21.413 96.886 20.056 96.886C17.089 96.886 15.41 90.745 15.134 79.751ZM17.733 79.797L18.745 78.992C19.573 79.475 20.562 80.211 21.022 80.763L19.941 81.637C19.504 81.062 18.561 80.303 17.733 79.797ZM19.182 84.19L20.723 84.443C19.527 90.009 17.296 94.195 13.777 96.886C13.501 96.61 12.857 96.081 12.489 95.828C16.031 93.39 18.147 89.342 19.182 84.19ZM2.208 89.158H3.519V91.159C3.519 92.815 3.266 95.207 1.84 96.863C1.587 96.633 1.081 96.288 0.782 96.127C2.024 94.632 2.208 92.562 2.208 91.113V89.158ZM3.013 104.383H10.005V119.425H3.013V117.861H8.395V105.924H3.013V104.383ZM1.978 104.383H3.588V121.265H1.978V104.383ZM2.898 110.777H9.246V112.318H2.898V110.777ZM5.497 100.634L7.36 100.979C6.9 102.405 6.325 103.992 5.865 105.027L4.485 104.682C4.876 103.578 5.313 101.83 5.497 100.634ZM13.271 104.314H20.332V105.924H13.271V104.314ZM19.734 104.314H21.344C21.344 104.314 21.344 104.958 21.344 105.211C20.976 115.768 20.654 119.333 19.734 120.46C19.228 121.127 18.699 121.334 17.894 121.403C17.112 121.495 15.755 121.449 14.467 121.38C14.421 120.874 14.214 120.161 13.892 119.701C15.387 119.816 16.767 119.839 17.296 119.839C17.756 119.839 18.032 119.77 18.285 119.471C19.044 118.643 19.412 114.825 19.734 104.682V104.314ZM13.754 100.588L15.41 100.979C14.559 104.406 13.202 107.787 11.615 109.972C11.316 109.696 10.603 109.213 10.189 108.983C11.753 106.959 13.018 103.785 13.754 100.588ZM12.696 110.294L14.03 109.512C15.341 111.145 16.928 113.376 17.664 114.733L16.192 115.653C15.502 114.25 13.961 111.973 12.696 110.294ZM10.235 131.798V134.052H18.101V131.798H10.235ZM10.235 128.164V130.395H18.101V128.164H10.235ZM8.602 126.715H19.78V135.501H8.602V126.715ZM7.843 137.479H20.539V145.483H18.906V138.974H16.629V145.483H15.272V138.974H12.995V145.483H11.661V138.974H9.43V145.483H7.843V137.479ZM5.865 144.655H22.103V146.173H5.865V144.655ZM2.231 127.198L3.174 125.979C4.6 126.554 6.486 127.543 7.406 128.279L6.417 129.682C5.52 128.9 3.703 127.865 2.231 127.198ZM0.874 133.477L1.771 132.212C3.243 132.81 5.129 133.822 6.049 134.558L5.129 135.961C4.209 135.202 2.369 134.121 0.874 133.477ZM1.472 145.368C2.645 143.62 4.347 140.584 5.589 137.962L6.877 139.02C5.727 141.435 4.209 144.31 2.921 146.449L1.472 145.368ZM1.288 164.02H21.712V165.561H1.288V164.02ZM3.726 151.6H17.572V153.003H3.726V151.6ZM1.725 156.246H20.171V157.649H1.725V156.246ZM10.603 162.548H12.351V171.84H10.603V162.548ZM9.821 164.618L11.247 165.285C9.154 167.953 5.405 170.322 2.024 171.495C1.771 171.058 1.242 170.414 0.874 170.046C4.209 169.057 7.912 166.941 9.821 164.618ZM13.156 164.664C14.996 166.987 18.722 169.011 22.195 169.908C21.804 170.253 21.298 170.92 21.022 171.357C17.549 170.276 13.8 167.999 11.707 165.331L13.156 164.664ZM11.132 156.959H12.88V160.938C12.88 161.812 12.673 162.203 11.96 162.41C11.247 162.64 10.143 162.64 8.51 162.64C8.418 162.203 8.188 161.651 7.958 161.214C9.223 161.283 10.373 161.26 10.718 161.237C11.063 161.237 11.132 161.145 11.132 160.892V156.959ZM19.527 156.246H19.849L20.194 156.154L21.528 156.637C20.309 158.247 18.929 159.972 17.687 161.076L16.146 160.455C17.227 159.489 18.607 157.925 19.527 156.522V156.246ZM9.959 156.545L11.339 157.189C9.315 159.535 5.612 161.697 2.461 162.755C2.208 162.341 1.748 161.743 1.38 161.398C4.485 160.501 8.119 158.615 9.959 156.545ZM6.9 154.82L7.843 153.785C10.373 154.245 13.547 155.257 15.341 156.085L14.375 157.212C12.673 156.338 9.476 155.28 6.9 154.82ZM16.905 151.6H17.342L17.71 151.508L18.883 152.405C17.089 153.808 14.49 155.142 12.098 155.947C11.868 155.602 11.431 155.119 11.155 154.866C13.271 154.199 15.709 152.98 16.905 151.945V151.6ZM4.462 189.411C6.394 189.411 7.958 190.975 7.958 192.907C7.958 194.839 6.394 196.403 4.462 196.403C2.53 196.403 0.943 194.839 0.943 192.907C0.943 190.975 2.53 189.411 4.462 189.411ZM4.462 195.23C5.75 195.23 6.785 194.195 6.785 192.907C6.785 191.619 5.75 190.584 4.462 190.584C3.174 190.584 2.116 191.619 2.116 192.907C2.116 194.195 3.174 195.23 4.462 195.23Z" fill="#757575"/>
</svg>
