<svg width="1920" height="335" viewBox="0 0 1920 335" fill="none" xmlns="http://www.w3.org/2000/svg">
<rect width="1920" height="335" fill="#F9F9F9"/>
<g clip-path="url(#clip0_20_47)">
<path d="M182.899 175.331C181.83 173.623 177.323 168.121 174.178 165.096C173.706 164.642 172.993 165.243 173.339 165.802C175.97 170.081 178.277 174.677 179.755 177.491C180.551 179.399 181.558 180.211 182.753 179.958C182.847 179.937 182.941 179.895 183.015 179.842C184.367 178.767 184.325 177.259 182.899 175.331ZM166.421 124.631C165.498 123.661 163.989 122.607 161.882 121.458C161.62 121.331 161.295 121.447 161.19 121.732L160.027 124.915C159.953 125.115 159.775 125.242 159.576 125.242H148.569C148.433 125.242 148.307 125.189 148.213 125.084L145.362 121.848C145.058 121.5 144.502 121.732 144.502 122.196V148.062C144.502 148.368 144.733 148.61 145.026 148.589C146.053 148.494 146.829 148.146 147.353 147.514C147.437 147.409 147.469 147.293 147.469 147.156V144.141C147.469 143.846 147.689 143.625 147.961 143.625H160.603C160.865 143.625 161.085 143.846 161.085 144.141V147.061C161.085 147.377 161.379 147.641 161.672 147.567C162.637 147.356 163.381 147.04 163.895 146.586C163.999 146.481 164.052 146.344 164.052 146.186V127.824C164.052 127.592 164.22 127.392 164.429 127.339C165.236 127.108 165.897 126.718 166.421 126.191C166.819 125.98 167.018 125.769 167.018 125.558C167.018 125.147 166.819 124.841 166.421 124.631ZM161.085 141.548C161.085 141.833 160.865 142.065 160.603 142.065H147.961C147.689 142.065 147.469 141.833 147.469 141.548V127.318C147.469 127.044 147.689 126.812 147.961 126.812H160.603C160.865 126.812 161.085 127.044 161.085 127.318V141.548ZM181.82 110.917C180.363 109.768 178.643 108.451 176.683 106.933C176.432 106.743 176.075 106.828 175.949 107.133L174.251 110.938C174.178 111.118 174 111.234 173.811 111.234H148.066C147.689 111.234 147.458 110.78 147.668 110.443C148.59 108.915 149.45 107.323 150.267 105.658C150.362 105.457 150.571 105.362 150.781 105.394C151.504 105.521 152.385 105.489 153.391 105.31C153.779 105.31 154.073 105.12 154.272 104.698C154.272 104.287 153.978 103.961 153.391 103.76C151.431 103.012 149.722 102.432 148.244 102.021C147.982 101.947 147.72 102.116 147.657 102.39C146.378 107.913 143.055 114.701 137.688 122.754L138.59 123.692C140.529 121.648 143.045 118.095 146.137 113.036C146.221 112.888 146.378 112.794 146.546 112.794H175.1C175.383 112.794 175.604 113.036 175.593 113.321C175.394 125.537 174.796 135.93 173.832 144.521V144.594C174.199 152.046 168.874 154.524 157.836 152.036L157.542 153.269C163.454 154.112 158.926 153.965 165.53 156.084C165.719 157.327 166.526 157.633 167.899 157.011C173.832 155.567 176.788 151.509 176.788 144.868C177.763 134.602 178.444 124.451 178.843 114.385C178.853 114.174 178.979 113.995 179.168 113.921C179.744 113.7 180.53 113.31 181.526 112.794C182.302 112.382 182.417 111.761 181.82 110.917Z" fill="#393939"/>
<path d="M152.06 165.907C151.62 165.222 153.045 164.305 153.653 164.864C157.773 168.648 161.033 171.842 162.134 173.76C163.612 175.921 163.633 177.597 162.196 178.777C162.123 178.841 162.029 178.883 161.924 178.904C160.656 179.178 159.607 178.25 158.779 176.121C157.259 172.969 155.498 171.199 152.049 165.897L152.06 165.907Z" fill="#393939"/>
<path d="M131.525 167.488C131.043 167.077 131.797 166.508 132.416 166.824C136.556 168.901 140.917 173.402 142.091 174.782C143.611 176.311 143.831 177.628 142.762 178.725C142.71 178.777 142.626 178.83 142.552 178.862C141.515 179.22 140.519 178.619 139.565 177.038C137.898 174.73 135.257 170.651 131.535 167.488H131.525Z" fill="#393939"/>
<path d="M106.294 170.197C105.654 169.839 106.147 168.869 106.881 169.059C111.776 170.334 119.47 173.56 121.221 174.635C123.401 175.763 124.135 177.091 123.411 178.619C123.369 178.704 123.317 178.777 123.244 178.83C122.29 179.568 121 179.252 119.397 177.892C116.766 175.995 111.252 172.98 106.294 170.187V170.197Z" fill="#393939"/>
<path d="M138.024 109.484C137.133 108.588 135.592 107.471 133.38 106.132L132.709 105.795L130.864 109.821C130.77 110.011 130.581 110.148 130.372 110.148H119.009C118.852 110.148 118.694 110.074 118.589 109.958L115.403 106.248C115.078 105.868 114.449 106.111 114.449 106.617V148.22C114.449 149.759 114.407 151.467 114.355 153.364C113.464 153.796 111.765 154.387 110.77 154.387L107.51 153.954C107.122 153.891 106.86 154.344 107.101 154.661L109.564 157.928C110.424 158.782 111.765 158.887 112.74 158.192L114.187 157.317L117.761 154.777L119.48 153.564L121.829 151.888L132.049 144.995V157.886C132.049 158.244 132.374 158.518 132.72 158.434C133.684 158.192 134.607 157.738 135.456 157.095C135.613 156.99 135.697 156.8 135.686 156.611C135.477 153.765 135.361 150.318 135.361 146.218V113.173C135.361 112.952 135.487 112.762 135.686 112.667C136.064 112.498 136.514 112.319 137.028 112.151C137.94 111.655 137.028 112.151 138.37 111.476C139.03 110.812 138.904 110.148 138.024 109.484ZM132.049 143.719L117.803 151.488C117.803 151.488 117.761 151.393 117.761 151.351V132.399C117.761 132.104 118.013 131.861 118.306 131.861H131.504C131.797 131.861 132.049 132.104 132.049 132.399V143.719ZM132.049 129.637C132.049 129.943 131.797 130.185 131.504 130.185H118.306C118.013 130.185 117.761 129.943 117.761 129.637V112.361C117.761 112.056 118.013 111.803 118.306 111.803H131.504C131.797 111.803 132.049 112.056 132.049 112.361V129.637Z" fill="#393939"/>
</g>
<path d="M114.368 260.896C114.475 261.088 114.624 261.189 114.816 261.2L115.312 261.248C115.568 261.28 115.696 261.413 115.696 261.648C115.696 261.883 115.563 262 115.296 262H111.664C111.397 262 111.264 261.883 111.264 261.648C111.264 261.413 111.392 261.28 111.648 261.248L111.952 261.216C112.283 261.184 112.368 261.019 112.208 260.72L110.576 257.84L108.752 260.72C108.667 260.848 108.651 260.96 108.704 261.056C108.757 261.152 108.859 261.211 109.008 261.232L109.248 261.264C109.504 261.296 109.632 261.424 109.632 261.648C109.632 261.883 109.499 262 109.232 262H106.64C106.373 262 106.24 261.883 106.24 261.648C106.24 261.413 106.368 261.28 106.624 261.248L107.248 261.184C107.44 261.173 107.595 261.077 107.712 260.896L110.192 257.168L107.776 252.96C107.68 252.789 107.531 252.688 107.328 252.656L106.768 252.592C106.523 252.56 106.4 252.427 106.4 252.192C106.4 251.957 106.533 251.84 106.8 251.84H110.448C110.715 251.84 110.848 251.957 110.848 252.192C110.848 252.427 110.725 252.56 110.48 252.592L110.176 252.624C110.027 252.645 109.925 252.704 109.872 252.8C109.829 252.896 109.845 253.008 109.92 253.136L111.376 255.664L112.992 253.136C113.077 253.008 113.093 252.901 113.04 252.816C112.997 252.72 112.901 252.661 112.752 252.64L112.416 252.592C112.171 252.56 112.048 252.427 112.048 252.192C112.048 251.957 112.181 251.84 112.448 251.84H115.136C115.403 251.84 115.536 251.957 115.536 252.192C115.536 252.427 115.413 252.56 115.168 252.592L114.496 252.672C114.304 252.683 114.155 252.773 114.048 252.944L111.76 256.352L114.368 260.896ZM125.632 251.84C125.899 251.84 126.032 251.957 126.032 252.192C126.032 252.437 125.91 252.576 125.664 252.608L125.12 252.688C124.896 252.72 124.752 252.837 124.688 253.04L121.616 261.84C121.531 262.053 121.382 262.16 121.168 262.16H121.136C120.902 262.16 120.747 262.053 120.672 261.84L117.296 252.976C117.222 252.784 117.078 252.672 116.864 252.64L116.512 252.592C116.267 252.56 116.144 252.427 116.144 252.192C116.144 251.957 116.278 251.84 116.544 251.84H120.096C120.363 251.84 120.496 251.963 120.496 252.208C120.496 252.453 120.368 252.592 120.112 252.624L119.616 252.672C119.478 252.693 119.376 252.747 119.312 252.832C119.259 252.917 119.259 253.024 119.312 253.152L121.6 259.504L123.808 253.184C123.862 253.056 123.856 252.949 123.792 252.864C123.739 252.779 123.643 252.725 123.504 252.704L122.896 252.624C122.651 252.592 122.528 252.453 122.528 252.208C122.528 251.963 122.662 251.84 122.928 251.84H125.632ZM128.589 262.56L128.045 262.176C127.778 261.995 127.586 261.792 127.469 261.568C127.362 261.344 127.309 261.125 127.309 260.912C127.309 260.603 127.41 260.331 127.613 260.096C127.826 259.861 128.119 259.744 128.493 259.744C128.749 259.744 128.957 259.797 129.117 259.904C129.277 260 129.399 260.128 129.485 260.288C129.581 260.448 129.645 260.629 129.677 260.832C129.709 261.035 129.725 261.243 129.725 261.456C129.725 261.883 129.65 262.293 129.501 262.688C129.351 263.083 129.149 263.451 128.893 263.792C128.647 264.133 128.354 264.432 128.013 264.688C127.682 264.955 127.325 265.168 126.941 265.328C126.866 265.36 126.791 265.376 126.717 265.376C126.599 265.376 126.514 265.312 126.461 265.184C126.375 264.992 126.455 264.827 126.701 264.688C127.159 264.421 127.543 264.117 127.853 263.776C128.173 263.435 128.418 263.029 128.589 262.56ZM134.266 260.848C134.276 261.072 134.399 261.211 134.634 261.264L134.906 261.312C135.14 261.365 135.258 261.493 135.258 261.696C135.258 261.899 135.124 262 134.858 262H131.914C131.647 262 131.514 261.899 131.514 261.696C131.514 261.504 131.636 261.381 131.882 261.328L132.202 261.264C132.436 261.211 132.559 261.072 132.57 260.848V258.016C132.57 257.803 132.57 257.611 132.57 257.44C132.57 257.269 132.564 257.109 132.554 256.96C132.543 256.875 132.538 256.789 132.538 256.704C132.538 256.619 132.538 256.533 132.538 256.448C132.516 256.203 132.388 256.064 132.154 256.032L131.77 255.984C131.524 255.952 131.402 255.84 131.402 255.648C131.402 255.477 131.508 255.349 131.722 255.264L133.802 254.512C133.855 254.491 133.903 254.475 133.946 254.464C133.988 254.453 134.031 254.448 134.074 254.448C134.127 254.448 134.17 254.464 134.202 254.496C134.276 254.56 134.314 254.688 134.314 254.88L134.266 256.704V260.848ZM133.402 252.944C133.06 252.944 132.778 252.843 132.554 252.64C132.34 252.437 132.234 252.171 132.234 251.84C132.234 251.509 132.34 251.243 132.554 251.04C132.778 250.837 133.06 250.736 133.402 250.736C133.732 250.736 134.004 250.837 134.218 251.04C134.442 251.243 134.554 251.509 134.554 251.84C134.554 252.171 134.442 252.437 134.218 252.64C134.004 252.843 133.732 252.944 133.402 252.944ZM143.673 260.848C143.684 261.072 143.807 261.211 144.041 261.264L144.313 261.312C144.548 261.365 144.665 261.493 144.665 261.696C144.665 261.899 144.532 262 144.265 262H141.321C141.055 262 140.921 261.899 140.921 261.696C140.921 261.493 141.039 261.371 141.273 261.328L141.593 261.264C141.828 261.211 141.951 261.072 141.961 260.848V257.36C141.961 256.72 141.881 256.267 141.721 256C141.572 255.723 141.295 255.584 140.889 255.584C140.559 255.584 140.239 255.664 139.929 255.824C139.631 255.984 139.311 256.224 138.969 256.544V260.848C138.98 261.072 139.103 261.211 139.337 261.264L139.625 261.328C139.86 261.371 139.977 261.493 139.977 261.696C139.977 261.899 139.844 262 139.577 262H136.601C136.335 262 136.201 261.899 136.201 261.696C136.201 261.504 136.324 261.381 136.569 261.328L136.905 261.264C137.14 261.211 137.263 261.072 137.273 260.848V257.952C137.273 257.739 137.273 257.547 137.273 257.376C137.273 257.205 137.268 257.056 137.257 256.928C137.247 256.843 137.241 256.763 137.241 256.688C137.241 256.613 137.241 256.533 137.241 256.448C137.22 256.203 137.092 256.064 136.857 256.032L136.473 255.984C136.228 255.952 136.105 255.84 136.105 255.648C136.105 255.467 136.212 255.333 136.425 255.248L138.281 254.528C138.377 254.485 138.473 254.464 138.569 254.464C138.633 254.464 138.676 254.475 138.697 254.496C138.783 254.549 138.831 254.672 138.841 254.864L138.921 255.808C139.327 255.339 139.737 254.992 140.153 254.768C140.569 254.533 141.039 254.416 141.561 254.416C142.265 254.416 142.793 254.635 143.145 255.072C143.497 255.499 143.673 256.203 143.673 257.184V260.848ZM151.575 260.288C151.692 260.128 151.804 260.048 151.911 260.048C151.943 260.048 151.98 260.059 152.023 260.08C152.183 260.176 152.215 260.336 152.119 260.56C151.874 261.104 151.5 261.52 150.999 261.808C150.508 262.096 149.927 262.24 149.255 262.24C148.679 262.24 148.167 262.144 147.719 261.952C147.271 261.749 146.892 261.477 146.583 261.136C146.284 260.784 146.055 260.373 145.895 259.904C145.746 259.424 145.671 258.907 145.671 258.352C145.671 257.808 145.762 257.296 145.943 256.816C146.124 256.336 146.38 255.92 146.711 255.568C147.042 255.205 147.436 254.923 147.895 254.72C148.354 254.517 148.866 254.416 149.431 254.416C149.751 254.416 150.066 254.459 150.375 254.544C150.695 254.629 150.983 254.763 151.239 254.944C151.506 255.115 151.73 255.333 151.911 255.6C152.092 255.856 152.199 256.155 152.231 256.496C152.156 256.933 151.884 257.152 151.415 257.152C150.871 257.152 150.556 256.821 150.471 256.16L150.359 255.552C150.316 255.36 150.226 255.243 150.087 255.2C149.959 255.157 149.815 255.136 149.655 255.136C149.26 255.136 148.924 255.232 148.647 255.424C148.37 255.605 148.146 255.845 147.975 256.144C147.804 256.432 147.676 256.757 147.591 257.12C147.516 257.472 147.479 257.813 147.479 258.144C147.479 259.147 147.698 259.899 148.135 260.4C148.572 260.901 149.132 261.152 149.815 261.152C150.54 261.152 151.127 260.864 151.575 260.288ZM155.103 262.24C154.762 262.24 154.468 262.117 154.223 261.872C153.978 261.627 153.855 261.333 153.855 260.992C153.855 260.651 153.978 260.357 154.223 260.112C154.468 259.867 154.762 259.744 155.103 259.744C155.444 259.744 155.738 259.867 155.983 260.112C156.228 260.357 156.351 260.651 156.351 260.992C156.351 261.333 156.228 261.627 155.983 261.872C155.738 262.117 155.444 262.24 155.103 262.24ZM170.085 260.896C170.16 261.109 170.304 261.221 170.517 261.232L170.901 261.28C171.157 261.312 171.285 261.435 171.285 261.648C171.285 261.883 171.152 262 170.885 262H167.333C167.067 262 166.933 261.883 166.933 261.648C166.933 261.424 167.056 261.296 167.301 261.264L167.845 261.2C167.984 261.179 168.08 261.125 168.133 261.04C168.197 260.955 168.203 260.848 168.149 260.72L167.461 258.768H164.149L163.461 260.688C163.365 260.976 163.461 261.136 163.749 261.168L164.309 261.248C164.555 261.28 164.677 261.413 164.677 261.648C164.677 261.883 164.544 262 164.277 262H161.589C161.323 262 161.189 261.883 161.189 261.648C161.189 261.413 161.312 261.28 161.557 261.248L162.181 261.152C162.395 261.12 162.539 261.003 162.613 260.8L165.765 252.16C165.851 251.947 166 251.84 166.213 251.84H166.453C166.667 251.84 166.816 251.947 166.901 252.16L170.085 260.896ZM164.421 257.984H167.205L165.845 254.064L164.421 257.984ZM174.639 260.832C174.639 261.077 174.756 261.221 174.991 261.264L175.327 261.328C175.562 261.371 175.679 261.493 175.679 261.696C175.679 261.899 175.546 262 175.279 262H172.223C171.956 262 171.823 261.899 171.823 261.696C171.823 261.504 171.946 261.381 172.191 261.328L172.543 261.264C172.778 261.221 172.895 261.077 172.895 260.832C172.906 260.491 172.911 260.149 172.911 259.808C172.922 259.467 172.927 259.125 172.927 258.784V252.672C172.927 252.427 172.804 252.288 172.559 252.256L172.079 252.192C171.834 252.16 171.711 252.048 171.711 251.856C171.711 251.664 171.828 251.536 172.063 251.472L174.175 250.928C174.228 250.907 174.271 250.896 174.303 250.896C174.346 250.896 174.388 250.896 174.431 250.896C174.506 250.896 174.554 250.907 174.575 250.928C174.639 250.971 174.671 251.099 174.671 251.312L174.623 253.168V258.784C174.623 259.125 174.623 259.467 174.623 259.808C174.634 260.149 174.639 260.491 174.639 260.832ZM179.295 260.832C179.295 261.077 179.413 261.221 179.647 261.264L179.983 261.328C180.218 261.371 180.335 261.493 180.335 261.696C180.335 261.899 180.202 262 179.935 262H176.879C176.613 262 176.479 261.899 176.479 261.696C176.479 261.504 176.602 261.381 176.847 261.328L177.199 261.264C177.434 261.221 177.551 261.077 177.551 260.832C177.562 260.491 177.567 260.149 177.567 259.808C177.578 259.467 177.583 259.125 177.583 258.784V252.672C177.583 252.427 177.461 252.288 177.215 252.256L176.735 252.192C176.49 252.16 176.367 252.048 176.367 251.856C176.367 251.664 176.485 251.536 176.719 251.472L178.831 250.928C178.885 250.907 178.927 250.896 178.959 250.896C179.002 250.896 179.045 250.896 179.087 250.896C179.162 250.896 179.21 250.907 179.231 250.928C179.295 250.971 179.327 251.099 179.327 251.312L179.279 253.168V258.784C179.279 259.125 179.279 259.467 179.279 259.808C179.29 260.149 179.295 260.491 179.295 260.832ZM187.385 254.496C187.428 254.528 187.46 254.571 187.481 254.624C187.502 254.677 187.518 254.763 187.529 254.88L187.641 256.208C187.929 255.643 188.26 255.205 188.633 254.896C189.017 254.576 189.406 254.416 189.801 254.416C190.014 254.416 190.233 254.48 190.457 254.608C190.681 254.736 190.825 254.955 190.889 255.264C190.889 255.563 190.798 255.803 190.617 255.984C190.436 256.155 190.19 256.24 189.881 256.24C189.518 256.24 189.177 256.075 188.857 255.744L188.777 255.664C188.542 255.877 188.329 256.117 188.137 256.384C187.956 256.64 187.796 256.949 187.657 257.312V260.8C187.668 261.045 187.79 261.189 188.025 261.232L188.537 261.328C188.782 261.381 188.905 261.504 188.905 261.696C188.905 261.899 188.772 262 188.505 262H185.305C185.038 262 184.905 261.899 184.905 261.696C184.905 261.504 185.028 261.381 185.273 261.328L185.593 261.264C185.828 261.211 185.95 261.072 185.961 260.848V257.952C185.961 257.739 185.961 257.547 185.961 257.376C185.961 257.205 185.956 257.056 185.945 256.928C185.934 256.843 185.929 256.763 185.929 256.688C185.929 256.613 185.929 256.533 185.929 256.448C185.908 256.203 185.78 256.064 185.545 256.032L185.161 255.984C184.916 255.952 184.793 255.84 184.793 255.648C184.793 255.467 184.9 255.333 185.113 255.248L186.969 254.528C187.065 254.485 187.156 254.464 187.241 254.464C187.305 254.464 187.353 254.475 187.385 254.496ZM194.375 260.848C194.386 261.072 194.508 261.211 194.743 261.264L195.015 261.312C195.25 261.365 195.367 261.493 195.367 261.696C195.367 261.899 195.234 262 194.967 262H192.023C191.756 262 191.623 261.899 191.623 261.696C191.623 261.504 191.746 261.381 191.991 261.328L192.311 261.264C192.546 261.211 192.668 261.072 192.679 260.848V258.016C192.679 257.803 192.679 257.611 192.679 257.44C192.679 257.269 192.674 257.109 192.663 256.96C192.652 256.875 192.647 256.789 192.647 256.704C192.647 256.619 192.647 256.533 192.647 256.448C192.626 256.203 192.498 256.064 192.263 256.032L191.879 255.984C191.634 255.952 191.511 255.84 191.511 255.648C191.511 255.477 191.618 255.349 191.831 255.264L193.911 254.512C193.964 254.491 194.012 254.475 194.055 254.464C194.098 254.453 194.14 254.448 194.183 254.448C194.236 254.448 194.279 254.464 194.311 254.496C194.386 254.56 194.423 254.688 194.423 254.88L194.375 256.704V260.848ZM193.511 252.944C193.17 252.944 192.887 252.843 192.663 252.64C192.45 252.437 192.343 252.171 192.343 251.84C192.343 251.509 192.45 251.243 192.663 251.04C192.887 250.837 193.17 250.736 193.511 250.736C193.842 250.736 194.114 250.837 194.327 251.04C194.551 251.243 194.663 251.509 194.663 251.84C194.663 252.171 194.551 252.437 194.327 252.64C194.114 252.843 193.842 252.944 193.511 252.944ZM203.575 254.896V255.232C203.575 255.499 203.441 255.632 203.175 255.632H202.087C202.321 255.995 202.439 256.427 202.439 256.928C202.439 257.355 202.359 257.728 202.199 258.048C202.039 258.357 201.825 258.619 201.559 258.832C201.292 259.035 200.977 259.189 200.615 259.296C200.263 259.392 199.895 259.44 199.511 259.44C199.084 259.44 198.705 259.387 198.375 259.28C198.3 259.397 198.241 259.509 198.199 259.616C198.156 259.712 198.135 259.824 198.135 259.952C198.135 260.176 198.209 260.347 198.359 260.464C198.519 260.571 198.78 260.624 199.143 260.624H200.775C201.745 260.624 202.439 260.789 202.855 261.12C203.281 261.44 203.495 261.893 203.495 262.48C203.495 262.992 203.356 263.419 203.079 263.76C202.801 264.112 202.455 264.389 202.039 264.592C201.633 264.795 201.185 264.939 200.695 265.024C200.215 265.109 199.772 265.152 199.367 265.152C198.236 265.152 197.431 264.997 196.951 264.688C196.449 264.411 196.199 264.016 196.199 263.504C196.199 263.195 196.311 262.907 196.535 262.64C196.759 262.373 197.116 262.117 197.607 261.872C197.308 261.723 197.095 261.541 196.967 261.328C196.839 261.104 196.775 260.869 196.775 260.624C196.775 260.315 196.865 260.037 197.047 259.792C197.228 259.547 197.489 259.301 197.831 259.056C197.447 258.843 197.148 258.56 196.935 258.208C196.721 257.845 196.615 257.419 196.615 256.928C196.615 256.512 196.695 256.149 196.855 255.84C197.015 255.52 197.228 255.259 197.495 255.056C197.761 254.843 198.071 254.683 198.423 254.576C198.775 254.469 199.143 254.416 199.527 254.416C200.337 254.416 201.009 254.619 201.543 255.024L203.047 254.528C203.1 254.507 203.148 254.491 203.191 254.48C203.233 254.469 203.276 254.464 203.319 254.464C203.436 254.464 203.505 254.512 203.527 254.608C203.559 254.704 203.575 254.8 203.575 254.896ZM199.495 258.784C199.943 258.784 200.284 258.619 200.519 258.288C200.764 257.947 200.887 257.488 200.887 256.912C200.887 256.347 200.769 255.899 200.535 255.568C200.3 255.227 199.964 255.056 199.527 255.056C199.079 255.056 198.737 255.227 198.503 255.568C198.279 255.909 198.167 256.363 198.167 256.928C198.167 257.504 198.279 257.957 198.503 258.288C198.727 258.619 199.057 258.784 199.495 258.784ZM200.647 262.128H198.967C198.796 262.128 198.641 262.117 198.503 262.096C198.364 262.085 198.236 262.069 198.119 262.048C197.863 262.4 197.735 262.757 197.735 263.12C197.735 263.6 197.9 263.936 198.231 264.128C198.561 264.32 198.999 264.416 199.543 264.416C200.353 264.416 200.972 264.277 201.399 264C201.825 263.733 202.039 263.413 202.039 263.04C202.039 262.784 201.937 262.571 201.735 262.4C201.628 262.315 201.489 262.245 201.319 262.192C201.148 262.149 200.924 262.128 200.647 262.128ZM211.859 260.848C211.87 261.072 211.992 261.211 212.227 261.264L212.499 261.312C212.734 261.365 212.851 261.493 212.851 261.696C212.851 261.899 212.718 262 212.451 262H209.491C209.224 262 209.091 261.899 209.091 261.696C209.091 261.504 209.214 261.381 209.459 261.328L209.795 261.264C210.03 261.211 210.152 261.072 210.163 260.848V257.36C210.163 256.72 210.083 256.267 209.923 256C209.763 255.723 209.48 255.584 209.075 255.584C208.744 255.584 208.424 255.664 208.115 255.824C207.806 255.973 207.48 256.219 207.139 256.56V260.832C207.139 261.077 207.256 261.221 207.491 261.264L207.763 261.312C207.998 261.365 208.115 261.493 208.115 261.696C208.115 261.899 207.982 262 207.715 262H204.771C204.504 262 204.371 261.899 204.371 261.696C204.371 261.504 204.494 261.381 204.739 261.328L205.059 261.264C205.294 261.211 205.416 261.072 205.427 260.848V252.672C205.427 252.427 205.304 252.288 205.059 252.256L204.579 252.192C204.334 252.16 204.211 252.048 204.211 251.856C204.211 251.664 204.323 251.536 204.547 251.472L206.643 250.928C206.696 250.907 206.739 250.896 206.771 250.896C206.814 250.896 206.856 250.896 206.899 250.896C206.974 250.896 207.022 250.907 207.043 250.928C207.107 250.971 207.139 251.099 207.139 251.312L207.091 253.168V255.792C207.507 255.323 207.923 254.976 208.339 254.752C208.755 254.528 209.224 254.416 209.747 254.416C210.451 254.416 210.979 254.635 211.331 255.072C211.683 255.499 211.859 256.203 211.859 257.184V260.848ZM217.746 260.944C217.863 260.88 217.965 260.848 218.05 260.848C218.135 260.848 218.21 260.885 218.274 260.96C218.413 261.131 218.402 261.301 218.242 261.472C218.039 261.685 217.789 261.856 217.49 261.984C217.202 262.101 216.855 262.16 216.45 262.16C215.863 262.16 215.399 262.016 215.058 261.728C214.727 261.429 214.562 260.965 214.562 260.336C214.562 260.197 214.562 260.075 214.562 259.968C214.562 259.851 214.567 259.739 214.578 259.632V255.984C214.578 255.717 214.445 255.584 214.178 255.584H213.842C213.575 255.584 213.442 255.456 213.442 255.2C213.442 254.955 213.565 254.816 213.81 254.784L214.37 254.72C214.594 254.688 214.727 254.56 214.77 254.336L215.058 252.896C215.101 252.661 215.245 252.544 215.49 252.544H215.938C216.194 252.544 216.322 252.677 216.322 252.944L216.29 254.288C216.29 254.555 216.423 254.688 216.69 254.688H217.794C218.061 254.688 218.194 254.821 218.194 255.088V255.184C218.194 255.451 218.061 255.584 217.794 255.584H216.674C216.407 255.584 216.274 255.717 216.274 255.984V260.032C216.274 260.427 216.349 260.709 216.498 260.88C216.658 261.051 216.861 261.136 217.106 261.136C217.191 261.136 217.287 261.125 217.394 261.104C217.511 261.072 217.629 261.019 217.746 260.944ZM222.26 257.424L222.772 257.6C223.167 257.749 223.492 257.909 223.748 258.08C224.015 258.24 224.234 258.411 224.404 258.592C224.554 258.784 224.66 258.992 224.724 259.216C224.788 259.429 224.82 259.659 224.82 259.904C224.82 260.331 224.724 260.693 224.532 260.992C224.351 261.28 224.111 261.52 223.812 261.712C223.514 261.893 223.178 262.027 222.804 262.112C222.442 262.197 222.079 262.24 221.716 262.24C221.268 262.24 220.874 262.192 220.532 262.096C220.191 262.011 219.85 261.883 219.508 261.712C219.316 261.627 219.22 261.472 219.22 261.248L219.204 260.24C219.204 259.973 219.332 259.84 219.588 259.84H219.844C220.079 259.84 220.223 259.963 220.276 260.208L220.404 260.88C220.436 261.093 220.548 261.232 220.74 261.296C221.06 261.424 221.391 261.488 221.732 261.488C222.276 261.488 222.671 261.392 222.916 261.2C223.162 261.008 223.284 260.741 223.284 260.4C223.284 260.091 223.178 259.851 222.964 259.68C222.751 259.499 222.372 259.301 221.828 259.088L221.124 258.832C220.527 258.587 220.068 258.293 219.748 257.952C219.428 257.611 219.268 257.173 219.268 256.64C219.268 256.235 219.354 255.893 219.524 255.616C219.695 255.339 219.919 255.109 220.196 254.928C220.474 254.747 220.783 254.619 221.124 254.544C221.466 254.459 221.812 254.416 222.164 254.416C222.538 254.416 222.879 254.459 223.188 254.544C223.498 254.619 223.807 254.731 224.116 254.88C224.319 254.976 224.415 255.136 224.404 255.36L224.356 256.256C224.346 256.512 224.212 256.64 223.956 256.64H223.716C223.471 256.64 223.327 256.523 223.284 256.288L223.172 255.696C223.13 255.472 223.012 255.333 222.82 255.28C222.596 255.195 222.362 255.152 222.116 255.152C221.69 255.152 221.359 255.243 221.124 255.424C220.9 255.605 220.788 255.867 220.788 256.208C220.788 256.464 220.89 256.683 221.092 256.864C221.199 256.949 221.348 257.04 221.54 257.136C221.743 257.232 221.983 257.328 222.26 257.424ZM232.088 254.496C232.131 254.528 232.163 254.571 232.184 254.624C232.205 254.677 232.221 254.763 232.232 254.88L232.344 256.208C232.632 255.643 232.963 255.205 233.336 254.896C233.72 254.576 234.109 254.416 234.504 254.416C234.717 254.416 234.936 254.48 235.16 254.608C235.384 254.736 235.528 254.955 235.592 255.264C235.592 255.563 235.501 255.803 235.32 255.984C235.139 256.155 234.893 256.24 234.584 256.24C234.221 256.24 233.88 256.075 233.56 255.744L233.48 255.664C233.245 255.877 233.032 256.117 232.84 256.384C232.659 256.64 232.499 256.949 232.36 257.312V260.8C232.371 261.045 232.493 261.189 232.728 261.232L233.24 261.328C233.485 261.381 233.608 261.504 233.608 261.696C233.608 261.899 233.475 262 233.208 262H230.008C229.741 262 229.608 261.899 229.608 261.696C229.608 261.504 229.731 261.381 229.976 261.328L230.296 261.264C230.531 261.211 230.653 261.072 230.664 260.848V257.952C230.664 257.739 230.664 257.547 230.664 257.376C230.664 257.205 230.659 257.056 230.648 256.928C230.637 256.843 230.632 256.763 230.632 256.688C230.632 256.613 230.632 256.533 230.632 256.448C230.611 256.203 230.483 256.064 230.248 256.032L229.864 255.984C229.619 255.952 229.496 255.84 229.496 255.648C229.496 255.467 229.603 255.333 229.816 255.248L231.672 254.528C231.768 254.485 231.859 254.464 231.944 254.464C232.008 254.464 232.056 254.475 232.088 254.496ZM243.382 257.792C243.339 258.027 243.19 258.144 242.934 258.144H238.294C238.315 259.115 238.55 259.845 238.998 260.336C239.446 260.827 240.027 261.072 240.742 261.072C241.158 261.072 241.51 260.997 241.798 260.848C242.097 260.688 242.369 260.469 242.614 260.192C242.731 260.064 242.843 260 242.95 260C243.003 260 243.051 260.016 243.094 260.048C243.254 260.155 243.275 260.315 243.158 260.528C242.881 261.072 242.481 261.488 241.958 261.776C241.435 262.064 240.822 262.208 240.118 262.208C239.521 262.208 238.987 262.107 238.518 261.904C238.059 261.701 237.67 261.424 237.35 261.072C237.041 260.709 236.806 260.283 236.646 259.792C236.486 259.301 236.406 258.768 236.406 258.192C236.406 257.637 236.497 257.109 236.678 256.608C236.859 256.107 237.115 255.669 237.446 255.296C237.787 254.912 238.193 254.613 238.662 254.4C239.142 254.176 239.67 254.064 240.246 254.064C240.726 254.064 241.158 254.144 241.542 254.304C241.937 254.464 242.273 254.688 242.55 254.976C242.827 255.253 243.041 255.589 243.19 255.984C243.339 256.379 243.414 256.816 243.414 257.296C243.414 257.381 243.414 257.467 243.414 257.552C243.414 257.627 243.403 257.707 243.382 257.792ZM238.326 257.408H240.726C241.11 257.408 241.366 257.328 241.494 257.168C241.633 257.008 241.702 256.784 241.702 256.496C241.702 256.016 241.563 255.616 241.286 255.296C241.019 254.976 240.683 254.816 240.278 254.816C239.947 254.816 239.659 254.901 239.414 255.072C239.179 255.232 238.982 255.44 238.822 255.696C238.673 255.952 238.555 256.235 238.47 256.544C238.395 256.843 238.347 257.131 238.326 257.408ZM247.823 257.424L248.335 257.6C248.73 257.749 249.055 257.909 249.311 258.08C249.578 258.24 249.796 258.411 249.967 258.592C250.116 258.784 250.223 258.992 250.287 259.216C250.351 259.429 250.383 259.659 250.383 259.904C250.383 260.331 250.287 260.693 250.095 260.992C249.914 261.28 249.674 261.52 249.375 261.712C249.076 261.893 248.74 262.027 248.367 262.112C248.004 262.197 247.642 262.24 247.279 262.24C246.831 262.24 246.436 262.192 246.095 262.096C245.754 262.011 245.412 261.883 245.071 261.712C244.879 261.627 244.783 261.472 244.783 261.248L244.767 260.24C244.767 259.973 244.895 259.84 245.151 259.84H245.407C245.642 259.84 245.786 259.963 245.839 260.208L245.967 260.88C245.999 261.093 246.111 261.232 246.303 261.296C246.623 261.424 246.954 261.488 247.295 261.488C247.839 261.488 248.234 261.392 248.479 261.2C248.724 261.008 248.847 260.741 248.847 260.4C248.847 260.091 248.74 259.851 248.527 259.68C248.314 259.499 247.935 259.301 247.391 259.088L246.687 258.832C246.09 258.587 245.631 258.293 245.311 257.952C244.991 257.611 244.831 257.173 244.831 256.64C244.831 256.235 244.916 255.893 245.087 255.616C245.258 255.339 245.482 255.109 245.759 254.928C246.036 254.747 246.346 254.619 246.687 254.544C247.028 254.459 247.375 254.416 247.727 254.416C248.1 254.416 248.442 254.459 248.751 254.544C249.06 254.619 249.37 254.731 249.679 254.88C249.882 254.976 249.978 255.136 249.967 255.36L249.919 256.256C249.908 256.512 249.775 256.64 249.519 256.64H249.279C249.034 256.64 248.89 256.523 248.847 256.288L248.735 255.696C248.692 255.472 248.575 255.333 248.383 255.28C248.159 255.195 247.924 255.152 247.679 255.152C247.252 255.152 246.922 255.243 246.687 255.424C246.463 255.605 246.351 255.867 246.351 256.208C246.351 256.464 246.452 256.683 246.655 256.864C246.762 256.949 246.911 257.04 247.103 257.136C247.306 257.232 247.546 257.328 247.823 257.424ZM258.585 257.792C258.542 258.027 258.393 258.144 258.137 258.144H253.497C253.518 259.115 253.753 259.845 254.201 260.336C254.649 260.827 255.23 261.072 255.945 261.072C256.361 261.072 256.713 260.997 257.001 260.848C257.3 260.688 257.572 260.469 257.817 260.192C257.934 260.064 258.046 260 258.153 260C258.206 260 258.254 260.016 258.297 260.048C258.457 260.155 258.478 260.315 258.361 260.528C258.084 261.072 257.684 261.488 257.161 261.776C256.638 262.064 256.025 262.208 255.321 262.208C254.724 262.208 254.19 262.107 253.721 261.904C253.262 261.701 252.873 261.424 252.553 261.072C252.244 260.709 252.009 260.283 251.849 259.792C251.689 259.301 251.609 258.768 251.609 258.192C251.609 257.637 251.7 257.109 251.881 256.608C252.062 256.107 252.318 255.669 252.649 255.296C252.99 254.912 253.396 254.613 253.865 254.4C254.345 254.176 254.873 254.064 255.449 254.064C255.929 254.064 256.361 254.144 256.745 254.304C257.14 254.464 257.476 254.688 257.753 254.976C258.03 255.253 258.244 255.589 258.393 255.984C258.542 256.379 258.617 256.816 258.617 257.296C258.617 257.381 258.617 257.467 258.617 257.552C258.617 257.627 258.606 257.707 258.585 257.792ZM253.529 257.408H255.929C256.313 257.408 256.569 257.328 256.697 257.168C256.836 257.008 256.905 256.784 256.905 256.496C256.905 256.016 256.766 255.616 256.489 255.296C256.222 254.976 255.886 254.816 255.481 254.816C255.15 254.816 254.862 254.901 254.617 255.072C254.382 255.232 254.185 255.44 254.025 255.696C253.876 255.952 253.758 256.235 253.673 256.544C253.598 256.843 253.55 257.131 253.529 257.408ZM262.338 254.496C262.381 254.528 262.413 254.571 262.434 254.624C262.455 254.677 262.471 254.763 262.482 254.88L262.594 256.208C262.882 255.643 263.213 255.205 263.586 254.896C263.97 254.576 264.359 254.416 264.754 254.416C264.967 254.416 265.186 254.48 265.41 254.608C265.634 254.736 265.778 254.955 265.842 255.264C265.842 255.563 265.751 255.803 265.57 255.984C265.389 256.155 265.143 256.24 264.834 256.24C264.471 256.24 264.13 256.075 263.81 255.744L263.73 255.664C263.495 255.877 263.282 256.117 263.09 256.384C262.909 256.64 262.749 256.949 262.61 257.312V260.8C262.621 261.045 262.743 261.189 262.978 261.232L263.49 261.328C263.735 261.381 263.858 261.504 263.858 261.696C263.858 261.899 263.725 262 263.458 262H260.258C259.991 262 259.858 261.899 259.858 261.696C259.858 261.504 259.981 261.381 260.226 261.328L260.546 261.264C260.781 261.211 260.903 261.072 260.914 260.848V257.952C260.914 257.739 260.914 257.547 260.914 257.376C260.914 257.205 260.909 257.056 260.898 256.928C260.887 256.843 260.882 256.763 260.882 256.688C260.882 256.613 260.882 256.533 260.882 256.448C260.861 256.203 260.733 256.064 260.498 256.032L260.114 255.984C259.869 255.952 259.746 255.84 259.746 255.648C259.746 255.467 259.853 255.333 260.066 255.248L261.922 254.528C262.018 254.485 262.109 254.464 262.194 254.464C262.258 254.464 262.306 254.475 262.338 254.496ZM273.456 254.688C273.723 254.688 273.856 254.795 273.856 255.008C273.856 255.221 273.733 255.355 273.488 255.408L273.248 255.456C273.056 255.488 272.917 255.6 272.832 255.792L270.448 261.84C270.373 262.053 270.219 262.16 269.984 262.16H269.904C269.669 262.16 269.515 262.059 269.44 261.856L266.928 255.776C266.843 255.584 266.704 255.472 266.512 255.44L266.32 255.408C266.075 255.355 265.952 255.221 265.952 255.008C265.952 254.795 266.085 254.688 266.352 254.688H269.52C269.787 254.688 269.92 254.795 269.92 255.008C269.92 255.243 269.797 255.376 269.552 255.408L269.152 255.472C268.864 255.525 268.768 255.685 268.864 255.952L270.416 260.112L271.936 255.936C272.032 255.669 271.936 255.509 271.648 255.456L271.344 255.408C271.099 255.355 270.976 255.221 270.976 255.008C270.976 254.795 271.109 254.688 271.376 254.688H273.456ZM281.632 257.792C281.589 258.027 281.44 258.144 281.184 258.144H276.544C276.565 259.115 276.8 259.845 277.248 260.336C277.696 260.827 278.277 261.072 278.992 261.072C279.408 261.072 279.76 260.997 280.048 260.848C280.347 260.688 280.619 260.469 280.864 260.192C280.981 260.064 281.093 260 281.2 260C281.253 260 281.301 260.016 281.344 260.048C281.504 260.155 281.525 260.315 281.408 260.528C281.131 261.072 280.731 261.488 280.208 261.776C279.685 262.064 279.072 262.208 278.368 262.208C277.771 262.208 277.237 262.107 276.768 261.904C276.309 261.701 275.92 261.424 275.6 261.072C275.291 260.709 275.056 260.283 274.896 259.792C274.736 259.301 274.656 258.768 274.656 258.192C274.656 257.637 274.747 257.109 274.928 256.608C275.109 256.107 275.365 255.669 275.696 255.296C276.037 254.912 276.443 254.613 276.912 254.4C277.392 254.176 277.92 254.064 278.496 254.064C278.976 254.064 279.408 254.144 279.792 254.304C280.187 254.464 280.523 254.688 280.8 254.976C281.077 255.253 281.291 255.589 281.44 255.984C281.589 256.379 281.664 256.816 281.664 257.296C281.664 257.381 281.664 257.467 281.664 257.552C281.664 257.627 281.653 257.707 281.632 257.792ZM276.576 257.408H278.976C279.36 257.408 279.616 257.328 279.744 257.168C279.883 257.008 279.952 256.784 279.952 256.496C279.952 256.016 279.813 255.616 279.536 255.296C279.269 254.976 278.933 254.816 278.528 254.816C278.197 254.816 277.909 254.901 277.664 255.072C277.429 255.232 277.232 255.44 277.072 255.696C276.923 255.952 276.805 256.235 276.72 256.544C276.645 256.843 276.597 257.131 276.576 257.408ZM289.833 260.832C289.833 261.067 289.956 261.211 290.201 261.264L290.537 261.328C290.782 261.381 290.905 261.504 290.905 261.696C290.905 261.888 290.777 261.995 290.521 262.016L288.697 262.128C288.441 262.128 288.297 262.011 288.265 261.776L288.201 261.2C287.892 261.541 287.566 261.803 287.225 261.984C286.884 262.155 286.473 262.24 285.993 262.24C285.46 262.24 284.996 262.128 284.601 261.904C284.217 261.68 283.897 261.387 283.641 261.024C283.396 260.661 283.209 260.251 283.081 259.792C282.964 259.333 282.905 258.864 282.905 258.384C282.905 257.893 282.974 257.413 283.113 256.944C283.252 256.464 283.454 256.037 283.721 255.664C283.998 255.291 284.34 254.992 284.745 254.768C285.161 254.533 285.641 254.416 286.185 254.416C286.985 254.416 287.662 254.725 288.217 255.344V252.688C288.217 252.432 288.094 252.288 287.849 252.256L287.305 252.192C287.06 252.16 286.937 252.048 286.937 251.856C286.937 251.664 287.054 251.536 287.289 251.472L289.401 250.928C289.454 250.907 289.497 250.896 289.529 250.896C289.572 250.896 289.614 250.896 289.657 250.896C289.732 250.896 289.78 250.907 289.801 250.928C289.854 250.971 289.881 251.099 289.881 251.312L289.833 253.168V260.832ZM288.137 260.544V256.08C287.582 255.653 287.086 255.44 286.649 255.44C286.276 255.44 285.961 255.536 285.705 255.728C285.46 255.909 285.262 256.144 285.113 256.432C284.974 256.72 284.873 257.035 284.809 257.376C284.756 257.717 284.729 258.037 284.729 258.336C284.729 259.317 284.905 260.043 285.257 260.512C285.609 260.971 286.057 261.2 286.601 261.2C287.102 261.2 287.614 260.981 288.137 260.544Z" fill="#393939"/>
<path d="M363.912 255.296H374.2V256.432H363.912V255.296ZM364.728 251.184H373.448V252.336H364.728V251.184ZM368.392 248.576H369.624V256.112H368.392V248.576ZM363.928 261.328C366.104 261.232 369.592 261.04 372.904 260.848V261.936C369.72 262.176 366.376 262.4 364.104 262.544L363.928 261.328ZM370.376 258.592L371.4 258.064C372.616 259.488 373.944 261.392 374.472 262.688L373.352 263.312C372.856 262.048 371.576 260.048 370.376 258.592ZM367.32 256.048L368.616 256.416C367.912 258.272 366.952 260.56 366.152 262.016L365.096 261.648C365.88 260.16 366.824 257.76 367.32 256.048ZM360.456 249.568L361.128 248.672C362.216 249.072 363.592 249.76 364.28 250.32L363.592 251.328C362.92 250.752 361.576 250 360.456 249.568ZM359.608 253.984L360.232 253.056C361.32 253.408 362.728 254.032 363.448 254.544L362.792 255.552C362.104 255.04 360.728 254.368 359.608 253.984ZM360.168 262.304C360.984 261.072 362.184 258.96 363.064 257.152L363.96 257.904C363.16 259.6 362.104 261.6 361.208 263.088L360.168 262.304ZM381.096 250.272H389.208V256.08H381.032V255.072H388.04V251.28H381.096V250.272ZM384.456 248.576H385.624V263.28H384.456V248.576ZM380.36 252.64H390.36V253.696H380.36V252.64ZM380.104 259.744H390.2V260.8H380.104V259.744ZM380.824 257.344H389.416V258.368H380.824V257.344ZM379.304 252.128L380.344 252.544C379.272 254.432 377.608 256.368 376.104 257.632C375.992 257.376 375.656 256.768 375.464 256.48C376.872 255.424 378.392 253.776 379.304 252.128ZM379.064 248.624L380.2 249.056C379.272 250.432 377.752 251.936 376.344 252.896C376.216 252.608 375.896 252.144 375.704 251.904C376.968 251.088 378.36 249.744 379.064 248.624ZM377.912 254.944L379 253.856L379.032 253.888V263.264H377.912V254.944ZM396.104 250.032H402.472V251.072H396.104V250.032ZM402.136 250.032H402.392L402.6 249.984L403.416 250.448C401.416 254.16 396.856 256.128 392.488 256.96C392.392 256.64 392.136 256.144 391.928 255.888C396.04 255.232 400.472 253.344 402.136 250.24V250.032ZM397.032 248.544L398.36 248.784C397.256 250.576 395.544 252.336 393.032 253.68C392.84 253.392 392.456 252.992 392.168 252.8C394.552 251.648 396.2 249.984 397.032 248.544ZM396.152 250.704C397.96 253.408 401.784 255.056 406.296 255.616C406.04 255.888 405.72 256.384 405.576 256.704C401.016 256.016 397.192 254.224 395.128 251.152L396.152 250.704ZM391.896 257.456H406.104V258.544H391.896V257.456ZM398.344 255.744H399.56V263.28H398.344V255.744ZM397.816 257.936L398.76 258.352C397.32 260.352 394.728 262.112 392.376 263.008C392.2 262.704 391.848 262.272 391.592 262.016C393.912 261.28 396.488 259.664 397.816 257.936ZM400.104 257.92C401.432 259.664 403.992 261.216 406.408 261.92C406.136 262.176 405.768 262.64 405.592 262.944C403.176 262.08 400.584 260.336 399.144 258.352L400.104 257.92ZM407.816 250.096H415.208V251.104H407.816V250.096ZM407.624 256.944H415.352V257.952H407.624V256.944ZM408.184 252.48H414.872V253.504H408.184V252.48ZM408.36 254.704H414.68V255.712H408.36V254.704ZM410.952 257.376H412.072V262.064C412.072 262.624 411.976 262.944 411.576 263.104C411.192 263.28 410.616 263.296 409.704 263.296C409.656 262.992 409.496 262.56 409.352 262.256C409.992 262.272 410.552 262.272 410.728 262.256C410.904 262.256 410.952 262.208 410.952 262.048V257.376ZM410.936 248.624H412.072V253.136H410.936V248.624ZM408.856 258.512L409.88 258.704C409.544 260.048 408.968 261.36 408.312 262.24C408.104 262.096 407.64 261.84 407.384 261.744C408.056 260.912 408.568 259.712 408.856 258.512ZM413 258.864L413.912 258.496C414.392 259.264 414.904 260.272 415.096 260.896L414.152 261.36C413.944 260.72 413.464 259.648 413 258.864ZM416.52 251.472H421.368V252.576H416.52V251.472ZM418.472 251.92H419.032V254.768C419.032 256.048 419.512 260.192 422.456 262.272C422.248 262.544 421.88 263.008 421.72 263.296C419.448 261.664 418.616 258.544 418.456 257.232C418.296 258.608 417.352 261.584 414.728 263.296C414.6 263.04 414.264 262.56 414.04 262.336C417.4 260.192 417.88 256.08 417.88 254.768V251.92H418.472ZM416.568 248.544L417.768 248.736C417.4 251.504 416.712 254.144 415.672 255.872C415.464 255.68 414.936 255.328 414.648 255.152C415.672 253.568 416.264 251.104 416.568 248.544ZM421.032 251.472H421.208L421.416 251.424L422.184 251.648C421.976 253.056 421.672 254.736 421.352 255.792L420.392 255.52C420.648 254.544 420.888 252.928 421.032 251.696V251.472Z" fill="#393939"/>
<path d="M359 264.4H423V265.2H359V264.4Z" fill="#393939"/>
<path d="M1787.75 260.75H1783.62C1781.8 260.75 1780.05 261.474 1778.76 262.764C1777.47 264.053 1776.75 265.802 1776.75 267.625V271.75H1772.62V277.25H1776.75V288.25H1782.25V277.25H1786.38L1787.75 271.75H1782.25V267.625C1782.25 267.26 1782.39 266.911 1782.65 266.653C1782.91 266.395 1783.26 266.25 1783.62 266.25H1787.75V260.75Z" stroke="#757575" stroke-width="2" stroke-linecap="round" stroke-linejoin="round"/>
<path d="M1693.62 264.125C1692.31 265.054 1690.85 265.764 1689.31 266.229C1688.48 265.277 1687.38 264.602 1686.15 264.295C1684.93 263.989 1683.64 264.066 1682.46 264.516C1681.28 264.966 1680.27 265.767 1679.56 266.811C1678.85 267.855 1678.48 269.092 1678.5 270.354V271.729C1676.08 271.791 1673.69 271.256 1671.53 270.169C1669.37 269.082 1667.51 267.478 1666.12 265.5C1666.12 265.5 1660.62 277.875 1673 283.375C1670.17 285.297 1666.79 286.261 1663.38 286.125C1675.75 293 1690.88 286.125 1690.88 270.313C1690.87 269.93 1690.84 269.547 1690.77 269.171C1692.17 267.787 1693.16 266.04 1693.62 264.125Z" stroke="#757575" stroke-width="2" stroke-linecap="round" stroke-linejoin="round"/>
<path d="M1741.06 268.938H1741.08M1726.62 262.75H1740.38C1744.17 262.75 1747.25 265.828 1747.25 269.625V283.375C1747.25 287.172 1744.17 290.25 1740.38 290.25H1726.62C1722.83 290.25 1719.75 287.172 1719.75 283.375V269.625C1719.75 265.828 1722.83 262.75 1726.62 262.75ZM1739 275.634C1739.17 276.778 1738.97 277.947 1738.44 278.974C1737.91 280 1737.07 280.833 1736.03 281.353C1735 281.873 1733.83 282.054 1732.69 281.871C1731.54 281.687 1730.49 281.148 1729.67 280.33C1728.85 279.512 1728.31 278.456 1728.13 277.314C1727.95 276.172 1728.13 275.001 1728.65 273.968C1729.17 272.934 1730 272.091 1731.03 271.559C1732.05 271.026 1733.22 270.83 1734.37 271C1735.53 271.173 1736.61 271.717 1737.45 272.551C1738.28 273.386 1738.83 274.466 1739 275.634Z" stroke="#757575" stroke-width="2" stroke-linecap="round" stroke-linejoin="round"/>
<path d="M1845.99 268.828C1845.83 268.175 1845.5 267.577 1845.03 267.094C1844.56 266.611 1843.97 266.261 1843.33 266.078C1840.96 265.5 1831.5 265.5 1831.5 265.5C1831.5 265.5 1822.04 265.5 1819.68 266.133C1819.03 266.316 1818.44 266.666 1817.97 267.149C1817.5 267.632 1817.17 268.23 1817.01 268.883C1816.57 271.283 1816.36 273.717 1816.38 276.156C1816.36 278.613 1816.57 281.067 1817.01 283.485C1817.19 284.117 1817.53 284.692 1818 285.155C1818.46 285.617 1819.04 285.951 1819.68 286.125C1822.04 286.758 1831.5 286.758 1831.5 286.758C1831.5 286.758 1840.96 286.758 1843.33 286.125C1843.97 285.942 1844.56 285.591 1845.03 285.108C1845.5 284.625 1845.83 284.028 1845.99 283.375C1846.42 280.993 1846.63 278.577 1846.63 276.156C1846.64 273.699 1846.43 271.246 1845.99 268.828Z" stroke="#757575" stroke-width="2" stroke-linecap="round" stroke-linejoin="round"/>
<path d="M1828.41 280.653L1836.31 276.156L1828.41 271.66V280.653Z" stroke="#757575" stroke-width="2" stroke-linecap="round" stroke-linejoin="round"/>
<path d="M1773.96 73.24H1775.34V85.36H1773.96V73.24ZM1774.76 73.24H1779.6V84.24H1774.76V82.9H1778.2V74.58H1774.76V73.24ZM1781.46 77.28H1782.74V83.6H1781.46V77.28ZM1782.22 77.28H1786.74V82.56H1782.22V81.4H1785.46V78.44H1782.22V77.28ZM1774.7 77.92H1778.96V79.24H1774.7V77.92ZM1782.72 72.22L1784.14 72.56C1783.32 74.82 1781.98 77.02 1780.6 78.44C1780.34 78.2 1779.74 77.74 1779.38 77.52C1780.78 76.24 1782 74.24 1782.72 72.22ZM1782.6 74.28H1789.36V75.6H1781.8L1782.6 74.28ZM1788.88 74.28H1790.36C1790.36 74.28 1790.34 74.76 1790.34 74.98C1790.1 81.9 1789.86 84.24 1789.24 85.02C1788.88 85.5 1788.5 85.66 1787.88 85.72C1787.34 85.76 1786.38 85.74 1785.42 85.7C1785.38 85.28 1785.24 84.7 1785 84.32C1785.98 84.4 1786.9 84.4 1787.26 84.4C1787.6 84.4 1787.8 84.36 1787.96 84.14C1788.44 83.6 1788.68 81.18 1788.88 74.56V74.28ZM1778.9 86.66L1780.26 86.54C1780.56 87.76 1780.78 89.34 1780.8 90.26L1779.32 90.48C1779.32 89.5 1779.16 87.9 1778.9 86.66ZM1782.98 86.66L1784.38 86.42C1784.92 87.6 1785.5 89.18 1785.72 90.14L1784.22 90.46C1784.04 89.48 1783.5 87.88 1782.98 86.66ZM1787.06 86.52L1788.4 86.06C1789.42 87.28 1790.6 88.98 1791.12 90.1L1789.7 90.6C1789.2 89.52 1788.06 87.78 1787.06 86.52ZM1775.4 86.12L1776.86 86.48C1776.34 87.96 1775.46 89.6 1774.48 90.62L1773.06 90.02C1774 89.14 1774.9 87.58 1775.4 86.12ZM1794.62 75.42H1800.7V88.5H1794.62V87.14H1799.3V76.76H1794.62V75.42ZM1793.72 75.42H1795.12V90.1H1793.72V75.42ZM1794.52 80.98H1800.04V82.32H1794.52V80.98ZM1796.78 72.16L1798.4 72.46C1798 73.7 1797.5 75.08 1797.1 75.98L1795.9 75.68C1796.24 74.72 1796.62 73.2 1796.78 72.16ZM1803.54 75.36H1809.68V76.76H1803.54V75.36ZM1809.16 75.36H1810.56C1810.56 75.36 1810.56 75.92 1810.56 76.14C1810.24 85.32 1809.96 88.42 1809.16 89.4C1808.72 89.98 1808.26 90.16 1807.56 90.22C1806.88 90.3 1805.7 90.26 1804.58 90.2C1804.54 89.76 1804.36 89.14 1804.08 88.74C1805.38 88.84 1806.58 88.86 1807.04 88.86C1807.44 88.86 1807.68 88.8 1807.9 88.54C1808.56 87.82 1808.88 84.5 1809.16 75.68V75.36ZM1803.96 72.12L1805.4 72.46C1804.66 75.44 1803.48 78.38 1802.1 80.28C1801.84 80.04 1801.22 79.62 1800.86 79.42C1802.22 77.66 1803.32 74.9 1803.96 72.12ZM1803.04 80.56L1804.2 79.88C1805.34 81.3 1806.72 83.24 1807.36 84.42L1806.08 85.22C1805.48 84 1804.14 82.02 1803.04 80.56ZM1823.2 75.92H1831.2V77.34H1823.2V75.92ZM1812.84 76.1H1821.62V77.52H1812.84V76.1ZM1823.82 72.2L1825.32 72.44C1824.58 76.18 1823.32 79.62 1821.6 81.86C1821.34 81.62 1820.7 81.12 1820.32 80.9C1822.04 78.86 1823.18 75.6 1823.82 72.2ZM1828.3 76.7L1829.78 76.88C1828.66 83.98 1826.26 88.14 1820.74 90.62C1820.58 90.28 1820.14 89.6 1819.88 89.3C1825.14 87.18 1827.34 83.26 1828.3 76.7ZM1823.9 77.18C1824.92 82.82 1827.1 87.44 1831.34 89.34C1830.98 89.64 1830.52 90.22 1830.3 90.62C1825.88 88.42 1823.7 83.62 1822.54 77.42L1823.9 77.18ZM1816.5 72.2H1818.02V81.9H1816.5V72.2ZM1813.68 81.18H1815.1V89.74H1813.68V81.18ZM1814.52 81.18H1820.82V88.34H1814.52V86.94H1819.4V82.6H1814.52V81.18ZM1841.16 72.2H1842.68V88.92C1842.68 89.86 1842.42 90.22 1841.8 90.44C1841.16 90.64 1840.12 90.66 1838.44 90.66C1838.36 90.3 1838.12 89.74 1837.92 89.4C1839.12 89.44 1840.32 89.42 1840.68 89.42C1841.04 89.4 1841.16 89.28 1841.16 88.92V72.2ZM1833.34 73.8H1850.7V75.04H1833.34V73.8ZM1836.86 77.28V78.72H1847.18V77.28H1836.86ZM1835.44 76.24H1848.7V79.78H1835.44V76.24ZM1834.86 81.18H1849V88.46H1847.5V82.3H1834.86V81.18ZM1832.96 83.68H1851.08V84.88H1832.96V83.68ZM1834.66 86.4H1848.28V87.56H1834.66V86.4Z" fill="#5D5D5D"/>
<path d="M1781.04 186.38H1790.36V187.76H1781.04V186.38ZM1780.56 191.4H1791.1V192.78H1780.56V191.4ZM1784.7 187.42H1786.22V190.2C1786.22 193.16 1785.78 197.5 1780.96 200.78C1780.72 200.46 1780.22 199.98 1779.82 199.72C1784.46 196.76 1784.7 192.76 1784.7 190.18V187.42ZM1786.06 192.58C1786.94 195.66 1788.72 198.2 1791.32 199.34C1790.98 199.64 1790.54 200.2 1790.32 200.58C1787.58 199.2 1785.76 196.38 1784.8 192.88L1786.06 192.58ZM1788.2 182.54L1789.74 182.98C1788.96 184.36 1788 185.9 1787.2 186.92L1785.96 186.48C1786.72 185.42 1787.68 183.74 1788.2 182.54ZM1781.68 183.12L1782.9 182.52C1783.72 183.44 1784.58 184.7 1784.94 185.56L1783.66 186.26C1783.3 185.38 1782.48 184.06 1781.68 183.12ZM1772.92 183.08H1780.44V184.44H1772.92V183.08ZM1774.84 187.26H1778.72V188.54H1774.84V187.26ZM1774.84 191.38H1778.72V192.66H1774.84V191.38ZM1774.02 183.76H1775.36V196.56H1774.02V183.76ZM1778.26 183.74H1779.58V200.62H1778.26V183.74ZM1772.74 196.32C1774.84 196.04 1778.06 195.52 1781.14 195.02L1781.24 196.32C1778.32 196.82 1775.26 197.36 1773.06 197.74L1772.74 196.32ZM1797.36 195.18L1798.9 195.76C1797.62 197.4 1795.72 199.1 1794.1 200.2C1793.8 199.9 1793.16 199.4 1792.76 199.16C1794.44 198.2 1796.24 196.66 1797.36 195.18ZM1804.82 195.94L1806.04 195.1C1807.74 196.32 1809.94 198.08 1811.04 199.22L1809.72 200.16C1808.7 199.02 1806.56 197.2 1804.82 195.94ZM1794.58 187.98L1795.62 187.06C1797.42 188.06 1799.68 189.62 1800.78 190.76L1799.68 191.84C1798.64 190.7 1796.42 189.06 1794.58 187.98ZM1805.04 190.54L1806.24 189.76C1808 191.16 1810.14 193.18 1811.18 194.56L1809.84 195.44C1808.9 194.08 1806.8 192 1805.04 190.54ZM1801.16 193.34H1802.74V200.62H1801.16V193.34ZM1793.1 192.76C1796.98 192.74 1803.26 192.62 1809.06 192.5L1808.98 193.84C1803.28 194.04 1797.22 194.18 1793.26 194.26L1793.1 192.76ZM1805.34 185.5L1806.78 186.26C1804.34 188.86 1800.88 191.88 1798.24 193.76L1797.08 193C1799.76 191.12 1803.24 187.94 1805.34 185.5ZM1800.16 184.14L1801.6 184.88C1800.42 186.32 1798.84 187.98 1797.62 189.04L1796.44 188.38C1797.64 187.3 1799.24 185.48 1800.16 184.14ZM1808.5 182.5L1809.6 183.78C1805.54 184.56 1799.3 184.98 1794.1 185.1C1794.06 184.72 1793.88 184.12 1793.74 183.76C1798.9 183.6 1805.06 183.18 1808.5 182.5ZM1826.06 183.52L1827.2 182.74C1828.38 183.74 1829.78 185.16 1830.44 186.08L1829.2 186.96C1828.6 186 1827.24 184.56 1826.06 183.52ZM1813.1 188.12H1830.92V189.56H1813.1V188.12ZM1812.8 194C1815.18 193.56 1818.94 192.76 1822.46 192L1822.58 193.36C1819.3 194.12 1815.76 194.94 1813.24 195.5L1812.8 194ZM1817.4 184.24H1818.9V198.68C1818.9 199.66 1818.66 200.1 1818.02 200.34C1817.38 200.58 1816.32 200.64 1814.66 200.62C1814.58 200.22 1814.32 199.54 1814.1 199.1C1815.38 199.16 1816.56 199.14 1816.92 199.12C1817.28 199.12 1817.4 199.02 1817.4 198.66V184.24ZM1821.2 182.44L1822.26 183.7C1819.94 184.5 1816.54 185.12 1813.68 185.52C1813.6 185.18 1813.42 184.62 1813.22 184.28C1816.04 183.84 1819.28 183.16 1821.2 182.44ZM1823.2 182.38H1824.76C1824.72 191.56 1826.68 199.16 1829.12 199.16C1829.66 199.16 1829.9 198.12 1830.02 195.54C1830.34 195.88 1830.88 196.22 1831.3 196.38C1831.02 199.7 1830.48 200.68 1828.98 200.68C1825.06 200.68 1823.28 191.9 1823.2 182.38ZM1828.62 190.48L1829.96 191.04C1828 194.7 1824.7 197.92 1821.02 199.86C1820.78 199.48 1820.36 199 1819.98 198.66C1823.54 196.94 1826.84 193.86 1828.62 190.48ZM1843.5 182.94H1849.52V184.32H1843.5V182.94ZM1848.94 182.94H1850.44V198.72C1850.44 199.62 1850.22 200.06 1849.6 200.3C1849 200.54 1847.98 200.56 1846.4 200.56C1846.34 200.18 1846.12 199.52 1845.92 199.12C1847.06 199.18 1848.16 199.16 1848.5 199.14C1848.82 199.12 1848.94 199.02 1848.94 198.7V182.94ZM1839.6 182.86L1840.76 182.22C1841.64 183.42 1842.7 185.06 1843.16 186.06L1841.92 186.78C1841.48 185.76 1840.48 184.08 1839.6 182.86ZM1838.76 186.24H1840.22V200.6H1838.76V186.24ZM1836.48 182.32L1837.88 182.7C1836.88 186.16 1835.32 189.68 1833.52 192.02C1833.38 191.68 1832.96 190.88 1832.7 190.5C1834.28 188.48 1835.66 185.4 1836.48 182.32ZM1834.9 187.36L1836.28 185.96L1836.34 186V200.6H1834.9V187.36Z" fill="#5D5D5D"/>
<path d="M1773.24 130.3H1790.76V131.76H1773.24V130.3ZM1779.44 136.64H1789.98V138.04H1779.44V136.64ZM1778.66 143.72H1790.76V145.14H1778.66V143.72ZM1783.96 132.78H1785.46V144.48H1783.96V132.78ZM1779.82 127.2L1781.36 127.58C1779.96 132.16 1777.52 136.82 1773.54 139.68C1773.38 139.28 1773 138.64 1772.76 138.3C1776.36 135.76 1778.7 131.32 1779.82 127.2ZM1775.86 135.44H1777.36V145.54H1775.86V135.44ZM1793.56 140.36C1793.48 140.06 1793.26 139.38 1793.08 138.98C1793.52 138.92 1793.98 138.42 1794.58 137.66C1795.26 136.94 1797.36 134.14 1798.76 131.4L1800 132.18C1798.42 134.9 1796.48 137.62 1794.58 139.56V139.6C1794.58 139.6 1793.56 140.06 1793.56 140.36ZM1793.56 140.36L1793.48 139.16L1794.22 138.64L1799.66 137.66C1799.62 138.04 1799.62 138.62 1799.66 138.92C1794.64 139.94 1793.96 140.12 1793.56 140.36ZM1793.42 135.56C1793.36 135.24 1793.1 134.52 1792.94 134.12C1793.3 134.04 1793.64 133.56 1794.08 132.9C1794.52 132.24 1795.96 129.66 1796.78 127.28L1798.18 127.94C1797.14 130.38 1795.74 132.94 1794.34 134.74V134.78C1794.34 134.78 1793.42 135.24 1793.42 135.56ZM1793.42 135.56L1793.4 134.44L1794.12 133.96L1797.84 133.6C1797.76 133.98 1797.74 134.54 1797.74 134.82C1794.32 135.26 1793.76 135.38 1793.42 135.56ZM1793.06 142.92C1794.72 142.52 1797.26 141.82 1799.74 141.14L1799.94 142.4C1797.64 143.1 1795.22 143.8 1793.38 144.36L1793.06 142.92ZM1800.64 132.02L1810.04 130.62L1810.3 131.94L1800.9 133.38L1800.64 132.02ZM1800.24 136.32L1810.6 134.38L1810.86 135.72L1800.5 137.68L1800.24 136.32ZM1803.68 127.18H1805.16C1805.1 136.54 1806.66 144.1 1809.28 144.1C1809.84 144.1 1810.04 143.62 1810.12 141.86C1810.44 142.18 1810.9 142.5 1811.24 142.66C1810.98 144.9 1810.5 145.56 1809.12 145.56C1805.1 145.56 1803.74 136.94 1803.68 127.18ZM1806.08 128.4L1806.94 127.58C1807.92 128.02 1809.2 128.74 1809.84 129.28L1808.98 130.22C1808.32 129.66 1807.08 128.88 1806.08 128.4ZM1809.74 137.04L1810.98 137.62C1808.78 141.06 1804.92 143.74 1800.56 145.26C1800.36 144.88 1799.96 144.36 1799.62 144.02C1803.88 142.72 1807.7 140.22 1809.74 137.04ZM1813.36 129.1H1830.66V130.48H1813.36V129.1ZM1821.16 127.22H1822.7V129.9H1821.16V127.22ZM1814.22 132.6H1829.32V133.94H1815.64V145.58H1814.22V132.6ZM1828.52 132.6H1829.96V143.76C1829.96 144.64 1829.76 145.12 1829.12 145.36C1828.46 145.58 1827.36 145.62 1825.7 145.62C1825.64 145.22 1825.4 144.54 1825.2 144.14C1826.5 144.2 1827.7 144.18 1828.06 144.16C1828.42 144.16 1828.52 144.06 1828.52 143.76V132.6ZM1819.26 133.58H1820.62C1820.42 136.2 1819.58 137.56 1816.5 138.3C1816.36 137.98 1816.02 137.46 1815.76 137.22C1818.46 136.68 1819.1 135.68 1819.26 133.58ZM1822.98 133.58H1824.3V135.92C1824.3 136.3 1824.38 136.34 1824.88 136.34C1825.14 136.34 1826.32 136.34 1826.64 136.34C1827.06 136.34 1827.14 136.22 1827.2 135.02C1827.46 135.22 1828 135.4 1828.36 135.48C1828.24 137.1 1827.88 137.5 1826.82 137.5C1826.52 137.5 1825.02 137.5 1824.74 137.5C1823.3 137.5 1822.98 137.18 1822.98 135.94V133.58ZM1818.28 138.54H1819.62V144.68H1818.28V138.54ZM1819.08 138.54H1825.88V143.46H1819.08V142.28H1824.52V139.72H1819.08V138.54ZM1817.2 130.48L1818.66 130.18C1819.12 130.94 1819.58 131.96 1819.78 132.62L1818.26 132.98C1818.08 132.3 1817.64 131.26 1817.2 130.48ZM1825.26 130.12L1826.9 130.42C1826.42 131.38 1825.92 132.32 1825.5 132.98L1824.04 132.68C1824.46 131.98 1824.98 130.86 1825.26 130.12ZM1843.22 134.06H1850.76V135.4H1843.22V134.06ZM1838.52 143.5H1848.6V144.84H1838.52V143.5ZM1842.5 131.68H1844.02V139H1842.5V131.68ZM1837.72 138.28H1849.42V145.6H1847.88V139.64H1839.18V145.64H1837.72V138.28ZM1841.8 127.22H1843.34V130.62H1841.8V127.22ZM1835.14 129.8H1851.04V131.24H1835.14V129.8ZM1834.4 129.8H1835.9V134.98C1835.9 138.06 1835.62 142.58 1833.9 145.62C1833.64 145.36 1832.98 144.94 1832.62 144.78C1834.26 141.9 1834.4 137.86 1834.4 134.98V129.8Z" fill="#5D5D5D"/>
<path d="M1751.9 181.413L1743.69 200.196C1743.36 200.914 1742.51 201.203 1741.81 200.848C1741.11 200.493 1740.81 199.626 1741.13 198.916L1750.18 180.554C1750.41 180.067 1750.98 179.86 1751.46 180.1C1751.93 180.339 1752.13 180.926 1751.91 181.413H1751.9Z" fill="#757575"/>
<path d="M1762.22 79.9608L1742.64 83.9778C1741.88 84.1175 1741.16 83.5835 1741.02 82.7785C1740.89 81.9816 1741.39 81.2176 1742.14 81.0862L1761.88 78.0138C1762.4 77.9235 1762.9 78.2849 1762.98 78.8189C1763.08 79.3529 1762.74 79.8622 1762.22 79.9608Z" fill="#757575"/>
<path d="M1758.66 128.71L1743.37 142.646C1742.77 143.17 1741.87 143.105 1741.35 142.501C1740.83 141.897 1740.9 140.987 1741.5 140.463L1757.4 127.244C1757.8 126.89 1758.43 126.922 1758.77 127.333C1759.12 127.736 1759.06 128.356 1758.66 128.71Z" fill="#757575"/>
<defs>
<clipPath id="clip0_20_47">
<rect width="78" height="78" fill="white" transform="translate(106 102)"/>
</clipPath>
</defs>
</svg>
