<svg width="1410" height="92" viewBox="0 0 1410 92" fill="none" xmlns="http://www.w3.org/2000/svg">
<path d="M751.78 30.88H761.6V32.14H751.78V30.88ZM751.9 23.9H761.54V25.12H751.9V23.9ZM755.5 29.16L756.9 29.46C756 31.42 754.74 33.86 753.82 35.44L752.5 34.98C753.4 33.46 754.66 31 755.5 29.16ZM758.5 31.62L759.9 31.8C759.22 35.7 757.12 37.62 752.5 38.6C752.4 38.2 752.1 37.66 751.82 37.36C756 36.66 757.88 35.02 758.5 31.62ZM759.76 20.6L761.04 21.16C760.46 22.08 759.8 23.08 759.24 23.76L758.24 23.26C758.74 22.54 759.4 21.38 759.76 20.6ZM756.04 20.2H757.42V29.4H756.04V20.2ZM752.64 21.16L753.78 20.68C754.34 21.48 754.88 22.54 755.08 23.26L753.9 23.8C753.72 23.08 753.2 21.98 752.64 21.16ZM756.06 24.44L757.08 25.04C756.1 26.72 754.22 28.5 752.5 29.44C752.32 29.1 751.96 28.6 751.68 28.3C753.34 27.58 755.18 25.98 756.06 24.44ZM757.26 25.14C757.98 25.52 760.42 27.06 761 27.48L760.18 28.58C759.46 27.9 757.38 26.34 756.54 25.78L757.26 25.14ZM763.06 23.9H770.18V25.3H763.06V23.9ZM763.56 20.2L765.08 20.42C764.42 24.34 763.24 27.92 761.48 30.26C761.24 29.98 760.62 29.48 760.26 29.24C761.96 27.12 763 23.74 763.56 20.2ZM767.5 24.7L769.02 24.86C768.06 31.76 765.94 36.06 760.9 38.66C760.74 38.3 760.3 37.64 760 37.32C764.76 35.08 766.68 31.04 767.5 24.7ZM763.86 25.14C764.74 30.64 766.66 35.36 770.38 37.32C770.02 37.62 769.54 38.2 769.32 38.6C765.4 36.3 763.5 31.42 762.5 25.36L763.86 25.14ZM753.7 34.7L754.5 33.68C756.9 34.6 759.38 35.92 760.82 37.02L759.78 38.1C758.4 36.98 756.02 35.64 753.7 34.7ZM775.98 23.7V24.82H785.94V23.7H775.98ZM775.98 21.76V22.84H785.94V21.76H775.98ZM774.54 20.86H787.44V25.72H774.54V20.86ZM775.6 31.56V32.7H786.54V31.56H775.6ZM775.6 29.54V30.66H786.54V29.54H775.6ZM774.18 28.6H788.02V33.62H774.18V28.6ZM780.22 28.94H781.7V37.56H780.22V28.94ZM772.04 26.56H789.98V27.72H772.04V26.56ZM773.62 34.72H788.46V35.78H773.62V34.72ZM771.92 36.94H790.08V38.12H771.92V36.94ZM798.372 35.04H804.052C804.385 35.04 804.552 35.2067 804.552 35.54V36.5C804.552 36.8333 804.385 37 804.052 37H796.992C796.658 37 796.492 36.8333 796.492 36.5V35.94C796.492 35.6867 796.572 35.48 796.732 35.32L799.272 32.7C800.152 31.78 800.805 30.94 801.232 30.18C801.672 29.42 801.892 28.64 801.892 27.84C801.892 27.0533 801.692 26.44 801.292 26C800.905 25.5467 800.358 25.32 799.652 25.32C799.545 25.32 799.458 25.3267 799.392 25.34C799.112 25.3667 798.938 25.52 798.872 25.8L798.652 26.68C798.532 27.2533 798.372 27.64 798.172 27.84C797.972 28.04 797.732 28.14 797.452 28.14C796.945 28.14 796.585 27.9133 796.372 27.46C796.398 26.9133 796.532 26.4467 796.772 26.06C797.025 25.6733 797.338 25.36 797.712 25.12C798.085 24.8667 798.505 24.6867 798.972 24.58C799.452 24.46 799.932 24.4 800.412 24.4C800.932 24.4 801.412 24.46 801.852 24.58C802.305 24.7 802.698 24.8933 803.032 25.16C803.365 25.4133 803.625 25.74 803.812 26.14C803.998 26.54 804.092 27.02 804.092 27.58C804.092 28.0733 804.012 28.5267 803.852 28.94C803.705 29.3533 803.472 29.7733 803.152 30.2C802.832 30.6267 802.425 31.0933 801.932 31.6C801.438 32.0933 800.852 32.6667 800.172 33.32L798.372 35.04Z" fill="black" fill-opacity="0.6"/>
<path d="M2.86 38.04H8.54C8.87333 38.04 9.04 38.2067 9.04 38.54V39.5C9.04 39.8333 8.87333 40 8.54 40H1.48C1.14667 40 0.98 39.8333 0.98 39.5V38.94C0.98 38.6867 1.06 38.48 1.22 38.32L3.76 35.7C4.64 34.78 5.29333 33.94 5.72 33.18C6.16 32.42 6.38 31.64 6.38 30.84C6.38 30.0533 6.18 29.44 5.78 29C5.39333 28.5467 4.84667 28.32 4.14 28.32C4.03333 28.32 3.94667 28.3267 3.88 28.34C3.6 28.3667 3.42667 28.52 3.36 28.8L3.14 29.68C3.02 30.2533 2.86 30.64 2.66 30.84C2.46 31.04 2.22 31.14 1.94 31.14C1.43333 31.14 1.07333 30.9133 0.86 30.46C0.886667 29.9133 1.02 29.4467 1.26 29.06C1.51333 28.6733 1.82667 28.36 2.2 28.12C2.57333 27.8667 2.99333 27.6867 3.46 27.58C3.94 27.46 4.42 27.4 4.9 27.4C5.42 27.4 5.9 27.46 6.34 27.58C6.79333 27.7 7.18667 27.8933 7.52 28.16C7.85333 28.4133 8.11333 28.74 8.3 29.14C8.48667 29.54 8.58 30.02 8.58 30.58C8.58 31.0733 8.5 31.5267 8.34 31.94C8.19333 32.3533 7.96 32.7733 7.64 33.2C7.32 33.6267 6.91333 34.0933 6.42 34.6C5.92667 35.0933 5.34 35.6667 4.66 36.32L2.86 38.04ZM14.8233 27.4C15.3433 27.4 15.8566 27.52 16.3633 27.76C16.8699 28 17.3233 28.3733 17.7233 28.88C18.1099 29.3867 18.4166 30.0533 18.6433 30.88C18.8833 31.6933 19.0033 32.6867 19.0033 33.86C19.0033 35.0333 18.8833 36.0267 18.6433 36.84C18.4166 37.64 18.1099 38.2933 17.7233 38.8C17.3233 39.3067 16.8699 39.68 16.3633 39.92C15.8566 40.16 15.3433 40.28 14.8233 40.28C14.2766 40.28 13.7499 40.16 13.2433 39.92C12.7499 39.68 12.3099 39.3067 11.9233 38.8C11.5233 38.2933 11.2033 37.64 10.9633 36.84C10.7233 36.0267 10.6033 35.0333 10.6033 33.86C10.6033 33.1933 10.6633 32.4867 10.7833 31.74C10.9166 30.98 11.1433 30.28 11.4633 29.64C11.7833 28.9867 12.2099 28.4533 12.7433 28.04C13.2899 27.6133 13.9833 27.4 14.8233 27.4ZM12.8433 33.86C12.8433 35.02 12.8899 35.9533 12.9833 36.66C13.0899 37.3667 13.2366 37.92 13.4233 38.32C13.6099 38.7333 13.8233 39.0133 14.0633 39.16C14.3033 39.2933 14.5566 39.36 14.8233 39.36C15.0899 39.36 15.3366 39.2933 15.5633 39.16C15.8033 39.0133 16.0166 38.7333 16.2033 38.32C16.3899 37.92 16.5299 37.3667 16.6233 36.66C16.7299 35.9533 16.7833 35.02 16.7833 33.86C16.7833 32.7 16.7299 31.76 16.6233 31.04C16.5299 30.32 16.3899 29.76 16.2033 29.36C16.0166 28.96 15.8033 28.6867 15.5633 28.54C15.3366 28.3933 15.0899 28.32 14.8233 28.32C14.5566 28.32 14.3033 28.3933 14.0633 28.54C13.8233 28.6733 13.6099 28.94 13.4233 29.34C13.2366 29.7533 13.0899 30.32 12.9833 31.04C12.8899 31.76 12.8433 32.7 12.8433 33.86ZM22.5866 38.04H28.2666C28.5999 38.04 28.7666 38.2067 28.7666 38.54V39.5C28.7666 39.8333 28.5999 40 28.2666 40H21.2066C20.8732 40 20.7066 39.8333 20.7066 39.5V38.94C20.7066 38.6867 20.7866 38.48 20.9466 38.32L23.4866 35.7C24.3666 34.78 25.0199 33.94 25.4466 33.18C25.8866 32.42 26.1066 31.64 26.1066 30.84C26.1066 30.0533 25.9066 29.44 25.5066 29C25.1199 28.5467 24.5732 28.32 23.8666 28.32C23.7599 28.32 23.6732 28.3267 23.6066 28.34C23.3266 28.3667 23.1532 28.52 23.0866 28.8L22.8666 29.68C22.7466 30.2533 22.5866 30.64 22.3866 30.84C22.1866 31.04 21.9466 31.14 21.6666 31.14C21.1599 31.14 20.7999 30.9133 20.5866 30.46C20.6132 29.9133 20.7466 29.4467 20.9866 29.06C21.2399 28.6733 21.5532 28.36 21.9266 28.12C22.2999 27.8667 22.7199 27.6867 23.1866 27.58C23.6666 27.46 24.1466 27.4 24.6266 27.4C25.1466 27.4 25.6266 27.46 26.0666 27.58C26.5199 27.7 26.9132 27.8933 27.2466 28.16C27.5799 28.4133 27.8399 28.74 28.0266 29.14C28.2132 29.54 28.3066 30.02 28.3066 30.58C28.3066 31.0733 28.2266 31.5267 28.0666 31.94C27.9199 32.3533 27.6866 32.7733 27.3666 33.2C27.0466 33.6267 26.6399 34.0933 26.1466 34.6C25.6532 35.0933 25.0666 35.6667 24.3866 36.32L22.5866 38.04ZM38.6498 35.1C38.9832 35.1 39.1498 35.2667 39.1498 35.6V36.16C39.1498 36.4933 38.9832 36.66 38.6498 36.66H37.2298V39.5C37.2298 39.8333 37.0632 40 36.7298 40H35.7498C35.4165 40 35.2498 39.8333 35.2498 39.5V36.66H30.4698C30.1365 36.66 29.9698 36.4933 29.9698 36.16V35.74C29.9698 35.5133 30.0365 35.3067 30.1698 35.12L35.5498 27.8C35.7098 27.6 35.9098 27.5 36.1498 27.5H36.7298C37.0632 27.5 37.2298 27.6667 37.2298 28V35.1H38.6498ZM31.3698 35.1H35.2498V29.68L31.3698 35.1ZM44.9931 23.14L46.4931 23.52C45.3931 26.48 43.6131 29.26 41.7531 31.06C41.4531 30.8 40.8331 30.3 40.4531 30.1C42.3531 28.44 44.0131 25.84 44.9931 23.14ZM44.6731 25.62H57.5731V27.08H43.9531L44.6731 25.62ZM43.6931 30.16H57.1331V31.56H45.1931V36.3H43.6931V30.16ZM40.3931 35.54H58.5131V37H40.3931V35.54ZM49.6931 26.38H51.2331V41.62H49.6931V26.38ZM60.5531 28.2C60.5531 27.8667 60.7198 27.7 61.0531 27.7H68.0331C68.3665 27.7 68.5331 27.8667 68.5331 28.2V28.54C68.5331 28.7267 68.4931 28.9333 68.4131 29.16L64.1931 39.62C64.0998 39.8733 63.9065 40 63.6131 40H62.4331C62.1931 40 62.0398 39.9667 61.9731 39.9C61.9198 39.8467 61.9531 39.6867 62.0731 39.42L66.9531 29.66H61.0531C60.7198 29.66 60.5531 29.4933 60.5531 29.16V28.2ZM74.3764 24.26H84.8164V25.72H74.3764V24.26ZM74.3764 29.08H84.8964V30.52H74.3764V29.08ZM74.2164 33.92H84.7964V35.36H74.2164V33.92ZM73.4564 24.26H74.9764V30.44C74.9764 33.9 74.4764 38.62 71.0364 41.62C70.8164 41.3 70.2164 40.76 69.8964 40.54C73.1164 37.72 73.4564 33.66 73.4564 30.44V24.26ZM84.1564 24.26H85.7164V39.4C85.7164 40.46 85.4364 40.98 84.6764 41.24C83.8964 41.5 82.5764 41.52 80.4164 41.52C80.3164 41.08 80.0364 40.36 79.7764 39.94C81.4364 40 83.0764 39.98 83.5364 39.98C83.9964 39.96 84.1564 39.82 84.1564 39.38V24.26ZM95.4164 38.3C95.4297 38.58 95.5831 38.7533 95.8764 38.82L97.5564 39.16C97.8497 39.2133 97.9964 39.3667 97.9964 39.62C97.9964 39.8733 97.8297 40 97.4964 40H91.1764C90.8431 40 90.6764 39.8733 90.6764 39.62C90.6764 39.38 90.8297 39.2267 91.1364 39.16L92.8364 38.84C93.1297 38.7733 93.2831 38.5933 93.2964 38.3V29.7C93.2964 29.38 93.1364 29.22 92.8164 29.22H92.7764L91.7164 29.32C91.5697 29.32 91.4431 29.3 91.3364 29.26C91.2431 29.2067 91.1964 29.0933 91.1964 28.92C91.1964 28.6533 91.3431 28.48 91.6364 28.4L94.8764 27.58C94.9431 27.5533 94.9964 27.54 95.0364 27.54C95.0897 27.54 95.1431 27.54 95.1964 27.54C95.2897 27.54 95.3497 27.5533 95.3764 27.58C95.4431 27.6467 95.4764 27.8067 95.4764 28.06L95.4164 30.42V38.3ZM102.04 38.04H107.72C108.053 38.04 108.22 38.2067 108.22 38.54V39.5C108.22 39.8333 108.053 40 107.72 40H100.66C100.326 40 100.16 39.8333 100.16 39.5V38.94C100.16 38.6867 100.24 38.48 100.4 38.32L102.94 35.7C103.82 34.78 104.473 33.94 104.9 33.18C105.34 32.42 105.56 31.64 105.56 30.84C105.56 30.0533 105.36 29.44 104.96 29C104.573 28.5467 104.026 28.32 103.32 28.32C103.213 28.32 103.126 28.3267 103.06 28.34C102.78 28.3667 102.606 28.52 102.54 28.8L102.32 29.68C102.2 30.2533 102.04 30.64 101.84 30.84C101.64 31.04 101.4 31.14 101.12 31.14C100.613 31.14 100.253 30.9133 100.04 30.46C100.066 29.9133 100.2 29.4467 100.44 29.06C100.693 28.6733 101.006 28.36 101.38 28.12C101.753 27.8667 102.173 27.6867 102.64 27.58C103.12 27.46 103.6 27.4 104.08 27.4C104.6 27.4 105.08 27.46 105.52 27.58C105.973 27.7 106.366 27.8933 106.7 28.16C107.033 28.4133 107.293 28.74 107.48 29.14C107.666 29.54 107.76 30.02 107.76 30.58C107.76 31.0733 107.68 31.5267 107.52 31.94C107.373 32.3533 107.14 32.7733 106.82 33.2C106.5 33.6267 106.093 34.0933 105.6 34.6C105.106 35.0933 104.52 35.6667 103.84 36.32L102.04 38.04ZM112.563 24.56H125.663V41.3H124.083V26.08H114.103V41.38H112.563V24.56ZM113.583 31.5H124.743V32.98H113.583V31.5ZM113.563 38.58H124.783V40.08H113.563V38.58Z" fill="black" fill-opacity="0.6"/>
<path d="M221.352 22.088H223.008V36.632H221.352V22.088ZM222.312 22.088H228.12V35.288H222.312V33.68H226.44V23.696H222.312V22.088ZM230.352 26.936H231.888V34.52H230.352V26.936ZM231.264 26.936H236.688V33.272H231.264V31.88H235.152V28.328H231.264V26.936ZM222.24 27.704H227.352V29.288H222.24V27.704ZM231.864 20.864L233.568 21.272C232.584 23.984 230.976 26.624 229.32 28.328C229.008 28.04 228.288 27.488 227.856 27.224C229.536 25.688 231 23.288 231.864 20.864ZM231.72 23.336H239.832V24.92H230.76L231.72 23.336ZM239.256 23.336H241.032C241.032 23.336 241.008 23.912 241.008 24.176C240.72 32.48 240.432 35.288 239.688 36.224C239.256 36.8 238.8 36.992 238.056 37.064C237.408 37.112 236.256 37.088 235.104 37.04C235.056 36.536 234.888 35.84 234.6 35.384C235.776 35.48 236.88 35.48 237.312 35.48C237.72 35.48 237.96 35.432 238.152 35.168C238.728 34.52 239.016 31.616 239.256 23.672V23.336ZM227.28 38.192L228.912 38.048C229.272 39.512 229.536 41.408 229.56 42.512L227.784 42.776C227.784 41.6 227.592 39.68 227.28 38.192ZM232.176 38.192L233.856 37.904C234.504 39.32 235.2 41.216 235.464 42.368L233.664 42.752C233.448 41.576 232.8 39.656 232.176 38.192ZM237.072 38.024L238.68 37.472C239.904 38.936 241.32 40.976 241.944 42.32L240.24 42.92C239.64 41.624 238.272 39.536 237.072 38.024ZM223.08 37.544L224.832 37.976C224.208 39.752 223.152 41.72 221.976 42.944L220.272 42.224C221.4 41.168 222.48 39.296 223.08 37.544ZM244.728 32.528C244.728 31.936 244.872 31.52 245.16 31.28C245.448 31.04 245.792 30.92 246.192 30.92C246.608 30.92 246.96 31.04 247.248 31.28C247.552 31.52 247.704 31.936 247.704 32.528C247.704 33.104 247.552 33.52 247.248 33.776C246.96 34.032 246.608 34.16 246.192 34.16C245.792 34.16 245.448 34.032 245.16 33.776C244.872 33.52 244.728 33.104 244.728 32.528ZM258.23 37.544L259.19 36.56C260.582 37.208 262.31 38.264 263.198 39.032L262.19 40.16C261.326 39.368 259.622 38.264 258.23 37.544ZM251.174 23.048H257.126V24.56H251.174V23.048ZM256.094 31.904L257.87 32.096C257.342 35.048 256.478 38.984 255.83 41.264H253.982C254.654 38.888 255.566 34.808 256.094 31.904ZM256.502 34.832H266.342V36.2H256.094L256.502 34.832ZM265.382 34.832H267.182V40.328C267.182 40.904 267.302 41 267.95 41C268.238 41 269.654 41 270.038 41C270.662 41 270.782 40.64 270.83 38.072C271.214 38.36 271.934 38.648 272.414 38.744C272.246 41.768 271.79 42.56 270.23 42.56C269.846 42.56 268.07 42.56 267.662 42.56C265.886 42.56 265.382 42.08 265.382 40.328V34.832ZM250.55 28.952C252.446 28.472 255.278 27.704 258.062 26.936L258.254 28.448C255.71 29.192 253.046 29.936 251.03 30.536L250.55 28.952ZM261.062 20.84L262.742 21.08C261.926 23.168 260.63 25.376 258.494 27.128C258.206 26.744 257.654 26.24 257.246 26.024C259.19 24.56 260.462 22.52 261.062 20.84ZM261.038 22.928H270.134V24.344H260.054L261.038 22.928ZM269.75 22.928H270.038L270.35 22.856L271.646 23.216C271.022 24.536 270.326 26 269.702 26.936L268.142 26.48C268.67 25.64 269.318 24.32 269.75 23.168V22.928ZM264.518 23.504H265.382V24.608C265.382 25.472 266.006 28.544 272.294 29.816C272.006 30.176 271.574 30.824 271.358 31.208C266.654 30.2 264.926 27.848 264.518 26.48C264.158 27.824 262.502 30.176 257.63 31.184C257.462 30.824 257.006 30.224 256.694 29.888C263.15 28.592 263.606 25.496 263.606 24.608V23.504H264.518ZM251.15 31.52H271.694V32.984H251.15V31.52ZM250.79 40.808C254.15 40.712 259.358 40.52 264.23 40.304L264.206 41.768C259.43 41.984 254.39 42.248 250.958 42.368L250.79 40.808ZM285.158 22.136H296.222V23.768H285.158V22.136ZM287.366 22.784H288.998C288.758 28.568 288.23 36.584 287.75 41.024H286.046C286.574 36.488 287.174 28.448 287.366 22.784ZM284.318 40.76C286.406 40.448 289.622 39.896 292.79 39.368L292.886 40.832C290.054 41.384 287.054 41.96 284.822 42.368L284.318 40.76ZM288.926 31.544L290.126 31.16C291.038 32.84 291.878 35.024 292.142 36.464L290.846 36.872C290.582 35.432 289.79 33.2 288.926 31.544ZM292.766 27.248H294.422C294.398 34.256 294.422 41.264 295.622 41.264C295.934 41.264 296.03 39.752 296.054 37.616C296.39 38 296.822 38.408 297.158 38.624C297.014 41.792 296.702 42.944 295.454 42.944C292.814 42.944 292.862 35.864 292.766 27.248ZM274.79 25.616H285.446V27.224H274.79V25.616ZM274.358 32.024H285.71V33.68H274.358V32.024ZM282.974 20.864L284.702 21.344C284.054 22.76 283.262 24.464 282.638 25.52L281.294 25.088C281.894 23.96 282.614 22.136 282.974 20.864ZM275.798 21.368L277.214 20.912C277.91 22.184 278.582 23.864 278.822 24.968L277.31 25.472C277.094 24.368 276.47 22.64 275.798 21.368ZM281.534 26.24H283.166V42.896H281.534V26.24ZM276.95 26.24H278.558V31.928C278.558 35.792 278.222 39.824 275.582 43.064C275.294 42.704 274.67 42.2 274.262 41.96C276.686 39.008 276.95 35.36 276.95 31.928V26.24ZM288.062 27.248H293.702V28.856H287.918L288.062 27.248ZM303.854 36.416L305.702 37.112C304.166 39.08 301.886 41.12 299.942 42.44C299.582 42.08 298.814 41.48 298.334 41.192C300.35 40.04 302.51 38.192 303.854 36.416ZM312.806 37.328L314.27 36.32C316.31 37.784 318.95 39.896 320.27 41.264L318.686 42.392C317.462 41.024 314.894 38.84 312.806 37.328ZM300.518 27.776L301.766 26.672C303.926 27.872 306.638 29.744 307.958 31.112L306.638 32.408C305.39 31.04 302.726 29.072 300.518 27.776ZM313.07 30.848L314.51 29.912C316.622 31.592 319.19 34.016 320.438 35.672L318.83 36.728C317.702 35.096 315.182 32.6 313.07 30.848ZM308.414 34.208H310.31V42.944H308.414V34.208ZM298.742 33.512C303.398 33.488 310.934 33.344 317.894 33.2L317.798 34.808C310.958 35.048 303.686 35.216 298.934 35.312L298.742 33.512ZM313.43 24.8L315.158 25.712C312.23 28.832 308.078 32.456 304.91 34.712L303.518 33.8C306.734 31.544 310.91 27.728 313.43 24.8ZM307.214 23.168L308.942 24.056C307.526 25.784 305.63 27.776 304.166 29.048L302.75 28.256C304.19 26.96 306.11 24.776 307.214 23.168ZM317.222 21.2L318.542 22.736C313.67 23.672 306.182 24.176 299.942 24.32C299.894 23.864 299.678 23.144 299.51 22.712C305.702 22.52 313.094 22.016 317.222 21.2ZM335.726 23.6H337.478V36.728H335.726V23.6ZM341.558 21.296H343.358V40.568C343.358 41.792 343.022 42.32 342.302 42.608C341.51 42.92 340.214 42.968 338.03 42.944C337.91 42.464 337.646 41.672 337.382 41.168C339.014 41.216 340.502 41.192 340.934 41.192C341.39 41.168 341.558 41.024 341.558 40.592V21.296ZM326.342 27.32H332.87V29H326.342V27.32ZM322.838 22.088H334.79V23.768H322.838V22.088ZM324.638 32.384L325.478 31.064C327.278 32.072 329.606 33.56 330.758 34.52L329.846 36.032C328.718 35.024 326.414 33.464 324.638 32.384ZM332.198 27.32H332.558L332.894 27.248L334.022 27.656C332.702 35.504 329.222 40.448 324.782 42.992C324.518 42.584 323.846 41.936 323.438 41.648C327.806 39.32 331.094 34.784 332.198 27.728V27.32ZM327.182 22.88L329.006 23.216C327.974 27.368 326.198 32.024 323.198 34.88C322.886 34.544 322.31 33.992 321.95 33.68C324.734 31.04 326.438 26.6 327.182 22.88ZM346.982 34.424C346.582 34.424 346.382 34.224 346.382 33.824V33.224C346.382 32.824 346.582 32.624 346.982 32.624H351.566C351.966 32.624 352.166 32.824 352.166 33.224V33.824C352.166 34.224 351.966 34.424 351.566 34.424H346.982ZM365.085 23.888H375.909V25.448H365.085V23.888ZM365.373 27.656H373.893V29.216H365.373V27.656ZM362.229 32.768H376.413V34.448H362.229V32.768ZM364.077 38.192H376.101V39.728H364.077V38.192ZM365.493 20.792L367.269 21.176C366.429 24.176 364.989 27.032 363.405 28.88C363.069 28.616 362.301 28.088 361.869 27.872C363.501 26.144 364.797 23.528 365.493 20.792ZM364.557 27.656H366.189C365.757 31.856 365.109 37.616 364.581 40.904L362.877 40.76C363.453 37.472 364.197 31.736 364.557 27.656ZM368.925 28.328H370.509C370.293 31.736 369.885 36.344 369.549 38.96H367.965C368.325 36.296 368.757 31.664 368.925 28.328ZM373.509 27.656H375.165C375.165 27.656 375.165 28.256 375.165 28.496C374.757 38 374.349 41.072 373.581 42.056C373.149 42.656 372.669 42.824 371.997 42.872C371.397 42.944 370.413 42.92 369.357 42.872C369.333 42.464 369.165 41.864 368.973 41.504C370.005 41.576 370.893 41.6 371.325 41.576C371.709 41.6 371.925 41.528 372.141 41.24C372.765 40.496 373.173 37.184 373.509 28.04V27.656ZM354.357 26.048H362.109V27.752H354.357V26.048ZM357.741 20.84H359.397V42.896H357.741V20.84ZM357.693 27.056L358.797 27.44C358.053 31.232 356.469 35.96 354.789 38.36C354.597 37.904 354.165 37.208 353.877 36.824C355.461 34.664 357.021 30.488 357.693 27.056ZM359.277 29.384C359.829 30.032 361.845 33.056 362.277 33.776L361.269 35.12C360.741 33.896 359.085 31.088 358.461 30.128L359.277 29.384ZM388.869 22.136H399.933V23.768H388.869V22.136ZM391.077 22.784H392.709C392.469 28.568 391.941 36.584 391.461 41.024H389.757C390.285 36.488 390.885 28.448 391.077 22.784ZM388.029 40.76C390.117 40.448 393.333 39.896 396.501 39.368L396.597 40.832C393.765 41.384 390.765 41.96 388.533 42.368L388.029 40.76ZM392.637 31.544L393.837 31.16C394.749 32.84 395.589 35.024 395.853 36.464L394.557 36.872C394.293 35.432 393.501 33.2 392.637 31.544ZM396.477 27.248H398.133C398.109 34.256 398.133 41.264 399.333 41.264C399.645 41.264 399.741 39.752 399.765 37.616C400.101 38 400.533 38.408 400.869 38.624C400.725 41.792 400.413 42.944 399.165 42.944C396.525 42.944 396.573 35.864 396.477 27.248ZM378.501 25.616H389.157V27.224H378.501V25.616ZM378.069 32.024H389.421V33.68H378.069V32.024ZM386.685 20.864L388.413 21.344C387.765 22.76 386.973 24.464 386.349 25.52L385.005 25.088C385.605 23.96 386.325 22.136 386.685 20.864ZM379.509 21.368L380.925 20.912C381.621 22.184 382.293 23.864 382.533 24.968L381.021 25.472C380.805 24.368 380.181 22.64 379.509 21.368ZM385.245 26.24H386.877V42.896H385.245V26.24ZM380.661 26.24H382.269V31.928C382.269 35.792 381.933 39.824 379.293 43.064C379.005 42.704 378.381 42.2 377.973 41.96C380.397 39.008 380.661 35.36 380.661 31.928V26.24ZM391.773 27.248H397.413V28.856H391.629L391.773 27.248Z" fill="#666666"/>
<line x1="8.41765e-08" y1="88" x2="1410" y2="88.0001" stroke="#868686" stroke-opacity="0.6" stroke-width="2"/>
<path d="M1334.9 19.92H1336.44V30C1336.44 31.26 1336.88 31.56 1339.08 31.56C1340.14 31.56 1345.36 31.56 1346.7 31.56C1348.9 31.56 1349.24 30.88 1349.5 27.64C1349.92 27.92 1350.58 28.18 1351.04 28.26C1350.64 31.96 1350 33.04 1346.7 33.04C1345.88 33.04 1339.92 33.04 1339.18 33.04C1335.92 33.04 1334.9 32.46 1334.9 29.96V19.92ZM1335.74 23.2H1347.54V24.7H1335.74V23.2ZM1333.86 16.46H1348.48V25.68H1346.94V17.94H1333.86V16.46ZM1356.54 21.02H1367.42V22.38H1356.54V21.02ZM1353.12 24.7H1370.86V26.12H1353.12V24.7ZM1358.38 25.68H1359.98C1359.56 29.58 1358.44 32.28 1353.56 33.64C1353.4 33.26 1353 32.66 1352.68 32.36C1357.18 31.24 1358.04 28.94 1358.38 25.68ZM1363.44 25.56H1364.94V31.18C1364.94 31.78 1365.08 31.88 1365.92 31.88C1366.32 31.88 1368.22 31.88 1368.74 31.88C1369.5 31.88 1369.64 31.52 1369.7 29.22C1370.02 29.46 1370.66 29.7 1371.06 29.82C1370.9 32.56 1370.46 33.26 1368.86 33.26C1368.46 33.26 1366.16 33.26 1365.76 33.26C1363.92 33.26 1363.44 32.8 1363.44 31.2V25.56ZM1361.16 15.22H1362.74V18.4H1361.16V15.22ZM1353.58 17.36H1370.4V21.6H1368.82V18.78H1355.1V21.6H1353.58V17.36ZM1375.4 22.7H1380.38V24.1H1375.4V22.7ZM1379.78 22.7H1381.24C1381.24 22.7 1381.24 23.14 1381.24 23.34C1381.14 27.86 1381.02 29.54 1380.6 30.1C1380.28 30.46 1379.96 30.6 1379.4 30.66C1378.88 30.72 1377.98 30.7 1377 30.66C1376.96 30.22 1376.8 29.64 1376.58 29.26C1377.48 29.34 1378.36 29.34 1378.7 29.34C1378.98 29.34 1379.18 29.32 1379.32 29.14C1379.62 28.78 1379.72 27.28 1379.78 22.96V22.7ZM1385.42 16.22L1386.32 15.28C1387.56 15.92 1389.14 16.88 1389.92 17.58L1388.98 18.6C1388.22 17.9 1386.68 16.88 1385.42 16.22ZM1388.28 21.64L1389.78 22C1388.08 27.22 1385.1 31.08 1381 33.5C1380.78 33.2 1380.22 32.58 1379.9 32.28C1383.96 30.12 1386.78 26.46 1388.28 21.64ZM1375.52 18.6H1391V20.08H1375.52V18.6ZM1374.56 18.6H1376.12V24.24C1376.12 27.08 1375.8 31.12 1373.98 33.74C1373.72 33.44 1373.08 32.92 1372.72 32.74C1374.38 30.28 1374.56 26.84 1374.56 24.22V18.6ZM1382.86 15.24H1384.42C1384.38 24.44 1386.34 31.94 1388.94 31.94C1389.5 31.94 1389.76 30.9 1389.88 28.24C1390.22 28.58 1390.78 28.92 1391.18 29.06C1390.9 32.48 1390.34 33.46 1388.82 33.46C1384.74 33.46 1382.94 24.82 1382.86 15.24Z" fill="black" fill-opacity="0.6"/>
<path d="M1332 35H1392V36H1332V35Z" fill="black" fill-opacity="0.6"/>
</svg>
