<svg width="1410" height="89" viewBox="0 0 1410 89" fill="none" xmlns="http://www.w3.org/2000/svg">
<path d="M2.86 35.04H8.54C8.87333 35.04 9.04 35.2067 9.04 35.54V36.5C9.04 36.8333 8.87333 37 8.54 37H1.48C1.14667 37 0.98 36.8333 0.98 36.5V35.94C0.98 35.6867 1.06 35.48 1.22 35.32L3.76 32.7C4.64 31.78 5.29333 30.94 5.72 30.18C6.16 29.42 6.38 28.64 6.38 27.84C6.38 27.0533 6.18 26.44 5.78 26C5.39333 25.5467 4.84667 25.32 4.14 25.32C4.03333 25.32 3.94667 25.3267 3.88 25.34C3.6 25.3667 3.42667 25.52 3.36 25.8L3.14 26.68C3.02 27.2533 2.86 27.64 2.66 27.84C2.46 28.04 2.22 28.14 1.94 28.14C1.43333 28.14 1.07333 27.9133 0.86 27.46C0.886667 26.9133 1.02 26.4467 1.26 26.06C1.51333 25.6733 1.82667 25.36 2.2 25.12C2.57333 24.8667 2.99333 24.6867 3.46 24.58C3.94 24.46 4.42 24.4 4.9 24.4C5.42 24.4 5.9 24.46 6.34 24.58C6.79333 24.7 7.18667 24.8933 7.52 25.16C7.85333 25.4133 8.11333 25.74 8.3 26.14C8.48667 26.54 8.58 27.02 8.58 27.58C8.58 28.0733 8.5 28.5267 8.34 28.94C8.19333 29.3533 7.96 29.7733 7.64 30.2C7.32 30.6267 6.91333 31.0933 6.42 31.6C5.92667 32.0933 5.34 32.6667 4.66 33.32L2.86 35.04ZM14.8233 24.4C15.3433 24.4 15.8566 24.52 16.3633 24.76C16.8699 25 17.3233 25.3733 17.7233 25.88C18.1099 26.3867 18.4166 27.0533 18.6433 27.88C18.8833 28.6933 19.0033 29.6867 19.0033 30.86C19.0033 32.0333 18.8833 33.0267 18.6433 33.84C18.4166 34.64 18.1099 35.2933 17.7233 35.8C17.3233 36.3067 16.8699 36.68 16.3633 36.92C15.8566 37.16 15.3433 37.28 14.8233 37.28C14.2766 37.28 13.7499 37.16 13.2433 36.92C12.7499 36.68 12.3099 36.3067 11.9233 35.8C11.5233 35.2933 11.2033 34.64 10.9633 33.84C10.7233 33.0267 10.6033 32.0333 10.6033 30.86C10.6033 30.1933 10.6633 29.4867 10.7833 28.74C10.9166 27.98 11.1433 27.28 11.4633 26.64C11.7833 25.9867 12.2099 25.4533 12.7433 25.04C13.2899 24.6133 13.9833 24.4 14.8233 24.4ZM12.8433 30.86C12.8433 32.02 12.8899 32.9533 12.9833 33.66C13.0899 34.3667 13.2366 34.92 13.4233 35.32C13.6099 35.7333 13.8233 36.0133 14.0633 36.16C14.3033 36.2933 14.5566 36.36 14.8233 36.36C15.0899 36.36 15.3366 36.2933 15.5633 36.16C15.8033 36.0133 16.0166 35.7333 16.2033 35.32C16.3899 34.92 16.5299 34.3667 16.6233 33.66C16.7299 32.9533 16.7833 32.02 16.7833 30.86C16.7833 29.7 16.7299 28.76 16.6233 28.04C16.5299 27.32 16.3899 26.76 16.2033 26.36C16.0166 25.96 15.8033 25.6867 15.5633 25.54C15.3366 25.3933 15.0899 25.32 14.8233 25.32C14.5566 25.32 14.3033 25.3933 14.0633 25.54C13.8233 25.6733 13.6099 25.94 13.4233 26.34C13.2366 26.7533 13.0899 27.32 12.9833 28.04C12.8899 28.76 12.8433 29.7 12.8433 30.86ZM22.5866 35.04H28.2666C28.5999 35.04 28.7666 35.2067 28.7666 35.54V36.5C28.7666 36.8333 28.5999 37 28.2666 37H21.2066C20.8732 37 20.7066 36.8333 20.7066 36.5V35.94C20.7066 35.6867 20.7866 35.48 20.9466 35.32L23.4866 32.7C24.3666 31.78 25.0199 30.94 25.4466 30.18C25.8866 29.42 26.1066 28.64 26.1066 27.84C26.1066 27.0533 25.9066 26.44 25.5066 26C25.1199 25.5467 24.5732 25.32 23.8666 25.32C23.7599 25.32 23.6732 25.3267 23.6066 25.34C23.3266 25.3667 23.1532 25.52 23.0866 25.8L22.8666 26.68C22.7466 27.2533 22.5866 27.64 22.3866 27.84C22.1866 28.04 21.9466 28.14 21.6666 28.14C21.1599 28.14 20.7999 27.9133 20.5866 27.46C20.6132 26.9133 20.7466 26.4467 20.9866 26.06C21.2399 25.6733 21.5532 25.36 21.9266 25.12C22.2999 24.8667 22.7199 24.6867 23.1866 24.58C23.6666 24.46 24.1466 24.4 24.6266 24.4C25.1466 24.4 25.6266 24.46 26.0666 24.58C26.5199 24.7 26.9132 24.8933 27.2466 25.16C27.5799 25.4133 27.8399 25.74 28.0266 26.14C28.2132 26.54 28.3066 27.02 28.3066 27.58C28.3066 28.0733 28.2266 28.5267 28.0666 28.94C27.9199 29.3533 27.6866 29.7733 27.3666 30.2C27.0466 30.6267 26.6399 31.0933 26.1466 31.6C25.6532 32.0933 25.0666 32.6667 24.3866 33.32L22.5866 35.04ZM38.6498 32.1C38.9832 32.1 39.1498 32.2667 39.1498 32.6V33.16C39.1498 33.4933 38.9832 33.66 38.6498 33.66H37.2298V36.5C37.2298 36.8333 37.0632 37 36.7298 37H35.7498C35.4165 37 35.2498 36.8333 35.2498 36.5V33.66H30.4698C30.1365 33.66 29.9698 33.4933 29.9698 33.16V32.74C29.9698 32.5133 30.0365 32.3067 30.1698 32.12L35.5498 24.8C35.7098 24.6 35.9098 24.5 36.1498 24.5H36.7298C37.0632 24.5 37.2298 24.6667 37.2298 25V32.1H38.6498ZM31.3698 32.1H35.2498V26.68L31.3698 32.1ZM44.9931 20.14L46.4931 20.52C45.3931 23.48 43.6131 26.26 41.7531 28.06C41.4531 27.8 40.8331 27.3 40.4531 27.1C42.3531 25.44 44.0131 22.84 44.9931 20.14ZM44.6731 22.62H57.5731V24.08H43.9531L44.6731 22.62ZM43.6931 27.16H57.1331V28.56H45.1931V33.3H43.6931V27.16ZM40.3931 32.54H58.5131V34H40.3931V32.54ZM49.6931 23.38H51.2331V38.62H49.6931V23.38ZM61.8131 37.2C61.7731 37.2133 61.7131 37.22 61.6331 37.22C61.4065 37.22 61.2731 37.1133 61.2331 36.9C61.1798 36.6467 61.3065 36.4733 61.6131 36.38C62.2531 36.1533 62.8198 35.9 63.3131 35.62C63.8198 35.34 64.2598 35.0067 64.6331 34.62C65.0198 34.22 65.3398 33.7667 65.5931 33.26C65.8465 32.74 66.0331 32.14 66.1531 31.46C65.5398 31.9133 64.7865 32.14 63.8931 32.14C63.3331 32.14 62.8131 32.0533 62.3331 31.88C61.8665 31.7067 61.4598 31.46 61.1131 31.14C60.7798 30.82 60.5131 30.4333 60.3131 29.98C60.1265 29.5133 60.0331 28.9933 60.0331 28.42C60.0331 27.82 60.1398 27.2733 60.3531 26.78C60.5665 26.2867 60.8598 25.8667 61.2331 25.52C61.6198 25.16 62.0665 24.8867 62.5731 24.7C63.0931 24.5 63.6465 24.4 64.2331 24.4C64.9931 24.4 65.6465 24.54 66.1931 24.82C66.7398 25.1 67.1798 25.48 67.5131 25.96C67.8598 26.4267 68.1131 26.9733 68.2731 27.6C68.4331 28.2133 68.5131 28.8667 68.5131 29.56C68.5131 30.5867 68.3398 31.5267 67.9931 32.38C67.6598 33.22 67.1931 33.9667 66.5931 34.62C66.0065 35.26 65.2998 35.8 64.4731 36.24C63.6598 36.6667 62.7731 36.9867 61.8131 37.2ZM64.4731 30.96C65.0998 30.96 65.6998 30.7667 66.2731 30.38C66.2865 30.3133 66.2931 30.2533 66.2931 30.2C66.2931 30.1333 66.2931 30.0667 66.2931 30V29.6C66.2931 29.2667 66.2731 28.86 66.2331 28.38C66.2065 27.8867 66.1198 27.4133 65.9731 26.96C65.8398 26.5067 65.6331 26.12 65.3531 25.8C65.0731 25.48 64.6931 25.32 64.2131 25.32C63.6665 25.32 63.1931 25.5533 62.7931 26.02C62.3931 26.4867 62.1931 27.2067 62.1931 28.18C62.1931 29.1667 62.4065 29.88 62.8331 30.32C63.2731 30.7467 63.8198 30.96 64.4731 30.96ZM74.3764 21.26H84.8164V22.72H74.3764V21.26ZM74.3764 26.08H84.8964V27.52H74.3764V26.08ZM74.2164 30.92H84.7964V32.36H74.2164V30.92ZM73.4564 21.26H74.9764V27.44C74.9764 30.9 74.4764 35.62 71.0364 38.62C70.8164 38.3 70.2164 37.76 69.8964 37.54C73.1164 34.72 73.4564 30.66 73.4564 27.44V21.26ZM84.1564 21.26H85.7164V36.4C85.7164 37.46 85.4364 37.98 84.6764 38.24C83.8964 38.5 82.5764 38.52 80.4164 38.52C80.3164 38.08 80.0364 37.36 79.7764 36.94C81.4364 37 83.0764 36.98 83.5364 36.98C83.9964 36.96 84.1564 36.82 84.1564 36.38V21.26ZM95.4164 35.3C95.4297 35.58 95.5831 35.7533 95.8764 35.82L97.5564 36.16C97.8497 36.2133 97.9964 36.3667 97.9964 36.62C97.9964 36.8733 97.8297 37 97.4964 37H91.1764C90.8431 37 90.6764 36.8733 90.6764 36.62C90.6764 36.38 90.8297 36.2267 91.1364 36.16L92.8364 35.84C93.1297 35.7733 93.2831 35.5933 93.2964 35.3V26.7C93.2964 26.38 93.1364 26.22 92.8164 26.22H92.7764L91.7164 26.32C91.5697 26.32 91.4431 26.3 91.3364 26.26C91.2431 26.2067 91.1964 26.0933 91.1964 25.92C91.1964 25.6533 91.3431 25.48 91.6364 25.4L94.8764 24.58C94.9431 24.5533 94.9964 24.54 95.0364 24.54C95.0897 24.54 95.1431 24.54 95.1964 24.54C95.2897 24.54 95.3497 24.5533 95.3764 24.58C95.4431 24.6467 95.4764 24.8067 95.4764 25.06L95.4164 27.42V35.3ZM105.58 30.3C106.46 30.7667 107.12 31.2733 107.56 31.82C108.013 32.3667 108.24 33.04 108.24 33.84C108.24 34.4267 108.12 34.94 107.88 35.38C107.64 35.8067 107.326 36.16 106.94 36.44C106.553 36.72 106.106 36.9267 105.6 37.06C105.106 37.2067 104.593 37.28 104.06 37.28C103.58 37.28 103.093 37.2267 102.6 37.12C102.12 37.0133 101.68 36.84 101.28 36.6C100.893 36.36 100.58 36.0467 100.34 35.66C100.1 35.2733 99.9797 34.7933 99.9797 34.22C99.9797 33.46 100.2 32.8267 100.64 32.32C101.093 31.8133 101.726 31.3667 102.54 30.98C101.82 30.5133 101.293 30.0133 100.96 29.48C100.626 28.9333 100.46 28.3333 100.46 27.68C100.46 27.1467 100.56 26.68 100.76 26.28C100.973 25.8667 101.253 25.5267 101.6 25.26C101.946 24.98 102.346 24.7667 102.8 24.62C103.253 24.4733 103.726 24.4 104.22 24.4C104.66 24.4 105.086 24.4667 105.5 24.6C105.913 24.72 106.28 24.9 106.6 25.14C106.92 25.38 107.173 25.6867 107.36 26.06C107.56 26.42 107.66 26.84 107.66 27.32C107.66 27.8133 107.513 28.3067 107.22 28.8C106.926 29.2933 106.38 29.7933 105.58 30.3ZM104.14 36.38C104.793 36.38 105.313 36.18 105.7 35.78C106.086 35.3667 106.28 34.84 106.28 34.2C106.28 33.9333 106.233 33.6933 106.14 33.48C106.046 33.2533 105.886 33.0267 105.66 32.8C105.433 32.5733 105.133 32.3533 104.76 32.14C104.386 31.9133 103.913 31.6667 103.34 31.4C102.833 31.7333 102.46 32.1133 102.22 32.54C101.98 32.9533 101.86 33.4733 101.86 34.1C101.86 34.8067 102.073 35.3667 102.5 35.78C102.926 36.18 103.473 36.38 104.14 36.38ZM104.2 25.32C103.666 25.32 103.213 25.4867 102.84 25.82C102.48 26.14 102.3 26.5867 102.3 27.16C102.3 27.5067 102.366 27.82 102.5 28.1C102.646 28.38 102.833 28.6267 103.06 28.84C103.3 29.0533 103.56 29.2467 103.84 29.42C104.133 29.58 104.42 29.7267 104.7 29.86C105.18 29.4467 105.506 29.0467 105.68 28.66C105.866 28.2733 105.96 27.8467 105.96 27.38C105.96 26.7667 105.806 26.2733 105.5 25.9C105.193 25.5133 104.76 25.32 104.2 25.32ZM112.563 21.56H125.663V38.3H124.083V23.08H114.103V38.38H112.563V21.56ZM113.583 28.5H124.743V29.98H113.583V28.5ZM113.563 35.58H124.783V37.08H113.563V35.58Z" fill="black" fill-opacity="0.6"/>
<path d="M750.78 30.88H760.6V32.14H750.78V30.88ZM750.9 23.9H760.54V25.12H750.9V23.9ZM754.5 29.16L755.9 29.46C755 31.42 753.74 33.86 752.82 35.44L751.5 34.98C752.4 33.46 753.66 31 754.5 29.16ZM757.5 31.62L758.9 31.8C758.22 35.7 756.12 37.62 751.5 38.6C751.4 38.2 751.1 37.66 750.82 37.36C755 36.66 756.88 35.02 757.5 31.62ZM758.76 20.6L760.04 21.16C759.46 22.08 758.8 23.08 758.24 23.76L757.24 23.26C757.74 22.54 758.4 21.38 758.76 20.6ZM755.04 20.2H756.42V29.4H755.04V20.2ZM751.64 21.16L752.78 20.68C753.34 21.48 753.88 22.54 754.08 23.26L752.9 23.8C752.72 23.08 752.2 21.98 751.64 21.16ZM755.06 24.44L756.08 25.04C755.1 26.72 753.22 28.5 751.5 29.44C751.32 29.1 750.96 28.6 750.68 28.3C752.34 27.58 754.18 25.98 755.06 24.44ZM756.26 25.14C756.98 25.52 759.42 27.06 760 27.48L759.18 28.58C758.46 27.9 756.38 26.34 755.54 25.78L756.26 25.14ZM762.06 23.9H769.18V25.3H762.06V23.9ZM762.56 20.2L764.08 20.42C763.42 24.34 762.24 27.92 760.48 30.26C760.24 29.98 759.62 29.48 759.26 29.24C760.96 27.12 762 23.74 762.56 20.2ZM766.5 24.7L768.02 24.86C767.06 31.76 764.94 36.06 759.9 38.66C759.74 38.3 759.3 37.64 759 37.32C763.76 35.08 765.68 31.04 766.5 24.7ZM762.86 25.14C763.74 30.64 765.66 35.36 769.38 37.32C769.02 37.62 768.54 38.2 768.32 38.6C764.4 36.3 762.5 31.42 761.5 25.36L762.86 25.14ZM752.7 34.7L753.5 33.68C755.9 34.6 758.38 35.92 759.82 37.02L758.78 38.1C757.4 36.98 755.02 35.64 752.7 34.7ZM774.98 23.7V24.82H784.94V23.7H774.98ZM774.98 21.76V22.84H784.94V21.76H774.98ZM773.54 20.86H786.44V25.72H773.54V20.86ZM774.6 31.56V32.7H785.54V31.56H774.6ZM774.6 29.54V30.66H785.54V29.54H774.6ZM773.18 28.6H787.02V33.62H773.18V28.6ZM779.22 28.94H780.7V37.56H779.22V28.94ZM771.04 26.56H788.98V27.72H771.04V26.56ZM772.62 34.72H787.46V35.78H772.62V34.72ZM770.92 36.94H789.08V38.12H770.92V36.94ZM800.612 35.3C800.625 35.58 800.778 35.7533 801.072 35.82L802.752 36.16C803.045 36.2133 803.192 36.3667 803.192 36.62C803.192 36.8733 803.025 37 802.692 37H796.372C796.038 37 795.872 36.8733 795.872 36.62C795.872 36.38 796.025 36.2267 796.332 36.16L798.032 35.84C798.325 35.7733 798.478 35.5933 798.492 35.3V26.7C798.492 26.38 798.332 26.22 798.012 26.22H797.972L796.912 26.32C796.765 26.32 796.638 26.3 796.532 26.26C796.438 26.2067 796.392 26.0933 796.392 25.92C796.392 25.6533 796.538 25.48 796.832 25.4L800.072 24.58C800.138 24.5533 800.192 24.54 800.232 24.54C800.285 24.54 800.338 24.54 800.392 24.54C800.485 24.54 800.545 24.5533 800.572 24.58C800.638 24.6467 800.672 24.8067 800.672 25.06L800.612 27.42V35.3Z" fill="black" fill-opacity="0.6"/>
<path d="M219.352 19.088H221.008V33.632H219.352V19.088ZM220.312 19.088H226.12V32.288H220.312V30.68H224.44V20.696H220.312V19.088ZM228.352 23.936H229.888V31.52H228.352V23.936ZM229.264 23.936H234.688V30.272H229.264V28.88H233.152V25.328H229.264V23.936ZM220.24 24.704H225.352V26.288H220.24V24.704ZM229.864 17.864L231.568 18.272C230.584 20.984 228.976 23.624 227.32 25.328C227.008 25.04 226.288 24.488 225.856 24.224C227.536 22.688 229 20.288 229.864 17.864ZM229.72 20.336H237.832V21.92H228.76L229.72 20.336ZM237.256 20.336H239.032C239.032 20.336 239.008 20.912 239.008 21.176C238.72 29.48 238.432 32.288 237.688 33.224C237.256 33.8 236.8 33.992 236.056 34.064C235.408 34.112 234.256 34.088 233.104 34.04C233.056 33.536 232.888 32.84 232.6 32.384C233.776 32.48 234.88 32.48 235.312 32.48C235.72 32.48 235.96 32.432 236.152 32.168C236.728 31.52 237.016 28.616 237.256 20.672V20.336ZM225.28 35.192L226.912 35.048C227.272 36.512 227.536 38.408 227.56 39.512L225.784 39.776C225.784 38.6 225.592 36.68 225.28 35.192ZM230.176 35.192L231.856 34.904C232.504 36.32 233.2 38.216 233.464 39.368L231.664 39.752C231.448 38.576 230.8 36.656 230.176 35.192ZM235.072 35.024L236.68 34.472C237.904 35.936 239.32 37.976 239.944 39.32L238.24 39.92C237.64 38.624 236.272 36.536 235.072 35.024ZM221.08 34.544L222.832 34.976C222.208 36.752 221.152 38.72 219.976 39.944L218.272 39.224C219.4 38.168 220.48 36.296 221.08 34.544ZM242.728 29.528C242.728 28.936 242.872 28.52 243.16 28.28C243.448 28.04 243.792 27.92 244.192 27.92C244.608 27.92 244.96 28.04 245.248 28.28C245.552 28.52 245.704 28.936 245.704 29.528C245.704 30.104 245.552 30.52 245.248 30.776C244.96 31.032 244.608 31.16 244.192 31.16C243.792 31.16 243.448 31.032 243.16 30.776C242.872 30.52 242.728 30.104 242.728 29.528ZM252.198 28.568H265.59V29.936H253.998V39.968H252.198V28.568ZM265.014 28.568H266.814V37.952C266.814 38.936 266.55 39.392 265.806 39.632C265.038 39.872 263.742 39.872 261.774 39.872C261.678 39.44 261.414 38.84 261.174 38.408C262.638 38.432 264.078 38.432 264.462 38.432C264.894 38.408 265.014 38.312 265.014 37.952V28.568ZM253.302 31.64H265.614V32.96H253.302V31.64ZM248.838 25.616H269.982V27.032H248.838V25.616ZM250.398 19.448H268.71V20.888H250.398V19.448ZM251.19 22.496H267.678V23.864H251.19V22.496ZM253.302 34.712H265.614V35.984H253.302V34.712ZM258.438 17.84H260.262V26.504H258.438V17.84ZM282.654 22.976H293.646V39.776H291.99V24.608H284.286V39.944H282.654V22.976ZM283.398 29.744H292.758V31.376H283.398V29.744ZM283.398 36.968H292.83V38.6H283.398V36.968ZM287.19 17.864H289.062V23.744H288.942V37.928H287.31V23.744H287.19V17.864ZM272.406 26.672H281.814V28.28H272.406V26.672ZM276.414 19.712L278.07 19.256V39.944H276.414V19.712ZM280.278 17.888L281.262 19.232C279.15 20 275.79 20.528 273.078 20.792C273.006 20.408 272.814 19.832 272.598 19.448C275.262 19.16 278.478 18.608 280.278 17.888ZM273.03 21.824L274.302 21.416C274.806 22.736 275.286 24.44 275.454 25.568L274.11 26.024C273.966 24.896 273.51 23.144 273.03 21.824ZM276.39 27.344L277.518 27.824C276.582 30.992 274.758 35.072 273.102 37.208C272.934 36.728 272.478 36.032 272.19 35.624C273.75 33.752 275.574 30.128 276.39 27.344ZM278.022 28.328C278.67 29 281.046 31.952 281.598 32.672L280.566 33.92C279.87 32.792 277.878 30.032 277.062 29.096L278.022 28.328ZM280.11 20.984L281.598 21.56C281.046 23.072 280.422 24.944 279.918 26.072L278.79 25.592C279.246 24.368 279.846 22.352 280.11 20.984ZM301.854 33.416L303.702 34.112C302.166 36.08 299.886 38.12 297.942 39.44C297.582 39.08 296.814 38.48 296.334 38.192C298.35 37.04 300.51 35.192 301.854 33.416ZM310.806 34.328L312.27 33.32C314.31 34.784 316.95 36.896 318.27 38.264L316.686 39.392C315.462 38.024 312.894 35.84 310.806 34.328ZM298.518 24.776L299.766 23.672C301.926 24.872 304.638 26.744 305.958 28.112L304.638 29.408C303.39 28.04 300.726 26.072 298.518 24.776ZM311.07 27.848L312.51 26.912C314.622 28.592 317.19 31.016 318.438 32.672L316.83 33.728C315.702 32.096 313.182 29.6 311.07 27.848ZM306.414 31.208H308.31V39.944H306.414V31.208ZM296.742 30.512C301.398 30.488 308.934 30.344 315.894 30.2L315.798 31.808C308.958 32.048 301.686 32.216 296.934 32.312L296.742 30.512ZM311.43 21.8L313.158 22.712C310.23 25.832 306.078 29.456 302.91 31.712L301.518 30.8C304.734 28.544 308.91 24.728 311.43 21.8ZM305.214 20.168L306.942 21.056C305.526 22.784 303.63 24.776 302.166 26.048L300.75 25.256C302.19 23.96 304.11 21.776 305.214 20.168ZM315.222 18.2L316.542 19.736C311.67 20.672 304.182 21.176 297.942 21.32C297.894 20.864 297.678 20.144 297.51 19.712C303.702 19.52 311.094 19.016 315.222 18.2ZM333.726 20.6H335.478V33.728H333.726V20.6ZM339.558 18.296H341.358V37.568C341.358 38.792 341.022 39.32 340.302 39.608C339.51 39.92 338.214 39.968 336.03 39.944C335.91 39.464 335.646 38.672 335.382 38.168C337.014 38.216 338.502 38.192 338.934 38.192C339.39 38.168 339.558 38.024 339.558 37.592V18.296ZM324.342 24.32H330.87V26H324.342V24.32ZM320.838 19.088H332.79V20.768H320.838V19.088ZM322.638 29.384L323.478 28.064C325.278 29.072 327.606 30.56 328.758 31.52L327.846 33.032C326.718 32.024 324.414 30.464 322.638 29.384ZM330.198 24.32H330.558L330.894 24.248L332.022 24.656C330.702 32.504 327.222 37.448 322.782 39.992C322.518 39.584 321.846 38.936 321.438 38.648C325.806 36.32 329.094 31.784 330.198 24.728V24.32ZM325.182 19.88L327.006 20.216C325.974 24.368 324.198 29.024 321.198 31.88C320.886 31.544 320.31 30.992 319.95 30.68C322.734 28.04 324.438 23.6 325.182 19.88ZM344.982 31.424C344.582 31.424 344.382 31.224 344.382 30.824V30.224C344.382 29.824 344.582 29.624 344.982 29.624H349.566C349.966 29.624 350.166 29.824 350.166 30.224V30.824C350.166 31.224 349.966 31.424 349.566 31.424H344.982ZM372.469 28.832L373.909 29.72C372.421 31.088 370.525 32.6 369.013 33.56L367.933 32.768C369.373 31.76 371.341 30.08 372.469 28.832ZM361.165 29.672L362.365 28.808C363.493 29.672 364.789 30.968 365.365 31.832L364.141 32.816C363.565 31.928 362.293 30.608 361.165 29.672ZM362.197 22.472H371.461V23.888H362.197V22.472ZM360.949 26.168H374.149V27.752H360.949V26.168ZM366.517 27.152H368.173V37.952C368.173 38.864 368.005 39.32 367.405 39.584C366.805 39.824 365.893 39.872 364.501 39.872C364.429 39.416 364.189 38.744 363.949 38.264C364.957 38.312 365.845 38.312 366.157 38.312C366.421 38.288 366.517 38.216 366.517 37.952V27.152ZM360.109 36.416C361.789 35.432 364.381 33.752 366.805 32.144L367.309 33.416C365.197 34.976 362.917 36.584 361.117 37.808L360.109 36.416ZM368.053 30.656C369.205 33.272 371.629 35.648 374.461 36.656C374.077 36.968 373.573 37.592 373.333 38.024C370.477 36.776 368.077 34.064 366.829 31.04L368.053 30.656ZM361.693 18.824H371.413V20.36H361.693V18.824ZM370.693 18.824H370.885L371.173 18.728L372.445 18.824C372.397 21.152 372.253 24.344 372.061 26.744L370.333 26.648C370.525 24.224 370.669 20.768 370.693 19.04V18.824ZM352.717 33.632C352.621 33.272 352.333 32.432 352.141 31.976C352.645 31.904 353.173 31.28 353.893 30.392C354.637 29.528 356.989 26.168 358.525 22.952L360.061 23.84C358.309 27.08 356.077 30.344 353.917 32.672V32.72C353.917 32.72 352.717 33.272 352.717 33.632ZM352.717 33.632L352.621 32.192L353.485 31.592L359.485 30.488C359.437 30.968 359.437 31.64 359.461 32.024C353.965 33.128 353.173 33.368 352.717 33.632ZM352.549 27.872C352.453 27.488 352.165 26.6 351.949 26.096C352.381 26 352.789 25.424 353.269 24.632C353.773 23.816 355.405 20.72 356.293 17.864L358.045 18.656C356.893 21.584 355.261 24.68 353.653 26.84V26.912C353.653 26.912 352.549 27.488 352.549 27.872ZM352.549 27.872L352.525 26.528L353.389 25.976L357.589 25.544C357.517 26 357.445 26.672 357.469 27.032C353.605 27.512 352.933 27.68 352.549 27.872ZM352.117 36.728C353.965 36.272 356.677 35.48 359.413 34.688L359.677 36.2C357.157 37.016 354.541 37.832 352.525 38.48L352.117 36.728ZM377.557 19.424H396.733V21.2H377.557V19.424ZM376.381 37.208H397.909V38.96H376.381V37.208ZM386.005 20.096H387.949V38.336H386.005V20.096ZM390.109 31.664L391.405 30.656C392.917 32.024 394.885 33.896 395.893 35.024L394.549 36.2C393.565 35.048 391.621 33.08 390.109 31.664ZM378.589 27.776H395.797V29.528H378.589V27.776ZM406.309 24.32L408.085 24.872C406.405 28.208 403.813 31.4 401.269 33.464C400.957 33.152 400.213 32.504 399.781 32.216C402.373 30.344 404.821 27.392 406.309 24.32ZM411.397 24.536H413.173V36.68C413.173 37.688 413.413 37.88 414.637 37.88C415.237 37.88 418.213 37.88 418.981 37.88C420.133 37.88 420.325 37.256 420.469 34.16C420.877 34.472 421.621 34.784 422.101 34.904C421.861 38.528 421.333 39.584 419.077 39.584C418.549 39.584 415.021 39.584 414.493 39.584C412.069 39.584 411.397 38.96 411.397 36.656V24.536ZM419.725 26.624L421.117 27.992C418.861 29.48 415.573 30.944 412.669 32.12C412.573 31.736 412.261 31.136 412.021 30.776C414.805 29.624 417.925 28.016 419.725 26.624ZM400.549 20.048H421.669V21.776H400.549V20.048ZM406.333 17.84H408.109V24.32H406.333V17.84ZM414.205 17.84H415.981V24.464H414.205V17.84ZM404.317 28.88L406.069 27.104V27.128V39.92H404.317V28.88ZM434.869 19.136H445.933V20.768H434.869V19.136ZM437.077 19.784H438.709C438.469 25.568 437.941 33.584 437.461 38.024H435.757C436.285 33.488 436.885 25.448 437.077 19.784ZM434.029 37.76C436.117 37.448 439.333 36.896 442.501 36.368L442.597 37.832C439.765 38.384 436.765 38.96 434.533 39.368L434.029 37.76ZM438.637 28.544L439.837 28.16C440.749 29.84 441.589 32.024 441.853 33.464L440.557 33.872C440.293 32.432 439.501 30.2 438.637 28.544ZM442.477 24.248H444.133C444.109 31.256 444.133 38.264 445.333 38.264C445.645 38.264 445.741 36.752 445.765 34.616C446.101 35 446.533 35.408 446.869 35.624C446.725 38.792 446.413 39.944 445.165 39.944C442.525 39.944 442.573 32.864 442.477 24.248ZM424.501 22.616H435.157V24.224H424.501V22.616ZM424.069 29.024H435.421V30.68H424.069V29.024ZM432.685 17.864L434.413 18.344C433.765 19.76 432.973 21.464 432.349 22.52L431.005 22.088C431.605 20.96 432.325 19.136 432.685 17.864ZM425.509 18.368L426.925 17.912C427.621 19.184 428.293 20.864 428.533 21.968L427.021 22.472C426.805 21.368 426.181 19.64 425.509 18.368ZM431.245 23.24H432.877V39.896H431.245V23.24ZM426.661 23.24H428.269V28.928C428.269 32.792 427.933 36.824 425.293 40.064C425.005 39.704 424.381 39.2 423.973 38.96C426.397 36.008 426.661 32.36 426.661 28.928V23.24ZM437.773 24.248H443.413V25.856H437.629L437.773 24.248Z" fill="#666666"/>
<line x1="-0.000711744" y1="76" x2="1410" y2="74.9964" stroke="#868686" stroke-opacity="0.6" stroke-width="2"/>
<path d="M1342.68 22.04H1344.12V33.58H1342.68V22.04ZM1339.4 17.24L1341.26 17.78C1341.24 17.92 1341.12 18 1340.84 18.04V22.68C1340.84 25.88 1340.5 30.46 1338.08 33.74C1337.86 33.42 1337.3 32.96 1336.92 32.8C1339.16 29.76 1339.4 25.72 1339.4 22.66V17.24ZM1349.5 19.68L1350.7 20.82C1348.3 21.86 1344.62 22.7 1341.42 23.26C1341.34 22.94 1341.12 22.4 1340.94 22.08C1344.02 21.5 1347.56 20.6 1349.5 19.68ZM1348.9 15.18L1350.2 16.34C1347.58 17.44 1343.72 18.38 1340.3 19.02C1340.24 18.66 1339.98 18.12 1339.8 17.8C1343.1 17.16 1346.82 16.18 1348.9 15.18ZM1346.72 21.44C1347.3 26.3 1348.54 30.54 1351.34 32.38C1351 32.66 1350.5 33.24 1350.28 33.66C1347.34 31.44 1346.1 27 1345.48 21.58L1346.72 21.44ZM1350.18 23.08L1351.2 24.16C1350.04 25.14 1348.66 26.24 1347.58 26.94L1346.84 26.1C1347.88 25.34 1349.36 24.02 1350.18 23.08ZM1333.74 16.46L1334.58 15.36C1335.84 15.9 1337.38 16.78 1338.14 17.46L1337.26 18.72C1336.52 17.98 1335 17.04 1333.74 16.46ZM1332.74 21.88L1333.58 20.76C1334.82 21.22 1336.38 22.08 1337.16 22.72L1336.3 23.96C1335.54 23.3 1334.02 22.42 1332.74 21.88ZM1333.2 32.42C1334.18 30.86 1335.58 28.22 1336.64 25.92L1337.8 26.8C1336.86 28.94 1335.6 31.48 1334.54 33.34L1333.2 32.42ZM1358.36 23.14H1370.98V24.52H1358.36V23.14ZM1359 19.02H1370.38V20.36H1359V19.02ZM1363.72 19.64H1365.22V22.64C1365.22 25.14 1364.54 28.42 1359.5 30.68C1359.3 30.36 1358.84 29.84 1358.5 29.58C1363.36 27.62 1363.72 24.68 1363.72 22.62V19.64ZM1365.64 24.02C1366.4 26.82 1368.16 28.68 1371.02 29.5C1370.68 29.8 1370.26 30.38 1370.06 30.78C1367.04 29.72 1365.22 27.56 1364.34 24.3L1365.64 24.02ZM1357.22 23.1V30.18H1355.76V24.5H1352.96V23.1H1357.22ZM1357.22 29.52C1358.16 31 1359.94 31.68 1362.24 31.78C1364.42 31.86 1368.92 31.8 1371.28 31.64C1371.12 32 1370.86 32.72 1370.8 33.18C1368.6 33.26 1364.46 33.3 1362.24 33.22C1359.64 33.12 1357.84 32.42 1356.56 30.84C1355.6 31.7 1354.58 32.56 1353.5 33.44L1352.7 31.9C1353.66 31.26 1354.84 30.38 1355.86 29.52H1357.22ZM1353.18 16.6L1354.28 15.7C1355.6 16.54 1357.12 17.84 1357.8 18.82L1356.62 19.8C1355.98 18.84 1354.48 17.48 1353.18 16.6ZM1367.76 15.2L1369.28 15.72C1368.6 16.86 1367.78 18.18 1367.12 19.02L1365.9 18.56C1366.52 17.66 1367.34 16.22 1367.76 15.2ZM1359.78 15.8L1361.06 15.28C1361.86 16.24 1362.64 17.56 1362.92 18.48L1361.56 19.08C1361.3 18.18 1360.56 16.8 1359.78 15.8ZM1373.92 18.78H1390.04V28.2H1388.48V20.26H1375.42V28.3H1373.92V18.78ZM1374.72 25.58H1389.38V27.04H1374.72V25.58ZM1381.16 15.2H1382.72V33.58H1381.16V15.2Z" fill="black" fill-opacity="0.6"/>
<path d="M1332 35H1392V36H1332V35Z" fill="black" fill-opacity="0.6"/>
</svg>
