<svg width="274" height="38" viewBox="0 0 274 38" fill="none" xmlns="http://www.w3.org/2000/svg">
<path d="M3.2 9.44H26.72V12.32H3.2V9.44ZM1.72 19.2H28.36V22.04H1.72V19.2ZM16.44 20.16C18.28 27.2 22.4 32.44 29.28 34.56C28.56 35.2 27.68 36.4 27.24 37.2C20.08 34.6 15.92 28.84 13.84 20.72L16.44 20.16ZM22.36 0.479998L25.48 1.56C24.04 4.12 22.28 7.08 20.88 8.96L18.44 7.96C19.76 5.96 21.44 2.72 22.36 0.479998ZM4.84 2.12L7.28 0.879997C8.96 2.92 10.72 5.76 11.44 7.64L8.84 9.08C8.16 7.16 6.44 4.24 4.84 2.12ZM13.2 10.12H16.32V18.44C16.32 24.6 14.84 32.24 2.56 37.36C2.12 36.64 1.2 35.6 0.48 35C12.4 30.48 13.2 23.6 13.2 18.44V10.12ZM37.16 16.4H72.84V19.36H37.16V16.4ZM53.76 4.28H56.92V32.84C56.92 35.04 56.32 35.96 54.8 36.48C53.32 36.96 50.68 37.04 46.6 37.04C46.4 36.16 45.8 34.76 45.36 33.88C48.64 33.96 51.68 33.96 52.6 33.92C53.44 33.88 53.76 33.64 53.76 32.84V4.28ZM39.96 3.28H70.04V6.24H39.96V3.28ZM78.92 2.48H81.68V26.72H78.92V2.48ZM80.52 2.48H90.2V24.48H80.52V21.8H87.4V5.16H80.52V2.48ZM93.92 10.56H96.48V23.2H93.92V10.56ZM95.44 10.56H104.48V21.12H95.44V18.8H101.92V12.88H95.44V10.56ZM80.4 11.84H88.92V14.48H80.4V11.84ZM96.44 0.439998L99.28 1.12C97.64 5.64 94.96 10.04 92.2 12.88C91.68 12.4 90.48 11.48 89.76 11.04C92.56 8.48 95 4.48 96.44 0.439998ZM96.2 4.56H109.72V7.2H94.6L96.2 4.56ZM108.76 4.56H111.72C111.72 4.56 111.68 5.52 111.68 5.96C111.2 19.8 110.72 24.48 109.48 26.04C108.76 27 108 27.32 106.76 27.44C105.68 27.52 103.76 27.48 101.84 27.4C101.76 26.56 101.48 25.4 101 24.64C102.96 24.8 104.8 24.8 105.52 24.8C106.2 24.8 106.6 24.72 106.92 24.28C107.88 23.2 108.36 18.36 108.76 5.12V4.56ZM88.8 29.32L91.52 29.08C92.12 31.52 92.56 34.68 92.6 36.52L89.64 36.96C89.64 35 89.32 31.8 88.8 29.32ZM96.96 29.32L99.76 28.84C100.84 31.2 102 34.36 102.44 36.28L99.44 36.92C99.08 34.96 98 31.76 96.96 29.32ZM105.12 29.04L107.8 28.12C109.84 30.56 112.2 33.96 113.24 36.2L110.4 37.2C109.4 35.04 107.12 31.56 105.12 29.04ZM81.8 28.24L84.72 28.96C83.68 31.92 81.92 35.2 79.96 37.24L77.12 36.04C79 34.28 80.8 31.16 81.8 28.24ZM120.24 6.84H132.4V33H120.24V30.28H129.6V9.52H120.24V6.84ZM118.44 6.84H121.24V36.2H118.44V6.84ZM120.04 17.96H131.08V20.64H120.04V17.96ZM124.56 0.319997L127.8 0.919999C127 3.4 126 6.16 125.2 7.96L122.8 7.36C123.48 5.44 124.24 2.4 124.56 0.319997ZM138.08 6.72H150.36V9.52H138.08V6.72ZM149.32 6.72H152.12C152.12 6.72 152.12 7.84 152.12 8.28C151.48 26.64 150.92 32.84 149.32 34.8C148.44 35.96 147.52 36.32 146.12 36.44C144.76 36.6 142.4 36.52 140.16 36.4C140.08 35.52 139.72 34.28 139.16 33.48C141.76 33.68 144.16 33.72 145.08 33.72C145.88 33.72 146.36 33.6 146.8 33.08C148.12 31.64 148.76 25 149.32 7.36V6.72ZM138.92 0.239998L141.8 0.919999C140.32 6.88 137.96 12.76 135.2 16.56C134.68 16.08 133.44 15.24 132.72 14.84C135.44 11.32 137.64 5.8 138.92 0.239998ZM137.08 17.12L139.4 15.76C141.68 18.6 144.44 22.48 145.72 24.84L143.16 26.44C141.96 24 139.28 20.04 137.08 17.12ZM189.8 1.2L191.68 3.6C186.16 4.92 177.64 5.76 170.56 6.04C170.48 5.36 170.12 4.32 169.8 3.68C176.76 3.24 185.12 2.4 189.8 1.2ZM176.92 14.8L179.32 16.92C177.04 18 174.08 18.96 171.6 19.6C171.44 19.04 171 18.08 170.68 17.48C172.88 16.76 175.48 15.72 176.92 14.8ZM169.16 9.44H193.04V12.16H169.16V9.44ZM179.56 3.84H182.4V33.88H179.56V3.84ZM170 16.28L172.8 17.16V37.16H170V16.28ZM184 16.28H192.04V37H189.24V18.88H184V16.28ZM171.8 23.8H177.92V26.4H171.8V23.8ZM184.2 23.8H190.92V26.4H184.2V23.8ZM171.52 32.36H190.64V35H171.52V32.36ZM156.08 21.16C159.2 20.28 163.88 18.84 168.44 17.36L168.84 20.12C164.68 21.56 160.28 23 156.88 24.08L156.08 21.16ZM156.64 8.48H168.8V11.28H156.64V8.48ZM161.68 0.439998H164.48V33.72C164.48 35.4 164.08 36.2 163.08 36.68C162.16 37.16 160.6 37.24 158.08 37.24C157.96 36.52 157.6 35.28 157.2 34.44C158.96 34.48 160.48 34.48 160.96 34.44C161.44 34.44 161.68 34.32 161.68 33.72V0.439998ZM206.96 11.2L209.92 12.12C207.12 17.68 202.8 23 198.56 26.44C198.04 25.92 196.8 24.84 196.08 24.36C200.4 21.24 204.48 16.32 206.96 11.2ZM215.44 11.56H218.4V31.8C218.4 33.48 218.8 33.8 220.84 33.8C221.84 33.8 226.8 33.8 228.08 33.8C230 33.8 230.32 32.76 230.56 27.6C231.24 28.12 232.48 28.64 233.28 28.84C232.88 34.88 232 36.64 228.24 36.64C227.36 36.64 221.48 36.64 220.6 36.64C216.56 36.64 215.44 35.6 215.44 31.76V11.56ZM229.32 15.04L231.64 17.32C227.88 19.8 222.4 22.24 217.56 24.2C217.4 23.56 216.88 22.56 216.48 21.96C221.12 20.04 226.32 17.36 229.32 15.04ZM197.36 4.08H232.56V6.96H197.36V4.08ZM207 0.399999H209.96V11.2H207V0.399999ZM220.12 0.399999H223.08V11.44H220.12V0.399999ZM203.64 18.8L206.56 15.84V15.88V37.2H203.64V18.8ZM238.88 2.96L240.88 1.2C242.88 2.96 245.4 5.44 246.6 7.04L244.44 9.08C243.32 7.44 240.84 4.84 238.88 2.96ZM242 35.6L241.44 32.84L242.16 31.6L249 25.92C249.28 26.72 249.8 27.84 250.12 28.36C243.52 33.96 242.52 34.84 242 35.6ZM236.72 12.92H244.16V15.68H236.72V12.92ZM248.52 21.16H273.2V23.92H248.52V21.16ZM263.24 22.48C265.6 26.48 270.08 30.84 273.88 32.92C273.2 33.48 272.28 34.52 271.8 35.28C268 32.76 263.64 27.84 261.16 23.36L263.24 22.48ZM253.44 11.12V15.28H267.84V11.12H253.44ZM253.44 4.6V8.72H267.84V4.6H253.44ZM250.68 2.12H270.68V17.76H250.68V2.12ZM258.52 22.48L260.64 23.28C258.12 28.28 253.52 33.2 249.12 35.64C248.68 34.92 247.8 33.92 247.16 33.36C251.52 31.32 256.16 26.88 258.52 22.48ZM259.52 3.36H262.28V16.52H262.4V37.2H259.44V16.52H259.52V3.36ZM242 35.6C241.64 35.04 240.72 34 240.16 33.6C240.92 32.92 242.32 31.36 242.32 29.28V12.92H245.2V31.28C245.2 31.28 242 34.4 242 35.6Z" fill="#666666"/>
</svg>
