<svg width="136" height="356" viewBox="0 0 136 356" fill="none" xmlns="http://www.w3.org/2000/svg">
<path d="M9.338 11.685C11.408 16.722 15.778 20.149 22.172 21.391C21.804 21.736 21.321 22.449 21.091 22.909C14.559 21.483 10.212 17.803 7.866 12.145L9.338 11.685ZM17.549 11.041H17.894L18.239 10.972L19.412 11.501C17.319 17.964 12.19 21.322 6.44 22.886C6.256 22.449 5.842 21.782 5.497 21.414C10.879 20.103 15.824 16.883 17.549 11.34V11.041ZM8.832 11.041H17.825V12.697H8.349L8.832 11.041ZM10.419 1.611L12.328 1.91C11.155 10.627 8.464 17.044 1.978 21.023C1.725 20.655 1.104 20.011 0.69 19.689C6.785 16.009 9.407 9.799 10.419 1.611ZM15.456 2.83L16.813 2.025C17.802 3.037 19.136 4.463 19.78 5.314L18.4 6.257C17.756 5.383 16.468 3.911 15.456 2.83ZM3.312 8.971C3.197 8.603 2.921 7.775 2.737 7.361C3.036 7.269 3.312 6.947 3.588 6.441C3.841 5.958 4.738 4.118 5.106 2.347L6.969 2.669C6.394 4.624 5.474 6.671 4.692 7.959V7.982C4.692 7.982 3.312 8.557 3.312 8.971ZM3.312 8.971V7.614L4.462 6.924H21.39V8.58H5.75C4.301 8.58 3.542 8.718 3.312 8.971ZM1.265 28.244H8.878V29.877H1.265V28.244ZM1.61 34.891H8.395V36.524H1.61V34.891ZM0.989 43.7C3.013 43.194 6.072 42.32 8.993 41.446L9.223 43.033C6.463 43.861 3.542 44.712 1.357 45.379L0.989 43.7ZM4.347 28.98H6.003V43.102L4.347 43.447V28.98ZM9.913 27.807H20.263V40.043H18.561V29.325H11.569V40.043H9.913V27.807ZM15.157 39.675H16.767V45.126C16.767 45.77 16.951 45.931 17.595 45.931H19.504C20.286 45.931 20.424 45.31 20.539 42.021C20.953 42.366 21.505 42.596 21.942 42.688C21.735 46.322 21.482 47.242 19.481 47.242H17.365C15.778 47.242 15.157 46.828 15.157 45.287V39.675ZM14.168 31.303H15.778V35.765C15.778 39.721 14.766 44.781 8.717 47.909C8.51 47.564 7.981 46.943 7.636 46.667C13.432 43.677 14.168 39.33 14.168 35.742V31.303ZM9.407 57.292H20.677V65.25H9.292V63.893H19.067V58.649H9.407V57.292ZM10.994 67.136H12.535V70.586C12.535 71.092 12.696 71.184 13.616 71.184C14.007 71.184 16.146 71.184 16.698 71.184C17.434 71.184 17.549 70.954 17.641 69.183C17.963 69.459 18.607 69.666 19.067 69.781C18.883 72.104 18.4 72.633 16.859 72.633C16.422 72.633 13.869 72.633 13.478 72.633C11.477 72.633 10.994 72.196 10.994 70.586V67.136ZM8.924 67.067L10.281 67.642C9.89 69.045 9.223 70.954 8.441 72.173L7.13 71.322C7.866 70.241 8.556 68.424 8.924 67.067ZM12.42 66.193L13.501 65.273C14.766 66.124 16.353 67.366 17.181 68.194L16.1 69.252C15.318 68.378 13.708 67.09 12.42 66.193ZM18.147 67.343L19.481 66.814C20.562 68.194 21.62 70.08 22.08 71.345L20.654 71.943C20.217 70.655 19.159 68.746 18.147 67.343ZM9.959 60.558H19.918V61.869H9.959V60.558ZM1.84 52.692H7.268V54.256H3.404V72.863H1.84V52.692ZM6.808 52.692H7.107L7.36 52.623L8.487 53.29C7.82 55.176 6.969 57.545 6.187 59.385C7.866 61.294 8.257 62.904 8.257 64.33C8.257 65.572 7.981 66.538 7.36 66.998C7.038 67.205 6.624 67.343 6.164 67.412C5.681 67.458 5.129 67.458 4.6 67.435C4.577 67.021 4.439 66.354 4.163 65.917C4.692 65.963 5.152 65.986 5.52 65.94C5.796 65.94 6.049 65.871 6.233 65.733C6.601 65.48 6.716 64.859 6.716 64.169C6.716 62.927 6.279 61.363 4.646 59.569C5.474 57.476 6.325 54.739 6.808 53.152V52.692ZM12.742 53.566H17.802V54.9H11.707L12.742 53.566ZM12.443 51.91L14.053 52.186C12.972 54.095 11.454 56.165 9.361 57.89C9.108 57.568 8.579 57.085 8.234 56.878C10.166 55.406 11.615 53.451 12.443 51.91ZM17.342 53.566H17.687L17.94 53.497L18.975 54.21C18.17 55.59 16.836 57.177 15.847 58.166C15.548 57.959 15.065 57.637 14.697 57.476C15.617 56.533 16.767 54.946 17.342 53.865V53.566ZM1.38 78.313H21.643V79.785H1.38V78.313ZM6.003 82.269H21.896V83.764H6.003V82.269ZM2.691 86.317H5.842V87.743H2.691V86.317ZM0.943 89.652H5.75V91.101H0.943V89.652ZM8.487 93.999H14.927V95.195H8.487V93.999ZM6.831 76.703H8.533V81.395H6.831V76.703ZM14.352 76.703H16.054V81.418H14.352V76.703ZM11.086 85.834H12.328V88.617H11.086V85.834ZM1.955 82.384H3.312V88.456H1.955V82.384ZM11.086 91.699H12.328V94.505H11.086V91.699ZM8.625 87.996H14.72V92.297H8.625V91.17H13.455V89.146H8.625V87.996ZM7.866 85.19H14.72V86.386H9.177V96.575H7.866V85.19ZM5.221 82.269H6.693V88.64C6.693 91.446 6.463 95.31 5.037 97.909C4.761 97.656 4.094 97.288 3.726 97.15C5.083 94.689 5.221 91.239 5.221 88.617V82.269ZM15.134 80.751H16.698C16.79 91.285 18.538 96.345 20.171 96.345C20.654 96.322 20.884 95.724 20.999 93.447C21.344 93.769 21.85 94.091 22.241 94.229C21.988 97.311 21.413 97.886 20.056 97.886C17.089 97.886 15.41 91.745 15.134 80.751ZM17.733 80.797L18.745 79.992C19.573 80.475 20.562 81.211 21.022 81.763L19.941 82.637C19.504 82.062 18.561 81.303 17.733 80.797ZM19.182 85.19L20.723 85.443C19.527 91.009 17.296 95.195 13.777 97.886C13.501 97.61 12.857 97.081 12.489 96.828C16.031 94.39 18.147 90.342 19.182 85.19ZM2.208 90.158H3.519V92.159C3.519 93.815 3.266 96.207 1.84 97.863C1.587 97.633 1.081 97.288 0.782 97.127C2.024 95.632 2.208 93.562 2.208 92.113V90.158ZM3.013 105.383H10.005V120.425H3.013V118.861H8.395V106.924H3.013V105.383ZM1.978 105.383H3.588V122.265H1.978V105.383ZM2.898 111.777H9.246V113.318H2.898V111.777ZM5.497 101.634L7.36 101.979C6.9 103.405 6.325 104.992 5.865 106.027L4.485 105.682C4.876 104.578 5.313 102.83 5.497 101.634ZM13.271 105.314H20.332V106.924H13.271V105.314ZM19.734 105.314H21.344C21.344 105.314 21.344 105.958 21.344 106.211C20.976 116.768 20.654 120.333 19.734 121.46C19.228 122.127 18.699 122.334 17.894 122.403C17.112 122.495 15.755 122.449 14.467 122.38C14.421 121.874 14.214 121.161 13.892 120.701C15.387 120.816 16.767 120.839 17.296 120.839C17.756 120.839 18.032 120.77 18.285 120.471C19.044 119.643 19.412 115.825 19.734 105.682V105.314ZM13.754 101.588L15.41 101.979C14.559 105.406 13.202 108.787 11.615 110.972C11.316 110.696 10.603 110.213 10.189 109.983C11.753 107.959 13.018 104.785 13.754 101.588ZM12.696 111.294L14.03 110.512C15.341 112.145 16.928 114.376 17.664 115.733L16.192 116.653C15.502 115.25 13.961 112.973 12.696 111.294ZM10.235 132.798V135.052H18.101V132.798H10.235ZM10.235 129.164V131.395H18.101V129.164H10.235ZM8.602 127.715H19.78V136.501H8.602V127.715ZM7.843 138.479H20.539V146.483H18.906V139.974H16.629V146.483H15.272V139.974H12.995V146.483H11.661V139.974H9.43V146.483H7.843V138.479ZM5.865 145.655H22.103V147.173H5.865V145.655ZM2.231 128.198L3.174 126.979C4.6 127.554 6.486 128.543 7.406 129.279L6.417 130.682C5.52 129.9 3.703 128.865 2.231 128.198ZM0.874 134.477L1.771 133.212C3.243 133.81 5.129 134.822 6.049 135.558L5.129 136.961C4.209 136.202 2.369 135.121 0.874 134.477ZM1.472 146.368C2.645 144.62 4.347 141.584 5.589 138.962L6.877 140.02C5.727 142.435 4.209 145.31 2.921 147.449L1.472 146.368ZM1.288 165.02H21.712V166.561H1.288V165.02ZM3.726 152.6H17.572V154.003H3.726V152.6ZM1.725 157.246H20.171V158.649H1.725V157.246ZM10.603 163.548H12.351V172.84H10.603V163.548ZM9.821 165.618L11.247 166.285C9.154 168.953 5.405 171.322 2.024 172.495C1.771 172.058 1.242 171.414 0.874 171.046C4.209 170.057 7.912 167.941 9.821 165.618ZM13.156 165.664C14.996 167.987 18.722 170.011 22.195 170.908C21.804 171.253 21.298 171.92 21.022 172.357C17.549 171.276 13.8 168.999 11.707 166.331L13.156 165.664ZM11.132 157.959H12.88V161.938C12.88 162.812 12.673 163.203 11.96 163.41C11.247 163.64 10.143 163.64 8.51 163.64C8.418 163.203 8.188 162.651 7.958 162.214C9.223 162.283 10.373 162.26 10.718 162.237C11.063 162.237 11.132 162.145 11.132 161.892V157.959ZM19.527 157.246H19.849L20.194 157.154L21.528 157.637C20.309 159.247 18.929 160.972 17.687 162.076L16.146 161.455C17.227 160.489 18.607 158.925 19.527 157.522V157.246ZM9.959 157.545L11.339 158.189C9.315 160.535 5.612 162.697 2.461 163.755C2.208 163.341 1.748 162.743 1.38 162.398C4.485 161.501 8.119 159.615 9.959 157.545ZM6.9 155.82L7.843 154.785C10.373 155.245 13.547 156.257 15.341 157.085L14.375 158.212C12.673 157.338 9.476 156.28 6.9 155.82ZM16.905 152.6H17.342L17.71 152.508L18.883 153.405C17.089 154.808 14.49 156.142 12.098 156.947C11.868 156.602 11.431 156.119 11.155 155.866C13.271 155.199 15.709 153.98 16.905 152.945V152.6Z" fill="#757575"/>
<path d="M48.426 6.245H68.574V7.924H48.426V6.245ZM55.556 13.536H67.677V15.146H55.556V13.536ZM54.659 21.678H68.574V23.311H54.659V21.678ZM60.754 9.097H62.479V22.552H60.754V9.097ZM55.993 2.68L57.764 3.117C56.154 8.384 53.348 13.743 48.771 17.032C48.587 16.572 48.15 15.836 47.874 15.445C52.014 12.524 54.705 7.418 55.993 2.68ZM51.439 12.156H53.164V23.771H51.439V12.156ZM56.913 29.244H67.355V30.808H56.913V29.244ZM56.89 34.603H67.286V36.144H56.89V34.603ZM56.775 39.893H67.401V41.434H56.775V39.893ZM56.039 29.244H57.672V37.593C57.672 41.043 57.327 45.781 54.843 48.863C54.567 48.541 53.923 47.989 53.532 47.782C55.832 44.907 56.039 40.813 56.039 37.57V29.244ZM66.734 29.244H68.413V46.77C68.413 47.69 68.206 48.196 67.562 48.495C66.964 48.771 65.929 48.794 64.388 48.794C64.296 48.357 64.089 47.621 63.859 47.161C64.986 47.207 65.998 47.207 66.32 47.184C66.642 47.184 66.734 47.069 66.734 46.747V29.244ZM61.375 29.842H62.985V48.403H61.375V29.842ZM47.621 39.916C49.438 39.41 52.198 38.559 54.866 37.731L55.096 39.318C52.658 40.123 50.059 40.951 48.081 41.595L47.621 39.916ZM47.943 32.326H55.096V33.936H47.943V32.326ZM50.841 27.703H52.474V46.701C52.474 47.644 52.267 48.127 51.692 48.403C51.14 48.679 50.243 48.748 48.771 48.725C48.725 48.311 48.495 47.575 48.265 47.092C49.277 47.115 50.151 47.115 50.427 47.115C50.703 47.115 50.841 47.023 50.841 46.678V27.703ZM54.889 55.348H68.758V56.889H54.889V55.348ZM60.018 53.071L61.559 52.634C62.134 53.6 62.732 54.911 62.939 55.739L61.306 56.245C61.122 55.417 60.57 54.06 60.018 53.071ZM65.009 56.061L66.711 56.337C65.216 61.374 61.237 63.513 55.51 64.64C55.418 64.226 55.05 63.467 54.797 63.099C60.11 62.294 63.859 60.431 65.009 56.061ZM63.928 64.502H65.607V73.656H63.928V64.502ZM57.925 64.433H59.604V67.147C59.604 69.309 58.937 71.954 55.303 73.564C55.004 73.265 54.406 72.759 54.015 72.506C57.396 71.08 57.925 68.826 57.925 67.124V64.433ZM58.615 56.199C60.11 60.247 63.652 62.386 69.333 63.053C68.965 63.398 68.551 64.088 68.344 64.548C62.433 63.674 58.868 61.236 57.143 56.521L58.615 56.199ZM47.828 64.893C49.438 64.364 51.876 63.444 54.268 62.57L54.544 64.134C52.382 64.985 50.082 65.882 48.265 66.572L47.828 64.893ZM48.081 57.326H54.567V58.936H48.081V57.326ZM50.68 52.703H52.336V71.632C52.336 72.552 52.129 73.058 51.577 73.334C51.025 73.61 50.174 73.679 48.817 73.679C48.748 73.242 48.541 72.483 48.334 72C49.231 72.023 50.036 72.023 50.312 72C50.588 72 50.68 71.931 50.68 71.632V52.703ZM50.013 81.383H57.005V96.425H50.013V94.861H55.395V82.924H50.013V81.383ZM48.978 81.383H50.588V98.265H48.978V81.383ZM49.898 87.777H56.246V89.318H49.898V87.777ZM52.497 77.634L54.36 77.979C53.9 79.405 53.325 80.992 52.865 82.027L51.485 81.682C51.876 80.578 52.313 78.83 52.497 77.634ZM60.271 81.314H67.332V82.924H60.271V81.314ZM66.734 81.314H68.344C68.344 81.314 68.344 81.958 68.344 82.211C67.976 92.768 67.654 96.333 66.734 97.46C66.228 98.127 65.699 98.334 64.894 98.403C64.112 98.495 62.755 98.449 61.467 98.38C61.421 97.874 61.214 97.161 60.892 96.701C62.387 96.816 63.767 96.839 64.296 96.839C64.756 96.839 65.032 96.77 65.285 96.471C66.044 95.643 66.412 91.825 66.734 81.682V81.314ZM60.754 77.588L62.41 77.979C61.559 81.406 60.202 84.787 58.615 86.972C58.316 86.696 57.603 86.213 57.189 85.983C58.753 83.959 60.018 80.785 60.754 77.588ZM59.696 87.294L61.03 86.512C62.341 88.145 63.928 90.376 64.664 91.733L63.192 92.653C62.502 91.25 60.961 88.973 59.696 87.294ZM52.244 109.511V112.432H64.986V109.511H52.244ZM52.244 105.164V108.039H64.986V105.164H52.244ZM50.542 103.6H66.78V113.996H50.542V103.6ZM48.242 121.586H68.781V123.196H48.242V121.586ZM49.783 116.641H67.539V118.274H49.783V116.641ZM57.741 104.589H59.397V113.743H59.489V122.506H57.649V113.743H57.741V104.589ZM57.58 129.313H59.282V136.466H57.58V129.313ZM48.173 140.813H68.85V142.377H48.173V140.813ZM53.509 137.892H55.211V140.721C55.211 143.619 54.498 146.816 48.909 148.817C48.679 148.426 48.173 147.782 47.805 147.46C52.934 145.689 53.509 143.021 53.509 140.675V137.892ZM61.72 137.892H63.468V148.863H61.72V137.892ZM49.323 128.784H67.516V130.279H49.323V128.784ZM50.197 132.303H66.757V133.706H50.197V132.303ZM48.38 135.799H68.574V137.317H48.38V135.799ZM52.98 161.052H63.974V162.662H52.98V161.052ZM54.107 155.969H66.389V157.625H54.107V155.969ZM48.219 166.02H68.804V167.676H48.219V166.02ZM63.353 161.052H65.124C65.124 161.052 65.101 161.627 65.055 161.88C64.388 169.079 63.744 171.954 62.663 173.012C62.088 173.61 61.536 173.748 60.593 173.817C59.765 173.886 58.132 173.84 56.453 173.748C56.43 173.242 56.2 172.506 55.855 172.023C57.626 172.184 59.328 172.207 59.995 172.207C60.57 172.207 60.869 172.161 61.191 171.908C62.111 171.126 62.732 168.228 63.353 161.374V161.052ZM53.946 152.657L55.74 152.818C55.073 156.383 54.038 161.098 53.325 163.858L51.531 163.674C52.336 160.891 53.371 156.107 53.946 152.657ZM49.576 179.773H54.038V193.251H49.576V191.595H52.612V181.452H49.576V179.773ZM48.702 179.773H50.151V195.045H48.702V179.773ZM57.396 196.678H66.711V197.966H57.396V196.678ZM57.396 193.826H66.711V195.091H57.396V193.826ZM55.073 179.773H69.011V181.199H55.073V179.773ZM57.143 186.857V188.605H66.711V186.857H57.143ZM57.143 183.982V185.684H66.711V183.982H57.143ZM55.671 182.74H68.206V189.824H55.671V182.74ZM56.453 190.974H67.539V198.794H65.883V192.262H58.04V198.84H56.453V190.974ZM59.236 177.68H60.731V183.246H60.685V189.364H59.282V183.246H59.236V177.68ZM62.939 177.68H64.434V183.246H64.365V189.364H62.985V183.246H62.939V177.68ZM49.346 205.417H62.824V207.05H49.346V205.417ZM61.858 205.417H63.583V210.293C63.583 210.845 63.698 210.937 64.365 210.937C64.664 210.937 66.159 210.937 66.55 210.937C67.171 210.937 67.286 210.638 67.332 208.292C67.7 208.568 68.436 208.844 68.896 208.982C68.735 211.857 68.252 212.57 66.734 212.57C66.343 212.57 64.503 212.57 64.135 212.57C62.364 212.57 61.858 212.087 61.858 210.316V205.417ZM55.855 202.68H57.626C57.051 207.74 55.671 211.489 49.047 213.283C48.863 212.869 48.426 212.202 48.081 211.88C54.291 210.339 55.372 207.05 55.855 202.68ZM53.026 217.147L54.751 217.699C53.578 219.585 51.6 221.448 49.875 222.621C49.553 222.276 48.863 221.655 48.449 221.379C50.22 220.367 52.014 218.803 53.026 217.147ZM61.628 217.883L63.077 217.101C64.664 218.412 66.642 220.252 67.608 221.517L66.09 222.414C65.193 221.149 63.261 219.24 61.628 217.883ZM57.465 212.133H59.305V221.77C59.305 222.782 59.075 223.265 58.339 223.541C57.603 223.794 56.453 223.794 54.659 223.794C54.567 223.334 54.291 222.621 54.038 222.138C55.372 222.207 56.637 222.184 57.005 222.161C57.35 222.161 57.465 222.069 57.465 221.747V212.133ZM48.587 214.249H68.275V215.882H48.587V214.249ZM50.013 231.383H57.005V246.425H50.013V244.861H55.395V232.924H50.013V231.383ZM48.978 231.383H50.588V248.265H48.978V231.383ZM49.898 237.777H56.246V239.318H49.898V237.777ZM52.497 227.634L54.36 227.979C53.9 229.405 53.325 230.992 52.865 232.027L51.485 231.682C51.876 230.578 52.313 228.83 52.497 227.634ZM60.271 231.314H67.332V232.924H60.271V231.314ZM66.734 231.314H68.344C68.344 231.314 68.344 231.958 68.344 232.211C67.976 242.768 67.654 246.333 66.734 247.46C66.228 248.127 65.699 248.334 64.894 248.403C64.112 248.495 62.755 248.449 61.467 248.38C61.421 247.874 61.214 247.161 60.892 246.701C62.387 246.816 63.767 246.839 64.296 246.839C64.756 246.839 65.032 246.77 65.285 246.471C66.044 245.643 66.412 241.825 66.734 231.682V231.314ZM60.754 227.588L62.41 227.979C61.559 231.406 60.202 234.787 58.615 236.972C58.316 236.696 57.603 236.213 57.189 235.983C58.753 233.959 60.018 230.785 60.754 227.588ZM59.696 237.294L61.03 236.512C62.341 238.145 63.928 240.376 64.664 241.733L63.192 242.653C62.502 241.25 60.961 238.973 59.696 237.294ZM57.511 252.588H59.328V256.889H57.511V252.588ZM57.534 257.441H59.305V273.909H57.534V257.441ZM48.15 255.877H68.873V257.556H48.15V255.877ZM50.519 260.707H65.63V262.386H52.244V270.988H50.519V260.707ZM64.963 260.707H66.734V268.803C66.734 269.792 66.504 270.321 65.745 270.62C64.94 270.896 63.652 270.919 61.674 270.919C61.605 270.39 61.329 269.7 61.076 269.217C62.64 269.263 64.043 269.263 64.434 269.24C64.848 269.217 64.963 269.125 64.963 268.803V260.707ZM48.219 291.756H68.781V293.205H48.219V291.756ZM52.083 283.361H66.32V284.58H52.083V283.361ZM52.083 286.121H66.389V287.363H52.083V286.121ZM51.807 280.417H67.263V281.843H51.807V280.417ZM58.017 281.222H59.696V289.479H58.017V281.222ZM57.58 289.916H59.305V298.84H57.58V289.916ZM57.212 292.285L58.546 292.975C56.269 295.367 52.175 297.552 48.794 298.61C48.541 298.15 48.035 297.506 47.644 297.161C51.071 296.287 55.119 294.355 57.212 292.285ZM59.696 292.285C61.766 294.309 65.791 296.149 69.241 297C68.873 297.345 68.39 297.989 68.137 298.426C64.71 297.414 60.639 295.298 58.362 292.975L59.696 292.285ZM59.098 277.68L61.03 277.956C60.386 279.175 59.673 280.463 59.075 281.337L57.557 281.015C58.109 280.095 58.776 278.669 59.098 277.68ZM53.095 277.657L54.889 277.979C53.532 280.509 51.6 283.315 48.863 285.615C48.564 285.224 47.989 284.695 47.598 284.465C50.174 282.441 52.06 279.75 53.095 277.657ZM51.002 281.36H52.658V288.95H68.16V290.33H51.002V281.36ZM49.208 306.797H67.746V317.63H65.952V308.499H50.933V317.745H49.208V306.797ZM50.128 314.617H66.987V316.296H50.128V314.617ZM57.534 302.68H59.328V323.817H57.534V302.68Z" fill="#757575"/>
<path d="M99.934 10.765V18.907H98.301V12.375H94.943V10.765H99.934ZM99.934 18.217C101.061 19.919 103.039 20.701 105.753 20.793C108.283 20.908 113.596 20.839 116.356 20.655C116.149 21.046 115.896 21.851 115.804 22.357C113.251 22.472 108.329 22.518 105.753 22.403C102.74 22.288 100.647 21.483 99.221 19.666C98.048 20.655 96.806 21.667 95.495 22.656L94.644 20.954C95.794 20.241 97.22 19.206 98.439 18.217H99.934ZM95.334 3.29L96.53 2.209C98.002 3.244 99.727 4.808 100.486 5.935L99.175 7.131C98.462 6.004 96.783 4.371 95.334 3.29ZM104.534 5.544L105.638 4.578C107.8 5.337 110.698 6.602 112.239 7.522L111.066 8.603C109.617 7.706 106.765 6.395 104.534 5.544ZM102.349 7.476H114.24V8.81H103.982V19.39H102.349V7.476ZM113.412 7.476H115.068V17.665C115.068 18.516 114.907 18.907 114.286 19.16C113.688 19.436 112.722 19.436 111.181 19.436C111.112 18.999 110.905 18.401 110.698 18.01C111.779 18.056 112.745 18.033 113.044 18.033C113.343 18.033 113.412 17.941 113.412 17.642V7.476ZM102.349 2.646H113.826V4.026H102.349V2.646ZM103.246 10.834H114.079V12.122H103.246V10.834ZM103.246 14.215H114.079V15.549H103.246V14.215ZM107.846 8.028H109.41V19.298H107.846V8.028ZM113.251 2.646H113.642L114.01 2.554L115.068 3.382C113.527 4.831 111.204 6.257 109.111 7.131C108.881 6.832 108.444 6.372 108.191 6.119C110.077 5.383 112.216 4.049 113.251 2.968V2.646ZM95.794 28.198L97.128 27.324C98.416 28.474 99.934 30.084 100.647 31.142L99.221 32.177C98.554 31.073 97.082 29.394 95.794 28.198ZM100.003 35.305V43.677H98.324V36.938H95.127V35.305H100.003ZM99.129 42.78C99.911 42.78 100.44 43.47 101.728 44.252C103.223 45.195 105.178 45.356 107.754 45.356C110.468 45.356 113.941 45.172 116.172 44.919C115.942 45.402 115.666 46.276 115.643 46.805C114.01 46.897 109.916 47.012 107.731 47.012C104.856 47.012 102.924 46.782 101.337 45.77C100.348 45.149 99.612 44.39 99.106 44.39C98.324 44.39 97.22 45.747 96.047 47.311L94.828 45.701C96.415 43.976 97.979 42.78 99.129 42.78ZM101.636 30.843H115.482V32.476H101.636V30.843ZM110.537 26.772H112.308V41.607C112.308 42.78 111.986 43.286 111.158 43.562C110.376 43.838 108.973 43.884 106.788 43.884C106.719 43.378 106.42 42.619 106.167 42.113C107.869 42.159 109.456 42.159 109.916 42.159C110.376 42.113 110.537 41.998 110.537 41.584V26.772ZM102.74 35.029L104.12 34.293C105.293 35.696 106.742 37.605 107.409 38.801L105.96 39.698C105.339 38.479 103.913 36.478 102.74 35.029ZM100.877 57.89L102.579 58.419C100.969 61.616 98.485 64.675 96.047 66.653C95.748 66.354 95.035 65.733 94.621 65.457C97.105 63.663 99.451 60.834 100.877 57.89ZM105.753 58.097H107.455V69.735C107.455 70.701 107.685 70.885 108.858 70.885C109.433 70.885 112.285 70.885 113.021 70.885C114.125 70.885 114.309 70.287 114.447 67.32C114.838 67.619 115.551 67.918 116.011 68.033C115.781 71.506 115.275 72.518 113.113 72.518C112.607 72.518 109.226 72.518 108.72 72.518C106.397 72.518 105.753 71.92 105.753 69.712V58.097ZM113.734 60.098L115.068 61.409C112.906 62.835 109.755 64.238 106.972 65.365C106.88 64.997 106.581 64.422 106.351 64.077C109.019 62.973 112.009 61.432 113.734 60.098ZM95.357 53.796H115.597V55.452H95.357V53.796ZM100.9 51.68H102.602V57.89H100.9V51.68ZM108.444 51.68H110.146V58.028H108.444V51.68ZM98.968 62.26L100.647 60.558V60.581V72.84H98.968V62.26ZM100.923 77.577H109.571V79.164H100.923V77.577ZM100.049 77.577H101.774V80.682C101.774 83.143 100.808 85.857 96.3 87.467C96.116 87.076 95.587 86.317 95.288 86.041C99.405 84.638 100.049 82.591 100.049 80.636V77.577ZM108.72 77.577H110.445V83.419C110.445 84.04 110.537 84.132 111.227 84.132C111.526 84.132 112.998 84.132 113.389 84.132C114.056 84.132 114.171 83.718 114.24 80.935C114.608 81.234 115.321 81.51 115.781 81.648C115.643 84.914 115.183 85.719 113.573 85.719C113.182 85.719 111.365 85.719 110.997 85.719C109.226 85.719 108.72 85.213 108.72 83.442V77.577ZM95.242 88.778H115.758V90.319H95.242V88.778ZM104.58 85.926H106.305V97.84H104.58V85.926ZM103.798 89.491L105.109 90.066C103.039 93.079 99.359 95.747 96.001 97.104C95.748 96.667 95.242 96.046 94.851 95.701C98.209 94.574 101.889 92.113 103.798 89.491ZM107.087 89.491C108.973 92.09 112.676 94.459 116.149 95.54C115.758 95.885 115.252 96.529 114.976 96.966C111.526 95.678 107.823 93.033 105.776 90.066L107.087 89.491ZM106.834 118.263H113.964V119.919H106.834V118.263ZM106.19 103.842H114.769V121.667H113.021V105.475H107.869V121.828H106.19V103.842ZM99.658 103.635H101.383V122.817H99.658V103.635ZM95.15 108.488H105.408V110.098H95.15V108.488ZM99.566 109.063L100.785 109.5C99.704 113.065 97.588 117.32 95.518 119.528C95.334 119.045 94.897 118.355 94.598 117.941C96.53 115.963 98.646 112.237 99.566 109.063ZM104.074 101.91L105.247 103.244C102.786 104.164 99.014 104.831 95.863 105.199C95.771 104.808 95.564 104.233 95.357 103.842C98.416 103.428 102.073 102.738 104.074 101.91ZM101.245 110.558C101.981 111.294 104.649 114.422 105.247 115.181L104.189 116.584C103.453 115.365 101.222 112.421 100.371 111.409L101.245 110.558ZM105.339 128.474H113.987V130.13H105.339V128.474ZM113.412 128.474H113.711L114.01 128.382L115.137 128.704C113.895 138.801 109.893 144.758 104.373 147.817C104.143 147.38 103.637 146.69 103.223 146.345C108.375 143.769 112.308 137.858 113.412 128.865V128.474ZM107.524 129.877C108.605 137.513 110.997 143.7 116.103 146.437C115.689 146.782 115.137 147.426 114.861 147.909C109.525 144.758 107.156 138.41 105.891 130.13L107.524 129.877ZM95.472 128.474H103.315V130.13H95.472V128.474ZM102.671 128.474H102.947L103.269 128.382L104.35 128.704C103.384 138.111 100.348 144.39 96.047 147.84C95.771 147.426 95.219 146.759 94.782 146.46C98.807 143.539 101.797 137.214 102.671 128.888V128.474ZM95.656 133.511L96.967 132.522C99.911 135.995 103.292 140.664 104.741 143.654L103.292 144.827C101.912 141.837 98.6 137.007 95.656 133.511ZM112.331 151.726L113.619 153.129C109.456 154.348 102.648 154.969 97.059 155.199C97.013 154.762 96.806 154.072 96.645 153.681C102.119 153.428 108.835 152.807 112.331 151.726ZM96.668 158.212H114.608V159.868H96.668V158.212ZM95.127 163.617H115.896V165.296H95.127V163.617ZM104.626 154.164H106.42V170.448C106.42 171.667 106.052 172.196 105.178 172.472C104.304 172.748 102.809 172.794 100.371 172.771C100.256 172.288 99.934 171.506 99.658 171.046C101.567 171.115 103.407 171.092 103.913 171.069C104.442 171.069 104.626 170.908 104.626 170.425V154.164ZM104.603 177.807H114.723V190.043H113.044V179.348H106.236V190.043H104.603V177.807ZM109.732 189.698H111.342V195.31C111.342 195.931 111.526 196.092 112.124 196.092H113.849C114.585 196.092 114.723 195.471 114.815 192.205C115.252 192.527 115.827 192.757 116.241 192.872C116.034 196.483 115.804 197.426 113.826 197.426H111.871C110.353 197.426 109.732 196.989 109.732 195.448V189.698ZM108.674 181.303H110.307V185.742C110.307 189.675 109.272 194.712 103.246 197.84C103.039 197.495 102.51 196.851 102.165 196.575C107.961 193.608 108.674 189.261 108.674 185.719V181.303ZM95.196 178.474H102.303V180.13H95.196V178.474ZM101.705 178.474H101.981L102.303 178.382L103.407 178.727C102.441 187.191 99.773 193.401 96.07 196.897C95.771 196.506 95.196 195.908 94.782 195.586C98.163 192.596 100.877 186.34 101.705 178.911V178.474ZM95.288 183.166L96.599 182.292C99.29 185.811 102.211 190.48 103.292 193.516L101.843 194.551C100.785 191.515 97.956 186.708 95.288 183.166ZM100.302 205.521L101.82 205.774C100.67 207.867 98.784 209.914 95.955 211.455C95.748 211.133 95.311 210.673 94.989 210.443C97.634 209.109 99.428 207.2 100.302 205.521ZM100.187 206.993H104.235V208.189H99.221L100.187 206.993ZM103.844 206.993H104.12L104.396 206.924L105.362 207.407C103.683 211.984 99.75 214.928 95.794 216.354C95.61 215.986 95.219 215.411 94.92 215.112C98.646 213.962 102.441 211.11 103.844 207.269V206.993ZM108.076 206.97H113.343V208.35H108.076V206.97ZM101.682 212.237H109.571V213.663H101.682V212.237ZM97.588 215.526H113.32V216.998H97.588V215.526ZM106.512 205.567C108.03 209.845 111.319 212.927 116.149 214.1C115.781 214.422 115.344 215.043 115.137 215.48C110.146 214.077 106.857 210.765 105.155 205.935L106.512 205.567ZM104.649 216.17H106.328V221.115C106.328 221.989 106.144 222.426 105.431 222.656C104.764 222.886 103.683 222.863 102.027 222.863C101.935 222.426 101.705 221.851 101.498 221.414C102.763 221.46 103.89 221.437 104.235 221.437C104.557 221.414 104.649 221.345 104.649 221.069V216.17ZM100.67 217.55L102.211 218.102C100.785 219.827 98.393 221.414 96.3 222.426C96.047 222.104 95.472 221.46 95.104 221.161C97.197 220.333 99.405 218.999 100.67 217.55ZM108.49 218.608L109.617 217.596C111.618 218.654 114.24 220.195 115.62 221.253L114.424 222.426C113.113 221.391 110.514 219.735 108.49 218.608ZM98.554 209.247L99.428 208.465C100.509 209.04 101.82 209.96 102.487 210.604L101.59 211.478C100.946 210.811 99.635 209.868 98.554 209.247ZM96.507 210.742L97.45 210.006C98.554 210.696 99.842 211.731 100.463 212.444L99.474 213.295C98.853 212.536 97.588 211.501 96.507 210.742ZM112.653 206.97H112.998L113.297 206.901L114.309 207.522C113.366 209.316 111.825 211.225 110.445 212.421C110.192 212.122 109.755 211.685 109.456 211.432C110.698 210.374 112.009 208.626 112.653 207.269V206.97ZM104.603 201.703H106.328V204.532H104.603V201.703ZM95.633 203.474H115.321V207.154H113.688V204.923H97.22V207.154H95.633V203.474ZM95.081 232.453H115.965V234.132H95.081V232.453ZM99.428 244.482H115.183V246.138H99.428V244.482ZM105.339 238.939H111.411V240.572H105.339V238.939ZM98.531 227.301H100.302V247.863H98.531V227.301ZM104.58 226.818H106.328V241.699H104.58V226.818ZM110.652 227.071H112.377V241.584H110.652V227.071ZM99.313 257.729V260.236H111.641V257.729H99.313ZM99.313 253.888V256.349H111.641V253.888H99.313ZM97.588 252.439H113.412V261.662H97.588V252.439ZM108.03 260.719C109.64 262.95 112.883 264.813 116.103 265.664C115.712 266.009 115.206 266.676 114.953 267.136C111.664 266.078 108.375 263.893 106.558 261.271L108.03 260.719ZM103.062 260.719L104.557 261.34C102.717 263.893 99.336 266.101 96.185 267.228C95.909 266.791 95.403 266.147 95.012 265.802C98.117 264.905 101.406 262.927 103.062 260.719ZM101.153 264.767H102.901V266.193C102.901 268.401 102.349 271.184 97.887 272.978C97.634 272.541 97.082 271.943 96.691 271.598C100.739 270.08 101.153 267.849 101.153 266.147V264.767ZM104.58 253.198H106.328V261.018H104.58V253.198ZM108.467 264.767H110.238V272.794H108.467V264.767Z" fill="#757575"/>
<path d="M4.462 183.411C6.394 183.411 7.958 184.975 7.958 186.907C7.958 188.839 6.394 190.403 4.462 190.403C2.53 190.403 0.943 188.839 0.943 186.907C0.943 184.975 2.53 183.411 4.462 183.411ZM4.462 189.23C5.75 189.23 6.785 188.195 6.785 186.907C6.785 185.619 5.75 184.584 4.462 184.584C3.174 184.584 2.116 185.619 2.116 186.907C2.116 188.195 3.174 189.23 4.462 189.23Z" fill="#757575"/>
</svg>
