<svg width="652" height="179" viewBox="0 0 652 179" fill="none" xmlns="http://www.w3.org/2000/svg">
<path d="M16.169 2.198L17.48 1.301C18.837 2.451 20.447 4.084 21.206 5.142L19.78 6.154C19.09 5.05 17.526 3.394 16.169 2.198ZM1.265 7.488H21.758V9.144H1.265V7.488ZM0.92 14.25C3.657 13.744 7.981 12.824 12.029 11.95L12.167 13.514C8.395 14.388 4.324 15.331 1.426 15.975L0.92 14.25ZM6.21 3.026H7.935V19.632C7.935 20.759 7.659 21.265 6.923 21.541C6.187 21.817 4.968 21.886 3.059 21.863C2.967 21.403 2.668 20.621 2.415 20.115C3.887 20.184 5.244 20.161 5.658 20.138C6.072 20.138 6.21 20.023 6.21 19.609V3.026ZM10.58 0.955998L11.799 2.405C9.131 3.325 5.221 4.038 1.932 4.498C1.84 4.107 1.633 3.463 1.403 3.072C4.646 2.566 8.372 1.784 10.58 0.955998ZM12.88 0.886999H14.674C14.628 11.444 16.882 20.184 19.688 20.184C20.309 20.184 20.585 18.988 20.723 16.021C21.091 16.412 21.712 16.803 22.195 16.987C21.873 20.805 21.252 21.932 19.527 21.932C15.019 21.932 12.972 11.835 12.88 0.886999ZM19.113 10.202L20.654 10.846C18.4 15.055 14.605 18.758 10.373 20.989C10.097 20.552 9.614 20 9.177 19.609C13.271 17.631 17.066 14.089 19.113 10.202ZM36.225 1.531H43.148V3.118H36.225V1.531ZM42.481 1.531H44.206V19.678C44.206 20.713 43.953 21.219 43.24 21.495C42.55 21.771 41.377 21.794 39.56 21.794C39.491 21.357 39.238 20.598 39.008 20.138C40.319 20.207 41.584 20.184 41.975 20.161C42.343 20.138 42.481 20.023 42.481 19.655V1.531ZM31.74 1.439L33.074 0.702999C34.086 2.083 35.305 3.969 35.834 5.119L34.408 5.947C33.902 4.774 32.752 2.842 31.74 1.439ZM30.774 5.326H32.453V21.84H30.774V5.326ZM28.152 0.817999L29.762 1.255C28.612 5.234 26.818 9.282 24.748 11.973C24.587 11.582 24.104 10.662 23.805 10.225C25.622 7.902 27.209 4.36 28.152 0.817999ZM26.335 6.614L27.922 5.004L27.991 5.05V21.84H26.335V6.614ZM49.013 4.383H56.005V19.425H49.013V17.861H54.395V5.924H49.013V4.383ZM47.978 4.383H49.588V21.265H47.978V4.383ZM48.898 10.777H55.246V12.318H48.898V10.777ZM51.497 0.633998L53.36 0.978999C52.9 2.405 52.325 3.992 51.865 5.027L50.485 4.682C50.876 3.578 51.313 1.83 51.497 0.633998ZM59.271 4.314H66.332V5.924H59.271V4.314ZM65.734 4.314H67.344C67.344 4.314 67.344 4.958 67.344 5.211C66.976 15.768 66.654 19.333 65.734 20.46C65.228 21.127 64.699 21.334 63.894 21.403C63.112 21.495 61.755 21.449 60.467 21.38C60.421 20.874 60.214 20.161 59.892 19.701C61.387 19.816 62.767 19.839 63.296 19.839C63.756 19.839 64.032 19.77 64.285 19.471C65.044 18.643 65.412 14.825 65.734 4.682V4.314ZM59.754 0.587999L61.41 0.978999C60.559 4.406 59.202 7.787 57.615 9.972C57.316 9.696 56.603 9.213 56.189 8.983C57.753 6.959 59.018 3.785 59.754 0.587999ZM58.696 10.294L60.03 9.512C61.341 11.145 62.928 13.376 63.664 14.733L62.192 15.653C61.502 14.25 59.961 11.973 58.696 10.294ZM81.88 4.958H91.08V6.591H81.88V4.958ZM69.966 5.165H80.063V6.798H69.966V5.165ZM82.593 0.679999L84.318 0.955998C83.467 5.257 82.018 9.213 80.04 11.789C79.741 11.513 79.005 10.938 78.568 10.685C80.546 8.339 81.857 4.59 82.593 0.679999ZM87.745 5.855L89.447 6.062C88.159 14.227 85.399 19.011 79.051 21.863C78.867 21.472 78.361 20.69 78.062 20.345C84.111 17.907 86.641 13.399 87.745 5.855ZM82.685 6.407C83.858 12.893 86.365 18.206 91.241 20.391C90.827 20.736 90.298 21.403 90.045 21.863C84.962 19.333 82.455 13.813 81.121 6.683L82.685 6.407ZM74.175 0.679999H75.923V11.835H74.175V0.679999ZM70.932 11.007H72.565V20.851H70.932V11.007ZM71.898 11.007H79.143V19.241H71.898V17.631H77.51V12.64H71.898V11.007ZM102.534 0.679999H104.282V19.908C104.282 20.989 103.983 21.403 103.27 21.656C102.534 21.886 101.338 21.909 99.406 21.909C99.314 21.495 99.038 20.851 98.808 20.46C100.188 20.506 101.568 20.483 101.982 20.483C102.396 20.46 102.534 20.322 102.534 19.908V0.679999ZM93.541 2.52H113.505V3.946H93.541V2.52ZM97.589 6.522V8.178H109.457V6.522H97.589ZM95.956 5.326H111.205V9.397H95.956V5.326ZM95.289 11.007H111.55V19.379H109.825V12.295H95.289V11.007ZM93.104 13.882H113.942V15.262H93.104V13.882ZM95.059 17.01H110.722V18.344H95.059V17.01ZM129.26 1.531H131.1C130.985 6.798 130.686 16.895 124.085 21.817C123.694 21.334 123.096 20.851 122.521 20.506C129.076 15.952 129.168 6.269 129.26 1.531ZM120.635 10.708L121.831 9.42C123.51 11.237 125.35 13.698 126.201 15.262L124.89 16.734C124.062 15.124 122.245 12.548 120.635 10.708ZM130.824 3.877C131.353 9.535 132.618 16.757 137.264 20.184C136.873 20.529 136.206 21.334 135.907 21.84C131.192 17.953 129.904 10.501 129.352 4.82L130.824 3.877ZM121.003 1.462L122.889 1.531C122.406 10.547 121.348 17.424 117.507 21.886C117.185 21.587 116.265 20.966 115.828 20.69C119.669 16.711 120.635 9.926 121.003 1.462ZM139.265 9.88H159.735V11.536H139.265V9.88ZM148.557 6.131H150.328V21.84H148.557V6.131ZM147.637 10.593L149.155 11.191C147.108 15.17 143.52 18.896 140.047 20.851C139.771 20.414 139.196 19.77 138.782 19.425C142.186 17.7 145.774 14.135 147.637 10.593ZM151.11 10.731C153.042 14.112 156.745 17.516 160.172 19.149C159.758 19.517 159.16 20.207 158.861 20.69C155.434 18.758 151.777 15.078 149.684 11.329L151.11 10.731ZM148.534 0.702999H150.351V4.406H148.534V0.702999ZM139.817 3.325H159.137V8.201H157.32V4.981H141.565V8.201H139.817V3.325ZM168.429 8.592L182.689 6.798L182.942 8.431L168.682 10.225L168.429 8.592ZM177.422 1.991L178.687 1.163C180.067 2.267 181.7 3.831 182.482 4.889L181.148 5.809C180.412 4.774 178.779 3.141 177.422 1.991ZM168.176 0.932999L169.809 1.462C168.084 5.487 165.347 9.443 162.472 12.019C162.288 11.605 161.782 10.731 161.46 10.34C164.128 8.109 166.658 4.567 168.176 0.932999ZM165.577 7.051L167.325 5.326V5.349V21.817H165.577V7.051ZM173.581 1.025H175.329C175.651 11.352 177.238 19.471 180.711 19.793C181.355 19.839 181.746 18.482 181.976 15.791C182.321 16.136 183.08 16.573 183.402 16.711C182.919 20.713 181.976 21.886 180.78 21.84C175.605 21.472 174.087 12.778 173.581 1.025ZM190.877 6.89L192.579 7.419C190.969 10.616 188.485 13.675 186.047 15.653C185.748 15.354 185.035 14.733 184.621 14.457C187.105 12.663 189.451 9.834 190.877 6.89ZM195.753 7.097H197.455V18.735C197.455 19.701 197.685 19.885 198.858 19.885C199.433 19.885 202.285 19.885 203.021 19.885C204.125 19.885 204.309 19.287 204.447 16.32C204.838 16.619 205.551 16.918 206.011 17.033C205.781 20.506 205.275 21.518 203.113 21.518C202.607 21.518 199.226 21.518 198.72 21.518C196.397 21.518 195.753 20.92 195.753 18.712V7.097ZM203.734 9.098L205.068 10.409C202.906 11.835 199.755 13.238 196.972 14.365C196.88 13.997 196.581 13.422 196.351 13.077C199.019 11.973 202.009 10.432 203.734 9.098ZM185.357 2.796H205.597V4.452H185.357V2.796ZM190.9 0.679999H192.602V6.89H190.9V0.679999ZM198.444 0.679999H200.146V7.028H198.444V0.679999ZM188.968 11.26L190.647 9.558V9.581V21.84H188.968V11.26ZM210.519 8.615H223.721V10.225H210.519V8.615ZM223.445 8.615H223.721L224.089 8.546L225.308 9.443C225.239 9.512 225.078 9.627 224.917 9.696C213.44 16.435 212.635 17.677 212.635 18.528C212.635 19.241 213.509 19.563 214.889 19.563H224.986C226.251 19.563 226.642 19.103 226.757 16.136C227.217 16.412 227.861 16.596 228.39 16.711C228.114 20.529 227.309 21.242 224.848 21.242H215.05C212.198 21.242 210.887 20.253 210.887 18.666C210.887 17.24 211.37 15.722 223.445 8.615ZM208.288 3.164H228.413V4.843H208.288V3.164ZM213.601 0.679999H215.372V6.936H213.601V0.679999ZM221.559 0.679999H223.307V6.936H221.559V0.679999ZM232.047 2.198H251.091V3.831H232.047V2.198ZM231.196 10.409H251.827V12.065H231.196V10.409ZM244.904 3.049H246.675V21.863H244.904V3.049ZM236.716 3.049H238.464V9.42C238.464 13.882 237.889 18.597 232.599 21.932C232.3 21.541 231.679 20.943 231.242 20.667C236.187 17.608 236.716 13.399 236.716 9.42V3.049ZM265.144 19.264H273.171V20.828H265.144V19.264ZM264.247 12.525H274.068V21.771H272.366V14.112H265.903V21.863H264.247V12.525ZM262.683 8.661C265.397 8.523 269.675 8.293 273.769 8.017L273.746 9.558C269.859 9.857 265.742 10.179 262.89 10.363L262.683 8.661ZM270.296 4.958L271.676 4.245C273.217 6.154 274.804 8.73 275.425 10.432L273.907 11.26C273.355 9.535 271.814 6.913 270.296 4.958ZM267.168 0.679999L269.054 1.071C268.111 3.877 266.8 7.396 265.719 9.581L264.247 9.167C265.282 6.936 266.524 3.256 267.168 0.679999ZM253.989 5.441H261.579V7.074H253.989V5.441ZM257.485 0.679999L259.141 0.864C258.198 5.464 256.726 11.674 255.645 15.515L254.219 14.733C255.254 11.237 256.68 5.05 257.485 0.679999ZM255.139 14.043L256.105 12.824C258.681 14.273 261.74 16.481 263.12 18.183L262.062 19.586C260.705 17.861 257.715 15.538 255.139 14.043ZM260.912 5.441H261.211L261.51 5.395L262.545 5.602C261.924 14.503 259.44 19.379 255.208 21.909C254.955 21.495 254.495 20.874 254.127 20.529C257.945 18.505 260.36 13.606 260.912 5.809V5.441ZM280.462 14.411C282.394 14.411 283.958 15.975 283.958 17.907C283.958 19.839 282.394 21.403 280.462 21.403C278.53 21.403 276.943 19.839 276.943 17.907C276.943 15.975 278.53 14.411 280.462 14.411ZM280.462 20.23C281.75 20.23 282.785 19.195 282.785 17.907C282.785 16.619 281.75 15.584 280.462 15.584C279.174 15.584 278.116 16.619 278.116 17.907C278.116 19.195 279.174 20.23 280.462 20.23ZM1.426 56.245H21.574V57.924H1.426V56.245ZM8.556 63.536H20.677V65.146H8.556V63.536ZM7.659 71.678H21.574V73.311H7.659V71.678ZM13.754 59.097H15.479V72.552H13.754V59.097ZM8.993 52.68L10.764 53.117C9.154 58.384 6.348 63.743 1.771 67.032C1.587 66.572 1.15 65.836 0.874 65.445C5.014 62.524 7.705 57.418 8.993 52.68ZM4.439 62.156H6.164V73.771H4.439V62.156ZM28.06 69.47C28.796 69.47 29.348 70.045 30.59 70.712C32.039 71.517 34.063 71.632 36.547 71.632C39.169 71.632 42.78 71.471 45.126 71.195C44.896 71.701 44.62 72.598 44.574 73.15C42.757 73.265 38.824 73.38 36.501 73.38C33.787 73.38 31.809 73.15 30.222 72.322C29.279 71.793 28.543 71.149 28.037 71.149C27.255 71.149 26.151 72.345 25.024 73.656L23.805 71.977C25.3 70.551 26.887 69.47 28.06 69.47ZM24.38 54.589L25.737 53.692C26.956 54.704 28.428 56.199 29.095 57.234L27.646 58.246C27.025 57.211 25.599 55.693 24.38 54.589ZM28.773 61.351V70.344H27.094V62.961H24.127V61.351H28.773ZM29.785 56.291H44.735V57.924H29.785V56.291ZM40.365 56.613L42.09 56.958C40.273 63.628 36.639 67.607 30.705 69.953C30.521 69.585 29.992 68.803 29.647 68.435C35.397 66.457 38.824 62.754 40.365 56.613ZM35.029 53.071L36.662 52.565C37.329 53.577 38.088 54.98 38.41 55.854L36.685 56.475C36.409 55.578 35.673 54.129 35.029 53.071ZM30.475 60.247L31.694 59.189C35.765 61.995 41.17 66.043 43.884 68.619L42.527 69.884C39.997 67.308 34.661 63.122 30.475 60.247ZM51.244 59.511V62.432H63.986V59.511H51.244ZM51.244 55.164V58.039H63.986V55.164H51.244ZM49.542 53.6H65.78V63.996H49.542V53.6ZM47.242 71.586H67.781V73.196H47.242V71.586ZM48.783 66.641H66.539V68.274H48.783V66.641ZM56.741 54.589H58.397V63.743H58.489V72.506H56.649V63.743H56.741V54.589ZM75.877 58.89L77.579 59.419C75.969 62.616 73.485 65.675 71.047 67.653C70.748 67.354 70.035 66.733 69.621 66.457C72.105 64.663 74.451 61.834 75.877 58.89ZM80.753 59.097H82.455V70.735C82.455 71.701 82.685 71.885 83.858 71.885C84.433 71.885 87.285 71.885 88.021 71.885C89.125 71.885 89.309 71.287 89.447 68.32C89.838 68.619 90.551 68.918 91.011 69.033C90.781 72.506 90.275 73.518 88.113 73.518C87.607 73.518 84.226 73.518 83.72 73.518C81.397 73.518 80.753 72.92 80.753 70.712V59.097ZM88.734 61.098L90.068 62.409C87.906 63.835 84.755 65.238 81.972 66.365C81.88 65.997 81.581 65.422 81.351 65.077C84.019 63.973 87.009 62.432 88.734 61.098ZM70.357 54.796H90.597V56.452H70.357V54.796ZM75.9 52.68H77.602V58.89H75.9V52.68ZM83.444 52.68H85.146V59.028H83.444V52.68ZM73.968 63.26L75.647 61.558V61.581V73.84H73.968V63.26ZM98.279 73.288C96.784 71.471 94.806 69.516 93.173 68.182L94.668 66.871C96.324 68.205 98.394 70.275 99.843 71.954L98.279 73.288ZM126.247 53.922H136.85V55.486H126.247V53.922ZM128.363 54.543H129.927C129.697 60.086 129.191 67.768 128.731 72.023H127.098C127.604 67.676 128.179 59.971 128.363 54.543ZM125.442 71.77C127.443 71.471 130.525 70.942 133.561 70.436L133.653 71.839C130.939 72.368 128.064 72.92 125.925 73.311L125.442 71.77ZM129.858 62.938L131.008 62.57C131.882 64.18 132.687 66.273 132.94 67.653L131.698 68.044C131.445 66.664 130.686 64.525 129.858 62.938ZM133.538 58.821H135.125C135.102 65.537 135.125 72.253 136.275 72.253C136.574 72.253 136.666 70.804 136.689 68.757C137.011 69.125 137.425 69.516 137.747 69.723C137.609 72.759 137.31 73.863 136.114 73.863C133.584 73.863 133.63 67.078 133.538 58.821ZM116.311 57.257H126.523V58.798H116.311V57.257ZM115.897 63.398H126.776V64.985H115.897V63.398ZM124.154 52.703L125.81 53.163C125.189 54.52 124.43 56.153 123.832 57.165L122.544 56.751C123.119 55.67 123.809 53.922 124.154 52.703ZM117.277 53.186L118.634 52.749C119.301 53.968 119.945 55.578 120.175 56.636L118.726 57.119C118.519 56.061 117.921 54.405 117.277 53.186ZM122.774 57.855H124.338V73.817H122.774V57.855ZM118.381 57.855H119.922V63.306C119.922 67.009 119.6 70.873 117.07 73.978C116.794 73.633 116.196 73.15 115.805 72.92C118.128 70.091 118.381 66.595 118.381 63.306V57.855ZM129.03 58.821H134.435V60.362H128.892L129.03 58.821ZM139.081 62.961H159.965V64.686H139.081V62.961ZM148.649 59.258H150.443V71.632C150.443 72.782 150.121 73.311 149.247 73.587C148.396 73.863 146.901 73.909 144.693 73.909C144.555 73.403 144.233 72.621 143.934 72.115C145.797 72.184 147.499 72.184 148.005 72.161C148.488 72.138 148.649 72.023 148.649 71.609V59.258ZM141.45 54.29H156.469V55.992H141.45V54.29ZM155.871 54.29H156.331L156.722 54.198L158.033 55.164C155.94 57.28 152.674 59.557 149.983 60.937C149.73 60.546 149.201 59.994 148.856 59.695C151.363 58.499 154.422 56.314 155.871 54.681V54.29ZM173.834 69.263H180.964V70.919H173.834V69.263ZM173.19 54.842H181.769V72.667H180.021V56.475H174.869V72.828H173.19V54.842ZM166.658 54.635H168.383V73.817H166.658V54.635ZM162.15 59.488H172.408V61.098H162.15V59.488ZM166.566 60.063L167.785 60.5C166.704 64.065 164.588 68.32 162.518 70.528C162.334 70.045 161.897 69.355 161.598 68.941C163.53 66.963 165.646 63.237 166.566 60.063ZM171.074 52.91L172.247 54.244C169.786 55.164 166.014 55.831 162.863 56.199C162.771 55.808 162.564 55.233 162.357 54.842C165.416 54.428 169.073 53.738 171.074 52.91ZM168.245 61.558C168.981 62.294 171.649 65.422 172.247 66.181L171.189 67.584C170.453 66.365 168.222 63.421 167.371 62.409L168.245 61.558ZM194.304 53.393H196.213C196.029 57.004 195.684 68.481 186.162 73.656C185.863 73.219 185.288 72.69 184.759 72.299C194.143 67.515 194.143 56.452 194.304 53.393ZM196.144 53.853C196.213 55.647 196.88 67.86 206.356 72.207C205.85 72.598 205.321 73.173 205.045 73.656C195.293 68.987 194.649 56.13 194.488 54.014L196.144 53.853ZM223.215 52.864H224.756V58.407H223.215V52.864ZM213.049 68.251H214.36V73.196H213.049V68.251ZM219.305 71.793C221.444 71.517 224.641 70.988 227.769 70.482L227.884 71.977C225.009 72.529 221.996 73.058 219.742 73.449L219.305 71.793ZM225.791 67.584L227.125 67.216C228.114 69.217 228.988 71.816 229.195 73.472L227.746 73.886C227.562 72.253 226.734 69.585 225.791 67.584ZM221.352 58.752V64.456H226.803V58.752H221.352ZM219.926 57.257H228.275V65.974H219.926V57.257ZM211.071 57.717V59.925H216.407V57.717H211.071ZM209.576 56.498H218.017V61.167H209.576V56.498ZM208.357 53.715H219.213V55.187H208.357V53.715ZM211.025 67.906H216.499V69.148H211.025V67.906ZM208.633 62.478H218.109V63.812H209.99V73.794H208.633V62.478ZM217.465 62.478H218.891V72.184C218.891 72.92 218.753 73.311 218.224 73.564C217.718 73.794 216.913 73.817 215.671 73.817C215.625 73.426 215.441 72.851 215.257 72.483C216.131 72.506 216.913 72.506 217.143 72.483C217.396 72.483 217.465 72.391 217.465 72.161V62.478ZM214.406 63.099H215.533V65.56C215.533 65.905 215.602 65.928 215.924 65.928C216.085 65.928 216.844 65.928 217.051 65.928C217.327 65.928 217.396 65.905 217.442 65.79C217.672 65.974 218.109 66.112 218.454 66.204C218.339 66.779 217.971 66.986 217.258 66.986C217.051 66.986 216.016 66.986 215.809 66.986C214.705 66.986 214.406 66.756 214.406 65.56V63.099ZM223.33 57.832H224.664V65.192H224.779V71.816H223.238V65.192H223.33V57.832ZM211.876 63.099H212.98V63.927C212.98 65.192 212.75 66.733 210.956 67.814C210.749 67.538 210.312 67.193 210.036 67.009C211.692 66.181 211.876 64.824 211.876 63.881V63.099ZM231.863 58.223H249.619V59.948H231.863V58.223ZM248.906 58.223H250.7C250.7 58.223 250.7 58.867 250.677 59.12C250.332 68.343 250.01 71.609 249.09 72.667C248.584 73.311 248.032 73.518 247.204 73.587C246.399 73.656 244.927 73.633 243.524 73.541C243.478 73.035 243.248 72.276 242.926 71.747C244.467 71.908 245.916 71.908 246.491 71.908C246.974 71.908 247.227 71.839 247.503 71.563C248.239 70.827 248.607 67.423 248.906 58.591V58.223ZM239.43 52.726H241.178V55.463C241.178 60.615 240.626 68.205 232.599 73.541C232.323 73.127 231.679 72.552 231.242 72.253C238.947 67.262 239.43 60.224 239.43 55.463V52.726ZM233.703 53.968L235.198 53.324C236.118 54.336 237.199 55.785 237.682 56.728L236.118 57.464C235.681 56.544 234.623 55.049 233.703 53.968ZM241.454 63.49L242.88 62.777C244.099 64.134 245.502 65.997 246.1 67.216L244.582 68.021C244.007 66.802 242.627 64.87 241.454 63.49ZM254.012 62.087H275.057V63.973H254.012V62.087ZM281.75 52.772L283.383 53.255C282.049 57.142 279.956 61.052 277.702 63.651C277.518 63.26 277.012 62.363 276.69 61.949C278.737 59.695 280.623 56.245 281.75 52.772ZM279.68 58.706L281.29 57.073L281.313 57.096V73.817H279.68V58.706ZM289.34 52.772H291.019V73.725H289.34V52.772ZM282.854 57.326H297.919V58.982H282.854V57.326ZM285.545 67.998H294.745V69.562H285.545V67.998ZM291.847 58.177C293.158 62.294 295.688 66.572 298.379 68.734C297.965 69.033 297.39 69.631 297.068 70.091C294.377 67.63 291.916 63.053 290.559 58.568L291.847 58.177ZM288.627 58.085L289.892 58.476C288.466 63.076 285.959 67.63 283.176 70.16C282.923 69.723 282.348 69.125 281.957 68.849C284.648 66.664 287.27 62.294 288.627 58.085ZM302.611 74.461L302.082 73.265C303.968 72.483 305.003 71.31 305.003 69.585L304.566 67.63L305.808 69.378C305.486 69.792 305.026 69.907 304.589 69.907C303.646 69.907 302.864 69.355 302.864 68.251C302.864 67.17 303.692 66.595 304.612 66.595C305.9 66.595 306.59 67.653 306.59 69.263C306.59 71.747 305.026 73.633 302.611 74.461ZM325.91 61.305H331.637V62.915H325.91V61.305ZM330.947 61.305H332.626C332.626 61.305 332.626 61.811 332.626 62.041C332.511 67.239 332.373 69.171 331.89 69.815C331.522 70.229 331.154 70.39 330.51 70.459C329.912 70.528 328.877 70.505 327.75 70.459C327.704 69.953 327.52 69.286 327.267 68.849C328.302 68.941 329.314 68.941 329.705 68.941C330.027 68.941 330.257 68.918 330.418 68.711C330.763 68.297 330.878 66.572 330.947 61.604V61.305ZM337.433 53.853L338.468 52.772C339.894 53.508 341.711 54.612 342.608 55.417L341.527 56.59C340.653 55.785 338.882 54.612 337.433 53.853ZM340.722 60.086L342.447 60.5C340.492 66.503 337.065 70.942 332.35 73.725C332.097 73.38 331.453 72.667 331.085 72.322C335.754 69.838 338.997 65.629 340.722 60.086ZM326.048 56.59H343.85V58.292H326.048V56.59ZM324.944 56.59H326.738V63.076C326.738 66.342 326.37 70.988 324.277 74.001C323.978 73.656 323.242 73.058 322.828 72.851C324.737 70.022 324.944 66.066 324.944 63.053V56.59ZM334.489 52.726H336.283C336.237 63.306 338.491 71.931 341.481 71.931C342.125 71.931 342.424 70.735 342.562 67.676C342.953 68.067 343.597 68.458 344.057 68.619C343.735 72.552 343.091 73.679 341.343 73.679C336.651 73.679 334.581 63.743 334.489 52.726ZM346.863 58.223H364.619V59.948H346.863V58.223ZM363.906 58.223H365.7C365.7 58.223 365.7 58.867 365.677 59.12C365.332 68.343 365.01 71.609 364.09 72.667C363.584 73.311 363.032 73.518 362.204 73.587C361.399 73.656 359.927 73.633 358.524 73.541C358.478 73.035 358.248 72.276 357.926 71.747C359.467 71.908 360.916 71.908 361.491 71.908C361.974 71.908 362.227 71.839 362.503 71.563C363.239 70.827 363.607 67.423 363.906 58.591V58.223ZM354.43 52.726H356.178V55.463C356.178 60.615 355.626 68.205 347.599 73.541C347.323 73.127 346.679 72.552 346.242 72.253C353.947 67.262 354.43 60.224 354.43 55.463V52.726ZM348.703 53.968L350.198 53.324C351.118 54.336 352.199 55.785 352.682 56.728L351.118 57.464C350.681 56.544 349.623 55.049 348.703 53.968ZM356.454 63.49L357.88 62.777C359.099 64.134 360.502 65.997 361.1 67.216L359.582 68.021C359.007 66.802 357.627 64.87 356.454 63.49ZM378.626 60.523H380.42V71.632C380.42 72.782 380.121 73.311 379.224 73.564C378.327 73.84 376.786 73.863 374.463 73.863C374.348 73.357 374.026 72.621 373.75 72.115C375.659 72.184 377.43 72.184 377.959 72.161C378.465 72.138 378.626 72 378.626 71.586V60.523ZM370.254 54.497H386.86V56.176H370.254V54.497ZM386.239 54.497H386.699L387.113 54.382L388.447 55.348C386.4 57.786 383.157 60.5 380.305 62.11C380.052 61.742 379.5 61.167 379.132 60.914C381.754 59.465 384.79 56.82 386.239 54.911V54.497ZM392.012 62.087H413.057V63.973H392.012V62.087ZM425.408 54.543C423.499 57.441 419.612 61.098 415.518 63.49C415.265 63.099 414.782 62.478 414.391 62.11C418.577 59.741 422.579 55.854 424.396 52.749H426.19C428.697 56.314 432.906 59.879 436.678 61.811C436.241 62.248 435.827 62.846 435.505 63.352C431.756 61.19 427.524 57.556 425.408 54.543ZM424.488 60.293H426.305V73.863H424.488V60.293ZM439.392 54.244H457.516V55.946H439.392V54.244ZM438.196 64.019H458.827V65.744H438.196V64.019ZM441.002 57.533L442.543 57.05C443.486 58.729 444.429 60.914 444.751 62.271L443.095 62.823C442.773 61.466 441.876 59.235 441.002 57.533ZM454.342 56.958L456.182 57.464C455.308 59.327 454.227 61.535 453.33 62.915L451.858 62.432C452.709 60.983 453.79 58.614 454.342 56.958ZM447.557 54.911H449.328V73.84H447.557V54.911ZM472.351 69.539L473.202 68.297C476.261 69.401 479.504 70.988 481.39 72.368L480.332 73.702C478.492 72.299 475.41 70.712 472.351 69.539ZM469.844 53.071L471.569 52.542C472.19 53.485 472.903 54.773 473.179 55.601L471.408 56.199C471.132 55.394 470.465 54.037 469.844 53.071ZM462.07 55.302H480.953V59.971H479.182V56.935H463.772V59.971H462.07V55.302ZM471.569 58.085H473.363C473.087 66.618 472.374 71.586 462.829 73.771C462.668 73.311 462.208 72.644 461.84 72.276C470.925 70.367 471.316 66.02 471.569 58.085ZM461.633 66.135H481.482V67.63H461.633V66.135ZM465.52 59.212L466.555 58.108C467.797 58.775 469.269 59.833 469.982 60.638L468.901 61.88C468.211 61.075 466.762 59.948 465.52 59.212ZM463.22 62.777L464.232 61.627C465.543 62.294 467.084 63.375 467.843 64.18L466.808 65.468C466.072 64.64 464.508 63.49 463.22 62.777ZM502.389 54.083H504.091V67.607C504.091 68.55 503.907 69.125 503.24 69.447C502.596 69.746 501.538 69.769 499.974 69.769C499.905 69.263 499.652 68.481 499.399 67.975C500.595 68.021 501.653 68.021 501.998 67.998C502.297 67.998 502.389 67.883 502.389 67.584V54.083ZM496.064 54.083H503.217V55.693H497.72V73.84H496.064V54.083ZM484.794 56.36H494.431V57.947H484.794V56.36ZM483.897 61.742H495.213V63.352H483.897V61.742ZM488.842 52.68H490.521V62.57H488.842V52.68ZM483.874 69.953C486.312 69.792 490.061 69.447 493.672 69.125L493.718 70.689C490.268 71.057 486.703 71.425 484.127 71.678L483.874 69.953ZM490.935 66.25L492.338 65.675C493.603 67.607 494.96 70.206 495.466 71.862L493.925 72.506C493.442 70.873 492.154 68.228 490.935 66.25ZM487.922 62.731L489.739 63.283C488.911 65.767 487.784 68.826 486.841 70.735L485.415 70.206C486.312 68.228 487.393 65.031 487.922 62.731ZM512.164 56.981C514.648 64.571 519.823 70.206 528.149 72.253C527.758 72.644 527.206 73.403 526.953 73.886C518.374 71.54 513.314 65.744 510.508 57.487L512.164 56.981ZM508.162 54.98H524.354V56.682H508.162V54.98ZM523.779 54.98H524.124L524.423 54.888L525.665 55.486C522.905 65.583 515.959 71.31 507.955 73.932C507.771 73.472 507.196 72.667 506.805 72.299C514.671 69.907 521.341 64.617 523.779 55.348V54.98ZM539.718 61.213H549.792V62.731H539.718V61.213ZM539.672 65.767H550.045V67.331H539.672V65.767ZM543.789 52.68H545.445V73.84H543.789V52.68ZM538.844 56.682H550.597V68.205H548.964V58.246H540.454V68.32H538.844V56.682ZM530.265 57.004H537.211V58.591H530.265V57.004ZM533.416 52.703H535.095V57.786H533.416V52.703ZM535.279 62.225C535.9 62.685 538.016 64.64 538.522 65.146L537.51 66.549C536.843 65.698 535.026 63.812 534.29 63.099L535.279 62.225ZM536.59 57.004H536.958L537.257 56.935L538.223 57.556C536.636 61.742 533.37 65.606 530.311 67.745C530.15 67.308 529.713 66.503 529.414 66.204C532.289 64.341 535.302 60.845 536.59 57.372V57.004ZM533.416 63.927L535.095 61.857V73.817H533.416V63.927ZM554.277 54.083H570.285V55.693H554.277V54.083ZM569.572 54.083H569.94L570.262 53.968L571.481 54.727C568.307 61.052 561.085 64.088 553.656 65.422C553.518 64.939 553.15 64.226 552.851 63.812C559.889 62.731 566.904 59.856 569.572 54.359V54.083ZM558.187 55.555C561.016 59.856 566.927 62.593 574.103 63.49C573.712 63.881 573.252 64.617 572.999 65.1C565.8 64.019 559.889 61.121 556.646 56.268L558.187 55.555ZM553.334 71.402H573.689V73.035H553.334V71.402ZM562.58 63.582H564.351V72.345H562.58V63.582ZM556.094 66.227H570.86V67.86H556.094V66.227ZM578.013 56.383H585.005V71.425H578.013V69.861H583.395V57.924H578.013V56.383ZM576.978 56.383H578.588V73.265H576.978V56.383ZM577.898 62.777H584.246V64.318H577.898V62.777ZM580.497 52.634L582.36 52.979C581.9 54.405 581.325 55.992 580.865 57.027L579.485 56.682C579.876 55.578 580.313 53.83 580.497 52.634ZM588.271 56.314H595.332V57.924H588.271V56.314ZM594.734 56.314H596.344C596.344 56.314 596.344 56.958 596.344 57.211C595.976 67.768 595.654 71.333 594.734 72.46C594.228 73.127 593.699 73.334 592.894 73.403C592.112 73.495 590.755 73.449 589.467 73.38C589.421 72.874 589.214 72.161 588.892 71.701C590.387 71.816 591.767 71.839 592.296 71.839C592.756 71.839 593.032 71.77 593.285 71.471C594.044 70.643 594.412 66.825 594.734 56.682V56.314ZM588.754 52.588L590.41 52.979C589.559 56.406 588.202 59.787 586.615 61.972C586.316 61.696 585.603 61.213 585.189 60.983C586.753 58.959 588.018 55.785 588.754 52.588ZM587.696 62.294L589.03 61.512C590.341 63.145 591.928 65.376 592.664 66.733L591.192 67.653C590.502 66.25 588.961 63.973 587.696 62.294ZM605.705 65.905H620.011V67.515H605.705V65.905ZM607.66 59.948H617.136V61.535H607.66V59.948ZM612.145 63.766H613.87V71.816C613.87 72.828 613.663 73.311 612.881 73.587C612.122 73.84 610.857 73.84 608.879 73.84C608.787 73.357 608.557 72.69 608.327 72.207C609.868 72.253 611.225 72.23 611.639 72.23C612.03 72.207 612.145 72.115 612.145 71.793V63.766ZM616.676 59.948H617.09L617.458 59.856L618.562 60.684C617.205 62.271 615.181 63.95 613.41 65.008C613.18 64.709 612.743 64.226 612.444 63.996C613.985 63.076 615.802 61.466 616.676 60.27V59.948ZM599.426 55.693H619.574V57.349H599.426V55.693ZM606.855 52.68L608.649 53.14C607.039 58.43 604.233 63.789 599.633 67.078C599.449 66.641 599.012 65.882 598.713 65.468C602.899 62.547 605.567 57.441 606.855 52.68ZM602.324 62.087H604.049V73.794H602.324V62.087ZM622.426 56.245H642.574V57.924H622.426V56.245ZM629.556 63.536H641.677V65.146H629.556V63.536ZM628.659 71.678H642.574V73.311H628.659V71.678ZM634.754 59.097H636.479V72.552H634.754V59.097ZM629.993 52.68L631.764 53.117C630.154 58.384 627.348 63.743 622.771 67.032C622.587 66.572 622.15 65.836 621.874 65.445C626.014 62.524 628.705 57.418 629.993 52.68ZM625.439 62.156H627.164V73.771H625.439V62.156ZM648.462 66.411C650.394 66.411 651.958 67.975 651.958 69.907C651.958 71.839 650.394 73.403 648.462 73.403C646.53 73.403 644.943 71.839 644.943 69.907C644.943 67.975 646.53 66.411 648.462 66.411ZM648.462 72.23C649.75 72.23 650.785 71.195 650.785 69.907C650.785 68.619 649.75 67.584 648.462 67.584C647.174 67.584 646.116 68.619 646.116 69.907C646.116 71.195 647.174 72.23 648.462 72.23ZM16.491 113.259L17.917 114.616C14.835 116.111 10.327 117.491 6.279 118.503C6.187 118.112 5.911 117.491 5.681 117.123C9.614 116.111 13.984 114.639 16.491 113.259ZM5.175 111.672H6.992V122.068C6.992 123.241 7.36 123.494 9.338 123.494C10.281 123.494 15.088 123.494 16.307 123.494C18.078 123.494 18.354 122.896 18.584 119.86C19.021 120.159 19.78 120.458 20.309 120.573C19.964 124.161 19.32 125.196 16.353 125.196C15.594 125.196 10.051 125.196 9.338 125.196C6.141 125.196 5.175 124.552 5.175 122.068V111.672ZM10.488 104.68H12.351V108.383H10.488V104.68ZM1.955 107.601H20.999V112.845H19.205V109.28H3.68V112.845H1.955V107.601ZM24.587 106.313H44.39V108.061H24.587V106.313ZM35.857 113.006L37.145 111.902C39.836 113.65 43.355 116.249 45.057 118.02L43.654 119.331C42.044 117.56 38.594 114.869 35.857 113.006ZM35.42 106.911L37.306 107.601C34.684 112.362 30.383 116.916 25.185 119.653C24.909 119.216 24.357 118.526 24.012 118.158C29.003 115.651 33.281 111.235 35.42 106.911ZM33.534 111.511L35.397 109.671V125.817H33.534V111.511ZM54.349 107.21H65.895V108.843H54.349V107.21ZM56.764 108.567C58.42 116.111 61.916 121.976 68.31 124.345C67.919 124.667 67.436 125.311 67.183 125.748C60.559 123.08 57.063 117.054 55.2 108.912L56.764 108.567ZM65.251 107.21H65.55L65.849 107.141L66.953 107.509C65.274 117.537 60.191 123.195 53.889 125.817C53.659 125.403 53.199 124.736 52.854 124.414C58.765 122.206 63.71 116.571 65.251 107.578V107.21ZM50.255 110.959L51.934 109.257L51.957 109.28V125.794H50.255V110.959ZM52.762 104.841L54.464 105.37C52.831 109.372 50.301 113.374 47.633 115.95C47.426 115.536 46.897 114.662 46.552 114.248C49.036 111.971 51.359 108.452 52.762 104.841ZM77.556 108.107H90.804V109.717H77.556V108.107ZM78.177 111.948H89.447V113.489H79.787V125.817H78.177V111.948ZM88.688 111.948H90.298V124.092C90.298 124.92 90.114 125.357 89.539 125.587C88.987 125.84 88.021 125.84 86.572 125.84C86.526 125.426 86.342 124.828 86.135 124.437C87.147 124.483 88.044 124.46 88.32 124.437C88.596 124.437 88.688 124.345 88.688 124.069V111.948ZM83.26 104.68H84.893V125.633H83.26V104.68ZM78.752 115.789H89.677V117.261H78.752V115.789ZM78.752 119.63H89.677V121.102H78.752V119.63ZM85.836 106.014L86.664 104.933C87.883 105.531 89.539 106.428 90.39 106.98L89.539 108.199C88.711 107.624 87.078 106.658 85.836 106.014ZM69.644 116.916C71.622 116.41 74.566 115.536 77.418 114.708L77.625 116.249C74.957 117.1 72.174 117.974 70.012 118.618L69.644 116.916ZM69.943 109.326H77.395V110.936H69.943V109.326ZM73.14 104.703H74.819V123.862C74.819 124.805 74.589 125.288 73.991 125.541C73.393 125.817 72.473 125.863 70.932 125.84C70.886 125.426 70.633 124.736 70.426 124.276C71.461 124.299 72.427 124.299 72.703 124.299C73.025 124.299 73.14 124.184 73.14 123.862V104.703ZM92.644 116.962C94.484 116.456 97.267 115.605 99.981 114.754L100.211 116.341C97.727 117.146 95.105 117.997 93.081 118.641L92.644 116.962ZM92.92 109.326H100.142V110.936H92.92V109.326ZM95.772 104.703H97.405V123.77C97.405 124.713 97.198 125.196 96.646 125.472C96.094 125.748 95.197 125.817 93.725 125.794C93.679 125.38 93.472 124.644 93.242 124.161C94.231 124.207 95.105 124.207 95.381 124.184C95.657 124.184 95.772 124.092 95.772 123.77V104.703ZM106.835 116.916H113.298V118.457H106.835V116.916ZM102.879 118.549C104.052 123.241 106.72 123.977 110.078 123.977C110.653 123.977 113.528 123.977 114.333 123.931C114.103 124.322 113.873 125.012 113.804 125.426H109.986C106.007 125.426 103.201 124.46 101.798 118.917L102.879 118.549ZM106.214 112.454H107.87V124.966L106.214 124.46V112.454ZM102.005 115.858L103.615 115.95C103.27 120.412 102.212 123.701 99.843 125.84C99.59 125.564 98.946 124.989 98.555 124.736C100.832 122.873 101.706 119.814 102.005 115.858ZM103.27 107.302V111.833H110.814V107.302H103.27ZM101.637 105.807H112.493V113.328H101.637V105.807ZM125.626 112.523H127.42V123.632C127.42 124.782 127.121 125.311 126.224 125.564C125.327 125.84 123.786 125.863 121.463 125.863C121.348 125.357 121.026 124.621 120.75 124.115C122.659 124.184 124.43 124.184 124.959 124.161C125.465 124.138 125.626 124 125.626 123.586V112.523ZM117.254 106.497H133.86V108.176H117.254V106.497ZM133.239 106.497H133.699L134.113 106.382L135.447 107.348C133.4 109.786 130.157 112.5 127.305 114.11C127.052 113.742 126.5 113.167 126.132 112.914C128.754 111.465 131.79 108.82 133.239 106.911V106.497ZM144.877 110.89L146.579 111.419C144.969 114.616 142.485 117.675 140.047 119.653C139.748 119.354 139.035 118.733 138.621 118.457C141.105 116.663 143.451 113.834 144.877 110.89ZM149.753 111.097H151.455V122.735C151.455 123.701 151.685 123.885 152.858 123.885C153.433 123.885 156.285 123.885 157.021 123.885C158.125 123.885 158.309 123.287 158.447 120.32C158.838 120.619 159.551 120.918 160.011 121.033C159.781 124.506 159.275 125.518 157.113 125.518C156.607 125.518 153.226 125.518 152.72 125.518C150.397 125.518 149.753 124.92 149.753 122.712V111.097ZM157.734 113.098L159.068 114.409C156.906 115.835 153.755 117.238 150.972 118.365C150.88 117.997 150.581 117.422 150.351 117.077C153.019 115.973 156.009 114.432 157.734 113.098ZM139.357 106.796H159.597V108.452H139.357V106.796ZM144.9 104.68H146.602V110.89H144.9V104.68ZM152.444 104.68H154.146V111.028H152.444V104.68ZM142.968 115.26L144.647 113.558V113.581V125.84H142.968V115.26ZM167.923 105.577H176.571V107.164H167.923V105.577ZM167.049 105.577H168.774V108.682C168.774 111.143 167.808 113.857 163.3 115.467C163.116 115.076 162.587 114.317 162.288 114.041C166.405 112.638 167.049 110.591 167.049 108.636V105.577ZM175.72 105.577H177.445V111.419C177.445 112.04 177.537 112.132 178.227 112.132C178.526 112.132 179.998 112.132 180.389 112.132C181.056 112.132 181.171 111.718 181.24 108.935C181.608 109.234 182.321 109.51 182.781 109.648C182.643 112.914 182.183 113.719 180.573 113.719C180.182 113.719 178.365 113.719 177.997 113.719C176.226 113.719 175.72 113.213 175.72 111.442V105.577ZM162.242 116.778H182.758V118.319H162.242V116.778ZM171.58 113.926H173.305V125.84H171.58V113.926ZM170.798 117.491L172.109 118.066C170.039 121.079 166.359 123.747 163.001 125.104C162.748 124.667 162.242 124.046 161.851 123.701C165.209 122.574 168.889 120.113 170.798 117.491ZM174.087 117.491C175.973 120.09 179.676 122.459 183.149 123.54C182.758 123.885 182.252 124.529 181.976 124.966C178.526 123.678 174.823 121.033 172.776 118.066L174.087 117.491ZM187.335 110.453H194.097V112.017H187.335V110.453ZM186.507 105.922H188.14V123.103L186.507 123.448V105.922ZM184.897 122.919C187.013 122.39 190.371 121.447 193.614 120.527L193.821 122.16C190.9 123.057 187.749 124 185.472 124.667L184.897 122.919ZM190.716 118.227L192.096 117.537C193.66 119.515 195.293 122.16 195.937 123.885L194.419 124.69C193.821 122.942 192.211 120.228 190.716 118.227ZM187.289 105.922H195.063V116.456H187.289V114.846H193.453V107.532H187.289V105.922ZM203.412 105.945H205.183V119.975C205.183 120.964 204.999 121.562 204.286 121.884C203.619 122.229 202.515 122.252 200.905 122.252C200.859 121.723 200.583 120.872 200.284 120.366C201.526 120.412 202.63 120.389 202.998 120.389C203.32 120.389 203.412 120.274 203.412 119.952V105.945ZM196.811 105.945H204.378V107.67H198.559V125.863H196.811V105.945ZM221.26 107.233H222.916V120.067H221.26V107.233ZM226.32 105.163H228.022V123.632C228.022 124.759 227.723 125.265 227.033 125.541C226.343 125.863 225.193 125.886 223.261 125.886C223.169 125.426 222.916 124.667 222.663 124.161C224.089 124.207 225.4 124.184 225.791 124.184C226.182 124.161 226.32 124.046 226.32 123.655V105.163ZM208.173 107.67H220.156V109.234H208.173V107.67ZM213.348 104.841H215.027V108.636H213.348V104.841ZM208.127 113.052L209.116 111.925C210.726 112.937 212.75 114.478 213.716 115.536L212.681 116.824C211.761 115.72 209.76 114.133 208.127 113.052ZM214.406 121.148L215.694 120.09C217.281 121.401 219.351 123.218 220.34 124.414L219.006 125.633C218.063 124.437 216.039 122.505 214.406 121.148ZM213.003 108.544L214.636 109.303C213.486 110.89 212.037 112.73 210.864 113.926L209.576 113.259C210.703 111.994 212.175 109.993 213.003 108.544ZM216.683 111.005L218.224 111.626C216.154 115.122 212.75 118.388 209.231 120.343C208.978 119.952 208.495 119.446 208.081 119.101C211.462 117.353 214.866 114.225 216.683 111.005ZM218.408 115.352L219.926 116.042C217.465 120.136 213.371 123.747 208.886 125.863C208.61 125.426 208.127 124.851 207.69 124.483C212.06 122.597 216.154 119.17 218.408 115.352ZM233.013 108.383H240.005V123.425H233.013V121.861H238.395V109.924H233.013V108.383ZM231.978 108.383H233.588V125.265H231.978V108.383ZM232.898 114.777H239.246V116.318H232.898V114.777ZM235.497 104.634L237.36 104.979C236.9 106.405 236.325 107.992 235.865 109.027L234.485 108.682C234.876 107.578 235.313 105.83 235.497 104.634ZM243.271 108.314H250.332V109.924H243.271V108.314ZM249.734 108.314H251.344C251.344 108.314 251.344 108.958 251.344 109.211C250.976 119.768 250.654 123.333 249.734 124.46C249.228 125.127 248.699 125.334 247.894 125.403C247.112 125.495 245.755 125.449 244.467 125.38C244.421 124.874 244.214 124.161 243.892 123.701C245.387 123.816 246.767 123.839 247.296 123.839C247.756 123.839 248.032 123.77 248.285 123.471C249.044 122.643 249.412 118.825 249.734 108.682V108.314ZM243.754 104.588L245.41 104.979C244.559 108.406 243.202 111.787 241.615 113.972C241.316 113.696 240.603 113.213 240.189 112.983C241.753 110.959 243.018 107.785 243.754 104.588ZM242.696 114.294L244.03 113.512C245.341 115.145 246.928 117.376 247.664 118.733L246.192 119.653C245.502 118.25 243.961 115.973 242.696 114.294ZM261.165 111.465H274.873V113.19H261.165V111.465ZM268.295 112.224C269.33 117.675 271.538 122.298 275.356 124.368C274.942 124.713 274.367 125.357 274.091 125.817C270.158 123.356 267.996 118.549 266.846 112.546L268.295 112.224ZM270.02 106.221L271.331 105.462C272.366 106.704 273.585 108.383 274.16 109.441L272.757 110.315C272.228 109.234 271.055 107.486 270.02 106.221ZM266.547 104.726H268.249V110.085C268.249 115.053 267.536 121.171 261.901 125.794C261.579 125.449 260.981 125.012 260.521 124.713C265.972 120.251 266.547 114.478 266.547 110.085V104.726ZM258.681 104.657H260.383V125.794H258.681V104.657ZM254.104 108.521L255.438 107.693C256.542 108.981 257.853 110.752 258.451 111.879L257.025 112.822C256.473 111.672 255.208 109.855 254.104 108.521ZM253.736 119.561C255.047 118.503 257.071 116.709 258.957 114.961L259.67 116.341C258.037 117.974 256.22 119.699 254.725 121.01L253.736 119.561ZM277.288 107.923H297.781V109.533H277.288V107.923ZM286.695 104.611H288.512C287.891 110.338 286.534 115.513 278.001 117.813C277.817 117.422 277.38 116.732 277.035 116.364C285.177 114.34 286.189 109.648 286.695 104.611ZM288.765 108.107C290.191 112.201 293.319 115.053 298.034 116.134C297.62 116.502 297.114 117.238 296.861 117.698C291.939 116.364 288.811 113.213 287.178 108.475L288.765 108.107ZM284.763 114.593L286.212 113.673C287.546 114.409 289.179 115.582 290.007 116.433L288.466 117.445C287.73 116.594 286.097 115.375 284.763 114.593ZM282.187 118.48H283.889V122.965C283.889 123.655 284.165 123.77 285.66 123.77C286.35 123.77 289.892 123.77 290.835 123.77C292.031 123.77 292.215 123.425 292.353 121.079C292.744 121.355 293.457 121.608 293.94 121.723C293.71 124.621 293.135 125.334 290.95 125.334C290.352 125.334 286.12 125.334 285.568 125.334C282.9 125.334 282.187 124.851 282.187 122.965V118.48ZM285.407 117.905L286.741 117.123C288.075 118.273 289.708 119.929 290.49 121.01L289.064 121.93C288.328 120.849 286.741 119.124 285.407 117.905ZM293.227 118.618L294.768 118.112C295.941 120.021 297.183 122.597 297.62 124.23L295.964 124.805C295.55 123.195 294.4 120.55 293.227 118.618ZM279.542 118.48L281.06 118.986C280.577 120.872 279.818 123.356 278.783 124.943L277.242 124.138C278.277 122.643 279.082 120.32 279.542 118.48ZM302.611 126.461L302.082 125.265C303.968 124.483 305.003 123.31 305.003 121.585L304.566 119.63L305.808 121.378C305.486 121.792 305.026 121.907 304.589 121.907C303.646 121.907 302.864 121.355 302.864 120.251C302.864 119.17 303.692 118.595 304.612 118.595C305.9 118.595 306.59 119.653 306.59 121.263C306.59 123.747 305.026 125.633 302.611 126.461ZM323.472 105.922H343.505V107.486H323.472V105.922ZM332.741 106.589H334.535V115.513C334.535 119.952 333.316 123.908 324.093 125.863C323.909 125.495 323.426 124.759 323.058 124.345C332.028 122.689 332.741 119.308 332.741 115.49V106.589ZM327.221 114.547V116.893H340.331V114.547H327.221ZM327.221 110.867V113.167H340.331V110.867H327.221ZM325.588 109.418H342.079V118.342H325.588V109.418ZM327.796 118.526C330.717 123.08 335.961 123.862 344.264 124.069C343.965 124.483 343.62 125.219 343.528 125.771C335.064 125.426 329.406 124.345 326.324 119.124L327.796 118.526ZM352.843 115.651H367.057V117.261H352.843V115.651ZM362.204 113.811H363.906V123.747C363.906 124.759 363.699 125.265 362.963 125.541C362.227 125.817 361.008 125.84 359.191 125.84C359.122 125.357 358.869 124.644 358.616 124.138C360.042 124.184 361.33 124.184 361.744 124.161C362.112 124.138 362.204 124.069 362.204 123.724V113.811ZM364.527 104.68L365.723 106.014C362.434 107.003 357.397 107.785 353.119 108.222C353.05 107.831 352.843 107.21 352.636 106.842C356.845 106.359 361.744 105.554 364.527 104.68ZM353.464 109.418L354.913 108.935C355.649 110.246 356.385 111.994 356.615 113.121L355.074 113.673C354.844 112.569 354.177 110.752 353.464 109.418ZM357.972 108.521L359.513 108.153C360.065 109.51 360.548 111.212 360.64 112.293L359.007 112.73C358.938 111.626 358.501 109.878 357.972 108.521ZM354.683 118.963L356.109 118.204C357.305 119.377 358.616 121.079 359.191 122.229L357.696 123.103C357.19 121.93 355.879 120.182 354.683 118.963ZM350.221 104.703H351.877V125.84H350.221V104.703ZM345.575 119.745C346.863 119.078 348.795 117.928 350.681 116.778L351.233 118.227C349.6 119.377 347.898 120.55 346.449 121.516L345.575 119.745ZM345.828 108.291L347.231 107.624C348.335 109.073 349.462 111.028 349.899 112.293L348.404 113.098C347.99 111.787 346.886 109.786 345.828 108.291ZM365.079 107.877L366.643 108.659C365.401 110.591 363.722 112.799 362.411 114.294L361.077 113.535C362.365 112.04 364.113 109.671 365.079 107.877ZM388.01 105.14L389.091 106.52C385.917 107.279 381.018 107.762 376.947 107.923C376.901 107.532 376.694 106.934 376.51 106.566C380.512 106.313 385.319 105.83 388.01 105.14ZM380.604 112.96L381.984 114.179C380.673 114.8 378.971 115.352 377.545 115.72C377.453 115.398 377.2 114.846 377.016 114.501C378.281 114.087 379.776 113.489 380.604 112.96ZM376.142 109.878H389.873V111.442H376.142V109.878ZM382.122 106.658H383.755V123.931H382.122V106.658ZM376.625 113.811L378.235 114.317V125.817H376.625V113.811ZM384.675 113.811H389.298V125.725H387.688V115.306H384.675V113.811ZM377.66 118.135H381.179V119.63H377.66V118.135ZM384.79 118.135H388.654V119.63H384.79V118.135ZM377.499 123.057H388.493V124.575H377.499V123.057ZM368.621 116.617C370.415 116.111 373.106 115.283 375.728 114.432L375.958 116.019C373.566 116.847 371.036 117.675 369.081 118.296L368.621 116.617ZM368.943 109.326H375.935V110.936H368.943V109.326ZM371.841 104.703H373.451V123.839C373.451 124.805 373.221 125.265 372.646 125.541C372.117 125.817 371.22 125.863 369.771 125.863C369.702 125.449 369.495 124.736 369.265 124.253C370.277 124.276 371.151 124.276 371.427 124.253C371.703 124.253 371.841 124.184 371.841 123.839V104.703ZM397.877 110.89L399.579 111.419C397.969 114.616 395.485 117.675 393.047 119.653C392.748 119.354 392.035 118.733 391.621 118.457C394.105 116.663 396.451 113.834 397.877 110.89ZM402.753 111.097H404.455V122.735C404.455 123.701 404.685 123.885 405.858 123.885C406.433 123.885 409.285 123.885 410.021 123.885C411.125 123.885 411.309 123.287 411.447 120.32C411.838 120.619 412.551 120.918 413.011 121.033C412.781 124.506 412.275 125.518 410.113 125.518C409.607 125.518 406.226 125.518 405.72 125.518C403.397 125.518 402.753 124.92 402.753 122.712V111.097ZM410.734 113.098L412.068 114.409C409.906 115.835 406.755 117.238 403.972 118.365C403.88 117.997 403.581 117.422 403.351 117.077C406.019 115.973 409.009 114.432 410.734 113.098ZM392.357 106.796H412.597V108.452H392.357V106.796ZM397.9 104.68H399.602V110.89H397.9V104.68ZM405.444 104.68H407.146V111.028H405.444V104.68ZM395.968 115.26L397.647 113.558V113.581V125.84H395.968V115.26ZM424.304 105.393H426.213C426.029 109.004 425.684 120.481 416.162 125.656C415.863 125.219 415.288 124.69 414.759 124.299C424.143 119.515 424.143 108.452 424.304 105.393ZM426.144 105.853C426.213 107.647 426.88 119.86 436.356 124.207C435.85 124.598 435.321 125.173 435.045 125.656C425.293 120.987 424.649 108.13 424.488 106.014L426.144 105.853ZM446.821 117.859H455.975V119.193H446.821V117.859ZM444.682 106.497H458.344V107.808H444.682V106.497ZM445.234 109.28H457.769V110.545H445.234V109.28ZM443.969 112.155H459.011V113.466H443.969V112.155ZM446.821 120.941H456.044V122.229H446.821V120.941ZM445.648 114.823H455.975V116.157H447.258V125.817H445.648V114.823ZM455.561 114.823H457.217V123.908C457.217 124.782 457.033 125.242 456.389 125.495C455.745 125.748 454.71 125.771 453.077 125.748C453.008 125.334 452.778 124.69 452.571 124.253C453.721 124.299 454.825 124.299 455.147 124.276C455.469 124.276 455.561 124.184 455.561 123.885V114.823ZM450.57 104.68H452.272V112.569H450.57V104.68ZM440.473 104.68H442.06V125.817H440.473V104.68ZM438.656 109.119L439.944 109.303C439.875 111.097 439.484 113.765 438.955 115.49L437.621 115.053C438.15 113.466 438.518 110.936 438.656 109.119ZM442.267 108.521L443.417 108.061C443.923 109.119 444.475 110.476 444.682 111.327L443.486 111.902C443.256 111.028 442.727 109.602 442.267 108.521ZM475.617 105.554L476.514 104.542C477.664 104.91 479.09 105.554 479.826 106.129L478.883 107.279C478.193 106.681 476.79 105.968 475.617 105.554ZM463.726 107.026H481.643V108.452H463.726V107.026ZM465.359 110.016H472.42V111.235H465.359V110.016ZM465.727 112.799H467.176V116.985H465.727V112.799ZM477.94 109.556L479.55 109.947C478.262 113.765 475.939 116.87 473.133 118.871C472.88 118.549 472.236 117.974 471.891 117.675C474.674 115.881 476.836 113.006 477.94 109.556ZM472.512 104.68H474.168C474.421 111.764 477.549 117.514 479.895 117.491C480.47 117.491 480.7 116.663 480.815 114.57C481.16 114.892 481.735 115.191 482.172 115.352C481.896 118.273 481.275 119.078 479.803 119.078C476.169 119.078 472.88 112.408 472.512 104.68ZM465.727 112.799H472.052V117.629H465.727V116.387H470.58V114.018H465.727V112.799ZM466.877 119.745H468.579V123.31C468.579 123.885 468.809 124 470.028 124C470.603 124 473.478 124 474.237 124C475.249 124 475.41 123.724 475.502 121.585C475.87 121.861 476.583 122.091 477.066 122.206C476.836 124.92 476.33 125.564 474.375 125.564C473.846 125.564 470.419 125.564 469.913 125.564C467.475 125.564 466.877 125.104 466.877 123.333V119.745ZM468.671 118.986L469.775 118.02C471.224 118.687 472.926 119.791 473.731 120.688L472.558 121.792C471.776 120.895 470.097 119.722 468.671 118.986ZM476.606 120.435L478.009 119.653C479.665 120.941 481.39 122.85 482.103 124.276L480.562 125.127C479.918 123.724 478.262 121.769 476.606 120.435ZM463.956 119.883L465.474 120.412C464.899 122.275 463.956 124.207 462.323 125.38L460.897 124.414C462.438 123.356 463.45 121.608 463.956 119.883ZM462.921 107.026H464.531V110.499C464.531 113.167 464.117 116.939 462.001 119.538C461.771 119.216 461.081 118.641 460.736 118.457C462.668 116.065 462.921 112.822 462.921 110.476V107.026ZM489.302 110.522V112.707H499.836V110.522H489.302ZM489.302 114.018V116.226H499.836V114.018H489.302ZM489.302 107.026V109.211H499.836V107.026H489.302ZM487.6 105.646H501.607V117.606H487.6V105.646ZM484.288 119.193H504.712V120.803H484.288V119.193ZM496.409 122.689L497.651 121.539C500.296 122.482 503.194 123.724 504.965 124.667L503.309 125.84C501.699 124.897 499.008 123.655 496.409 122.689ZM491.073 121.424L492.637 122.528C490.682 123.77 487.715 125.058 485.369 125.84C485.093 125.472 484.564 124.874 484.173 124.506C486.542 123.793 489.532 122.505 491.073 121.424ZM513.544 116.295L514.671 115.421C520.168 118.549 520.674 123.724 518.305 125.265C517.546 125.748 516.948 125.909 516.005 125.909C515.499 125.909 514.809 125.886 514.119 125.863C514.096 125.426 513.935 124.759 513.636 124.299C514.418 124.391 515.2 124.391 515.706 124.391C516.258 124.391 516.764 124.345 517.201 124.023C518.765 122.988 518.259 119.078 513.544 116.295ZM515.913 117.054L517.132 117.698C515.108 119.331 511.451 120.895 508.599 121.608C508.369 121.24 507.932 120.688 507.633 120.389C510.462 119.791 514.073 118.457 515.913 117.054ZM517.454 119.147L518.696 119.837C516.235 122.183 511.796 124.345 508.254 125.38C508.024 125.012 507.564 124.414 507.219 124.069C510.83 123.195 515.2 121.217 517.454 119.147ZM513.015 106.221H519.8V107.601H513.015V106.221ZM517.247 113.604L518.581 114.248C516.051 116.042 511.865 117.491 508.438 118.342C508.254 118.043 507.794 117.376 507.518 117.077C510.945 116.387 514.97 115.122 517.247 113.604ZM519.225 113.903C520.582 118.595 523.526 122.252 528.034 123.724C527.666 124.046 527.16 124.69 526.93 125.15C522.238 123.379 519.294 119.515 517.799 114.248L519.225 113.903ZM525.895 114.892L527.298 115.927C525.527 117.169 523.135 118.618 521.318 119.469L520.237 118.572C522.008 117.675 524.492 116.088 525.895 114.892ZM511.29 110.66V113.305H523.871V110.66H511.29ZM509.657 109.326H525.55V114.639H509.657V109.326ZM513.636 104.611L515.43 104.979C513.82 107.279 511.497 109.694 508.323 111.626C508.07 111.235 507.518 110.683 507.15 110.43C510.163 108.774 512.417 106.497 513.636 104.611ZM516.58 109.97H518.282V114.064H516.58V109.97ZM519.156 106.221H519.524L519.8 106.152L520.973 106.911C520.237 108.199 519.018 109.671 518.006 110.568C517.684 110.338 517.132 109.97 516.741 109.763C517.684 108.935 518.696 107.509 519.156 106.566V106.221ZM540.178 105.255H541.926V122.321C541.926 123.609 542.156 123.885 543.444 123.885C544.065 123.885 547.193 123.885 547.975 123.885C549.24 123.885 549.424 123.034 549.585 119.676C550.022 119.998 550.735 120.32 551.241 120.435C550.965 124.207 550.459 125.518 548.067 125.518C547.469 125.518 543.858 125.518 543.329 125.518C540.914 125.518 540.178 124.828 540.178 122.298V105.255ZM548.803 109.073L550.068 110.545C547.745 112.454 544.364 114.317 541.328 115.904C541.213 115.513 540.868 114.915 540.615 114.547C543.559 113.006 546.848 110.867 548.803 109.073ZM536.176 105.048L537.855 105.6C536.13 109.648 533.37 113.581 530.518 116.134C530.334 115.72 529.805 114.823 529.46 114.409C532.128 112.178 534.658 108.682 536.176 105.048ZM533.554 111.051L535.233 109.372L535.256 109.395V125.817H533.554V111.051ZM555.611 126.461L555.082 125.265C556.968 124.483 558.003 123.31 558.003 121.585L557.566 119.63L558.808 121.378C558.486 121.792 558.026 121.907 557.589 121.907C556.646 121.907 555.864 121.355 555.864 120.251C555.864 119.17 556.692 118.595 557.612 118.595C558.9 118.595 559.59 119.653 559.59 121.263C559.59 123.747 558.026 125.633 555.611 126.461ZM5.934 165.765V173.907H4.301V167.375H0.943V165.765H5.934ZM5.934 173.217C7.061 174.919 9.039 175.701 11.753 175.793C14.283 175.908 19.596 175.839 22.356 175.655C22.149 176.046 21.896 176.851 21.804 177.357C19.251 177.472 14.329 177.518 11.753 177.403C8.74 177.288 6.647 176.483 5.221 174.666C4.048 175.655 2.806 176.667 1.495 177.656L0.644 175.954C1.794 175.241 3.22 174.206 4.439 173.217H5.934ZM1.334 158.29L2.53 157.209C4.002 158.244 5.727 159.808 6.486 160.935L5.175 162.131C4.462 161.004 2.783 159.371 1.334 158.29ZM10.534 160.544L11.638 159.578C13.8 160.337 16.698 161.602 18.239 162.522L17.066 163.603C15.617 162.706 12.765 161.395 10.534 160.544ZM8.349 162.476H20.24V163.81H9.982V174.39H8.349V162.476ZM19.412 162.476H21.068V172.665C21.068 173.516 20.907 173.907 20.286 174.16C19.688 174.436 18.722 174.436 17.181 174.436C17.112 173.999 16.905 173.401 16.698 173.01C17.779 173.056 18.745 173.033 19.044 173.033C19.343 173.033 19.412 172.941 19.412 172.642V162.476ZM8.349 157.646H19.826V159.026H8.349V157.646ZM9.246 165.834H20.079V167.122H9.246V165.834ZM9.246 169.215H20.079V170.549H9.246V169.215ZM13.846 163.028H15.41V174.298H13.846V163.028ZM19.251 157.646H19.642L20.01 157.554L21.068 158.382C19.527 159.831 17.204 161.257 15.111 162.131C14.881 161.832 14.444 161.372 14.191 161.119C16.077 160.383 18.216 159.049 19.251 157.968V157.646ZM24.794 158.198L26.128 157.324C27.416 158.474 28.934 160.084 29.647 161.142L28.221 162.177C27.554 161.073 26.082 159.394 24.794 158.198ZM29.003 165.305V173.677H27.324V166.938H24.127V165.305H29.003ZM28.129 172.78C28.911 172.78 29.44 173.47 30.728 174.252C32.223 175.195 34.178 175.356 36.754 175.356C39.468 175.356 42.941 175.172 45.172 174.919C44.942 175.402 44.666 176.276 44.643 176.805C43.01 176.897 38.916 177.012 36.731 177.012C33.856 177.012 31.924 176.782 30.337 175.77C29.348 175.149 28.612 174.39 28.106 174.39C27.324 174.39 26.22 175.747 25.047 177.311L23.828 175.701C25.415 173.976 26.979 172.78 28.129 172.78ZM30.636 160.843H44.482V162.476H30.636V160.843ZM39.537 156.772H41.308V171.607C41.308 172.78 40.986 173.286 40.158 173.562C39.376 173.838 37.973 173.884 35.788 173.884C35.719 173.378 35.42 172.619 35.167 172.113C36.869 172.159 38.456 172.159 38.916 172.159C39.376 172.113 39.537 171.998 39.537 171.584V156.772ZM31.74 165.029L33.12 164.293C34.293 165.696 35.742 167.605 36.409 168.801L34.96 169.698C34.339 168.479 32.913 166.478 31.74 165.029ZM52.877 162.89L54.579 163.419C52.969 166.616 50.485 169.675 48.047 171.653C47.748 171.354 47.035 170.733 46.621 170.457C49.105 168.663 51.451 165.834 52.877 162.89ZM57.753 163.097H59.455V174.735C59.455 175.701 59.685 175.885 60.858 175.885C61.433 175.885 64.285 175.885 65.021 175.885C66.125 175.885 66.309 175.287 66.447 172.32C66.838 172.619 67.551 172.918 68.011 173.033C67.781 176.506 67.275 177.518 65.113 177.518C64.607 177.518 61.226 177.518 60.72 177.518C58.397 177.518 57.753 176.92 57.753 174.712V163.097ZM65.734 165.098L67.068 166.409C64.906 167.835 61.755 169.238 58.972 170.365C58.88 169.997 58.581 169.422 58.351 169.077C61.019 167.973 64.009 166.432 65.734 165.098ZM47.357 158.796H67.597V160.452H47.357V158.796ZM52.9 156.68H54.602V162.89H52.9V156.68ZM60.444 156.68H62.146V163.028H60.444V156.68ZM50.968 167.26L52.647 165.558V165.581V177.84H50.968V167.26ZM72.519 164.615H85.721V166.225H72.519V164.615ZM85.445 164.615H85.721L86.089 164.546L87.308 165.443C87.239 165.512 87.078 165.627 86.917 165.696C75.44 172.435 74.635 173.677 74.635 174.528C74.635 175.241 75.509 175.563 76.889 175.563H86.986C88.251 175.563 88.642 175.103 88.757 172.136C89.217 172.412 89.861 172.596 90.39 172.711C90.114 176.529 89.309 177.242 86.848 177.242H77.05C74.198 177.242 72.887 176.253 72.887 174.666C72.887 173.24 73.37 171.722 85.445 164.615ZM70.288 159.164H90.413V160.843H70.288V159.164ZM75.601 156.68H77.372V162.936H75.601V156.68ZM83.559 156.68H85.307V162.936H83.559V156.68ZM95.611 178.461L95.082 177.265C96.968 176.483 98.003 175.31 98.003 173.585L97.566 171.63L98.808 173.378C98.486 173.792 98.026 173.907 97.589 173.907C96.646 173.907 95.864 173.355 95.864 172.251C95.864 171.17 96.692 170.595 97.612 170.595C98.9 170.595 99.59 171.653 99.59 173.263C99.59 175.747 98.026 177.633 95.611 178.461ZM131.169 158.198L132.48 157.301C133.837 158.451 135.447 160.084 136.206 161.142L134.78 162.154C134.09 161.05 132.526 159.394 131.169 158.198ZM116.265 163.488H136.758V165.144H116.265V163.488ZM115.92 170.25C118.657 169.744 122.981 168.824 127.029 167.95L127.167 169.514C123.395 170.388 119.324 171.331 116.426 171.975L115.92 170.25ZM121.21 159.026H122.935V175.632C122.935 176.759 122.659 177.265 121.923 177.541C121.187 177.817 119.968 177.886 118.059 177.863C117.967 177.403 117.668 176.621 117.415 176.115C118.887 176.184 120.244 176.161 120.658 176.138C121.072 176.138 121.21 176.023 121.21 175.609V159.026ZM125.58 156.956L126.799 158.405C124.131 159.325 120.221 160.038 116.932 160.498C116.84 160.107 116.633 159.463 116.403 159.072C119.646 158.566 123.372 157.784 125.58 156.956ZM127.88 156.887H129.674C129.628 167.444 131.882 176.184 134.688 176.184C135.309 176.184 135.585 174.988 135.723 172.021C136.091 172.412 136.712 172.803 137.195 172.987C136.873 176.805 136.252 177.932 134.527 177.932C130.019 177.932 127.972 167.835 127.88 156.887ZM134.113 166.202L135.654 166.846C133.4 171.055 129.605 174.758 125.373 176.989C125.097 176.552 124.614 176 124.177 175.609C128.271 173.631 132.066 170.089 134.113 166.202ZM151.225 157.531H158.148V159.118H151.225V157.531ZM157.481 157.531H159.206V175.678C159.206 176.713 158.953 177.219 158.24 177.495C157.55 177.771 156.377 177.794 154.56 177.794C154.491 177.357 154.238 176.598 154.008 176.138C155.319 176.207 156.584 176.184 156.975 176.161C157.343 176.138 157.481 176.023 157.481 175.655V157.531ZM146.74 157.439L148.074 156.703C149.086 158.083 150.305 159.969 150.834 161.119L149.408 161.947C148.902 160.774 147.752 158.842 146.74 157.439ZM145.774 161.326H147.453V177.84H145.774V161.326ZM143.152 156.818L144.762 157.255C143.612 161.234 141.818 165.282 139.748 167.973C139.587 167.582 139.104 166.662 138.805 166.225C140.622 163.902 142.209 160.36 143.152 156.818ZM141.335 162.614L142.922 161.004L142.991 161.05V177.84H141.335V162.614ZM165.761 156.68L167.555 157.094C166.727 159.003 165.646 161.234 164.726 162.683L163.254 162.246C164.128 160.774 165.209 158.359 165.761 156.68ZM161.897 161.556C164.312 161.487 167.969 161.326 171.58 161.165L171.557 162.706C168.13 162.913 164.565 163.097 162.058 163.235L161.897 161.556ZM163.3 164.891H170.591V166.363H164.91V177.817H163.3V164.891ZM169.809 164.891H171.511V175.862C171.511 176.736 171.327 177.219 170.706 177.495C170.062 177.771 169.05 177.794 167.601 177.794C167.509 177.334 167.256 176.644 167.026 176.207C168.107 176.253 169.096 176.23 169.418 176.207C169.717 176.207 169.809 176.138 169.809 175.839V164.891ZM164.059 168.318H170.706V169.675H164.059V168.318ZM164.059 171.768H170.706V173.148H164.059V171.768ZM173.673 156.726H175.375V164.339C175.375 165.075 175.559 165.236 176.617 165.236C177.1 165.236 179.607 165.236 180.274 165.236C181.171 165.236 181.332 164.845 181.424 162.568C181.792 162.867 182.482 163.12 182.988 163.235C182.781 166.041 182.275 166.8 180.412 166.8C179.929 166.8 176.916 166.8 176.456 166.8C174.248 166.8 173.673 166.271 173.673 164.362V156.726ZM180.711 158.428L181.861 159.693C179.906 160.613 177.146 161.51 174.777 162.177C174.685 161.809 174.455 161.303 174.248 160.958C176.525 160.245 179.147 159.233 180.711 158.428ZM173.673 167.421H175.375V175.195C175.375 175.977 175.582 176.115 176.686 176.115C177.169 176.115 179.768 176.115 180.458 176.115C181.447 176.115 181.585 175.678 181.7 173.079C182.091 173.355 182.781 173.631 183.264 173.723C183.034 176.828 182.528 177.656 180.596 177.656C180.09 177.656 176.985 177.656 176.502 177.656C174.271 177.656 173.673 177.127 173.673 175.218V167.421ZM180.987 168.686L182.137 169.974C180.205 171.078 177.261 172.021 174.777 172.688C174.685 172.343 174.432 171.791 174.248 171.446C176.64 170.756 179.423 169.698 180.987 168.686ZM168.636 158.865L170.062 158.29C171.281 159.9 172.569 162.016 173.098 163.442L171.58 164.109C171.097 162.706 169.855 160.498 168.636 158.865ZM185.426 160.245H205.574V161.924H185.426V160.245ZM192.556 167.536H204.677V169.146H192.556V167.536ZM191.659 175.678H205.574V177.311H191.659V175.678ZM197.754 163.097H199.479V176.552H197.754V163.097ZM192.993 156.68L194.764 157.117C193.154 162.384 190.348 167.743 185.771 171.032C185.587 170.572 185.15 169.836 184.874 169.445C189.014 166.524 191.705 161.418 192.993 156.68ZM188.439 166.156H190.164V177.771H188.439V166.156ZM208.449 159.67H228.597V161.303H208.449V159.67ZM214.061 167.881H224.871V169.376H214.061V167.881ZM212.842 163.971H224.595V165.512H214.544V177.84H212.842V163.971ZM224.204 163.971H225.883V175.701C225.883 176.713 225.676 177.242 224.894 177.518C224.158 177.794 222.87 177.794 220.892 177.794C220.823 177.311 220.57 176.598 220.317 176.115C221.858 176.184 223.261 176.161 223.675 176.161C224.066 176.138 224.204 176.023 224.204 175.678V163.971ZM215.97 156.68L217.718 157.094C216.154 162.154 213.394 167.26 209.001 170.342C208.771 169.951 208.242 169.353 207.897 169.008C212.014 166.179 214.728 161.303 215.97 156.68ZM214.061 171.768H224.871V173.263H214.061V171.768ZM241.201 162.062H249.78V163.511H241.201V162.062ZM237.613 175.839C239.729 175.471 243.064 174.804 246.284 174.16L246.399 175.678C243.501 176.345 240.419 177.012 238.188 177.518L237.613 175.839ZM240.212 157.715H241.891V175.977H240.212V157.715ZM241.201 157.715H250.585V167.927H241.201V166.409H248.906V159.233H241.201V157.715ZM245.64 166.938C246.629 171.239 248.722 174.827 252.149 176.345C251.758 176.69 251.252 177.334 250.999 177.771C247.411 175.954 245.272 172.067 244.214 167.214L245.64 166.938ZM250.217 168.456L251.574 169.445C250.286 170.641 248.653 171.929 247.365 172.78L246.284 171.906C247.526 171.009 249.251 169.56 250.217 168.456ZM231.863 157.692H237.751V159.256H233.496V177.863H231.863V157.692ZM237.245 157.692H237.567L237.82 157.623L238.993 158.336C238.257 160.245 237.291 162.614 236.44 164.431C238.303 166.34 238.74 167.973 238.74 169.399C238.74 170.664 238.441 171.607 237.751 172.09C237.406 172.32 236.969 172.458 236.486 172.504C235.957 172.573 235.313 172.573 234.738 172.527C234.715 172.113 234.577 171.423 234.301 170.963C234.899 171.032 235.405 171.032 235.819 171.009C236.118 170.986 236.394 170.917 236.624 170.779C237.015 170.526 237.153 169.928 237.13 169.215C237.13 167.95 236.647 166.432 234.853 164.638C235.773 162.545 236.716 159.762 237.245 158.175V157.692ZM256.013 160.383H263.005V175.425H256.013V173.861H261.395V161.924H256.013V160.383ZM254.978 160.383H256.588V177.265H254.978V160.383ZM255.898 166.777H262.246V168.318H255.898V166.777ZM258.497 156.634L260.36 156.979C259.9 158.405 259.325 159.992 258.865 161.027L257.485 160.682C257.876 159.578 258.313 157.83 258.497 156.634ZM266.271 160.314H273.332V161.924H266.271V160.314ZM272.734 160.314H274.344C274.344 160.314 274.344 160.958 274.344 161.211C273.976 171.768 273.654 175.333 272.734 176.46C272.228 177.127 271.699 177.334 270.894 177.403C270.112 177.495 268.755 177.449 267.467 177.38C267.421 176.874 267.214 176.161 266.892 175.701C268.387 175.816 269.767 175.839 270.296 175.839C270.756 175.839 271.032 175.77 271.285 175.471C272.044 174.643 272.412 170.825 272.734 160.682V160.314ZM266.754 156.588L268.41 156.979C267.559 160.406 266.202 163.787 264.615 165.972C264.316 165.696 263.603 165.213 263.189 164.983C264.753 162.959 266.018 159.785 266.754 156.588ZM265.696 166.294L267.03 165.512C268.341 167.145 269.928 169.376 270.664 170.733L269.192 171.653C268.502 170.25 266.961 167.973 265.696 166.294ZM284.211 162.867H297.597V166.34H296.056V164.247H285.729V166.34H284.211V162.867ZM286.12 167.076H289.133V168.387H286.12V167.076ZM290.375 167.398H297.758V168.824H290.375V167.398ZM289.294 172.665H298.034V174.091H289.294V172.665ZM291.226 167.927H292.583V173.125H291.226V167.927ZM294.377 165.581H295.872V177.863H294.377V165.581ZM284.464 170.71L285.361 169.882C286.35 170.526 287.592 171.446 288.19 172.113L287.27 173.056C286.672 172.389 285.476 171.377 284.464 170.71ZM285.407 160.015L286.649 159.44C287.27 160.337 287.868 161.533 288.121 162.315L286.787 162.982C286.557 162.177 285.959 160.958 285.407 160.015ZM289.363 159.647L290.697 159.118C291.203 160.061 291.732 161.326 291.893 162.085L290.513 162.729C290.352 161.901 289.869 160.613 289.363 159.647ZM288.88 167.076H289.156L289.432 167.03L290.352 167.283C289.478 172.688 287.178 176 283.958 177.817C283.797 177.472 283.383 176.92 283.061 176.644C285.936 175.149 288.144 171.952 288.88 167.352V167.076ZM286.281 165.144L287.684 165.397C286.971 168.157 285.729 170.664 284.234 172.32C283.958 172.09 283.337 171.699 282.992 171.538C284.51 169.974 285.637 167.628 286.281 165.144ZM278.461 158.037H283.245V173.884H278.461V172.389H281.75V159.555H278.461V158.037ZM278.553 162.775H282.463V164.247H278.553V162.775ZM278.553 167.49H282.463V168.962H278.553V167.49ZM277.679 158.037H279.174V175.977H277.679V158.037ZM296.033 156.68L297.137 157.807C294.032 158.773 288.765 159.256 284.533 159.417C284.464 159.072 284.28 158.52 284.119 158.175C288.259 157.991 293.411 157.508 296.033 156.68ZM295.251 158.911L296.746 159.509C295.941 160.797 294.998 162.315 294.262 163.304L293.089 162.775C293.825 161.763 294.745 160.061 295.251 158.911ZM301.093 161.878H302.841V177.863H301.093V161.878ZM301.415 157.807L302.749 157.002C303.83 157.945 305.072 159.325 305.647 160.268L304.198 161.211C303.692 160.268 302.473 158.842 301.415 157.807ZM307.073 157.991H319.194V159.601H307.073V157.991ZM318.205 157.991H319.976V175.747C319.976 176.713 319.792 177.173 319.194 177.449C318.573 177.725 317.584 177.748 316.158 177.748C316.089 177.311 315.859 176.598 315.629 176.138C316.595 176.184 317.538 176.161 317.814 176.161C318.136 176.161 318.205 176.046 318.205 175.747V157.991ZM307.694 169.215V172.32H313.237V169.215H307.694ZM307.694 164.707V167.789H313.237V164.707H307.694ZM306.13 163.281H314.87V173.769H306.13V163.281ZM324.208 160.797H342.746V171.63H340.952V162.499H325.933V171.745H324.208V160.797ZM325.128 168.617H341.987V170.296H325.128V168.617ZM332.534 156.68H334.328V177.817H332.534V156.68ZM360.617 157.554L361.514 156.542C362.664 156.91 364.09 157.554 364.826 158.129L363.883 159.279C363.193 158.681 361.79 157.968 360.617 157.554ZM348.726 159.026H366.643V160.452H348.726V159.026ZM350.359 162.016H357.42V163.235H350.359V162.016ZM350.727 164.799H352.176V168.985H350.727V164.799ZM362.94 161.556L364.55 161.947C363.262 165.765 360.939 168.87 358.133 170.871C357.88 170.549 357.236 169.974 356.891 169.675C359.674 167.881 361.836 165.006 362.94 161.556ZM357.512 156.68H359.168C359.421 163.764 362.549 169.514 364.895 169.491C365.47 169.491 365.7 168.663 365.815 166.57C366.16 166.892 366.735 167.191 367.172 167.352C366.896 170.273 366.275 171.078 364.803 171.078C361.169 171.078 357.88 164.408 357.512 156.68ZM350.727 164.799H357.052V169.629H350.727V168.387H355.58V166.018H350.727V164.799ZM351.877 171.745H353.579V175.31C353.579 175.885 353.809 176 355.028 176C355.603 176 358.478 176 359.237 176C360.249 176 360.41 175.724 360.502 173.585C360.87 173.861 361.583 174.091 362.066 174.206C361.836 176.92 361.33 177.564 359.375 177.564C358.846 177.564 355.419 177.564 354.913 177.564C352.475 177.564 351.877 177.104 351.877 175.333V171.745ZM353.671 170.986L354.775 170.02C356.224 170.687 357.926 171.791 358.731 172.688L357.558 173.792C356.776 172.895 355.097 171.722 353.671 170.986ZM361.606 172.435L363.009 171.653C364.665 172.941 366.39 174.85 367.103 176.276L365.562 177.127C364.918 175.724 363.262 173.769 361.606 172.435ZM348.956 171.883L350.474 172.412C349.899 174.275 348.956 176.207 347.323 177.38L345.897 176.414C347.438 175.356 348.45 173.608 348.956 171.883ZM347.921 159.026H349.531V162.499C349.531 165.167 349.117 168.939 347.001 171.538C346.771 171.216 346.081 170.641 345.736 170.457C347.668 168.065 347.921 164.822 347.921 162.476V159.026ZM369.656 163.327H389.344V168.019H387.665V164.868H371.266V168.019H369.656V163.327ZM372.439 167.467H385.296V169.077H372.439V167.467ZM386.837 156.611L388.056 157.991C383.433 158.957 376.257 159.555 370.277 159.785C370.231 159.348 370.024 158.704 369.863 158.313C375.82 158.037 382.904 157.439 386.837 156.611ZM371.795 160.268L373.29 159.831C373.957 160.774 374.647 162.062 374.923 162.89L373.359 163.396C373.083 162.568 372.416 161.257 371.795 160.268ZM377.913 159.785L379.477 159.44C380.006 160.498 380.558 161.901 380.696 162.798L379.063 163.189C378.925 162.292 378.442 160.866 377.913 159.785ZM385.779 159.394L387.527 159.9C386.699 161.372 385.618 163.074 384.79 164.155L383.41 163.672C384.215 162.522 385.227 160.682 385.779 159.394ZM384.675 167.467H385.066L385.388 167.398L386.538 168.111C383.709 173.953 377.2 176.621 370.185 177.794C370.001 177.357 369.518 176.598 369.173 176.23C376.073 175.287 382.283 172.849 384.675 167.766V167.467ZM374.693 168.525C377.315 172.757 382.858 175.333 389.781 176.161C389.436 176.552 388.953 177.288 388.746 177.771C381.731 176.759 376.188 173.953 373.175 169.169L374.693 168.525ZM392.15 158.198H403.949V159.762H392.15V158.198ZM392.84 169.146H403.282V170.71H392.84V169.146ZM397.233 166.409H398.935V175.425L397.233 175.678V166.409ZM391.897 175.425C394.887 175.103 399.556 174.482 403.995 173.884L404.041 175.494C399.763 176.092 395.232 176.736 392.173 177.15L391.897 175.425ZM392.104 164.454C394.726 164.362 398.774 164.178 402.73 163.971L402.684 165.489C398.912 165.719 394.979 165.926 392.242 166.087L392.104 164.454ZM399.441 161.648L400.729 160.935C402.132 162.545 403.742 164.707 404.409 166.087L403.029 166.915C402.362 165.512 400.821 163.281 399.441 161.648ZM396.129 159.026L397.992 159.394C397.187 161.418 396.198 163.948 395.347 165.535L393.829 165.167C394.634 163.534 395.623 160.843 396.129 159.026ZM404.961 159.463H406.617V172.205H404.961V159.463ZM410.389 157.347H412.091V175.517C412.091 176.713 411.815 177.242 411.056 177.518C410.297 177.817 408.894 177.863 407.031 177.863C406.939 177.38 406.686 176.575 406.433 176.046C407.974 176.115 409.4 176.092 409.86 176.092C410.274 176.069 410.389 175.954 410.389 175.54V157.347ZM423.821 169.859H432.975V171.193H423.821V169.859ZM421.682 158.497H435.344V159.808H421.682V158.497ZM422.234 161.28H434.769V162.545H422.234V161.28ZM420.969 164.155H436.011V165.466H420.969V164.155ZM423.821 172.941H433.044V174.229H423.821V172.941ZM422.648 166.823H432.975V168.157H424.258V177.817H422.648V166.823ZM432.561 166.823H434.217V175.908C434.217 176.782 434.033 177.242 433.389 177.495C432.745 177.748 431.71 177.771 430.077 177.748C430.008 177.334 429.778 176.69 429.571 176.253C430.721 176.299 431.825 176.299 432.147 176.276C432.469 176.276 432.561 176.184 432.561 175.885V166.823ZM427.57 156.68H429.272V164.569H427.57V156.68ZM417.473 156.68H419.06V177.817H417.473V156.68ZM415.656 161.119L416.944 161.303C416.875 163.097 416.484 165.765 415.955 167.49L414.621 167.053C415.15 165.466 415.518 162.936 415.656 161.119ZM419.267 160.521L420.417 160.061C420.923 161.119 421.475 162.476 421.682 163.327L420.486 163.902C420.256 163.028 419.727 161.602 419.267 160.521ZM452.617 157.554L453.514 156.542C454.664 156.91 456.09 157.554 456.826 158.129L455.883 159.279C455.193 158.681 453.79 157.968 452.617 157.554ZM440.726 159.026H458.643V160.452H440.726V159.026ZM442.359 162.016H449.42V163.235H442.359V162.016ZM442.727 164.799H444.176V168.985H442.727V164.799ZM454.94 161.556L456.55 161.947C455.262 165.765 452.939 168.87 450.133 170.871C449.88 170.549 449.236 169.974 448.891 169.675C451.674 167.881 453.836 165.006 454.94 161.556ZM449.512 156.68H451.168C451.421 163.764 454.549 169.514 456.895 169.491C457.47 169.491 457.7 168.663 457.815 166.57C458.16 166.892 458.735 167.191 459.172 167.352C458.896 170.273 458.275 171.078 456.803 171.078C453.169 171.078 449.88 164.408 449.512 156.68ZM442.727 164.799H449.052V169.629H442.727V168.387H447.58V166.018H442.727V164.799ZM443.877 171.745H445.579V175.31C445.579 175.885 445.809 176 447.028 176C447.603 176 450.478 176 451.237 176C452.249 176 452.41 175.724 452.502 173.585C452.87 173.861 453.583 174.091 454.066 174.206C453.836 176.92 453.33 177.564 451.375 177.564C450.846 177.564 447.419 177.564 446.913 177.564C444.475 177.564 443.877 177.104 443.877 175.333V171.745ZM445.671 170.986L446.775 170.02C448.224 170.687 449.926 171.791 450.731 172.688L449.558 173.792C448.776 172.895 447.097 171.722 445.671 170.986ZM453.606 172.435L455.009 171.653C456.665 172.941 458.39 174.85 459.103 176.276L457.562 177.127C456.918 175.724 455.262 173.769 453.606 172.435ZM440.956 171.883L442.474 172.412C441.899 174.275 440.956 176.207 439.323 177.38L437.897 176.414C439.438 175.356 440.45 173.608 440.956 171.883ZM439.921 159.026H441.531V162.499C441.531 165.167 441.117 168.939 439.001 171.538C438.771 171.216 438.081 170.641 437.736 170.457C439.668 168.065 439.921 164.822 439.921 162.476V159.026ZM463.013 160.383H470.005V175.425H463.013V173.861H468.395V161.924H463.013V160.383ZM461.978 160.383H463.588V177.265H461.978V160.383ZM462.898 166.777H469.246V168.318H462.898V166.777ZM465.497 156.634L467.36 156.979C466.9 158.405 466.325 159.992 465.865 161.027L464.485 160.682C464.876 159.578 465.313 157.83 465.497 156.634ZM473.271 160.314H480.332V161.924H473.271V160.314ZM479.734 160.314H481.344C481.344 160.314 481.344 160.958 481.344 161.211C480.976 171.768 480.654 175.333 479.734 176.46C479.228 177.127 478.699 177.334 477.894 177.403C477.112 177.495 475.755 177.449 474.467 177.38C474.421 176.874 474.214 176.161 473.892 175.701C475.387 175.816 476.767 175.839 477.296 175.839C477.756 175.839 478.032 175.77 478.285 175.471C479.044 174.643 479.412 170.825 479.734 160.682V160.314ZM473.754 156.588L475.41 156.979C474.559 160.406 473.202 163.787 471.615 165.972C471.316 165.696 470.603 165.213 470.189 164.983C471.753 162.959 473.018 159.785 473.754 156.588ZM472.696 166.294L474.03 165.512C475.341 167.145 476.928 169.376 477.664 170.733L476.192 171.653C475.502 170.25 473.961 167.973 472.696 166.294ZM484.196 165.029H504.827V166.685H484.196V165.029ZM485.622 158.221H503.493V159.877H485.622V158.221ZM494.753 167.628H496.547V174.965C496.547 175.747 496.777 175.908 497.996 175.908C498.525 175.908 501.331 175.908 502.067 175.908C503.217 175.908 503.378 175.402 503.516 172.228C503.93 172.55 504.712 172.849 505.195 172.941C504.942 176.644 504.413 177.61 502.182 177.61C501.653 177.61 498.318 177.61 497.812 177.61C495.42 177.61 494.753 177.035 494.753 174.965V167.628ZM493.304 158.888H495.052C494.891 167.766 494.661 174.758 485.024 177.909C484.817 177.449 484.311 176.805 483.92 176.437C493.189 173.608 493.189 167.191 493.304 158.888ZM517.201 162.062H525.78V163.511H517.201V162.062ZM513.613 175.839C515.729 175.471 519.064 174.804 522.284 174.16L522.399 175.678C519.501 176.345 516.419 177.012 514.188 177.518L513.613 175.839ZM516.212 157.715H517.891V175.977H516.212V157.715ZM517.201 157.715H526.585V167.927H517.201V166.409H524.906V159.233H517.201V157.715ZM521.64 166.938C522.629 171.239 524.722 174.827 528.149 176.345C527.758 176.69 527.252 177.334 526.999 177.771C523.411 175.954 521.272 172.067 520.214 167.214L521.64 166.938ZM526.217 168.456L527.574 169.445C526.286 170.641 524.653 171.929 523.365 172.78L522.284 171.906C523.526 171.009 525.251 169.56 526.217 168.456ZM507.863 157.692H513.751V159.256H509.496V177.863H507.863V157.692ZM513.245 157.692H513.567L513.82 157.623L514.993 158.336C514.257 160.245 513.291 162.614 512.44 164.431C514.303 166.34 514.74 167.973 514.74 169.399C514.74 170.664 514.441 171.607 513.751 172.09C513.406 172.32 512.969 172.458 512.486 172.504C511.957 172.573 511.313 172.573 510.738 172.527C510.715 172.113 510.577 171.423 510.301 170.963C510.899 171.032 511.405 171.032 511.819 171.009C512.118 170.986 512.394 170.917 512.624 170.779C513.015 170.526 513.153 169.928 513.13 169.215C513.13 167.95 512.647 166.432 510.853 164.638C511.773 162.545 512.716 159.762 513.245 158.175V157.692ZM537.441 171.308H550.965V172.895H537.441V171.308ZM544.571 164.04H550.528V165.604H544.571V164.04ZM543.835 158.98H545.514V172.044H543.835V158.98ZM539.327 162.706H540.96V172.228H539.327V162.706ZM549.033 156.772L550.298 158.152C547.239 159.118 542.501 159.785 538.522 160.13C538.476 159.739 538.223 159.118 538.039 158.727C541.926 158.336 546.503 157.646 549.033 156.772ZM529.92 158.152H535.279V159.693H529.92V158.152ZM534.819 158.152H535.072L535.348 158.06L536.567 158.474C535.371 160.889 533.439 164.523 531.829 167.283L530.265 166.823C531.875 164.086 533.876 160.314 534.819 158.359V158.152ZM532.105 164.753H536.337V166.294H531.875L532.105 164.753ZM535.693 164.753H536.015L536.337 164.707L537.372 164.983C536.567 171.722 534.313 175.839 531.07 177.955C530.794 177.587 530.15 176.989 529.759 176.759C532.933 174.827 535.026 171.101 535.693 165.098V164.753ZM532.197 168.088C534.129 174.505 538.591 175.609 544.433 175.609C545.399 175.609 550.045 175.609 551.264 175.586C550.988 175.977 550.666 176.782 550.574 177.265H544.387C537.74 177.265 533.117 175.885 530.84 168.594L532.197 168.088ZM562.051 158.819H572.332V160.291H562.051V158.819ZM566.214 156.703H567.939V163.051H566.214V156.703ZM562.879 165.604L563.707 164.753C564.719 165.305 565.961 166.156 566.559 166.8L565.708 167.743C565.11 167.099 563.914 166.202 562.879 165.604ZM561.223 167.697L562.051 166.823C563.086 167.375 564.374 168.272 565.018 168.939L564.144 169.928C563.546 169.261 562.281 168.318 561.223 167.697ZM561.2 162.361H572.263V163.856H561.2V162.361ZM571.918 162.361H572.171L572.447 162.292L573.528 162.568C573.068 164.109 572.47 165.857 571.918 166.938L570.561 166.57C570.998 165.558 571.573 163.948 571.918 162.614V162.361ZM560.74 170.25H573.574V171.768H560.74V170.25ZM566.904 164.776H568.514V167.536C568.514 170.917 567.778 175.103 561.315 177.886C561.108 177.518 560.625 176.92 560.303 176.621C566.306 174.091 566.904 170.411 566.904 167.49V164.776ZM567.824 173.585L568.882 172.642C570.676 173.838 572.93 175.609 573.988 176.805L572.884 177.909C571.826 176.69 569.641 174.85 567.824 173.585ZM553.541 171.814C553.472 171.492 553.219 170.756 553.035 170.342C553.518 170.25 554.024 169.675 554.714 168.801C555.427 167.95 557.727 164.707 559.199 161.556L560.556 162.361C558.877 165.512 556.738 168.686 554.668 170.94V170.986C554.668 170.986 553.541 171.492 553.541 171.814ZM553.541 171.814L553.426 170.365L554.208 169.79L560.027 168.341C560.027 168.778 560.073 169.445 560.142 169.79C554.737 171.239 554.001 171.515 553.541 171.814ZM553.403 166.294C553.311 165.949 553.058 165.167 552.851 164.753C553.265 164.638 553.656 164.109 554.162 163.327C554.691 162.545 556.37 159.532 557.29 156.726L558.808 157.439C557.635 160.291 556.002 163.281 554.392 165.397V165.42C554.392 165.42 553.403 165.949 553.403 166.294ZM553.403 166.294L553.357 165.029L554.162 164.523L558.141 164.109C558.049 164.546 558.003 165.167 558.003 165.512C554.392 165.972 553.771 166.11 553.403 166.294ZM552.966 174.689C554.76 174.114 557.405 173.148 560.004 172.205L560.28 173.631C557.865 174.574 555.335 175.54 553.38 176.299L552.966 174.689ZM579.462 170.411C581.394 170.411 582.958 171.975 582.958 173.907C582.958 175.839 581.394 177.403 579.462 177.403C577.53 177.403 575.943 175.839 575.943 173.907C575.943 171.975 577.53 170.411 579.462 170.411ZM579.462 176.23C580.75 176.23 581.785 175.195 581.785 173.907C581.785 172.619 580.75 171.584 579.462 171.584C578.174 171.584 577.116 172.619 577.116 173.907C577.116 175.195 578.174 176.23 579.462 176.23Z" fill="#5D5D5D"/>
</svg>
