<svg width="621" height="178" viewBox="0 0 621 178" fill="none" xmlns="http://www.w3.org/2000/svg">
<path d="M16.169 2.198L17.48 1.301C18.837 2.451 20.447 4.084 21.206 5.142L19.78 6.154C19.09 5.05 17.526 3.394 16.169 2.198ZM1.265 7.488H21.758V9.144H1.265V7.488ZM0.92 14.25C3.657 13.744 7.981 12.824 12.029 11.95L12.167 13.514C8.395 14.388 4.324 15.331 1.426 15.975L0.92 14.25ZM6.21 3.026H7.935V19.632C7.935 20.759 7.659 21.265 6.923 21.541C6.187 21.817 4.968 21.886 3.059 21.863C2.967 21.403 2.668 20.621 2.415 20.115C3.887 20.184 5.244 20.161 5.658 20.138C6.072 20.138 6.21 20.023 6.21 19.609V3.026ZM10.58 0.955998L11.799 2.405C9.131 3.325 5.221 4.038 1.932 4.498C1.84 4.107 1.633 3.463 1.403 3.072C4.646 2.566 8.372 1.784 10.58 0.955998ZM12.88 0.886999H14.674C14.628 11.444 16.882 20.184 19.688 20.184C20.309 20.184 20.585 18.988 20.723 16.021C21.091 16.412 21.712 16.803 22.195 16.987C21.873 20.805 21.252 21.932 19.527 21.932C15.019 21.932 12.972 11.835 12.88 0.886999ZM19.113 10.202L20.654 10.846C18.4 15.055 14.605 18.758 10.373 20.989C10.097 20.552 9.614 20 9.177 19.609C13.271 17.631 17.066 14.089 19.113 10.202ZM36.225 1.531H43.148V3.118H36.225V1.531ZM42.481 1.531H44.206V19.678C44.206 20.713 43.953 21.219 43.24 21.495C42.55 21.771 41.377 21.794 39.56 21.794C39.491 21.357 39.238 20.598 39.008 20.138C40.319 20.207 41.584 20.184 41.975 20.161C42.343 20.138 42.481 20.023 42.481 19.655V1.531ZM31.74 1.439L33.074 0.702999C34.086 2.083 35.305 3.969 35.834 5.119L34.408 5.947C33.902 4.774 32.752 2.842 31.74 1.439ZM30.774 5.326H32.453V21.84H30.774V5.326ZM28.152 0.817999L29.762 1.255C28.612 5.234 26.818 9.282 24.748 11.973C24.587 11.582 24.104 10.662 23.805 10.225C25.622 7.902 27.209 4.36 28.152 0.817999ZM26.335 6.614L27.922 5.004L27.991 5.05V21.84H26.335V6.614ZM49.013 4.383H56.005V19.425H49.013V17.861H54.395V5.924H49.013V4.383ZM47.978 4.383H49.588V21.265H47.978V4.383ZM48.898 10.777H55.246V12.318H48.898V10.777ZM51.497 0.633998L53.36 0.978999C52.9 2.405 52.325 3.992 51.865 5.027L50.485 4.682C50.876 3.578 51.313 1.83 51.497 0.633998ZM59.271 4.314H66.332V5.924H59.271V4.314ZM65.734 4.314H67.344C67.344 4.314 67.344 4.958 67.344 5.211C66.976 15.768 66.654 19.333 65.734 20.46C65.228 21.127 64.699 21.334 63.894 21.403C63.112 21.495 61.755 21.449 60.467 21.38C60.421 20.874 60.214 20.161 59.892 19.701C61.387 19.816 62.767 19.839 63.296 19.839C63.756 19.839 64.032 19.77 64.285 19.471C65.044 18.643 65.412 14.825 65.734 4.682V4.314ZM59.754 0.587999L61.41 0.978999C60.559 4.406 59.202 7.787 57.615 9.972C57.316 9.696 56.603 9.213 56.189 8.983C57.753 6.959 59.018 3.785 59.754 0.587999ZM58.696 10.294L60.03 9.512C61.341 11.145 62.928 13.376 63.664 14.733L62.192 15.653C61.502 14.25 59.961 11.973 58.696 10.294ZM81.88 4.958H91.08V6.591H81.88V4.958ZM69.966 5.165H80.063V6.798H69.966V5.165ZM82.593 0.679999L84.318 0.955998C83.467 5.257 82.018 9.213 80.04 11.789C79.741 11.513 79.005 10.938 78.568 10.685C80.546 8.339 81.857 4.59 82.593 0.679999ZM87.745 5.855L89.447 6.062C88.159 14.227 85.399 19.011 79.051 21.863C78.867 21.472 78.361 20.69 78.062 20.345C84.111 17.907 86.641 13.399 87.745 5.855ZM82.685 6.407C83.858 12.893 86.365 18.206 91.241 20.391C90.827 20.736 90.298 21.403 90.045 21.863C84.962 19.333 82.455 13.813 81.121 6.683L82.685 6.407ZM74.175 0.679999H75.923V11.835H74.175V0.679999ZM70.932 11.007H72.565V20.851H70.932V11.007ZM71.898 11.007H79.143V19.241H71.898V17.631H77.51V12.64H71.898V11.007ZM102.534 0.679999H104.282V19.908C104.282 20.989 103.983 21.403 103.27 21.656C102.534 21.886 101.338 21.909 99.406 21.909C99.314 21.495 99.038 20.851 98.808 20.46C100.188 20.506 101.568 20.483 101.982 20.483C102.396 20.46 102.534 20.322 102.534 19.908V0.679999ZM93.541 2.52H113.505V3.946H93.541V2.52ZM97.589 6.522V8.178H109.457V6.522H97.589ZM95.956 5.326H111.205V9.397H95.956V5.326ZM95.289 11.007H111.55V19.379H109.825V12.295H95.289V11.007ZM93.104 13.882H113.942V15.262H93.104V13.882ZM95.059 17.01H110.722V18.344H95.059V17.01ZM129.26 1.531H131.1C130.985 6.798 130.686 16.895 124.085 21.817C123.694 21.334 123.096 20.851 122.521 20.506C129.076 15.952 129.168 6.269 129.26 1.531ZM120.635 10.708L121.831 9.42C123.51 11.237 125.35 13.698 126.201 15.262L124.89 16.734C124.062 15.124 122.245 12.548 120.635 10.708ZM130.824 3.877C131.353 9.535 132.618 16.757 137.264 20.184C136.873 20.529 136.206 21.334 135.907 21.84C131.192 17.953 129.904 10.501 129.352 4.82L130.824 3.877ZM121.003 1.462L122.889 1.531C122.406 10.547 121.348 17.424 117.507 21.886C117.185 21.587 116.265 20.966 115.828 20.69C119.669 16.711 120.635 9.926 121.003 1.462ZM139.265 9.88H159.735V11.536H139.265V9.88ZM148.557 6.131H150.328V21.84H148.557V6.131ZM147.637 10.593L149.155 11.191C147.108 15.17 143.52 18.896 140.047 20.851C139.771 20.414 139.196 19.77 138.782 19.425C142.186 17.7 145.774 14.135 147.637 10.593ZM151.11 10.731C153.042 14.112 156.745 17.516 160.172 19.149C159.758 19.517 159.16 20.207 158.861 20.69C155.434 18.758 151.777 15.078 149.684 11.329L151.11 10.731ZM148.534 0.702999H150.351V4.406H148.534V0.702999ZM139.817 3.325H159.137V8.201H157.32V4.981H141.565V8.201H139.817V3.325ZM168.429 8.592L182.689 6.798L182.942 8.431L168.682 10.225L168.429 8.592ZM177.422 1.991L178.687 1.163C180.067 2.267 181.7 3.831 182.482 4.889L181.148 5.809C180.412 4.774 178.779 3.141 177.422 1.991ZM168.176 0.932999L169.809 1.462C168.084 5.487 165.347 9.443 162.472 12.019C162.288 11.605 161.782 10.731 161.46 10.34C164.128 8.109 166.658 4.567 168.176 0.932999ZM165.577 7.051L167.325 5.326V5.349V21.817H165.577V7.051ZM173.581 1.025H175.329C175.651 11.352 177.238 19.471 180.711 19.793C181.355 19.839 181.746 18.482 181.976 15.791C182.321 16.136 183.08 16.573 183.402 16.711C182.919 20.713 181.976 21.886 180.78 21.84C175.605 21.472 174.087 12.778 173.581 1.025ZM190.877 6.89L192.579 7.419C190.969 10.616 188.485 13.675 186.047 15.653C185.748 15.354 185.035 14.733 184.621 14.457C187.105 12.663 189.451 9.834 190.877 6.89ZM195.753 7.097H197.455V18.735C197.455 19.701 197.685 19.885 198.858 19.885C199.433 19.885 202.285 19.885 203.021 19.885C204.125 19.885 204.309 19.287 204.447 16.32C204.838 16.619 205.551 16.918 206.011 17.033C205.781 20.506 205.275 21.518 203.113 21.518C202.607 21.518 199.226 21.518 198.72 21.518C196.397 21.518 195.753 20.92 195.753 18.712V7.097ZM203.734 9.098L205.068 10.409C202.906 11.835 199.755 13.238 196.972 14.365C196.88 13.997 196.581 13.422 196.351 13.077C199.019 11.973 202.009 10.432 203.734 9.098ZM185.357 2.796H205.597V4.452H185.357V2.796ZM190.9 0.679999H192.602V6.89H190.9V0.679999ZM198.444 0.679999H200.146V7.028H198.444V0.679999ZM188.968 11.26L190.647 9.558V9.581V21.84H188.968V11.26ZM210.519 8.615H223.721V10.225H210.519V8.615ZM223.445 8.615H223.721L224.089 8.546L225.308 9.443C225.239 9.512 225.078 9.627 224.917 9.696C213.44 16.435 212.635 17.677 212.635 18.528C212.635 19.241 213.509 19.563 214.889 19.563H224.986C226.251 19.563 226.642 19.103 226.757 16.136C227.217 16.412 227.861 16.596 228.39 16.711C228.114 20.529 227.309 21.242 224.848 21.242H215.05C212.198 21.242 210.887 20.253 210.887 18.666C210.887 17.24 211.37 15.722 223.445 8.615ZM208.288 3.164H228.413V4.843H208.288V3.164ZM213.601 0.679999H215.372V6.936H213.601V0.679999ZM221.559 0.679999H223.307V6.936H221.559V0.679999ZM232.047 2.198H251.091V3.831H232.047V2.198ZM231.196 10.409H251.827V12.065H231.196V10.409ZM244.904 3.049H246.675V21.863H244.904V3.049ZM236.716 3.049H238.464V9.42C238.464 13.882 237.889 18.597 232.599 21.932C232.3 21.541 231.679 20.943 231.242 20.667C236.187 17.608 236.716 13.399 236.716 9.42V3.049ZM265.144 19.264H273.171V20.828H265.144V19.264ZM264.247 12.525H274.068V21.771H272.366V14.112H265.903V21.863H264.247V12.525ZM262.683 8.661C265.397 8.523 269.675 8.293 273.769 8.017L273.746 9.558C269.859 9.857 265.742 10.179 262.89 10.363L262.683 8.661ZM270.296 4.958L271.676 4.245C273.217 6.154 274.804 8.73 275.425 10.432L273.907 11.26C273.355 9.535 271.814 6.913 270.296 4.958ZM267.168 0.679999L269.054 1.071C268.111 3.877 266.8 7.396 265.719 9.581L264.247 9.167C265.282 6.936 266.524 3.256 267.168 0.679999ZM253.989 5.441H261.579V7.074H253.989V5.441ZM257.485 0.679999L259.141 0.864C258.198 5.464 256.726 11.674 255.645 15.515L254.219 14.733C255.254 11.237 256.68 5.05 257.485 0.679999ZM255.139 14.043L256.105 12.824C258.681 14.273 261.74 16.481 263.12 18.183L262.062 19.586C260.705 17.861 257.715 15.538 255.139 14.043ZM260.912 5.441H261.211L261.51 5.395L262.545 5.602C261.924 14.503 259.44 19.379 255.208 21.909C254.955 21.495 254.495 20.874 254.127 20.529C257.945 18.505 260.36 13.606 260.912 5.809V5.441ZM280.462 14.411C282.394 14.411 283.958 15.975 283.958 17.907C283.958 19.839 282.394 21.403 280.462 21.403C278.53 21.403 276.943 19.839 276.943 17.907C276.943 15.975 278.53 14.411 280.462 14.411ZM280.462 20.23C281.75 20.23 282.785 19.195 282.785 17.907C282.785 16.619 281.75 15.584 280.462 15.584C279.174 15.584 278.116 16.619 278.116 17.907C278.116 19.195 279.174 20.23 280.462 20.23ZM300.426 4.245H320.574V5.924H300.426V4.245ZM307.556 11.536H319.677V13.146H307.556V11.536ZM306.659 19.678H320.574V21.311H306.659V19.678ZM312.754 7.097H314.479V20.552H312.754V7.097ZM307.993 0.679999L309.764 1.117C308.154 6.384 305.348 11.743 300.771 15.032C300.587 14.572 300.15 13.836 299.874 13.445C304.014 10.524 306.705 5.418 307.993 0.679999ZM303.439 10.156H305.164V21.771H303.439V10.156ZM327.06 17.47C327.796 17.47 328.348 18.045 329.59 18.712C331.039 19.517 333.063 19.632 335.547 19.632C338.169 19.632 341.78 19.471 344.126 19.195C343.896 19.701 343.62 20.598 343.574 21.15C341.757 21.265 337.824 21.38 335.501 21.38C332.787 21.38 330.809 21.15 329.222 20.322C328.279 19.793 327.543 19.149 327.037 19.149C326.255 19.149 325.151 20.345 324.024 21.656L322.805 19.977C324.3 18.551 325.887 17.47 327.06 17.47ZM323.38 2.589L324.737 1.692C325.956 2.704 327.428 4.199 328.095 5.234L326.646 6.246C326.025 5.211 324.599 3.693 323.38 2.589ZM327.773 9.351V18.344H326.094V10.961H323.127V9.351H327.773ZM328.785 4.291H343.735V5.924H328.785V4.291ZM339.365 4.613L341.09 4.958C339.273 11.628 335.639 15.607 329.705 17.953C329.521 17.585 328.992 16.803 328.647 16.435C334.397 14.457 337.824 10.754 339.365 4.613ZM334.029 1.071L335.662 0.564999C336.329 1.577 337.088 2.98 337.41 3.854L335.685 4.475C335.409 3.578 334.673 2.129 334.029 1.071ZM329.475 8.247L330.694 7.189C334.765 9.995 340.17 14.043 342.884 16.619L341.527 17.884C338.997 15.308 333.661 11.122 329.475 8.247ZM350.244 7.511V10.432H362.986V7.511H350.244ZM350.244 3.164V6.039H362.986V3.164H350.244ZM348.542 1.6H364.78V11.996H348.542V1.6ZM346.242 19.586H366.781V21.196H346.242V19.586ZM347.783 14.641H365.539V16.274H347.783V14.641ZM355.741 2.589H357.397V11.743H357.489V20.506H355.649V11.743H355.741V2.589ZM374.877 6.89L376.579 7.419C374.969 10.616 372.485 13.675 370.047 15.653C369.748 15.354 369.035 14.733 368.621 14.457C371.105 12.663 373.451 9.834 374.877 6.89ZM379.753 7.097H381.455V18.735C381.455 19.701 381.685 19.885 382.858 19.885C383.433 19.885 386.285 19.885 387.021 19.885C388.125 19.885 388.309 19.287 388.447 16.32C388.838 16.619 389.551 16.918 390.011 17.033C389.781 20.506 389.275 21.518 387.113 21.518C386.607 21.518 383.226 21.518 382.72 21.518C380.397 21.518 379.753 20.92 379.753 18.712V7.097ZM387.734 9.098L389.068 10.409C386.906 11.835 383.755 13.238 380.972 14.365C380.88 13.997 380.581 13.422 380.351 13.077C383.019 11.973 386.009 10.432 387.734 9.098ZM369.357 2.796H389.597V4.452H369.357V2.796ZM374.9 0.679999H376.602V6.89H374.9V0.679999ZM382.444 0.679999H384.146V7.028H382.444V0.679999ZM372.968 11.26L374.647 9.558V9.581V21.84H372.968V11.26ZM397.279 21.288C395.784 19.471 393.806 17.516 392.173 16.182L393.668 14.871C395.324 16.205 397.394 18.275 398.843 19.954L397.279 21.288ZM425.247 1.922H435.85V3.486H425.247V1.922ZM427.363 2.543H428.927C428.697 8.086 428.191 15.768 427.731 20.023H426.098C426.604 15.676 427.179 7.971 427.363 2.543ZM424.442 19.77C426.443 19.471 429.525 18.942 432.561 18.436L432.653 19.839C429.939 20.368 427.064 20.92 424.925 21.311L424.442 19.77ZM428.858 10.938L430.008 10.57C430.882 12.18 431.687 14.273 431.94 15.653L430.698 16.044C430.445 14.664 429.686 12.525 428.858 10.938ZM432.538 6.821H434.125C434.102 13.537 434.125 20.253 435.275 20.253C435.574 20.253 435.666 18.804 435.689 16.757C436.011 17.125 436.425 17.516 436.747 17.723C436.609 20.759 436.31 21.863 435.114 21.863C432.584 21.863 432.63 15.078 432.538 6.821ZM415.311 5.257H425.523V6.798H415.311V5.257ZM414.897 11.398H425.776V12.985H414.897V11.398ZM423.154 0.702999L424.81 1.163C424.189 2.52 423.43 4.153 422.832 5.165L421.544 4.751C422.119 3.67 422.809 1.922 423.154 0.702999ZM416.277 1.186L417.634 0.749C418.301 1.968 418.945 3.578 419.175 4.636L417.726 5.119C417.519 4.061 416.921 2.405 416.277 1.186ZM421.774 5.855H423.338V21.817H421.774V5.855ZM417.381 5.855H418.922V11.306C418.922 15.009 418.6 18.873 416.07 21.978C415.794 21.633 415.196 21.15 414.805 20.92C417.128 18.091 417.381 14.595 417.381 11.306V5.855ZM428.03 6.821H433.435V8.362H427.892L428.03 6.821ZM438.081 10.961H458.965V12.686H438.081V10.961ZM447.649 7.258H449.443V19.632C449.443 20.782 449.121 21.311 448.247 21.587C447.396 21.863 445.901 21.909 443.693 21.909C443.555 21.403 443.233 20.621 442.934 20.115C444.797 20.184 446.499 20.184 447.005 20.161C447.488 20.138 447.649 20.023 447.649 19.609V7.258ZM440.45 2.29H455.469V3.992H440.45V2.29ZM454.871 2.29H455.331L455.722 2.198L457.033 3.164C454.94 5.28 451.674 7.557 448.983 8.937C448.73 8.546 448.201 7.994 447.856 7.695C450.363 6.499 453.422 4.314 454.871 2.681V2.29ZM472.834 17.263H479.964V18.919H472.834V17.263ZM472.19 2.842H480.769V20.667H479.021V4.475H473.869V20.828H472.19V2.842ZM465.658 2.635H467.383V21.817H465.658V2.635ZM461.15 7.488H471.408V9.098H461.15V7.488ZM465.566 8.063L466.785 8.5C465.704 12.065 463.588 16.32 461.518 18.528C461.334 18.045 460.897 17.355 460.598 16.941C462.53 14.963 464.646 11.237 465.566 8.063ZM470.074 0.909999L471.247 2.244C468.786 3.164 465.014 3.831 461.863 4.199C461.771 3.808 461.564 3.233 461.357 2.842C464.416 2.428 468.073 1.738 470.074 0.909999ZM467.245 9.558C467.981 10.294 470.649 13.422 471.247 14.181L470.189 15.584C469.453 14.365 467.222 11.421 466.371 10.409L467.245 9.558ZM493.304 1.393H495.213C495.029 5.004 494.684 16.481 485.162 21.656C484.863 21.219 484.288 20.69 483.759 20.299C493.143 15.515 493.143 4.452 493.304 1.393ZM495.144 1.853C495.213 3.647 495.88 15.86 505.356 20.207C504.85 20.598 504.321 21.173 504.045 21.656C494.293 16.987 493.649 4.13 493.488 2.014L495.144 1.853ZM522.215 0.864H523.756V6.407H522.215V0.864ZM512.049 16.251H513.36V21.196H512.049V16.251ZM518.305 19.793C520.444 19.517 523.641 18.988 526.769 18.482L526.884 19.977C524.009 20.529 520.996 21.058 518.742 21.449L518.305 19.793ZM524.791 15.584L526.125 15.216C527.114 17.217 527.988 19.816 528.195 21.472L526.746 21.886C526.562 20.253 525.734 17.585 524.791 15.584ZM520.352 6.752V12.456H525.803V6.752H520.352ZM518.926 5.257H527.275V13.974H518.926V5.257ZM510.071 5.717V7.925H515.407V5.717H510.071ZM508.576 4.498H517.017V9.167H508.576V4.498ZM507.357 1.715H518.213V3.187H507.357V1.715ZM510.025 15.906H515.499V17.148H510.025V15.906ZM507.633 10.478H517.109V11.812H508.99V21.794H507.633V10.478ZM516.465 10.478H517.891V20.184C517.891 20.92 517.753 21.311 517.224 21.564C516.718 21.794 515.913 21.817 514.671 21.817C514.625 21.426 514.441 20.851 514.257 20.483C515.131 20.506 515.913 20.506 516.143 20.483C516.396 20.483 516.465 20.391 516.465 20.161V10.478ZM513.406 11.099H514.533V13.56C514.533 13.905 514.602 13.928 514.924 13.928C515.085 13.928 515.844 13.928 516.051 13.928C516.327 13.928 516.396 13.905 516.442 13.79C516.672 13.974 517.109 14.112 517.454 14.204C517.339 14.779 516.971 14.986 516.258 14.986C516.051 14.986 515.016 14.986 514.809 14.986C513.705 14.986 513.406 14.756 513.406 13.56V11.099ZM522.33 5.832H523.664V13.192H523.779V19.816H522.238V13.192H522.33V5.832ZM510.876 11.099H511.98V11.927C511.98 13.192 511.75 14.733 509.956 15.814C509.749 15.538 509.312 15.193 509.036 15.009C510.692 14.181 510.876 12.824 510.876 11.881V11.099ZM530.863 6.223H548.619V7.948H530.863V6.223ZM547.906 6.223H549.7C549.7 6.223 549.7 6.867 549.677 7.12C549.332 16.343 549.01 19.609 548.09 20.667C547.584 21.311 547.032 21.518 546.204 21.587C545.399 21.656 543.927 21.633 542.524 21.541C542.478 21.035 542.248 20.276 541.926 19.747C543.467 19.908 544.916 19.908 545.491 19.908C545.974 19.908 546.227 19.839 546.503 19.563C547.239 18.827 547.607 15.423 547.906 6.591V6.223ZM538.43 0.725999H540.178V3.463C540.178 8.615 539.626 16.205 531.599 21.541C531.323 21.127 530.679 20.552 530.242 20.253C537.947 15.262 538.43 8.224 538.43 3.463V0.725999ZM532.703 1.968L534.198 1.324C535.118 2.336 536.199 3.785 536.682 4.728L535.118 5.464C534.681 4.544 533.623 3.049 532.703 1.968ZM540.454 11.49L541.88 10.777C543.099 12.134 544.502 13.997 545.1 15.216L543.582 16.021C543.007 14.802 541.627 12.87 540.454 11.49ZM553.012 10.087H574.057V11.973H553.012V10.087ZM580.75 0.771999L582.383 1.255C581.049 5.142 578.956 9.052 576.702 11.651C576.518 11.26 576.012 10.363 575.69 9.949C577.737 7.695 579.623 4.245 580.75 0.771999ZM578.68 6.706L580.29 5.073L580.313 5.096V21.817H578.68V6.706ZM588.34 0.771999H590.019V21.725H588.34V0.771999ZM581.854 5.326H596.919V6.982H581.854V5.326ZM584.545 15.998H593.745V17.562H584.545V15.998ZM590.847 6.177C592.158 10.294 594.688 14.572 597.379 16.734C596.965 17.033 596.39 17.631 596.068 18.091C593.377 15.63 590.916 11.053 589.559 6.568L590.847 6.177ZM587.627 6.085L588.892 6.476C587.466 11.076 584.959 15.63 582.176 18.16C581.923 17.723 581.348 17.125 580.957 16.849C583.648 14.664 586.27 10.294 587.627 6.085ZM601.611 22.461L601.082 21.265C602.968 20.483 604.003 19.31 604.003 17.585L603.566 15.63L604.808 17.378C604.486 17.792 604.026 17.907 603.589 17.907C602.646 17.907 601.864 17.355 601.864 16.251C601.864 15.17 602.692 14.595 603.612 14.595C604.9 14.595 605.59 15.653 605.59 17.263C605.59 19.747 604.026 21.633 601.611 22.461ZM3.91 61.305H9.637V62.915H3.91V61.305ZM8.947 61.305H10.626C10.626 61.305 10.626 61.811 10.626 62.041C10.511 67.239 10.373 69.171 9.89 69.815C9.522 70.229 9.154 70.39 8.51 70.459C7.912 70.528 6.877 70.505 5.75 70.459C5.704 69.953 5.52 69.286 5.267 68.849C6.302 68.941 7.314 68.941 7.705 68.941C8.027 68.941 8.257 68.918 8.418 68.711C8.763 68.297 8.878 66.572 8.947 61.604V61.305ZM15.433 53.853L16.468 52.772C17.894 53.508 19.711 54.612 20.608 55.417L19.527 56.59C18.653 55.785 16.882 54.612 15.433 53.853ZM18.722 60.086L20.447 60.5C18.492 66.503 15.065 70.942 10.35 73.725C10.097 73.38 9.453 72.667 9.085 72.322C13.754 69.838 16.997 65.629 18.722 60.086ZM4.048 56.59H21.85V58.292H4.048V56.59ZM2.944 56.59H4.738V63.076C4.738 66.342 4.37 70.988 2.277 74.001C1.978 73.656 1.242 73.058 0.828 72.851C2.737 70.022 2.944 66.066 2.944 63.053V56.59ZM12.489 52.726H14.283C14.237 63.306 16.491 71.931 19.481 71.931C20.125 71.931 20.424 70.735 20.562 67.676C20.953 68.067 21.597 68.458 22.057 68.619C21.735 72.552 21.091 73.679 19.343 73.679C14.651 73.679 12.581 63.743 12.489 52.726ZM24.863 58.223H42.619V59.948H24.863V58.223ZM41.906 58.223H43.7C43.7 58.223 43.7 58.867 43.677 59.12C43.332 68.343 43.01 71.609 42.09 72.667C41.584 73.311 41.032 73.518 40.204 73.587C39.399 73.656 37.927 73.633 36.524 73.541C36.478 73.035 36.248 72.276 35.926 71.747C37.467 71.908 38.916 71.908 39.491 71.908C39.974 71.908 40.227 71.839 40.503 71.563C41.239 70.827 41.607 67.423 41.906 58.591V58.223ZM32.43 52.726H34.178V55.463C34.178 60.615 33.626 68.205 25.599 73.541C25.323 73.127 24.679 72.552 24.242 72.253C31.947 67.262 32.43 60.224 32.43 55.463V52.726ZM26.703 53.968L28.198 53.324C29.118 54.336 30.199 55.785 30.682 56.728L29.118 57.464C28.681 56.544 27.623 55.049 26.703 53.968ZM34.454 63.49L35.88 62.777C37.099 64.134 38.502 65.997 39.1 67.216L37.582 68.021C37.007 66.802 35.627 64.87 34.454 63.49ZM56.626 60.523H58.42V71.632C58.42 72.782 58.121 73.311 57.224 73.564C56.327 73.84 54.786 73.863 52.463 73.863C52.348 73.357 52.026 72.621 51.75 72.115C53.659 72.184 55.43 72.184 55.959 72.161C56.465 72.138 56.626 72 56.626 71.586V60.523ZM48.254 54.497H64.86V56.176H48.254V54.497ZM64.239 54.497H64.699L65.113 54.382L66.447 55.348C64.4 57.786 61.157 60.5 58.305 62.11C58.052 61.742 57.5 61.167 57.132 60.914C59.754 59.465 62.79 56.82 64.239 54.911V54.497ZM70.012 62.087H91.057V63.973H70.012V62.087ZM103.408 54.543C101.499 57.441 97.612 61.098 93.518 63.49C93.265 63.099 92.782 62.478 92.391 62.11C96.577 59.741 100.579 55.854 102.396 52.749H104.19C106.697 56.314 110.906 59.879 114.678 61.811C114.241 62.248 113.827 62.846 113.505 63.352C109.756 61.19 105.524 57.556 103.408 54.543ZM102.488 60.293H104.305V73.863H102.488V60.293ZM117.392 54.244H135.516V55.946H117.392V54.244ZM116.196 64.019H136.827V65.744H116.196V64.019ZM119.002 57.533L120.543 57.05C121.486 58.729 122.429 60.914 122.751 62.271L121.095 62.823C120.773 61.466 119.876 59.235 119.002 57.533ZM132.342 56.958L134.182 57.464C133.308 59.327 132.227 61.535 131.33 62.915L129.858 62.432C130.709 60.983 131.79 58.614 132.342 56.958ZM125.557 54.911H127.328V73.84H125.557V54.911ZM150.351 69.539L151.202 68.297C154.261 69.401 157.504 70.988 159.39 72.368L158.332 73.702C156.492 72.299 153.41 70.712 150.351 69.539ZM147.844 53.071L149.569 52.542C150.19 53.485 150.903 54.773 151.179 55.601L149.408 56.199C149.132 55.394 148.465 54.037 147.844 53.071ZM140.07 55.302H158.953V59.971H157.182V56.935H141.772V59.971H140.07V55.302ZM149.569 58.085H151.363C151.087 66.618 150.374 71.586 140.829 73.771C140.668 73.311 140.208 72.644 139.84 72.276C148.925 70.367 149.316 66.02 149.569 58.085ZM139.633 66.135H159.482V67.63H139.633V66.135ZM143.52 59.212L144.555 58.108C145.797 58.775 147.269 59.833 147.982 60.638L146.901 61.88C146.211 61.075 144.762 59.948 143.52 59.212ZM141.22 62.777L142.232 61.627C143.543 62.294 145.084 63.375 145.843 64.18L144.808 65.468C144.072 64.64 142.508 63.49 141.22 62.777ZM180.389 54.083H182.091V67.607C182.091 68.55 181.907 69.125 181.24 69.447C180.596 69.746 179.538 69.769 177.974 69.769C177.905 69.263 177.652 68.481 177.399 67.975C178.595 68.021 179.653 68.021 179.998 67.998C180.297 67.998 180.389 67.883 180.389 67.584V54.083ZM174.064 54.083H181.217V55.693H175.72V73.84H174.064V54.083ZM162.794 56.36H172.431V57.947H162.794V56.36ZM161.897 61.742H173.213V63.352H161.897V61.742ZM166.842 52.68H168.521V62.57H166.842V52.68ZM161.874 69.953C164.312 69.792 168.061 69.447 171.672 69.125L171.718 70.689C168.268 71.057 164.703 71.425 162.127 71.678L161.874 69.953ZM168.935 66.25L170.338 65.675C171.603 67.607 172.96 70.206 173.466 71.862L171.925 72.506C171.442 70.873 170.154 68.228 168.935 66.25ZM165.922 62.731L167.739 63.283C166.911 65.767 165.784 68.826 164.841 70.735L163.415 70.206C164.312 68.228 165.393 65.031 165.922 62.731ZM190.164 56.981C192.648 64.571 197.823 70.206 206.149 72.253C205.758 72.644 205.206 73.403 204.953 73.886C196.374 71.54 191.314 65.744 188.508 57.487L190.164 56.981ZM186.162 54.98H202.354V56.682H186.162V54.98ZM201.779 54.98H202.124L202.423 54.888L203.665 55.486C200.905 65.583 193.959 71.31 185.955 73.932C185.771 73.472 185.196 72.667 184.805 72.299C192.671 69.907 199.341 64.617 201.779 55.348V54.98ZM217.718 61.213H227.792V62.731H217.718V61.213ZM217.672 65.767H228.045V67.331H217.672V65.767ZM221.789 52.68H223.445V73.84H221.789V52.68ZM216.844 56.682H228.597V68.205H226.964V58.246H218.454V68.32H216.844V56.682ZM208.265 57.004H215.211V58.591H208.265V57.004ZM211.416 52.703H213.095V57.786H211.416V52.703ZM213.279 62.225C213.9 62.685 216.016 64.64 216.522 65.146L215.51 66.549C214.843 65.698 213.026 63.812 212.29 63.099L213.279 62.225ZM214.59 57.004H214.958L215.257 56.935L216.223 57.556C214.636 61.742 211.37 65.606 208.311 67.745C208.15 67.308 207.713 66.503 207.414 66.204C210.289 64.341 213.302 60.845 214.59 57.372V57.004ZM211.416 63.927L213.095 61.857V73.817H211.416V63.927ZM232.277 54.083H248.285V55.693H232.277V54.083ZM247.572 54.083H247.94L248.262 53.968L249.481 54.727C246.307 61.052 239.085 64.088 231.656 65.422C231.518 64.939 231.15 64.226 230.851 63.812C237.889 62.731 244.904 59.856 247.572 54.359V54.083ZM236.187 55.555C239.016 59.856 244.927 62.593 252.103 63.49C251.712 63.881 251.252 64.617 250.999 65.1C243.8 64.019 237.889 61.121 234.646 56.268L236.187 55.555ZM231.334 71.402H251.689V73.035H231.334V71.402ZM240.58 63.582H242.351V72.345H240.58V63.582ZM234.094 66.227H248.86V67.86H234.094V66.227ZM256.013 56.383H263.005V71.425H256.013V69.861H261.395V57.924H256.013V56.383ZM254.978 56.383H256.588V73.265H254.978V56.383ZM255.898 62.777H262.246V64.318H255.898V62.777ZM258.497 52.634L260.36 52.979C259.9 54.405 259.325 55.992 258.865 57.027L257.485 56.682C257.876 55.578 258.313 53.83 258.497 52.634ZM266.271 56.314H273.332V57.924H266.271V56.314ZM272.734 56.314H274.344C274.344 56.314 274.344 56.958 274.344 57.211C273.976 67.768 273.654 71.333 272.734 72.46C272.228 73.127 271.699 73.334 270.894 73.403C270.112 73.495 268.755 73.449 267.467 73.38C267.421 72.874 267.214 72.161 266.892 71.701C268.387 71.816 269.767 71.839 270.296 71.839C270.756 71.839 271.032 71.77 271.285 71.471C272.044 70.643 272.412 66.825 272.734 56.682V56.314ZM266.754 52.588L268.41 52.979C267.559 56.406 266.202 59.787 264.615 61.972C264.316 61.696 263.603 61.213 263.189 60.983C264.753 58.959 266.018 55.785 266.754 52.588ZM265.696 62.294L267.03 61.512C268.341 63.145 269.928 65.376 270.664 66.733L269.192 67.653C268.502 66.25 266.961 63.973 265.696 62.294ZM283.705 65.905H298.011V67.515H283.705V65.905ZM285.66 59.948H295.136V61.535H285.66V59.948ZM290.145 63.766H291.87V71.816C291.87 72.828 291.663 73.311 290.881 73.587C290.122 73.84 288.857 73.84 286.879 73.84C286.787 73.357 286.557 72.69 286.327 72.207C287.868 72.253 289.225 72.23 289.639 72.23C290.03 72.207 290.145 72.115 290.145 71.793V63.766ZM294.676 59.948H295.09L295.458 59.856L296.562 60.684C295.205 62.271 293.181 63.95 291.41 65.008C291.18 64.709 290.743 64.226 290.444 63.996C291.985 63.076 293.802 61.466 294.676 60.27V59.948ZM277.426 55.693H297.574V57.349H277.426V55.693ZM284.855 52.68L286.649 53.14C285.039 58.43 282.233 63.789 277.633 67.078C277.449 66.641 277.012 65.882 276.713 65.468C280.899 62.547 283.567 57.441 284.855 52.68ZM280.324 62.087H282.049V73.794H280.324V62.087ZM300.426 56.245H320.574V57.924H300.426V56.245ZM307.556 63.536H319.677V65.146H307.556V63.536ZM306.659 71.678H320.574V73.311H306.659V71.678ZM312.754 59.097H314.479V72.552H312.754V59.097ZM307.993 52.68L309.764 53.117C308.154 58.384 305.348 63.743 300.771 67.032C300.587 66.572 300.15 65.836 299.874 65.445C304.014 62.524 306.705 57.418 307.993 52.68ZM303.439 62.156H305.164V73.771H303.439V62.156ZM326.462 66.411C328.394 66.411 329.958 67.975 329.958 69.907C329.958 71.839 328.394 73.403 326.462 73.403C324.53 73.403 322.943 71.839 322.943 69.907C322.943 67.975 324.53 66.411 326.462 66.411ZM326.462 72.23C327.75 72.23 328.785 71.195 328.785 69.907C328.785 68.619 327.75 67.584 326.462 67.584C325.174 67.584 324.116 68.619 324.116 69.907C324.116 71.195 325.174 72.23 326.462 72.23ZM361.491 61.259L362.917 62.616C359.835 64.111 355.327 65.491 351.279 66.503C351.187 66.112 350.911 65.491 350.681 65.123C354.614 64.111 358.984 62.639 361.491 61.259ZM350.175 59.672H351.992V70.068C351.992 71.241 352.36 71.494 354.338 71.494C355.281 71.494 360.088 71.494 361.307 71.494C363.078 71.494 363.354 70.896 363.584 67.86C364.021 68.159 364.78 68.458 365.309 68.573C364.964 72.161 364.32 73.196 361.353 73.196C360.594 73.196 355.051 73.196 354.338 73.196C351.141 73.196 350.175 72.552 350.175 70.068V59.672ZM355.488 52.68H357.351V56.383H355.488V52.68ZM346.955 55.601H365.999V60.845H364.205V57.28H348.68V60.845H346.955V55.601ZM369.587 54.313H389.39V56.061H369.587V54.313ZM380.857 61.006L382.145 59.902C384.836 61.65 388.355 64.249 390.057 66.02L388.654 67.331C387.044 65.56 383.594 62.869 380.857 61.006ZM380.42 54.911L382.306 55.601C379.684 60.362 375.383 64.916 370.185 67.653C369.909 67.216 369.357 66.526 369.012 66.158C374.003 63.651 378.281 59.235 380.42 54.911ZM378.534 59.511L380.397 57.671V73.817H378.534V59.511ZM399.349 55.21H410.895V56.843H399.349V55.21ZM401.764 56.567C403.42 64.111 406.916 69.976 413.31 72.345C412.919 72.667 412.436 73.311 412.183 73.748C405.559 71.08 402.063 65.054 400.2 56.912L401.764 56.567ZM410.251 55.21H410.55L410.849 55.141L411.953 55.509C410.274 65.537 405.191 71.195 398.889 73.817C398.659 73.403 398.199 72.736 397.854 72.414C403.765 70.206 408.71 64.571 410.251 55.578V55.21ZM395.255 58.959L396.934 57.257L396.957 57.28V73.794H395.255V58.959ZM397.762 52.841L399.464 53.37C397.831 57.372 395.301 61.374 392.633 63.95C392.426 63.536 391.897 62.662 391.552 62.248C394.036 59.971 396.359 56.452 397.762 52.841ZM422.556 56.107H435.804V57.717H422.556V56.107ZM423.177 59.948H434.447V61.489H424.787V73.817H423.177V59.948ZM433.688 59.948H435.298V72.092C435.298 72.92 435.114 73.357 434.539 73.587C433.987 73.84 433.021 73.84 431.572 73.84C431.526 73.426 431.342 72.828 431.135 72.437C432.147 72.483 433.044 72.46 433.32 72.437C433.596 72.437 433.688 72.345 433.688 72.069V59.948ZM428.26 52.68H429.893V73.633H428.26V52.68ZM423.752 63.789H434.677V65.261H423.752V63.789ZM423.752 67.63H434.677V69.102H423.752V67.63ZM430.836 54.014L431.664 52.933C432.883 53.531 434.539 54.428 435.39 54.98L434.539 56.199C433.711 55.624 432.078 54.658 430.836 54.014ZM414.644 64.916C416.622 64.41 419.566 63.536 422.418 62.708L422.625 64.249C419.957 65.1 417.174 65.974 415.012 66.618L414.644 64.916ZM414.943 57.326H422.395V58.936H414.943V57.326ZM418.14 52.703H419.819V71.862C419.819 72.805 419.589 73.288 418.991 73.541C418.393 73.817 417.473 73.863 415.932 73.84C415.886 73.426 415.633 72.736 415.426 72.276C416.461 72.299 417.427 72.299 417.703 72.299C418.025 72.299 418.14 72.184 418.14 71.862V52.703ZM437.644 64.962C439.484 64.456 442.267 63.605 444.981 62.754L445.211 64.341C442.727 65.146 440.105 65.997 438.081 66.641L437.644 64.962ZM437.92 57.326H445.142V58.936H437.92V57.326ZM440.772 52.703H442.405V71.77C442.405 72.713 442.198 73.196 441.646 73.472C441.094 73.748 440.197 73.817 438.725 73.794C438.679 73.38 438.472 72.644 438.242 72.161C439.231 72.207 440.105 72.207 440.381 72.184C440.657 72.184 440.772 72.092 440.772 71.77V52.703ZM451.835 64.916H458.298V66.457H451.835V64.916ZM447.879 66.549C449.052 71.241 451.72 71.977 455.078 71.977C455.653 71.977 458.528 71.977 459.333 71.931C459.103 72.322 458.873 73.012 458.804 73.426H454.986C451.007 73.426 448.201 72.46 446.798 66.917L447.879 66.549ZM451.214 60.454H452.87V72.966L451.214 72.46V60.454ZM447.005 63.858L448.615 63.95C448.27 68.412 447.212 71.701 444.843 73.84C444.59 73.564 443.946 72.989 443.555 72.736C445.832 70.873 446.706 67.814 447.005 63.858ZM448.27 55.302V59.833H455.814V55.302H448.27ZM446.637 53.807H457.493V61.328H446.637V53.807ZM470.626 60.523H472.42V71.632C472.42 72.782 472.121 73.311 471.224 73.564C470.327 73.84 468.786 73.863 466.463 73.863C466.348 73.357 466.026 72.621 465.75 72.115C467.659 72.184 469.43 72.184 469.959 72.161C470.465 72.138 470.626 72 470.626 71.586V60.523ZM462.254 54.497H478.86V56.176H462.254V54.497ZM478.239 54.497H478.699L479.113 54.382L480.447 55.348C478.4 57.786 475.157 60.5 472.305 62.11C472.052 61.742 471.5 61.167 471.132 60.914C473.754 59.465 476.79 56.82 478.239 54.911V54.497ZM489.877 58.89L491.579 59.419C489.969 62.616 487.485 65.675 485.047 67.653C484.748 67.354 484.035 66.733 483.621 66.457C486.105 64.663 488.451 61.834 489.877 58.89ZM494.753 59.097H496.455V70.735C496.455 71.701 496.685 71.885 497.858 71.885C498.433 71.885 501.285 71.885 502.021 71.885C503.125 71.885 503.309 71.287 503.447 68.32C503.838 68.619 504.551 68.918 505.011 69.033C504.781 72.506 504.275 73.518 502.113 73.518C501.607 73.518 498.226 73.518 497.72 73.518C495.397 73.518 494.753 72.92 494.753 70.712V59.097ZM502.734 61.098L504.068 62.409C501.906 63.835 498.755 65.238 495.972 66.365C495.88 65.997 495.581 65.422 495.351 65.077C498.019 63.973 501.009 62.432 502.734 61.098ZM484.357 54.796H504.597V56.452H484.357V54.796ZM489.9 52.68H491.602V58.89H489.9V52.68ZM497.444 52.68H499.146V59.028H497.444V52.68ZM487.968 63.26L489.647 61.558V61.581V73.84H487.968V63.26ZM512.923 53.577H521.571V55.164H512.923V53.577ZM512.049 53.577H513.774V56.682C513.774 59.143 512.808 61.857 508.3 63.467C508.116 63.076 507.587 62.317 507.288 62.041C511.405 60.638 512.049 58.591 512.049 56.636V53.577ZM520.72 53.577H522.445V59.419C522.445 60.04 522.537 60.132 523.227 60.132C523.526 60.132 524.998 60.132 525.389 60.132C526.056 60.132 526.171 59.718 526.24 56.935C526.608 57.234 527.321 57.51 527.781 57.648C527.643 60.914 527.183 61.719 525.573 61.719C525.182 61.719 523.365 61.719 522.997 61.719C521.226 61.719 520.72 61.213 520.72 59.442V53.577ZM507.242 64.778H527.758V66.319H507.242V64.778ZM516.58 61.926H518.305V73.84H516.58V61.926ZM515.798 65.491L517.109 66.066C515.039 69.079 511.359 71.747 508.001 73.104C507.748 72.667 507.242 72.046 506.851 71.701C510.209 70.574 513.889 68.113 515.798 65.491ZM519.087 65.491C520.973 68.09 524.676 70.459 528.149 71.54C527.758 71.885 527.252 72.529 526.976 72.966C523.526 71.678 519.823 69.033 517.776 66.066L519.087 65.491ZM532.335 58.453H539.097V60.017H532.335V58.453ZM531.507 53.922H533.14V71.103L531.507 71.448V53.922ZM529.897 70.919C532.013 70.39 535.371 69.447 538.614 68.527L538.821 70.16C535.9 71.057 532.749 72 530.472 72.667L529.897 70.919ZM535.716 66.227L537.096 65.537C538.66 67.515 540.293 70.16 540.937 71.885L539.419 72.69C538.821 70.942 537.211 68.228 535.716 66.227ZM532.289 53.922H540.063V64.456H532.289V62.846H538.453V55.532H532.289V53.922ZM548.412 53.945H550.183V67.975C550.183 68.964 549.999 69.562 549.286 69.884C548.619 70.229 547.515 70.252 545.905 70.252C545.859 69.723 545.583 68.872 545.284 68.366C546.526 68.412 547.63 68.389 547.998 68.389C548.32 68.389 548.412 68.274 548.412 67.952V53.945ZM541.811 53.945H549.378V55.67H543.559V73.863H541.811V53.945ZM566.26 55.233H567.916V68.067H566.26V55.233ZM571.32 53.163H573.022V71.632C573.022 72.759 572.723 73.265 572.033 73.541C571.343 73.863 570.193 73.886 568.261 73.886C568.169 73.426 567.916 72.667 567.663 72.161C569.089 72.207 570.4 72.184 570.791 72.184C571.182 72.161 571.32 72.046 571.32 71.655V53.163ZM553.173 55.67H565.156V57.234H553.173V55.67ZM558.348 52.841H560.027V56.636H558.348V52.841ZM553.127 61.052L554.116 59.925C555.726 60.937 557.75 62.478 558.716 63.536L557.681 64.824C556.761 63.72 554.76 62.133 553.127 61.052ZM559.406 69.148L560.694 68.09C562.281 69.401 564.351 71.218 565.34 72.414L564.006 73.633C563.063 72.437 561.039 70.505 559.406 69.148ZM558.003 56.544L559.636 57.303C558.486 58.89 557.037 60.73 555.864 61.926L554.576 61.259C555.703 59.994 557.175 57.993 558.003 56.544ZM561.683 59.005L563.224 59.626C561.154 63.122 557.75 66.388 554.231 68.343C553.978 67.952 553.495 67.446 553.081 67.101C556.462 65.353 559.866 62.225 561.683 59.005ZM563.408 63.352L564.926 64.042C562.465 68.136 558.371 71.747 553.886 73.863C553.61 73.426 553.127 72.851 552.69 72.483C557.06 70.597 561.154 67.17 563.408 63.352ZM578.013 56.383H585.005V71.425H578.013V69.861H583.395V57.924H578.013V56.383ZM576.978 56.383H578.588V73.265H576.978V56.383ZM577.898 62.777H584.246V64.318H577.898V62.777ZM580.497 52.634L582.36 52.979C581.9 54.405 581.325 55.992 580.865 57.027L579.485 56.682C579.876 55.578 580.313 53.83 580.497 52.634ZM588.271 56.314H595.332V57.924H588.271V56.314ZM594.734 56.314H596.344C596.344 56.314 596.344 56.958 596.344 57.211C595.976 67.768 595.654 71.333 594.734 72.46C594.228 73.127 593.699 73.334 592.894 73.403C592.112 73.495 590.755 73.449 589.467 73.38C589.421 72.874 589.214 72.161 588.892 71.701C590.387 71.816 591.767 71.839 592.296 71.839C592.756 71.839 593.032 71.77 593.285 71.471C594.044 70.643 594.412 66.825 594.734 56.682V56.314ZM588.754 52.588L590.41 52.979C589.559 56.406 588.202 59.787 586.615 61.972C586.316 61.696 585.603 61.213 585.189 60.983C586.753 58.959 588.018 55.785 588.754 52.588ZM587.696 62.294L589.03 61.512C590.341 63.145 591.928 65.376 592.664 66.733L591.192 67.653C590.502 66.25 588.961 63.973 587.696 62.294ZM606.165 59.465H619.873V61.19H606.165V59.465ZM613.295 60.224C614.33 65.675 616.538 70.298 620.356 72.368C619.942 72.713 619.367 73.357 619.091 73.817C615.158 71.356 612.996 66.549 611.846 60.546L613.295 60.224ZM615.02 54.221L616.331 53.462C617.366 54.704 618.585 56.383 619.16 57.441L617.757 58.315C617.228 57.234 616.055 55.486 615.02 54.221ZM611.547 52.726H613.249V58.085C613.249 63.053 612.536 69.171 606.901 73.794C606.579 73.449 605.981 73.012 605.521 72.713C610.972 68.251 611.547 62.478 611.547 58.085V52.726ZM603.681 52.657H605.383V73.794H603.681V52.657ZM599.104 56.521L600.438 55.693C601.542 56.981 602.853 58.752 603.451 59.879L602.025 60.822C601.473 59.672 600.208 57.855 599.104 56.521ZM598.736 67.561C600.047 66.503 602.071 64.709 603.957 62.961L604.67 64.341C603.037 65.974 601.22 67.699 599.725 69.01L598.736 67.561ZM1.288 107.923H21.781V109.533H1.288V107.923ZM10.695 104.611H12.512C11.891 110.338 10.534 115.513 2.001 117.813C1.817 117.422 1.38 116.732 1.035 116.364C9.177 114.34 10.189 109.648 10.695 104.611ZM12.765 108.107C14.191 112.201 17.319 115.053 22.034 116.134C21.62 116.502 21.114 117.238 20.861 117.698C15.939 116.364 12.811 113.213 11.178 108.475L12.765 108.107ZM8.763 114.593L10.212 113.673C11.546 114.409 13.179 115.582 14.007 116.433L12.466 117.445C11.73 116.594 10.097 115.375 8.763 114.593ZM6.187 118.48H7.889V122.965C7.889 123.655 8.165 123.77 9.66 123.77C10.35 123.77 13.892 123.77 14.835 123.77C16.031 123.77 16.215 123.425 16.353 121.079C16.744 121.355 17.457 121.608 17.94 121.723C17.71 124.621 17.135 125.334 14.95 125.334C14.352 125.334 10.12 125.334 9.568 125.334C6.9 125.334 6.187 124.851 6.187 122.965V118.48ZM9.407 117.905L10.741 117.123C12.075 118.273 13.708 119.929 14.49 121.01L13.064 121.93C12.328 120.849 10.741 119.124 9.407 117.905ZM17.227 118.618L18.768 118.112C19.941 120.021 21.183 122.597 21.62 124.23L19.964 124.805C19.55 123.195 18.4 120.55 17.227 118.618ZM3.542 118.48L5.06 118.986C4.577 120.872 3.818 123.356 2.783 124.943L1.242 124.138C2.277 122.643 3.082 120.32 3.542 118.48ZM26.611 126.461L26.082 125.265C27.968 124.483 29.003 123.31 29.003 121.585L28.566 119.63L29.808 121.378C29.486 121.792 29.026 121.907 28.589 121.907C27.646 121.907 26.864 121.355 26.864 120.251C26.864 119.17 27.692 118.595 28.612 118.595C29.9 118.595 30.59 119.653 30.59 121.263C30.59 123.747 29.026 125.633 26.611 126.461ZM47.472 105.922H67.505V107.486H47.472V105.922ZM56.741 106.589H58.535V115.513C58.535 119.952 57.316 123.908 48.093 125.863C47.909 125.495 47.426 124.759 47.058 124.345C56.028 122.689 56.741 119.308 56.741 115.49V106.589ZM51.221 114.547V116.893H64.331V114.547H51.221ZM51.221 110.867V113.167H64.331V110.867H51.221ZM49.588 109.418H66.079V118.342H49.588V109.418ZM51.796 118.526C54.717 123.08 59.961 123.862 68.264 124.069C67.965 124.483 67.62 125.219 67.528 125.771C59.064 125.426 53.406 124.345 50.324 119.124L51.796 118.526ZM76.843 115.651H91.057V117.261H76.843V115.651ZM86.204 113.811H87.906V123.747C87.906 124.759 87.699 125.265 86.963 125.541C86.227 125.817 85.008 125.84 83.191 125.84C83.122 125.357 82.869 124.644 82.616 124.138C84.042 124.184 85.33 124.184 85.744 124.161C86.112 124.138 86.204 124.069 86.204 123.724V113.811ZM88.527 104.68L89.723 106.014C86.434 107.003 81.397 107.785 77.119 108.222C77.05 107.831 76.843 107.21 76.636 106.842C80.845 106.359 85.744 105.554 88.527 104.68ZM77.464 109.418L78.913 108.935C79.649 110.246 80.385 111.994 80.615 113.121L79.074 113.673C78.844 112.569 78.177 110.752 77.464 109.418ZM81.972 108.521L83.513 108.153C84.065 109.51 84.548 111.212 84.64 112.293L83.007 112.73C82.938 111.626 82.501 109.878 81.972 108.521ZM78.683 118.963L80.109 118.204C81.305 119.377 82.616 121.079 83.191 122.229L81.696 123.103C81.19 121.93 79.879 120.182 78.683 118.963ZM74.221 104.703H75.877V125.84H74.221V104.703ZM69.575 119.745C70.863 119.078 72.795 117.928 74.681 116.778L75.233 118.227C73.6 119.377 71.898 120.55 70.449 121.516L69.575 119.745ZM69.828 108.291L71.231 107.624C72.335 109.073 73.462 111.028 73.899 112.293L72.404 113.098C71.99 111.787 70.886 109.786 69.828 108.291ZM89.079 107.877L90.643 108.659C89.401 110.591 87.722 112.799 86.411 114.294L85.077 113.535C86.365 112.04 88.113 109.671 89.079 107.877ZM112.01 105.14L113.091 106.52C109.917 107.279 105.018 107.762 100.947 107.923C100.901 107.532 100.694 106.934 100.51 106.566C104.512 106.313 109.319 105.83 112.01 105.14ZM104.604 112.96L105.984 114.179C104.673 114.8 102.971 115.352 101.545 115.72C101.453 115.398 101.2 114.846 101.016 114.501C102.281 114.087 103.776 113.489 104.604 112.96ZM100.142 109.878H113.873V111.442H100.142V109.878ZM106.122 106.658H107.755V123.931H106.122V106.658ZM100.625 113.811L102.235 114.317V125.817H100.625V113.811ZM108.675 113.811H113.298V125.725H111.688V115.306H108.675V113.811ZM101.66 118.135H105.179V119.63H101.66V118.135ZM108.79 118.135H112.654V119.63H108.79V118.135ZM101.499 123.057H112.493V124.575H101.499V123.057ZM92.621 116.617C94.415 116.111 97.106 115.283 99.728 114.432L99.958 116.019C97.566 116.847 95.036 117.675 93.081 118.296L92.621 116.617ZM92.943 109.326H99.935V110.936H92.943V109.326ZM95.841 104.703H97.451V123.839C97.451 124.805 97.221 125.265 96.646 125.541C96.117 125.817 95.22 125.863 93.771 125.863C93.702 125.449 93.495 124.736 93.265 124.253C94.277 124.276 95.151 124.276 95.427 124.253C95.703 124.253 95.841 124.184 95.841 123.839V104.703ZM121.877 110.89L123.579 111.419C121.969 114.616 119.485 117.675 117.047 119.653C116.748 119.354 116.035 118.733 115.621 118.457C118.105 116.663 120.451 113.834 121.877 110.89ZM126.753 111.097H128.455V122.735C128.455 123.701 128.685 123.885 129.858 123.885C130.433 123.885 133.285 123.885 134.021 123.885C135.125 123.885 135.309 123.287 135.447 120.32C135.838 120.619 136.551 120.918 137.011 121.033C136.781 124.506 136.275 125.518 134.113 125.518C133.607 125.518 130.226 125.518 129.72 125.518C127.397 125.518 126.753 124.92 126.753 122.712V111.097ZM134.734 113.098L136.068 114.409C133.906 115.835 130.755 117.238 127.972 118.365C127.88 117.997 127.581 117.422 127.351 117.077C130.019 115.973 133.009 114.432 134.734 113.098ZM116.357 106.796H136.597V108.452H116.357V106.796ZM121.9 104.68H123.602V110.89H121.9V104.68ZM129.444 104.68H131.146V111.028H129.444V104.68ZM119.968 115.26L121.647 113.558V113.581V125.84H119.968V115.26ZM148.304 105.393H150.213C150.029 109.004 149.684 120.481 140.162 125.656C139.863 125.219 139.288 124.69 138.759 124.299C148.143 119.515 148.143 108.452 148.304 105.393ZM150.144 105.853C150.213 107.647 150.88 119.86 160.356 124.207C159.85 124.598 159.321 125.173 159.045 125.656C149.293 120.987 148.649 108.13 148.488 106.014L150.144 105.853ZM170.821 117.859H179.975V119.193H170.821V117.859ZM168.682 106.497H182.344V107.808H168.682V106.497ZM169.234 109.28H181.769V110.545H169.234V109.28ZM167.969 112.155H183.011V113.466H167.969V112.155ZM170.821 120.941H180.044V122.229H170.821V120.941ZM169.648 114.823H179.975V116.157H171.258V125.817H169.648V114.823ZM179.561 114.823H181.217V123.908C181.217 124.782 181.033 125.242 180.389 125.495C179.745 125.748 178.71 125.771 177.077 125.748C177.008 125.334 176.778 124.69 176.571 124.253C177.721 124.299 178.825 124.299 179.147 124.276C179.469 124.276 179.561 124.184 179.561 123.885V114.823ZM174.57 104.68H176.272V112.569H174.57V104.68ZM164.473 104.68H166.06V125.817H164.473V104.68ZM162.656 109.119L163.944 109.303C163.875 111.097 163.484 113.765 162.955 115.49L161.621 115.053C162.15 113.466 162.518 110.936 162.656 109.119ZM166.267 108.521L167.417 108.061C167.923 109.119 168.475 110.476 168.682 111.327L167.486 111.902C167.256 111.028 166.727 109.602 166.267 108.521ZM199.617 105.554L200.514 104.542C201.664 104.91 203.09 105.554 203.826 106.129L202.883 107.279C202.193 106.681 200.79 105.968 199.617 105.554ZM187.726 107.026H205.643V108.452H187.726V107.026ZM189.359 110.016H196.42V111.235H189.359V110.016ZM189.727 112.799H191.176V116.985H189.727V112.799ZM201.94 109.556L203.55 109.947C202.262 113.765 199.939 116.87 197.133 118.871C196.88 118.549 196.236 117.974 195.891 117.675C198.674 115.881 200.836 113.006 201.94 109.556ZM196.512 104.68H198.168C198.421 111.764 201.549 117.514 203.895 117.491C204.47 117.491 204.7 116.663 204.815 114.57C205.16 114.892 205.735 115.191 206.172 115.352C205.896 118.273 205.275 119.078 203.803 119.078C200.169 119.078 196.88 112.408 196.512 104.68ZM189.727 112.799H196.052V117.629H189.727V116.387H194.58V114.018H189.727V112.799ZM190.877 119.745H192.579V123.31C192.579 123.885 192.809 124 194.028 124C194.603 124 197.478 124 198.237 124C199.249 124 199.41 123.724 199.502 121.585C199.87 121.861 200.583 122.091 201.066 122.206C200.836 124.92 200.33 125.564 198.375 125.564C197.846 125.564 194.419 125.564 193.913 125.564C191.475 125.564 190.877 125.104 190.877 123.333V119.745ZM192.671 118.986L193.775 118.02C195.224 118.687 196.926 119.791 197.731 120.688L196.558 121.792C195.776 120.895 194.097 119.722 192.671 118.986ZM200.606 120.435L202.009 119.653C203.665 120.941 205.39 122.85 206.103 124.276L204.562 125.127C203.918 123.724 202.262 121.769 200.606 120.435ZM187.956 119.883L189.474 120.412C188.899 122.275 187.956 124.207 186.323 125.38L184.897 124.414C186.438 123.356 187.45 121.608 187.956 119.883ZM186.921 107.026H188.531V110.499C188.531 113.167 188.117 116.939 186.001 119.538C185.771 119.216 185.081 118.641 184.736 118.457C186.668 116.065 186.921 112.822 186.921 110.476V107.026ZM213.302 110.522V112.707H223.836V110.522H213.302ZM213.302 114.018V116.226H223.836V114.018H213.302ZM213.302 107.026V109.211H223.836V107.026H213.302ZM211.6 105.646H225.607V117.606H211.6V105.646ZM208.288 119.193H228.712V120.803H208.288V119.193ZM220.409 122.689L221.651 121.539C224.296 122.482 227.194 123.724 228.965 124.667L227.309 125.84C225.699 124.897 223.008 123.655 220.409 122.689ZM215.073 121.424L216.637 122.528C214.682 123.77 211.715 125.058 209.369 125.84C209.093 125.472 208.564 124.874 208.173 124.506C210.542 123.793 213.532 122.505 215.073 121.424ZM237.544 116.295L238.671 115.421C244.168 118.549 244.674 123.724 242.305 125.265C241.546 125.748 240.948 125.909 240.005 125.909C239.499 125.909 238.809 125.886 238.119 125.863C238.096 125.426 237.935 124.759 237.636 124.299C238.418 124.391 239.2 124.391 239.706 124.391C240.258 124.391 240.764 124.345 241.201 124.023C242.765 122.988 242.259 119.078 237.544 116.295ZM239.913 117.054L241.132 117.698C239.108 119.331 235.451 120.895 232.599 121.608C232.369 121.24 231.932 120.688 231.633 120.389C234.462 119.791 238.073 118.457 239.913 117.054ZM241.454 119.147L242.696 119.837C240.235 122.183 235.796 124.345 232.254 125.38C232.024 125.012 231.564 124.414 231.219 124.069C234.83 123.195 239.2 121.217 241.454 119.147ZM237.015 106.221H243.8V107.601H237.015V106.221ZM241.247 113.604L242.581 114.248C240.051 116.042 235.865 117.491 232.438 118.342C232.254 118.043 231.794 117.376 231.518 117.077C234.945 116.387 238.97 115.122 241.247 113.604ZM243.225 113.903C244.582 118.595 247.526 122.252 252.034 123.724C251.666 124.046 251.16 124.69 250.93 125.15C246.238 123.379 243.294 119.515 241.799 114.248L243.225 113.903ZM249.895 114.892L251.298 115.927C249.527 117.169 247.135 118.618 245.318 119.469L244.237 118.572C246.008 117.675 248.492 116.088 249.895 114.892ZM235.29 110.66V113.305H247.871V110.66H235.29ZM233.657 109.326H249.55V114.639H233.657V109.326ZM237.636 104.611L239.43 104.979C237.82 107.279 235.497 109.694 232.323 111.626C232.07 111.235 231.518 110.683 231.15 110.43C234.163 108.774 236.417 106.497 237.636 104.611ZM240.58 109.97H242.282V114.064H240.58V109.97ZM243.156 106.221H243.524L243.8 106.152L244.973 106.911C244.237 108.199 243.018 109.671 242.006 110.568C241.684 110.338 241.132 109.97 240.741 109.763C241.684 108.935 242.696 107.509 243.156 106.566V106.221ZM264.178 105.255H265.926V122.321C265.926 123.609 266.156 123.885 267.444 123.885C268.065 123.885 271.193 123.885 271.975 123.885C273.24 123.885 273.424 123.034 273.585 119.676C274.022 119.998 274.735 120.32 275.241 120.435C274.965 124.207 274.459 125.518 272.067 125.518C271.469 125.518 267.858 125.518 267.329 125.518C264.914 125.518 264.178 124.828 264.178 122.298V105.255ZM272.803 109.073L274.068 110.545C271.745 112.454 268.364 114.317 265.328 115.904C265.213 115.513 264.868 114.915 264.615 114.547C267.559 113.006 270.848 110.867 272.803 109.073ZM260.176 105.048L261.855 105.6C260.13 109.648 257.37 113.581 254.518 116.134C254.334 115.72 253.805 114.823 253.46 114.409C256.128 112.178 258.658 108.682 260.176 105.048ZM257.554 111.051L259.233 109.372L259.256 109.395V125.817H257.554V111.051ZM279.611 126.461L279.082 125.265C280.968 124.483 282.003 123.31 282.003 121.585L281.566 119.63L282.808 121.378C282.486 121.792 282.026 121.907 281.589 121.907C280.646 121.907 279.864 121.355 279.864 120.251C279.864 119.17 280.692 118.595 281.612 118.595C282.9 118.595 283.59 119.653 283.59 121.263C283.59 123.747 282.026 125.633 279.611 126.461ZM304.934 113.765V121.907H303.301V115.375H299.943V113.765H304.934ZM304.934 121.217C306.061 122.919 308.039 123.701 310.753 123.793C313.283 123.908 318.596 123.839 321.356 123.655C321.149 124.046 320.896 124.851 320.804 125.357C318.251 125.472 313.329 125.518 310.753 125.403C307.74 125.288 305.647 124.483 304.221 122.666C303.048 123.655 301.806 124.667 300.495 125.656L299.644 123.954C300.794 123.241 302.22 122.206 303.439 121.217H304.934ZM300.334 106.29L301.53 105.209C303.002 106.244 304.727 107.808 305.486 108.935L304.175 110.131C303.462 109.004 301.783 107.371 300.334 106.29ZM309.534 108.544L310.638 107.578C312.8 108.337 315.698 109.602 317.239 110.522L316.066 111.603C314.617 110.706 311.765 109.395 309.534 108.544ZM307.349 110.476H319.24V111.81H308.982V122.39H307.349V110.476ZM318.412 110.476H320.068V120.665C320.068 121.516 319.907 121.907 319.286 122.16C318.688 122.436 317.722 122.436 316.181 122.436C316.112 121.999 315.905 121.401 315.698 121.01C316.779 121.056 317.745 121.033 318.044 121.033C318.343 121.033 318.412 120.941 318.412 120.642V110.476ZM307.349 105.646H318.826V107.026H307.349V105.646ZM308.246 113.834H319.079V115.122H308.246V113.834ZM308.246 117.215H319.079V118.549H308.246V117.215ZM312.846 111.028H314.41V122.298H312.846V111.028ZM318.251 105.646H318.642L319.01 105.554L320.068 106.382C318.527 107.831 316.204 109.257 314.111 110.131C313.881 109.832 313.444 109.372 313.191 109.119C315.077 108.383 317.216 107.049 318.251 105.968V105.646ZM323.794 106.198L325.128 105.324C326.416 106.474 327.934 108.084 328.647 109.142L327.221 110.177C326.554 109.073 325.082 107.394 323.794 106.198ZM328.003 113.305V121.677H326.324V114.938H323.127V113.305H328.003ZM327.129 120.78C327.911 120.78 328.44 121.47 329.728 122.252C331.223 123.195 333.178 123.356 335.754 123.356C338.468 123.356 341.941 123.172 344.172 122.919C343.942 123.402 343.666 124.276 343.643 124.805C342.01 124.897 337.916 125.012 335.731 125.012C332.856 125.012 330.924 124.782 329.337 123.77C328.348 123.149 327.612 122.39 327.106 122.39C326.324 122.39 325.22 123.747 324.047 125.311L322.828 123.701C324.415 121.976 325.979 120.78 327.129 120.78ZM329.636 108.843H343.482V110.476H329.636V108.843ZM338.537 104.772H340.308V119.607C340.308 120.78 339.986 121.286 339.158 121.562C338.376 121.838 336.973 121.884 334.788 121.884C334.719 121.378 334.42 120.619 334.167 120.113C335.869 120.159 337.456 120.159 337.916 120.159C338.376 120.113 338.537 119.998 338.537 119.584V104.772ZM330.74 113.029L332.12 112.293C333.293 113.696 334.742 115.605 335.409 116.801L333.96 117.698C333.339 116.479 331.913 114.478 330.74 113.029ZM351.877 110.89L353.579 111.419C351.969 114.616 349.485 117.675 347.047 119.653C346.748 119.354 346.035 118.733 345.621 118.457C348.105 116.663 350.451 113.834 351.877 110.89ZM356.753 111.097H358.455V122.735C358.455 123.701 358.685 123.885 359.858 123.885C360.433 123.885 363.285 123.885 364.021 123.885C365.125 123.885 365.309 123.287 365.447 120.32C365.838 120.619 366.551 120.918 367.011 121.033C366.781 124.506 366.275 125.518 364.113 125.518C363.607 125.518 360.226 125.518 359.72 125.518C357.397 125.518 356.753 124.92 356.753 122.712V111.097ZM364.734 113.098L366.068 114.409C363.906 115.835 360.755 117.238 357.972 118.365C357.88 117.997 357.581 117.422 357.351 117.077C360.019 115.973 363.009 114.432 364.734 113.098ZM346.357 106.796H366.597V108.452H346.357V106.796ZM351.9 104.68H353.602V110.89H351.9V104.68ZM359.444 104.68H361.146V111.028H359.444V104.68ZM349.968 115.26L351.647 113.558V113.581V125.84H349.968V115.26ZM371.519 112.615H384.721V114.225H371.519V112.615ZM384.445 112.615H384.721L385.089 112.546L386.308 113.443C386.239 113.512 386.078 113.627 385.917 113.696C374.44 120.435 373.635 121.677 373.635 122.528C373.635 123.241 374.509 123.563 375.889 123.563H385.986C387.251 123.563 387.642 123.103 387.757 120.136C388.217 120.412 388.861 120.596 389.39 120.711C389.114 124.529 388.309 125.242 385.848 125.242H376.05C373.198 125.242 371.887 124.253 371.887 122.666C371.887 121.24 372.37 119.722 384.445 112.615ZM369.288 107.164H389.413V108.843H369.288V107.164ZM374.601 104.68H376.372V110.936H374.601V104.68ZM382.559 104.68H384.307V110.936H382.559V104.68ZM394.611 126.461L394.082 125.265C395.968 124.483 397.003 123.31 397.003 121.585L396.566 119.63L397.808 121.378C397.486 121.792 397.026 121.907 396.589 121.907C395.646 121.907 394.864 121.355 394.864 120.251C394.864 119.17 395.692 118.595 396.612 118.595C397.9 118.595 398.59 119.653 398.59 121.263C398.59 123.747 397.026 125.633 394.611 126.461ZM430.169 106.198L431.48 105.301C432.837 106.451 434.447 108.084 435.206 109.142L433.78 110.154C433.09 109.05 431.526 107.394 430.169 106.198ZM415.265 111.488H435.758V113.144H415.265V111.488ZM414.92 118.25C417.657 117.744 421.981 116.824 426.029 115.95L426.167 117.514C422.395 118.388 418.324 119.331 415.426 119.975L414.92 118.25ZM420.21 107.026H421.935V123.632C421.935 124.759 421.659 125.265 420.923 125.541C420.187 125.817 418.968 125.886 417.059 125.863C416.967 125.403 416.668 124.621 416.415 124.115C417.887 124.184 419.244 124.161 419.658 124.138C420.072 124.138 420.21 124.023 420.21 123.609V107.026ZM424.58 104.956L425.799 106.405C423.131 107.325 419.221 108.038 415.932 108.498C415.84 108.107 415.633 107.463 415.403 107.072C418.646 106.566 422.372 105.784 424.58 104.956ZM426.88 104.887H428.674C428.628 115.444 430.882 124.184 433.688 124.184C434.309 124.184 434.585 122.988 434.723 120.021C435.091 120.412 435.712 120.803 436.195 120.987C435.873 124.805 435.252 125.932 433.527 125.932C429.019 125.932 426.972 115.835 426.88 104.887ZM433.113 114.202L434.654 114.846C432.4 119.055 428.605 122.758 424.373 124.989C424.097 124.552 423.614 124 423.177 123.609C427.271 121.631 431.066 118.089 433.113 114.202ZM450.225 105.531H457.148V107.118H450.225V105.531ZM456.481 105.531H458.206V123.678C458.206 124.713 457.953 125.219 457.24 125.495C456.55 125.771 455.377 125.794 453.56 125.794C453.491 125.357 453.238 124.598 453.008 124.138C454.319 124.207 455.584 124.184 455.975 124.161C456.343 124.138 456.481 124.023 456.481 123.655V105.531ZM445.74 105.439L447.074 104.703C448.086 106.083 449.305 107.969 449.834 109.119L448.408 109.947C447.902 108.774 446.752 106.842 445.74 105.439ZM444.774 109.326H446.453V125.84H444.774V109.326ZM442.152 104.818L443.762 105.255C442.612 109.234 440.818 113.282 438.748 115.973C438.587 115.582 438.104 114.662 437.805 114.225C439.622 111.902 441.209 108.36 442.152 104.818ZM440.335 110.614L441.922 109.004L441.991 109.05V125.84H440.335V110.614ZM464.761 104.68L466.555 105.094C465.727 107.003 464.646 109.234 463.726 110.683L462.254 110.246C463.128 108.774 464.209 106.359 464.761 104.68ZM460.897 109.556C463.312 109.487 466.969 109.326 470.58 109.165L470.557 110.706C467.13 110.913 463.565 111.097 461.058 111.235L460.897 109.556ZM462.3 112.891H469.591V114.363H463.91V125.817H462.3V112.891ZM468.809 112.891H470.511V123.862C470.511 124.736 470.327 125.219 469.706 125.495C469.062 125.771 468.05 125.794 466.601 125.794C466.509 125.334 466.256 124.644 466.026 124.207C467.107 124.253 468.096 124.23 468.418 124.207C468.717 124.207 468.809 124.138 468.809 123.839V112.891ZM463.059 116.318H469.706V117.675H463.059V116.318ZM463.059 119.768H469.706V121.148H463.059V119.768ZM472.673 104.726H474.375V112.339C474.375 113.075 474.559 113.236 475.617 113.236C476.1 113.236 478.607 113.236 479.274 113.236C480.171 113.236 480.332 112.845 480.424 110.568C480.792 110.867 481.482 111.12 481.988 111.235C481.781 114.041 481.275 114.8 479.412 114.8C478.929 114.8 475.916 114.8 475.456 114.8C473.248 114.8 472.673 114.271 472.673 112.362V104.726ZM479.711 106.428L480.861 107.693C478.906 108.613 476.146 109.51 473.777 110.177C473.685 109.809 473.455 109.303 473.248 108.958C475.525 108.245 478.147 107.233 479.711 106.428ZM472.673 115.421H474.375V123.195C474.375 123.977 474.582 124.115 475.686 124.115C476.169 124.115 478.768 124.115 479.458 124.115C480.447 124.115 480.585 123.678 480.7 121.079C481.091 121.355 481.781 121.631 482.264 121.723C482.034 124.828 481.528 125.656 479.596 125.656C479.09 125.656 475.985 125.656 475.502 125.656C473.271 125.656 472.673 125.127 472.673 123.218V115.421ZM479.987 116.686L481.137 117.974C479.205 119.078 476.261 120.021 473.777 120.688C473.685 120.343 473.432 119.791 473.248 119.446C475.64 118.756 478.423 117.698 479.987 116.686ZM467.636 106.865L469.062 106.29C470.281 107.9 471.569 110.016 472.098 111.442L470.58 112.109C470.097 110.706 468.855 108.498 467.636 106.865ZM484.426 108.245H504.574V109.924H484.426V108.245ZM491.556 115.536H503.677V117.146H491.556V115.536ZM490.659 123.678H504.574V125.311H490.659V123.678ZM496.754 111.097H498.479V124.552H496.754V111.097ZM491.993 104.68L493.764 105.117C492.154 110.384 489.348 115.743 484.771 119.032C484.587 118.572 484.15 117.836 483.874 117.445C488.014 114.524 490.705 109.418 491.993 104.68ZM487.439 114.156H489.164V125.771H487.439V114.156ZM507.449 107.67H527.597V109.303H507.449V107.67ZM513.061 115.881H523.871V117.376H513.061V115.881ZM511.842 111.971H523.595V113.512H513.544V125.84H511.842V111.971ZM523.204 111.971H524.883V123.701C524.883 124.713 524.676 125.242 523.894 125.518C523.158 125.794 521.87 125.794 519.892 125.794C519.823 125.311 519.57 124.598 519.317 124.115C520.858 124.184 522.261 124.161 522.675 124.161C523.066 124.138 523.204 124.023 523.204 123.678V111.971ZM514.97 104.68L516.718 105.094C515.154 110.154 512.394 115.26 508.001 118.342C507.771 117.951 507.242 117.353 506.897 117.008C511.014 114.179 513.728 109.303 514.97 104.68ZM513.061 119.768H523.871V121.263H513.061V119.768ZM540.201 110.062H548.78V111.511H540.201V110.062ZM536.613 123.839C538.729 123.471 542.064 122.804 545.284 122.16L545.399 123.678C542.501 124.345 539.419 125.012 537.188 125.518L536.613 123.839ZM539.212 105.715H540.891V123.977H539.212V105.715ZM540.201 105.715H549.585V115.927H540.201V114.409H547.906V107.233H540.201V105.715ZM544.64 114.938C545.629 119.239 547.722 122.827 551.149 124.345C550.758 124.69 550.252 125.334 549.999 125.771C546.411 123.954 544.272 120.067 543.214 115.214L544.64 114.938ZM549.217 116.456L550.574 117.445C549.286 118.641 547.653 119.929 546.365 120.78L545.284 119.906C546.526 119.009 548.251 117.56 549.217 116.456ZM530.863 105.692H536.751V107.256H532.496V125.863H530.863V105.692ZM536.245 105.692H536.567L536.82 105.623L537.993 106.336C537.257 108.245 536.291 110.614 535.44 112.431C537.303 114.34 537.74 115.973 537.74 117.399C537.74 118.664 537.441 119.607 536.751 120.09C536.406 120.32 535.969 120.458 535.486 120.504C534.957 120.573 534.313 120.573 533.738 120.527C533.715 120.113 533.577 119.423 533.301 118.963C533.899 119.032 534.405 119.032 534.819 119.009C535.118 118.986 535.394 118.917 535.624 118.779C536.015 118.526 536.153 117.928 536.13 117.215C536.13 115.95 535.647 114.432 533.853 112.638C534.773 110.545 535.716 107.762 536.245 106.175V105.692ZM555.013 108.383H562.005V123.425H555.013V121.861H560.395V109.924H555.013V108.383ZM553.978 108.383H555.588V125.265H553.978V108.383ZM554.898 114.777H561.246V116.318H554.898V114.777ZM557.497 104.634L559.36 104.979C558.9 106.405 558.325 107.992 557.865 109.027L556.485 108.682C556.876 107.578 557.313 105.83 557.497 104.634ZM565.271 108.314H572.332V109.924H565.271V108.314ZM571.734 108.314H573.344C573.344 108.314 573.344 108.958 573.344 109.211C572.976 119.768 572.654 123.333 571.734 124.46C571.228 125.127 570.699 125.334 569.894 125.403C569.112 125.495 567.755 125.449 566.467 125.38C566.421 124.874 566.214 124.161 565.892 123.701C567.387 123.816 568.767 123.839 569.296 123.839C569.756 123.839 570.032 123.77 570.285 123.471C571.044 122.643 571.412 118.825 571.734 108.682V108.314ZM565.754 104.588L567.41 104.979C566.559 108.406 565.202 111.787 563.615 113.972C563.316 113.696 562.603 113.213 562.189 112.983C563.753 110.959 565.018 107.785 565.754 104.588ZM564.696 114.294L566.03 113.512C567.341 115.145 568.928 117.376 569.664 118.733L568.192 119.653C567.502 118.25 565.961 115.973 564.696 114.294ZM583.211 110.867H596.597V114.34H595.056V112.247H584.729V114.34H583.211V110.867ZM585.12 115.076H588.133V116.387H585.12V115.076ZM589.375 115.398H596.758V116.824H589.375V115.398ZM588.294 120.665H597.034V122.091H588.294V120.665ZM590.226 115.927H591.583V121.125H590.226V115.927ZM593.377 113.581H594.872V125.863H593.377V113.581ZM583.464 118.71L584.361 117.882C585.35 118.526 586.592 119.446 587.19 120.113L586.27 121.056C585.672 120.389 584.476 119.377 583.464 118.71ZM584.407 108.015L585.649 107.44C586.27 108.337 586.868 109.533 587.121 110.315L585.787 110.982C585.557 110.177 584.959 108.958 584.407 108.015ZM588.363 107.647L589.697 107.118C590.203 108.061 590.732 109.326 590.893 110.085L589.513 110.729C589.352 109.901 588.869 108.613 588.363 107.647ZM587.88 115.076H588.156L588.432 115.03L589.352 115.283C588.478 120.688 586.178 124 582.958 125.817C582.797 125.472 582.383 124.92 582.061 124.644C584.936 123.149 587.144 119.952 587.88 115.352V115.076ZM585.281 113.144L586.684 113.397C585.971 116.157 584.729 118.664 583.234 120.32C582.958 120.09 582.337 119.699 581.992 119.538C583.51 117.974 584.637 115.628 585.281 113.144ZM577.461 106.037H582.245V121.884H577.461V120.389H580.75V107.555H577.461V106.037ZM577.553 110.775H581.463V112.247H577.553V110.775ZM577.553 115.49H581.463V116.962H577.553V115.49ZM576.679 106.037H578.174V123.977H576.679V106.037ZM595.033 104.68L596.137 105.807C593.032 106.773 587.765 107.256 583.533 107.417C583.464 107.072 583.28 106.52 583.119 106.175C587.259 105.991 592.411 105.508 595.033 104.68ZM594.251 106.911L595.746 107.509C594.941 108.797 593.998 110.315 593.262 111.304L592.089 110.775C592.825 109.763 593.745 108.061 594.251 106.911ZM600.093 109.878H601.841V125.863H600.093V109.878ZM600.415 105.807L601.749 105.002C602.83 105.945 604.072 107.325 604.647 108.268L603.198 109.211C602.692 108.268 601.473 106.842 600.415 105.807ZM606.073 105.991H618.194V107.601H606.073V105.991ZM617.205 105.991H618.976V123.747C618.976 124.713 618.792 125.173 618.194 125.449C617.573 125.725 616.584 125.748 615.158 125.748C615.089 125.311 614.859 124.598 614.629 124.138C615.595 124.184 616.538 124.161 616.814 124.161C617.136 124.161 617.205 124.046 617.205 123.747V105.991ZM606.694 117.215V120.32H612.237V117.215H606.694ZM606.694 112.707V115.789H612.237V112.707H606.694ZM605.13 111.281H613.87V121.769H605.13V111.281ZM2.208 160.797H20.746V171.63H18.952V162.499H3.933V171.745H2.208V160.797ZM3.128 168.617H19.987V170.296H3.128V168.617ZM10.534 156.68H12.328V177.817H10.534V156.68ZM38.617 157.554L39.514 156.542C40.664 156.91 42.09 157.554 42.826 158.129L41.883 159.279C41.193 158.681 39.79 157.968 38.617 157.554ZM26.726 159.026H44.643V160.452H26.726V159.026ZM28.359 162.016H35.42V163.235H28.359V162.016ZM28.727 164.799H30.176V168.985H28.727V164.799ZM40.94 161.556L42.55 161.947C41.262 165.765 38.939 168.87 36.133 170.871C35.88 170.549 35.236 169.974 34.891 169.675C37.674 167.881 39.836 165.006 40.94 161.556ZM35.512 156.68H37.168C37.421 163.764 40.549 169.514 42.895 169.491C43.47 169.491 43.7 168.663 43.815 166.57C44.16 166.892 44.735 167.191 45.172 167.352C44.896 170.273 44.275 171.078 42.803 171.078C39.169 171.078 35.88 164.408 35.512 156.68ZM28.727 164.799H35.052V169.629H28.727V168.387H33.58V166.018H28.727V164.799ZM29.877 171.745H31.579V175.31C31.579 175.885 31.809 176 33.028 176C33.603 176 36.478 176 37.237 176C38.249 176 38.41 175.724 38.502 173.585C38.87 173.861 39.583 174.091 40.066 174.206C39.836 176.92 39.33 177.564 37.375 177.564C36.846 177.564 33.419 177.564 32.913 177.564C30.475 177.564 29.877 177.104 29.877 175.333V171.745ZM31.671 170.986L32.775 170.02C34.224 170.687 35.926 171.791 36.731 172.688L35.558 173.792C34.776 172.895 33.097 171.722 31.671 170.986ZM39.606 172.435L41.009 171.653C42.665 172.941 44.39 174.85 45.103 176.276L43.562 177.127C42.918 175.724 41.262 173.769 39.606 172.435ZM26.956 171.883L28.474 172.412C27.899 174.275 26.956 176.207 25.323 177.38L23.897 176.414C25.438 175.356 26.45 173.608 26.956 171.883ZM25.921 159.026H27.531V162.499C27.531 165.167 27.117 168.939 25.001 171.538C24.771 171.216 24.081 170.641 23.736 170.457C25.668 168.065 25.921 164.822 25.921 162.476V159.026ZM47.656 163.327H67.344V168.019H65.665V164.868H49.266V168.019H47.656V163.327ZM50.439 167.467H63.296V169.077H50.439V167.467ZM64.837 156.611L66.056 157.991C61.433 158.957 54.257 159.555 48.277 159.785C48.231 159.348 48.024 158.704 47.863 158.313C53.82 158.037 60.904 157.439 64.837 156.611ZM49.795 160.268L51.29 159.831C51.957 160.774 52.647 162.062 52.923 162.89L51.359 163.396C51.083 162.568 50.416 161.257 49.795 160.268ZM55.913 159.785L57.477 159.44C58.006 160.498 58.558 161.901 58.696 162.798L57.063 163.189C56.925 162.292 56.442 160.866 55.913 159.785ZM63.779 159.394L65.527 159.9C64.699 161.372 63.618 163.074 62.79 164.155L61.41 163.672C62.215 162.522 63.227 160.682 63.779 159.394ZM62.675 167.467H63.066L63.388 167.398L64.538 168.111C61.709 173.953 55.2 176.621 48.185 177.794C48.001 177.357 47.518 176.598 47.173 176.23C54.073 175.287 60.283 172.849 62.675 167.766V167.467ZM52.693 168.525C55.315 172.757 60.858 175.333 67.781 176.161C67.436 176.552 66.953 177.288 66.746 177.771C59.731 176.759 54.188 173.953 51.175 169.169L52.693 168.525ZM70.15 158.198H81.949V159.762H70.15V158.198ZM70.84 169.146H81.282V170.71H70.84V169.146ZM75.233 166.409H76.935V175.425L75.233 175.678V166.409ZM69.897 175.425C72.887 175.103 77.556 174.482 81.995 173.884L82.041 175.494C77.763 176.092 73.232 176.736 70.173 177.15L69.897 175.425ZM70.104 164.454C72.726 164.362 76.774 164.178 80.73 163.971L80.684 165.489C76.912 165.719 72.979 165.926 70.242 166.087L70.104 164.454ZM77.441 161.648L78.729 160.935C80.132 162.545 81.742 164.707 82.409 166.087L81.029 166.915C80.362 165.512 78.821 163.281 77.441 161.648ZM74.129 159.026L75.992 159.394C75.187 161.418 74.198 163.948 73.347 165.535L71.829 165.167C72.634 163.534 73.623 160.843 74.129 159.026ZM82.961 159.463H84.617V172.205H82.961V159.463ZM88.389 157.347H90.091V175.517C90.091 176.713 89.815 177.242 89.056 177.518C88.297 177.817 86.894 177.863 85.031 177.863C84.939 177.38 84.686 176.575 84.433 176.046C85.974 176.115 87.4 176.092 87.86 176.092C88.274 176.069 88.389 175.954 88.389 175.54V157.347ZM101.821 169.859H110.975V171.193H101.821V169.859ZM99.682 158.497H113.344V159.808H99.682V158.497ZM100.234 161.28H112.769V162.545H100.234V161.28ZM98.969 164.155H114.011V165.466H98.969V164.155ZM101.821 172.941H111.044V174.229H101.821V172.941ZM100.648 166.823H110.975V168.157H102.258V177.817H100.648V166.823ZM110.561 166.823H112.217V175.908C112.217 176.782 112.033 177.242 111.389 177.495C110.745 177.748 109.71 177.771 108.077 177.748C108.008 177.334 107.778 176.69 107.571 176.253C108.721 176.299 109.825 176.299 110.147 176.276C110.469 176.276 110.561 176.184 110.561 175.885V166.823ZM105.57 156.68H107.272V164.569H105.57V156.68ZM95.473 156.68H97.06V177.817H95.473V156.68ZM93.656 161.119L94.944 161.303C94.875 163.097 94.484 165.765 93.955 167.49L92.621 167.053C93.15 165.466 93.518 162.936 93.656 161.119ZM97.267 160.521L98.417 160.061C98.923 161.119 99.475 162.476 99.682 163.327L98.486 163.902C98.256 163.028 97.727 161.602 97.267 160.521ZM130.617 157.554L131.514 156.542C132.664 156.91 134.09 157.554 134.826 158.129L133.883 159.279C133.193 158.681 131.79 157.968 130.617 157.554ZM118.726 159.026H136.643V160.452H118.726V159.026ZM120.359 162.016H127.42V163.235H120.359V162.016ZM120.727 164.799H122.176V168.985H120.727V164.799ZM132.94 161.556L134.55 161.947C133.262 165.765 130.939 168.87 128.133 170.871C127.88 170.549 127.236 169.974 126.891 169.675C129.674 167.881 131.836 165.006 132.94 161.556ZM127.512 156.68H129.168C129.421 163.764 132.549 169.514 134.895 169.491C135.47 169.491 135.7 168.663 135.815 166.57C136.16 166.892 136.735 167.191 137.172 167.352C136.896 170.273 136.275 171.078 134.803 171.078C131.169 171.078 127.88 164.408 127.512 156.68ZM120.727 164.799H127.052V169.629H120.727V168.387H125.58V166.018H120.727V164.799ZM121.877 171.745H123.579V175.31C123.579 175.885 123.809 176 125.028 176C125.603 176 128.478 176 129.237 176C130.249 176 130.41 175.724 130.502 173.585C130.87 173.861 131.583 174.091 132.066 174.206C131.836 176.92 131.33 177.564 129.375 177.564C128.846 177.564 125.419 177.564 124.913 177.564C122.475 177.564 121.877 177.104 121.877 175.333V171.745ZM123.671 170.986L124.775 170.02C126.224 170.687 127.926 171.791 128.731 172.688L127.558 173.792C126.776 172.895 125.097 171.722 123.671 170.986ZM131.606 172.435L133.009 171.653C134.665 172.941 136.39 174.85 137.103 176.276L135.562 177.127C134.918 175.724 133.262 173.769 131.606 172.435ZM118.956 171.883L120.474 172.412C119.899 174.275 118.956 176.207 117.323 177.38L115.897 176.414C117.438 175.356 118.45 173.608 118.956 171.883ZM117.921 159.026H119.531V162.499C119.531 165.167 119.117 168.939 117.001 171.538C116.771 171.216 116.081 170.641 115.736 170.457C117.668 168.065 117.921 164.822 117.921 162.476V159.026ZM141.013 160.383H148.005V175.425H141.013V173.861H146.395V161.924H141.013V160.383ZM139.978 160.383H141.588V177.265H139.978V160.383ZM140.898 166.777H147.246V168.318H140.898V166.777ZM143.497 156.634L145.36 156.979C144.9 158.405 144.325 159.992 143.865 161.027L142.485 160.682C142.876 159.578 143.313 157.83 143.497 156.634ZM151.271 160.314H158.332V161.924H151.271V160.314ZM157.734 160.314H159.344C159.344 160.314 159.344 160.958 159.344 161.211C158.976 171.768 158.654 175.333 157.734 176.46C157.228 177.127 156.699 177.334 155.894 177.403C155.112 177.495 153.755 177.449 152.467 177.38C152.421 176.874 152.214 176.161 151.892 175.701C153.387 175.816 154.767 175.839 155.296 175.839C155.756 175.839 156.032 175.77 156.285 175.471C157.044 174.643 157.412 170.825 157.734 160.682V160.314ZM151.754 156.588L153.41 156.979C152.559 160.406 151.202 163.787 149.615 165.972C149.316 165.696 148.603 165.213 148.189 164.983C149.753 162.959 151.018 159.785 151.754 156.588ZM150.696 166.294L152.03 165.512C153.341 167.145 154.928 169.376 155.664 170.733L154.192 171.653C153.502 170.25 151.961 167.973 150.696 166.294ZM162.196 165.029H182.827V166.685H162.196V165.029ZM163.622 158.221H181.493V159.877H163.622V158.221ZM172.753 167.628H174.547V174.965C174.547 175.747 174.777 175.908 175.996 175.908C176.525 175.908 179.331 175.908 180.067 175.908C181.217 175.908 181.378 175.402 181.516 172.228C181.93 172.55 182.712 172.849 183.195 172.941C182.942 176.644 182.413 177.61 180.182 177.61C179.653 177.61 176.318 177.61 175.812 177.61C173.42 177.61 172.753 177.035 172.753 174.965V167.628ZM171.304 158.888H173.052C172.891 167.766 172.661 174.758 163.024 177.909C162.817 177.449 162.311 176.805 161.92 176.437C171.189 173.608 171.189 167.191 171.304 158.888ZM195.201 162.062H203.78V163.511H195.201V162.062ZM191.613 175.839C193.729 175.471 197.064 174.804 200.284 174.16L200.399 175.678C197.501 176.345 194.419 177.012 192.188 177.518L191.613 175.839ZM194.212 157.715H195.891V175.977H194.212V157.715ZM195.201 157.715H204.585V167.927H195.201V166.409H202.906V159.233H195.201V157.715ZM199.64 166.938C200.629 171.239 202.722 174.827 206.149 176.345C205.758 176.69 205.252 177.334 204.999 177.771C201.411 175.954 199.272 172.067 198.214 167.214L199.64 166.938ZM204.217 168.456L205.574 169.445C204.286 170.641 202.653 171.929 201.365 172.78L200.284 171.906C201.526 171.009 203.251 169.56 204.217 168.456ZM185.863 157.692H191.751V159.256H187.496V177.863H185.863V157.692ZM191.245 157.692H191.567L191.82 157.623L192.993 158.336C192.257 160.245 191.291 162.614 190.44 164.431C192.303 166.34 192.74 167.973 192.74 169.399C192.74 170.664 192.441 171.607 191.751 172.09C191.406 172.32 190.969 172.458 190.486 172.504C189.957 172.573 189.313 172.573 188.738 172.527C188.715 172.113 188.577 171.423 188.301 170.963C188.899 171.032 189.405 171.032 189.819 171.009C190.118 170.986 190.394 170.917 190.624 170.779C191.015 170.526 191.153 169.928 191.13 169.215C191.13 167.95 190.647 166.432 188.853 164.638C189.773 162.545 190.716 159.762 191.245 158.175V157.692ZM215.441 171.308H228.965V172.895H215.441V171.308ZM222.571 164.04H228.528V165.604H222.571V164.04ZM221.835 158.98H223.514V172.044H221.835V158.98ZM217.327 162.706H218.96V172.228H217.327V162.706ZM227.033 156.772L228.298 158.152C225.239 159.118 220.501 159.785 216.522 160.13C216.476 159.739 216.223 159.118 216.039 158.727C219.926 158.336 224.503 157.646 227.033 156.772ZM207.92 158.152H213.279V159.693H207.92V158.152ZM212.819 158.152H213.072L213.348 158.06L214.567 158.474C213.371 160.889 211.439 164.523 209.829 167.283L208.265 166.823C209.875 164.086 211.876 160.314 212.819 158.359V158.152ZM210.105 164.753H214.337V166.294H209.875L210.105 164.753ZM213.693 164.753H214.015L214.337 164.707L215.372 164.983C214.567 171.722 212.313 175.839 209.07 177.955C208.794 177.587 208.15 176.989 207.759 176.759C210.933 174.827 213.026 171.101 213.693 165.098V164.753ZM210.197 168.088C212.129 174.505 216.591 175.609 222.433 175.609C223.399 175.609 228.045 175.609 229.264 175.586C228.988 175.977 228.666 176.782 228.574 177.265H222.387C215.74 177.265 211.117 175.885 208.84 168.594L210.197 168.088ZM240.051 158.819H250.332V160.291H240.051V158.819ZM244.214 156.703H245.939V163.051H244.214V156.703ZM240.879 165.604L241.707 164.753C242.719 165.305 243.961 166.156 244.559 166.8L243.708 167.743C243.11 167.099 241.914 166.202 240.879 165.604ZM239.223 167.697L240.051 166.823C241.086 167.375 242.374 168.272 243.018 168.939L242.144 169.928C241.546 169.261 240.281 168.318 239.223 167.697ZM239.2 162.361H250.263V163.856H239.2V162.361ZM249.918 162.361H250.171L250.447 162.292L251.528 162.568C251.068 164.109 250.47 165.857 249.918 166.938L248.561 166.57C248.998 165.558 249.573 163.948 249.918 162.614V162.361ZM238.74 170.25H251.574V171.768H238.74V170.25ZM244.904 164.776H246.514V167.536C246.514 170.917 245.778 175.103 239.315 177.886C239.108 177.518 238.625 176.92 238.303 176.621C244.306 174.091 244.904 170.411 244.904 167.49V164.776ZM245.824 173.585L246.882 172.642C248.676 173.838 250.93 175.609 251.988 176.805L250.884 177.909C249.826 176.69 247.641 174.85 245.824 173.585ZM231.541 171.814C231.472 171.492 231.219 170.756 231.035 170.342C231.518 170.25 232.024 169.675 232.714 168.801C233.427 167.95 235.727 164.707 237.199 161.556L238.556 162.361C236.877 165.512 234.738 168.686 232.668 170.94V170.986C232.668 170.986 231.541 171.492 231.541 171.814ZM231.541 171.814L231.426 170.365L232.208 169.79L238.027 168.341C238.027 168.778 238.073 169.445 238.142 169.79C232.737 171.239 232.001 171.515 231.541 171.814ZM231.403 166.294C231.311 165.949 231.058 165.167 230.851 164.753C231.265 164.638 231.656 164.109 232.162 163.327C232.691 162.545 234.37 159.532 235.29 156.726L236.808 157.439C235.635 160.291 234.002 163.281 232.392 165.397V165.42C232.392 165.42 231.403 165.949 231.403 166.294ZM231.403 166.294L231.357 165.029L232.162 164.523L236.141 164.109C236.049 164.546 236.003 165.167 236.003 165.512C232.392 165.972 231.771 166.11 231.403 166.294ZM230.966 174.689C232.76 174.114 235.405 173.148 238.004 172.205L238.28 173.631C235.865 174.574 233.335 175.54 231.38 176.299L230.966 174.689ZM257.462 170.411C259.394 170.411 260.958 171.975 260.958 173.907C260.958 175.839 259.394 177.403 257.462 177.403C255.53 177.403 253.943 175.839 253.943 173.907C253.943 171.975 255.53 170.411 257.462 170.411ZM257.462 176.23C258.75 176.23 259.785 175.195 259.785 173.907C259.785 172.619 258.75 171.584 257.462 171.584C256.174 171.584 255.116 172.619 255.116 173.907C255.116 175.195 256.174 176.23 257.462 176.23Z" fill="#757575"/>
</svg>
