<svg width="282" height="46" viewBox="0 0 282 46" fill="none" xmlns="http://www.w3.org/2000/svg">
<path d="M3.84 11.528H32.064V14.984H3.84V11.528ZM2.064 23.24H34.032V26.648H2.064V23.24ZM19.728 24.392C21.936 32.84 26.88 39.128 35.136 41.672C34.272 42.44 33.216 43.88 32.688 44.84C24.096 41.72 19.104 34.808 16.608 25.064L19.728 24.392ZM26.832 0.775997L30.576 2.072C28.848 5.144 26.736 8.696 25.056 10.952L22.128 9.752C23.712 7.352 25.728 3.464 26.832 0.775997ZM5.808 2.744L8.736 1.256C10.752 3.704 12.864 7.112 13.728 9.368L10.608 11.096C9.792 8.792 7.728 5.288 5.808 2.744ZM15.84 12.344H19.584V22.328C19.584 29.72 17.808 38.888 3.072 45.032C2.544 44.168 1.44 42.92 0.576 42.2C14.88 36.776 15.84 28.52 15.84 22.328V12.344ZM44.592 19.88H87.408V23.432H44.592V19.88ZM64.512 5.336H68.304V39.608C68.304 42.248 67.584 43.352 65.76 43.976C63.984 44.552 60.816 44.648 55.92 44.648C55.68 43.592 54.96 41.912 54.432 40.856C58.368 40.952 62.016 40.952 63.12 40.904C64.128 40.856 64.512 40.568 64.512 39.608V5.336ZM47.952 4.136H84.048V7.688H47.952V4.136ZM94.704 3.176H98.016V32.264H94.704V3.176ZM96.624 3.176H108.24V29.576H96.624V26.36H104.88V6.392H96.624V3.176ZM112.704 12.872H115.776V28.04H112.704V12.872ZM114.528 12.872H125.376V25.544H114.528V22.76H122.304V15.656H114.528V12.872ZM96.48 14.408H106.704V17.576H96.48V14.408ZM115.728 0.727998L119.136 1.544C117.168 6.968 113.952 12.248 110.64 15.656C110.016 15.08 108.576 13.976 107.712 13.448C111.072 10.376 114 5.576 115.728 0.727998ZM115.44 5.672H131.664V8.84H113.52L115.44 5.672ZM130.512 5.672H134.064C134.064 5.672 134.016 6.824 134.016 7.352C133.44 23.96 132.864 29.576 131.376 31.448C130.512 32.6 129.6 32.984 128.112 33.128C126.816 33.224 124.512 33.176 122.208 33.08C122.112 32.072 121.776 30.68 121.2 29.768C123.552 29.96 125.76 29.96 126.624 29.96C127.44 29.96 127.92 29.864 128.304 29.336C129.456 28.04 130.032 22.232 130.512 6.344V5.672ZM106.56 35.384L109.824 35.096C110.544 38.024 111.072 41.816 111.12 44.024L107.568 44.552C107.568 42.2 107.184 38.36 106.56 35.384ZM116.352 35.384L119.712 34.808C121.008 37.64 122.4 41.432 122.928 43.736L119.328 44.504C118.896 42.152 117.6 38.312 116.352 35.384ZM126.144 35.048L129.36 33.944C131.808 36.872 134.64 40.952 135.888 43.64L132.48 44.84C131.28 42.248 128.544 38.072 126.144 35.048ZM98.16 34.088L101.664 34.952C100.416 38.504 98.304 42.44 95.952 44.888L92.544 43.448C94.8 41.336 96.96 37.592 98.16 34.088ZM144.288 8.408H158.88V39.8H144.288V36.536H155.52V11.624H144.288V8.408ZM142.128 8.408H145.488V43.64H142.128V8.408ZM144.048 21.752H157.296V24.968H144.048V21.752ZM149.472 0.583997L153.36 1.304C152.4 4.28 151.2 7.592 150.24 9.752L147.36 9.032C148.176 6.728 149.088 3.08 149.472 0.583997ZM165.696 8.264H180.432V11.624H165.696V8.264ZM179.184 8.264H182.544C182.544 8.264 182.544 9.608 182.544 10.136C181.776 32.168 181.104 39.608 179.184 41.96C178.128 43.352 177.024 43.784 175.344 43.928C173.712 44.12 170.88 44.024 168.192 43.88C168.096 42.824 167.664 41.336 166.992 40.376C170.112 40.616 172.992 40.664 174.096 40.664C175.056 40.664 175.632 40.52 176.16 39.896C177.744 38.168 178.512 30.2 179.184 9.032V8.264ZM166.704 0.487998L170.16 1.304C168.384 8.456 165.552 15.512 162.24 20.072C161.616 19.496 160.128 18.488 159.264 18.008C162.528 13.784 165.168 7.16 166.704 0.487998ZM164.496 20.744L167.28 19.112C170.016 22.52 173.328 27.176 174.864 30.008L171.792 31.928C170.352 29 167.136 24.248 164.496 20.744ZM200.352 13.64L203.904 14.744C200.544 21.416 195.36 27.8 190.272 31.928C189.648 31.304 188.16 30.008 187.296 29.432C192.48 25.688 197.376 19.784 200.352 13.64ZM210.528 14.072H214.08V38.36C214.08 40.376 214.56 40.76 217.008 40.76C218.208 40.76 224.16 40.76 225.696 40.76C228 40.76 228.384 39.512 228.672 33.32C229.488 33.944 230.976 34.568 231.936 34.808C231.456 42.056 230.4 44.168 225.888 44.168C224.832 44.168 217.776 44.168 216.72 44.168C211.872 44.168 210.528 42.92 210.528 38.312V14.072ZM227.184 18.248L229.968 20.984C225.456 23.96 218.88 26.888 213.072 29.24C212.88 28.472 212.256 27.272 211.776 26.552C217.344 24.248 223.584 21.032 227.184 18.248ZM188.832 5.096H231.072V8.552H188.832V5.096ZM200.4 0.679998H203.952V13.64H200.4V0.679998ZM216.144 0.679998H219.696V13.928H216.144V0.679998ZM196.368 22.76L199.872 19.208V19.256V44.84H196.368V22.76ZM257.472 3.272H279.6V6.536H257.472V3.272ZM261.888 4.568H265.152C264.672 16.136 263.616 32.168 262.656 41.048H259.248C260.304 31.976 261.504 15.896 261.888 4.568ZM255.792 40.52C259.968 39.896 266.4 38.792 272.736 37.736L272.928 40.664C267.264 41.768 261.264 42.92 256.8 43.736L255.792 40.52ZM265.008 22.088L267.408 21.32C269.232 24.68 270.912 29.048 271.44 31.928L268.848 32.744C268.32 29.864 266.736 25.4 265.008 22.088ZM272.688 13.496H276C275.952 27.512 276 41.528 278.4 41.528C279.024 41.528 279.216 38.504 279.264 34.232C279.936 35 280.8 35.816 281.472 36.248C281.184 42.584 280.56 44.888 278.064 44.888C272.784 44.888 272.88 30.728 272.688 13.496ZM236.736 10.232H258.048V13.448H236.736V10.232ZM235.872 23.048H258.576V26.36H235.872V23.048ZM253.104 0.727998L256.56 1.688C255.264 4.52 253.68 7.928 252.432 10.04L249.744 9.176C250.944 6.92 252.384 3.272 253.104 0.727998ZM238.752 1.736L241.584 0.823999C242.976 3.368 244.32 6.728 244.8 8.936L241.776 9.944C241.344 7.736 240.096 4.28 238.752 1.736ZM250.224 11.48H253.488V44.792H250.224V11.48ZM241.056 11.48H244.272V22.856C244.272 30.584 243.6 38.648 238.32 45.128C237.744 44.408 236.496 43.4 235.68 42.92C240.528 37.016 241.056 29.72 241.056 22.856V11.48ZM263.28 13.496H274.56V16.712H262.992L263.28 13.496Z" fill="#757575"/>
</svg>
