<svg width="114" height="38" viewBox="0 0 114 38" fill="none" xmlns="http://www.w3.org/2000/svg">
<path d="M3.2 9.44H26.72V12.32H3.2V9.44ZM1.72 19.2H28.36V22.04H1.72V19.2ZM16.44 20.16C18.28 27.2 22.4 32.44 29.28 34.56C28.56 35.2 27.68 36.4 27.24 37.2C20.08 34.6 15.92 28.84 13.84 20.72L16.44 20.16ZM22.36 0.479998L25.48 1.56C24.04 4.12 22.28 7.08 20.88 8.96L18.44 7.96C19.76 5.96 21.44 2.72 22.36 0.479998ZM4.84 2.12L7.28 0.879997C8.96 2.92 10.72 5.76 11.44 7.64L8.84 9.08C8.16 7.16 6.44 4.24 4.84 2.12ZM13.2 10.12H16.32V18.44C16.32 24.6 14.84 32.24 2.56 37.36C2.12 36.64 1.2 35.6 0.48 35C12.4 30.48 13.2 23.6 13.2 18.44V10.12ZM37.16 16.4H72.84V19.36H37.16V16.4ZM53.76 4.28H56.92V32.84C56.92 35.04 56.32 35.96 54.8 36.48C53.32 36.96 50.68 37.04 46.6 37.04C46.4 36.16 45.8 34.76 45.36 33.88C48.64 33.96 51.68 33.96 52.6 33.92C53.44 33.88 53.76 33.64 53.76 32.84V4.28ZM39.96 3.28H70.04V6.24H39.96V3.28ZM78.92 2.48H81.68V26.72H78.92V2.48ZM80.52 2.48H90.2V24.48H80.52V21.8H87.4V5.16H80.52V2.48ZM93.92 10.56H96.48V23.2H93.92V10.56ZM95.44 10.56H104.48V21.12H95.44V18.8H101.92V12.88H95.44V10.56ZM80.4 11.84H88.92V14.48H80.4V11.84ZM96.44 0.439998L99.28 1.12C97.64 5.64 94.96 10.04 92.2 12.88C91.68 12.4 90.48 11.48 89.76 11.04C92.56 8.48 95 4.48 96.44 0.439998ZM96.2 4.56H109.72V7.2H94.6L96.2 4.56ZM108.76 4.56H111.72C111.72 4.56 111.68 5.52 111.68 5.96C111.2 19.8 110.72 24.48 109.48 26.04C108.76 27 108 27.32 106.76 27.44C105.68 27.52 103.76 27.48 101.84 27.4C101.76 26.56 101.48 25.4 101 24.64C102.96 24.8 104.8 24.8 105.52 24.8C106.2 24.8 106.6 24.72 106.92 24.28C107.88 23.2 108.36 18.36 108.76 5.12V4.56ZM88.8 29.32L91.52 29.08C92.12 31.52 92.56 34.68 92.6 36.52L89.64 36.96C89.64 35 89.32 31.8 88.8 29.32ZM96.96 29.32L99.76 28.84C100.84 31.2 102 34.36 102.44 36.28L99.44 36.92C99.08 34.96 98 31.76 96.96 29.32ZM105.12 29.04L107.8 28.12C109.84 30.56 112.2 33.96 113.24 36.2L110.4 37.2C109.4 35.04 107.12 31.56 105.12 29.04ZM81.8 28.24L84.72 28.96C83.68 31.92 81.92 35.2 79.96 37.24L77.12 36.04C79 34.28 80.8 31.16 81.8 28.24Z" fill="#666666"/>
</svg>
