<svg width="1410" height="84" viewBox="0 0 1410 84" fill="none" xmlns="http://www.w3.org/2000/svg">
<line x1="0.00141835" y1="63" x2="1410" y2="64.9999" stroke="#868686" stroke-opacity="0.6" stroke-width="2"/>
<path d="M17.856 10.676C14.868 15.212 8.784 20.936 2.376 24.68C1.98 24.068 1.224 23.096 0.612 22.52C7.164 18.812 13.428 12.728 16.272 7.868H19.08C23.004 13.448 29.592 19.028 35.496 22.052C34.812 22.736 34.164 23.672 33.66 24.464C27.792 21.08 21.168 15.392 17.856 10.676ZM16.416 19.676H19.26V40.916H16.416V19.676ZM52.128 8.876H55.116C54.828 14.528 54.288 32.492 39.384 40.592C38.916 39.908 38.016 39.08 37.188 38.468C51.876 30.98 51.876 13.664 52.128 8.876ZM55.008 9.596C55.116 12.404 56.16 31.52 70.992 38.324C70.2 38.936 69.372 39.836 68.94 40.592C53.676 33.284 52.668 13.16 52.416 9.848L55.008 9.596ZM75.456 14.204H104.472V31.16H101.664V16.868H78.156V31.34H75.456V14.204ZM76.896 26.444H103.284V29.072H76.896V26.444ZM88.488 7.76H91.296V40.844H88.488V7.76ZM118.944 17.84H121.716V35.912C121.716 37.604 122.148 37.928 124.128 37.928C125.028 37.928 129.564 37.928 130.788 37.928C132.912 37.928 133.236 36.596 133.524 30.368C134.172 30.908 135.288 31.412 136.08 31.592C135.684 38.396 134.856 40.412 130.932 40.412C130.068 40.412 124.704 40.412 123.876 40.412C120.06 40.412 118.944 39.44 118.944 35.912V17.84ZM119.232 9.992L120.924 7.94C125.28 9.416 130.5 12.008 133.344 13.952L131.616 16.328C128.844 14.24 123.588 11.54 119.232 9.992ZM112.932 20.72L115.524 21.26C114.984 26.084 113.868 31.844 111.276 35.3L108.828 33.824C111.24 30.656 112.428 25.4 112.932 20.72ZM133.92 20.756L136.332 19.568C139.572 23.672 142.272 29.108 143.172 32.924L140.472 34.22C139.68 30.44 136.98 24.824 133.92 20.756Z" fill="#666666"/>
</svg>
