<svg width="1410" height="88" viewBox="0 0 1410 88" fill="none" xmlns="http://www.w3.org/2000/svg">
<line x1="-0.00141844" y1="81" x2="1410" y2="79" stroke="#868686" stroke-opacity="0.6" stroke-width="2"/>
<path d="M11.544 20.88V22.2L3.24 34.224H11.664V36H0.624V34.44L8.784 22.656H0.984V20.88H11.544ZM20.0691 20.664C21.0931 20.664 22.0371 20.832 22.9011 21.168C23.7651 21.488 24.5091 21.976 25.1331 22.632C25.7731 23.272 26.2691 24.08 26.6211 25.056C26.9731 26.016 27.1491 27.144 27.1491 28.44C27.1491 29.704 26.9651 30.824 26.5971 31.8C26.2291 32.76 25.7251 33.568 25.0851 34.224C24.4451 34.88 23.6851 35.376 22.8051 35.712C21.9411 36.048 20.9971 36.216 19.9731 36.216C18.9491 36.216 18.0051 36.056 17.1411 35.736C16.2771 35.4 15.5251 34.912 14.8851 34.272C14.2611 33.616 13.7731 32.808 13.4211 31.848C13.0691 30.872 12.8931 29.736 12.8931 28.44C12.8931 27.176 13.0771 26.064 13.4451 25.104C13.8131 24.128 14.3171 23.312 14.9571 22.656C15.5971 22 16.3491 21.504 17.2131 21.168C18.0931 20.832 19.0451 20.664 20.0691 20.664ZM15.2931 28.44C15.2931 29.464 15.4131 30.352 15.6531 31.104C15.9091 31.856 16.2531 32.48 16.6851 32.976C17.1171 33.472 17.6211 33.84 18.1971 34.08C18.7891 34.32 19.4131 34.44 20.0691 34.44C20.7251 34.44 21.3331 34.32 21.8931 34.08C22.4691 33.84 22.9651 33.472 23.3811 32.976C23.8131 32.48 24.1491 31.856 24.3891 31.104C24.6291 30.352 24.7491 29.464 24.7491 28.44C24.7491 27.384 24.6211 26.48 24.3651 25.728C24.1251 24.976 23.7891 24.36 23.3571 23.88C22.9251 23.384 22.4131 23.024 21.8211 22.8C21.2451 22.56 20.6291 22.44 19.9731 22.44C19.3171 22.44 18.7011 22.56 18.1251 22.8C17.5491 23.04 17.0531 23.408 16.6371 23.904C16.2211 24.4 15.8931 25.024 15.6531 25.776C15.4131 26.528 15.2931 27.416 15.2931 28.44ZM36.5222 20.664C37.5462 20.664 38.4902 20.832 39.3542 21.168C40.2182 21.488 40.9622 21.976 41.5862 22.632C42.2262 23.272 42.7222 24.08 43.0742 25.056C43.4262 26.016 43.6022 27.144 43.6022 28.44C43.6022 29.704 43.4182 30.824 43.0502 31.8C42.6822 32.76 42.1782 33.568 41.5382 34.224C40.8982 34.88 40.1382 35.376 39.2582 35.712C38.3942 36.048 37.4502 36.216 36.4262 36.216C35.4022 36.216 34.4582 36.056 33.5942 35.736C32.7302 35.4 31.9782 34.912 31.3382 34.272C30.7142 33.616 30.2262 32.808 29.8742 31.848C29.5222 30.872 29.3462 29.736 29.3462 28.44C29.3462 27.176 29.5302 26.064 29.8982 25.104C30.2662 24.128 30.7702 23.312 31.4102 22.656C32.0502 22 32.8022 21.504 33.6662 21.168C34.5462 20.832 35.4982 20.664 36.5222 20.664ZM31.7462 28.44C31.7462 29.464 31.8662 30.352 32.1062 31.104C32.3622 31.856 32.7062 32.48 33.1382 32.976C33.5702 33.472 34.0742 33.84 34.6502 34.08C35.2422 34.32 35.8662 34.44 36.5222 34.44C37.1782 34.44 37.7862 34.32 38.3462 34.08C38.9222 33.84 39.4182 33.472 39.8342 32.976C40.2662 32.48 40.6022 31.856 40.8422 31.104C41.0822 30.352 41.2022 29.464 41.2022 28.44C41.2022 27.384 41.0742 26.48 40.8182 25.728C40.5782 24.976 40.2422 24.36 39.8102 23.88C39.3782 23.384 38.8662 23.024 38.2742 22.8C37.6982 22.56 37.0822 22.44 36.4262 22.44C35.7702 22.44 35.1542 22.56 34.5782 22.8C34.0022 23.04 33.5062 23.408 33.0902 23.904C32.6742 24.4 32.3462 25.024 32.1062 25.776C31.8662 26.528 31.7462 27.416 31.7462 28.44Z" fill="#666666"/>
<path d="M1271.88 20.62V22.68H1282.12V20.62H1271.88ZM1271.88 17.4V19.44H1282.12V17.4H1271.88ZM1270.4 16.18H1283.66V23.9H1270.4V16.18ZM1267.8 31.24H1286.2V32.68H1267.8V31.24ZM1274.02 24.7H1275.46V32H1274.02V24.7ZM1278.4 24.7H1279.84V32H1278.4V24.7ZM1283.4 25.42L1284.68 26C1283.84 27.4 1282.7 28.98 1281.78 30.06L1280.62 29.5C1281.54 28.4 1282.74 26.68 1283.4 25.42ZM1269.46 26.06L1270.64 25.56C1271.48 26.82 1272.5 28.54 1272.94 29.56L1271.7 30.14C1271.26 29.12 1270.28 27.34 1269.46 26.06ZM1296.2 22.34H1297.82V31.66C1297.82 32.62 1297.58 33.08 1296.88 33.34C1296.16 33.56 1294.98 33.58 1293.22 33.58C1293.14 33.14 1292.9 32.48 1292.66 32.02C1294.02 32.06 1295.34 32.06 1295.72 32.04C1296.1 32.04 1296.2 31.94 1296.2 31.62V22.34ZM1291.66 25L1293.22 25.4C1292.24 27.86 1290.66 30.26 1289.06 31.8C1288.76 31.52 1288.08 31.1 1287.68 30.88C1289.32 29.46 1290.8 27.26 1291.66 25ZM1300.66 25.6L1302.04 25.02C1303.52 26.9 1305.08 29.44 1305.66 31.14L1304.16 31.8C1303.62 30.14 1302.12 27.52 1300.66 25.6ZM1289.98 16.7H1304.04V18.18H1289.98V16.7ZM1288.18 21.54H1305.82V23.04H1288.18V21.54ZM1319.7 15.2H1321.12V29.14H1319.7V15.2ZM1313.4 23.46L1324.18 18.92L1324.74 20.2L1313.98 24.78L1313.4 23.46ZM1315.56 17.08H1317V30.46C1317 31.56 1317.24 31.8 1318.58 31.8C1319.24 31.8 1322.6 31.8 1323.4 31.8C1324.58 31.8 1324.78 31.26 1324.92 28.96C1325.28 29.2 1325.86 29.44 1326.28 29.52C1326.04 32.28 1325.56 33.16 1323.46 33.16C1322.92 33.16 1319.04 33.16 1318.54 33.16C1316.24 33.16 1315.56 32.62 1315.56 30.44V17.08ZM1323.92 19.12H1323.74L1324.1 18.82L1324.36 18.6L1325.42 19L1325.36 19.28C1325.36 23.04 1325.3 26.04 1325.16 26.82C1325.04 27.62 1324.66 28 1324.08 28.14C1323.54 28.28 1322.74 28.28 1322.2 28.28C1322.14 27.88 1322.02 27.32 1321.84 26.98C1322.3 27 1322.96 27 1323.18 27C1323.48 27 1323.68 26.92 1323.78 26.46C1323.9 25.94 1323.92 23.1 1323.92 19.12ZM1307.82 20.02H1314.18V21.44H1307.82V20.02ZM1310.4 15.44H1311.82V28.42H1310.4V15.44ZM1307.64 28.94C1309.26 28.34 1311.72 27.3 1314.1 26.28L1314.42 27.62C1312.28 28.64 1310.02 29.66 1308.24 30.42L1307.64 28.94ZM1340.62 22.14H1345.94V23.58H1340.62V22.14ZM1333.22 31.46H1346.24V32.88H1333.22V31.46ZM1340.1 15.34H1341.62V32.18H1340.1V15.34ZM1335.68 19.58H1337.14V32.1H1335.68V19.58ZM1327.88 20.02H1334.66V21.44H1327.88V20.02ZM1330.62 15.46H1332.04V28.26H1330.62V15.46ZM1327.68 28.76C1329.42 28.16 1332.06 27.1 1334.58 26.12L1334.86 27.44C1332.58 28.44 1330.1 29.48 1328.24 30.24L1327.68 28.76ZM1360.9 24.4C1360.9 20.5 1362.48 17.34 1364.88 14.9L1366.08 15.52C1363.76 17.9 1362.34 20.84 1362.34 24.4C1362.34 27.98 1363.76 30.92 1366.08 33.3L1364.88 33.92C1362.48 31.48 1360.9 28.32 1360.9 24.4ZM1373.1 30.3C1373.11 30.58 1373.27 30.7533 1373.56 30.82L1375.24 31.16C1375.53 31.2133 1375.68 31.3667 1375.68 31.62C1375.68 31.8733 1375.51 32 1375.18 32H1368.86C1368.53 32 1368.36 31.8733 1368.36 31.62C1368.36 31.38 1368.51 31.2267 1368.82 31.16L1370.52 30.84C1370.81 30.7733 1370.97 30.5933 1370.98 30.3V21.7C1370.98 21.38 1370.82 21.22 1370.5 21.22H1370.46L1369.4 21.32C1369.25 21.32 1369.13 21.3 1369.02 21.26C1368.93 21.2067 1368.88 21.0933 1368.88 20.92C1368.88 20.6533 1369.03 20.48 1369.32 20.4L1372.56 19.58C1372.63 19.5533 1372.68 19.54 1372.72 19.54C1372.77 19.54 1372.83 19.54 1372.88 19.54C1372.97 19.54 1373.03 19.5533 1373.06 19.58C1373.13 19.6467 1373.16 19.8067 1373.16 20.06L1373.1 22.42V30.3ZM1382.94 24.4C1382.94 28.32 1381.36 31.48 1378.96 33.92L1377.76 33.3C1380.08 30.92 1381.5 27.98 1381.5 24.4C1381.5 20.84 1380.08 17.9 1377.76 15.52L1378.96 14.9C1381.36 17.34 1382.94 20.5 1382.94 24.4Z" fill="black" fill-opacity="0.6"/>
<path d="M1267 35H1367V36H1267V35ZM1367 34.04H1376.86V36.08H1367V34.04ZM1376.86 35H1396.86V36H1376.86V35Z" fill="black" fill-opacity="0.6"/>
</svg>
